<?xml version="1.0" encoding="UTF-8" standalone="no"?>
<svg
   width="16"
   height="16"
   viewBox="0 0 16 16"
   fill="none"
   version="1.1"
   id="svg2"
   sodipodi:docname="ColumnClosed.svg"
   inkscape:version="1.3.2 (091e20e, 2023-11-25, custom)"
   xmlns:inkscape="http://www.inkscape.org/namespaces/inkscape"
   xmlns:sodipodi="http://sodipodi.sourceforge.net/DTD/sodipodi-0.dtd"
   xmlns="http://www.w3.org/2000/svg"
   xmlns:svg="http://www.w3.org/2000/svg">
  <defs
     id="defs2" />
  <sodipodi:namedview
     id="namedview2"
     pagecolor="#505050"
     bordercolor="#ffffff"
     borderopacity="1"
     inkscape:showpageshadow="0"
     inkscape:pageopacity="0"
     inkscape:pagecheckerboard="1"
     inkscape:deskcolor="#505050"
     inkscape:zoom="25.40625"
     inkscape:cx="7.301353"
     inkscape:cy="5.6875769"
     inkscape:window-width="1920"
     inkscape:window-height="1009"
     inkscape:window-x="-8"
     inkscape:window-y="-8"
     inkscape:window-maximized="1"
     inkscape:current-layer="svg2" />
  <rect
     style="display:inline;fill:#ffffff;fill-opacity:1;opacity:0.5"
     id="rect3"
     width="11.611316"
     height="8.2263222"
     x="2.1254613"
     y="5.5498157" />
  <path
     d="M8 4L6.33 2.33C6.12 2.12 5.83 2 5.54 2H1.12C0.5 2 0 2.5 0 3.12V4H8Z"
     fill="white"
     id="path1" />
  <path
     d="m 0,5 v 7.880859 C 0,13.500859 0.49914124,14 1.1191406,14 H 14.880859 C 15.500859,14 16,13.500859 16,12.880859 V 6.1191406 C 16,5.4991412 15.500859,5 14.880859,5 Z M 7.9941406,5.9277344 H 8.4765625 V 13.560547 H 7.9941406 L 5.6132812,11.179688 V 8.3085938 Z M 9.3671875,6.1835937 A 3.817309,3.8173091 0 0 1 11.816406,9.7441406 3.817309,3.8173091 0 0 1 9.3671875,13.300781 L 9.25,12.835938 A 3.3401453,3.3401455 0 0 0 11.339844,9.7441406 3.3401453,3.3401455 0 0 0 9.25,6.6484375 Z M 9.5859375,7.96875 A 2.3858181,2.3858181 0 0 1 10.386719,9.7441406 2.3858181,2.3858181 0 0 1 9.5878906,11.521484 L 9.3320313,11.109375 A 1.9086545,1.9086545 0 0 0 9.9082031,9.7441406 1.9086545,1.9086545 0 0 0 9.328125,8.3808594 Z M 4.1835937,8.3125 h 0.953125 v 2.863281 h -0.953125 z"
     style="fill:#ffffff"
     id="path3" />
</svg>
