<?xml version="1.0" encoding="UTF-8" standalone="no"?>
<svg
   width="16"
   height="16"
   viewBox="0 0 16 16"
   fill="none"
   version="1.1"
   id="svg2"
   sodipodi:docname="ColumnClosed.svg"
   inkscape:version="1.3.2 (091e20e, 2023-11-25, custom)"
   xmlns:inkscape="http://www.inkscape.org/namespaces/inkscape"
   xmlns:sodipodi="http://sodipodi.sourceforge.net/DTD/sodipodi-0.dtd"
   xmlns="http://www.w3.org/2000/svg"
   xmlns:svg="http://www.w3.org/2000/svg">
  <defs
     id="defs2" />
  <sodipodi:namedview
     id="namedview2"
     pagecolor="#505050"
     bordercolor="#ffffff"
     borderopacity="1"
     inkscape:showpageshadow="0"
     inkscape:pageopacity="0"
     inkscape:pagecheckerboard="1"
     inkscape:deskcolor="#505050"
     inkscape:zoom="50.8125"
     inkscape:cx="8"
     inkscape:cy="8"
     inkscape:window-width="1920"
     inkscape:window-height="1009"
     inkscape:window-x="-8"
     inkscape:window-y="-8"
     inkscape:window-maximized="1"
     inkscape:current-layer="svg2" />
  <rect
     style="fill:#ffffff;opacity:0.5"
     id="rect5"
     width="9.2693729"
     height="7.8523984"
     x="3.4637146"
     y="6.00246" />
  <path
     d="M8 4L6.33 2.33C6.12 2.12 5.83 2 5.54 2H1.12C0.5 2 0 2.5 0 3.12V4H8Z"
     fill="white"
     id="path1" />
  <path
     d="m 0,5 v 7.880859 C 0,13.500859 0.49914124,14 1.1191406,14 H 14.880859 C 15.500859,14 16,13.500859 16,12.880859 V 6.1191406 C 16,5.4991412 15.500859,5 14.880859,5 Z m 5.4589844,1.1738281 h 5.0820316 c 0.601453,0 1.089843,0.4864547 1.089843,1.0878906 V 12.34375 c 0,0.601453 -0.48839,1.089844 -1.089843,1.089844 H 5.4589844 c -0.6014359,0 -1.0898438,-0.488391 -1.0898438,-1.089844 V 7.2617187 c 0,-0.6014359 0.4884078,-1.0878906 1.0898438,-1.0878906 z"
     style="fill:#ffffff"
     id="path5" />
  <path
     d="M 8,9.8027344 H 5.0957031 V 12.34375 c 1e-7,0.200485 0.1628038,0.363281 0.3632813,0.363281 H 8 Z"
     style="fill:#ffffff"
     id="path4" />
  <path
     d="m 8,6.8984375 v 2.9042969 h 2.904297 V 7.2617187 c 0,-0.2004774 -0.162797,-0.3632812 -0.363281,-0.3632812 z"
     style="fill:#ffffff"
     id="path3" />
</svg>
