<?xml version="1.0" encoding="UTF-8" standalone="no"?>
<svg
   width="16"
   height="16"
   viewBox="0 0 16 16"
   fill="none"
   version="1.1"
   id="svg2"
   sodipodi:docname="ColumnOpen.svg"
   inkscape:version="1.3.2 (091e20e, 2023-11-25, custom)"
   xmlns:inkscape="http://www.inkscape.org/namespaces/inkscape"
   xmlns:sodipodi="http://sodipodi.sourceforge.net/DTD/sodipodi-0.dtd"
   xmlns="http://www.w3.org/2000/svg"
   xmlns:svg="http://www.w3.org/2000/svg">
  <defs
     id="defs2" />
  <sodipodi:namedview
     id="namedview2"
     pagecolor="#505050"
     bordercolor="#ffffff"
     borderopacity="1"
     inkscape:showpageshadow="0"
     inkscape:pageopacity="0"
     inkscape:pagecheckerboard="1"
     inkscape:deskcolor="#505050"
     inkscape:zoom="50.8125"
     inkscape:cx="8"
     inkscape:cy="8"
     inkscape:window-width="1920"
     inkscape:window-height="1009"
     inkscape:window-x="-8"
     inkscape:window-y="-8"
     inkscape:window-maximized="1"
     inkscape:current-layer="svg2" />
  <rect
     style="fill:#ffffff;fill-opacity:1;opacity:0.5"
     id="rect5"
     width="7.8130383"
     height="5.313653"
     x="5.1168513"
     y="8.4231243" />
  <path
     d="M14 7V5C14 4.44772 13.5523 4 13 4H8L6.28 2.28C6.1 2.1 5.86 2 5.6 2H0.96C0.43 2 0 2.43 0 2.96V13L4 7H14Z"
     fill="white"
     id="path1" />
  <path
     d="M 4.8300781,8 0.50976562,14 H 12.310547 c 0.32,0 0.618828,-0.159688 0.798828,-0.429687 L 15.830078,9.5 C 16.260078,8.8600006 15.799296,8 15.029297,8 Z m 4.2832032,0.7773438 h 3.4023437 c 0.402626,0 0.498809,0.3259013 0.214844,0.7285156 L 10.332031,12.908203 C 10.048054,13.31083 9.4905166,13.636719 9.0878906,13.636719 H 5.6855469 c -0.4026142,0 -0.4988193,-0.325889 -0.2148438,-0.728516 L 7.8710937,9.5058594 C 8.1550612,9.1032451 8.710667,8.7773438 9.1132813,8.7773438 Z"
     style="fill:#ffffff"
     id="path5" />
  <path
     d="M 9.1015625,11.207031 H 7.15625 l -1.1992188,1.701172 c -0.094659,0.134209 -0.061938,0.242188 0.072266,0.242188 h 1.7011718 z"
     style="fill:#ffffff"
     id="path4" />
  <path
     d="M 10.472656,9.2617188 9.1015625,11.207031 h 1.9433595 l 1.199219,-1.7011716 c 0.09466,-0.134204 0.0639,-0.2441406 -0.07031,-0.2441406 z"
     style="fill:#ffffff"
     id="path3" />
</svg>
