<?xml version="1.0" encoding="UTF-8" standalone="no"?>
<svg
   width="16"
   height="16"
   viewBox="0 0 16 16"
   fill="none"
   version="1.1"
   id="svg2"
   sodipodi:docname="ColumnOpen.svg"
   inkscape:version="1.3.2 (091e20e, 2023-11-25, custom)"
   xmlns:inkscape="http://www.inkscape.org/namespaces/inkscape"
   xmlns:sodipodi="http://sodipodi.sourceforge.net/DTD/sodipodi-0.dtd"
   xmlns="http://www.w3.org/2000/svg"
   xmlns:svg="http://www.w3.org/2000/svg">
  <defs
     id="defs2" />
  <sodipodi:namedview
     id="namedview2"
     pagecolor="#505050"
     bordercolor="#ffffff"
     borderopacity="1"
     inkscape:showpageshadow="0"
     inkscape:pageopacity="0"
     inkscape:pagecheckerboard="1"
     inkscape:deskcolor="#505050"
     inkscape:zoom="35.929863"
     inkscape:cx="5.5942322"
     inkscape:cy="9.2819724"
     inkscape:window-width="1920"
     inkscape:window-height="1009"
     inkscape:window-x="-8"
     inkscape:window-y="-8"
     inkscape:window-maximized="1"
     inkscape:current-layer="svg2" />
  <rect
     style="opacity:0.5;fill:#ffffff;fill-opacity:1;stroke-width:0.97795;stroke-opacity:0.4"
     id="rect3"
     width="5.9532595"
     height="4.4083638"
     x="5.4022141"
     y="9.4071341" />
  <path
     d="M14 7V5C14 4.44772 13.5523 4 13 4H8L6.28 2.28C6.1 2.1 5.86 2 5.6 2H0.96C0.43 2 0 2.43 0 2.96V13L4 7H14Z"
     fill="white"
     id="path1" />
  <path
     d="M 4.8300781,8 0.50976562,14 H 12.310547 c 0.32,0 0.618828,-0.159688 0.798828,-0.429687 L 15.830078,9.5 C 16.260078,8.8600006 15.799296,8 15.029297,8 Z m 5.9023439,1.5996094 c 0.08496,0 0.09669,0.069331 0.02539,0.1542969 L 8.8535156,12.023438 9.9140625,11.417969 c 0.1099535,-0.06271 0.2100325,-0.06517 0.2246095,-0.0078 0.0146,0.05733 -0.06193,0.154089 -0.1718751,0.216797 l -1.5742188,0.896485 c -0.05589,0.03187 -0.1130497,0.05078 -0.15625,0.05078 -0.0432,0 -0.067915,-0.0189 -0.070312,-0.05078 l -0.068359,-0.896485 c -0.00471,-0.06271 0.082544,-0.159464 0.1933593,-0.216797 0.1108145,-0.05733 0.204254,-0.05488 0.2089844,0.0078 l 0.044922,0.605469 1.9042971,-2.2695317 c 0.07129,-0.084966 0.198239,-0.1542969 0.283203,-0.1542969 z M 6.8222656,12.060547 c 0.084968,0 0.094728,0.06934 0.023437,0.154297 -0.247065,0.29444 -0.4181548,0.499344 -0.5273437,0.654297 -0.1060688,0.150523 -0.1360831,0.230329 -0.1269532,0.287109 0.00913,0.05678 0.057881,0.09498 0.1914063,0.115234 0.1374709,0.02082 0.3422758,0.01953 0.6367187,0.01953 H 8.25 c 0.2944401,0 0.4994512,0.0013 0.671875,-0.01953 0.167514,-0.02025 0.2783885,-0.05845 0.3828125,-0.115234 0.104425,-0.05678 0.2089143,-0.136586 0.3554688,-0.287109 0.1508438,-0.154953 0.3232475,-0.359857 0.5703127,-0.654297 0.0713,-0.08497 0.198243,-0.154297 0.283203,-0.154297 0.08496,0 0.09668,0.06934 0.02539,0.154297 l -0.0098,0.01172 c -0.235395,0.280532 -0.424527,0.505748 -0.5976564,0.683593 -0.1797478,0.184636 -0.364729,0.341377 -0.5917968,0.464844 -0.227102,0.123485 -0.4273505,0.176352 -0.6328125,0.201172 -0.1978918,0.02389 -0.4225916,0.02344 -0.703125,0.02344 H 6.75 c -0.2805309,0 -0.5062688,4.53e-4 -0.6640625,-0.02344 -0.1638112,-0.02482 -0.2750689,-0.07768 -0.2949219,-0.201172 -0.01987,-0.123467 0.057396,-0.280208 0.1875,-0.464844 0.1253236,-0.177845 0.3153823,-0.403061 0.5507813,-0.683593 l 0.00977,-0.01172 c 0.071295,-0.08497 0.1982372,-0.154297 0.2832031,-0.154297 z"
     style="fill:#ffffff"
     id="path3" />
</svg>
