<?xml version="1.0" encoding="UTF-8" standalone="no"?>
<svg
   width="16"
   height="16"
   viewBox="0 0 16 16"
   fill="none"
   version="1.1"
   id="svg2"
   sodipodi:docname="ColumnClosed.svg"
   inkscape:version="1.3.2 (091e20e, 2023-11-25, custom)"
   xmlns:inkscape="http://www.inkscape.org/namespaces/inkscape"
   xmlns:sodipodi="http://sodipodi.sourceforge.net/DTD/sodipodi-0.dtd"
   xmlns="http://www.w3.org/2000/svg"
   xmlns:svg="http://www.w3.org/2000/svg">
  <defs
     id="defs2" />
  <sodipodi:namedview
     id="namedview2"
     pagecolor="#505050"
     bordercolor="#ffffff"
     borderopacity="1"
     inkscape:showpageshadow="0"
     inkscape:pageopacity="0"
     inkscape:pagecheckerboard="1"
     inkscape:deskcolor="#505050"
     showgrid="false"
     inkscape:zoom="50.8125"
     inkscape:cx="7.8917589"
     inkscape:cy="9.2792128"
     inkscape:window-width="1920"
     inkscape:window-height="1009"
     inkscape:window-x="-8"
     inkscape:window-y="-8"
     inkscape:window-maximized="1"
     inkscape:current-layer="svg2" />
  <rect
     style="opacity:0.5;fill:#ffffff;fill-opacity:1;stroke-width:1.00892;stroke-opacity:0.4"
     id="rect3"
     width="7.6752768"
     height="6.710947"
     x="4.1525216"
     y="7.0258303" />
  <path
     d="M8 4L6.33 2.33C6.12 2.12 5.83 2 5.54 2H1.12C0.5 2 0 2.5 0 3.12V4H8Z"
     fill="white"
     id="path1" />
  <path
     d="m 0,5 v 7.880859 C 0,13.500859 0.49914124,14 1.1191406,14 H 14.880859 C 15.500859,14 16,13.500859 16,12.880859 V 6.1191406 C 16,5.4991412 15.500859,5 14.880859,5 Z m 8,2.4335937 c 0.1274461,0 0.2304688,0.1030196 0.2304688,0.2304688 v 3.4062505 l 0.8300781,-0.908204 c 0.086,-0.09406 0.2321105,-0.09967 0.3261719,-0.01367 0.094062,0.086 0.09967,0.232109 0.013672,0.326171 L 8.1699219,11.820313 C 8.1261989,11.868122 8.0647999,11.896484 8,11.896484 c -0.0648,0 -0.1261987,-0.02835 -0.1699219,-0.07617 L 6.5996094,10.474609 c -0.086,-0.09406 -0.08039,-0.240172 0.013672,-0.326171 0.094065,-0.086 0.2401718,-0.0804 0.3261719,0.01367 l 0.8300781,0.908204 V 7.6640625 C 7.7695312,7.5366133 7.8725539,7.4335938 8,7.4335937 Z M 5.2304687,11.126953 c 0.1274523,0 0.2304688,0.103023 0.2304688,0.230469 -5e-7,0.44166 0.00195,0.749991 0.033203,0.982422 0.030354,0.225784 0.084765,0.344517 0.1699219,0.429687 0.085157,0.08517 0.2058654,0.141505 0.4316406,0.171875 0.2324153,0.03123 0.5388044,0.03125 0.9804688,0.03125 h 1.8476562 c 0.4416609,0 0.748038,-2e-5 0.9804688,-0.03125 0.2257841,-0.03037 0.3464711,-0.08671 0.4316411,-0.171875 0.08517,-0.08517 0.139551,-0.203903 0.169921,-0.429687 0.03124,-0.232431 0.0332,-0.540762 0.0332,-0.982422 0,-0.127446 0.103022,-0.230469 0.230468,-0.230469 0.127446,0 0.230469,0.103023 0.230469,0.230469 V 11.375 c 0,0.4208 6.84e-4,0.758622 -0.03516,1.025391 -0.03723,0.276953 -0.117535,0.510113 -0.302735,0.695312 -0.185231,0.185232 -0.418357,0.265505 -0.6953121,0.302735 -0.2667688,0.03584 -0.6065442,0.03516 -1.0273438,0.03516 H 7.0605469 c -0.4207968,0 -0.7605838,6.83e-4 -1.0273438,-0.03516 C 5.7562465,13.361207 5.5230966,13.280935 5.3378906,13.095703 5.1526845,12.910504 5.0723932,12.677344 5.0351562,12.400391 4.9992951,12.133622 4.9999938,11.7958 5,11.375 v -0.01758 c 0,-0.127446 0.1030196,-0.230469 0.2304687,-0.230469 z"
     style="fill:#ffffff"
     id="path3" />
</svg>
