<?xml version="1.0" encoding="UTF-8" standalone="no"?>
<svg
   width="16"
   height="16"
   viewBox="0 0 16 16"
   fill="none"
   version="1.1"
   id="svg2"
   sodipodi:docname="ColumnOpen.svg"
   inkscape:version="1.3.2 (091e20e, 2023-11-25, custom)"
   xmlns:inkscape="http://www.inkscape.org/namespaces/inkscape"
   xmlns:sodipodi="http://sodipodi.sourceforge.net/DTD/sodipodi-0.dtd"
   xmlns="http://www.w3.org/2000/svg"
   xmlns:svg="http://www.w3.org/2000/svg">
  <defs
     id="defs2" />
  <sodipodi:namedview
     id="namedview2"
     pagecolor="#505050"
     bordercolor="#ffffff"
     borderopacity="1"
     inkscape:showpageshadow="0"
     inkscape:pageopacity="0"
     inkscape:pagecheckerboard="1"
     inkscape:deskcolor="#505050"
     inkscape:zoom="71.859727"
     inkscape:cx="6.8327563"
     inkscape:cy="10.221302"
     inkscape:window-width="1920"
     inkscape:window-height="1009"
     inkscape:window-x="-8"
     inkscape:window-y="-8"
     inkscape:window-maximized="1"
     inkscape:current-layer="svg2" />
  <rect
     style="opacity:0.5;fill:#ffffff;fill-opacity:1;stroke-width:0.935618;stroke-opacity:0.4"
     id="rect7"
     width="8.2939358"
     height="4.3417921"
     x="4.1748004"
     y="9.393301" />
  <path
     d="M14 7V5C14 4.44772 13.5523 4 13 4H8L6.28 2.28C6.1 2.1 5.86 2 5.6 2H0.96C0.43 2 0 2.43 0 2.96V13L4 7H14Z"
     fill="white"
     id="path1" />
  <path
     d="M 8.8417969,11.628906 7.9296875,12.0625 7.7207031,11.630859 4.8632812,13.238281 c 0.019271,0.0055 4.13163,0.0055 4.1601563,0 z"
     style="fill:#ffffff"
     id="path7" />
  <path
     d="m 11.800781,10.238281 -2.4863279,1.169922 0.1445313,1.601563 c 0.035021,-0.03058 0.069189,-0.06373 0.097656,-0.09766 z"
     style="fill:#ffffff"
     id="path6" />
  <path
     d="M 7.5683594,9.9042969 8.3378906,11.576172 11.914063,9.9042969 Z"
     style="fill:#ffffff"
     id="path5" />
  <path
     d="m 7.1210937,10.238281 -2.2441406,2.673828 c -0.028467,0.03393 -0.050102,0.06707 -0.066406,0.09766 l 2.8320312,-1.601563 z"
     style="fill:#ffffff"
     id="path4" />
  <path
     d="M 4.8300781,8 0.50976562,14 H 12.310547 c 0.32,0 0.618828,-0.159688 0.798828,-0.429687 L 15.830078,9.5 C 16.260078,8.8600006 15.799296,8 15.029297,8 Z M 8.015625,9.5703125 h 4.011719 c 0.369174,0 0.417196,0.2987942 0.107422,0.6679685 L 9.890625,12.912109 C 9.5808508,13.281284 9.0293308,13.582031 8.6601563,13.582031 H 4.6503906 c -0.3691745,0 -0.4171961,-0.300747 -0.1074219,-0.669922 L 6.7871094,10.238281 C 7.0968836,9.8691067 7.6464504,9.5703125 8.015625,9.5703125 Z"
     style="fill:#ffffff"
     id="path3" />
</svg>
