<?xml version="1.0" encoding="UTF-8" standalone="no"?>
<svg
   width="16"
   height="16"
   viewBox="0 0 16 16"
   fill="none"
   version="1.1"
   id="svg2"
   sodipodi:docname="ColumnClosed.svg"
   inkscape:version="1.3.2 (091e20e, 2023-11-25, custom)"
   xmlns:inkscape="http://www.inkscape.org/namespaces/inkscape"
   xmlns:sodipodi="http://sodipodi.sourceforge.net/DTD/sodipodi-0.dtd"
   xmlns="http://www.w3.org/2000/svg"
   xmlns:svg="http://www.w3.org/2000/svg">
  <defs
     id="defs2" />
  <sodipodi:namedview
     id="namedview2"
     pagecolor="#505050"
     bordercolor="#ffffff"
     borderopacity="1"
     inkscape:showpageshadow="0"
     inkscape:pageopacity="0"
     inkscape:pagecheckerboard="1"
     inkscape:deskcolor="#505050"
     inkscape:zoom="50.8125"
     inkscape:cx="7.9901599"
     inkscape:cy="8"
     inkscape:window-width="1920"
     inkscape:window-height="1009"
     inkscape:window-x="-8"
     inkscape:window-y="-8"
     inkscape:window-maximized="1"
     inkscape:current-layer="svg2" />
  <rect
     style="opacity:0.5;fill:#ffffff;fill-opacity:1;stroke-opacity:0.4"
     id="rect7"
     width="9.5055351"
     height="6.7306275"
     x="3.2669127"
     y="7.1635919" />
  <path
     d="M8 4L6.33 2.33C6.12 2.12 5.83 2 5.54 2H1.12C0.5 2 0 2.5 0 3.12V4H8Z"
     fill="white"
     id="path1" />
  <path
     d="m 11.5,8.6894531 -2.25,1.7499999 2.226563,2.394531 c 0.014,-0.04575 0.02344,-0.09378 0.02344,-0.144531 z"
     style="fill:#ffffff"
     id="path7" />
  <path
     d="M 8.8183594,10.767578 8,11.417969 7.1445312,10.771484 4.8886719,13.175781 c 0.03575,0.0082 6.1869061,0.0082 6.2226561,0 z"
     style="fill:#ffffff"
     id="path6" />
  <path
     d="m 4.5,8.6894531 v 3.9999999 c 0,0.05075 0.00944,0.09878 0.023437,0.144531 L 6.75,10.439453 Z"
     style="fill:#ffffff"
     id="path5" />
  <path
     d="M 4.75,8.1894531 8,10.689453 11.25,8.1894531 Z"
     style="fill:#ffffff"
     id="path4" />
  <path
     d="m 0,5 v 7.880859 C 0,13.500859 0.49914124,14 1.1191406,14 H 14.880859 C 15.500859,14 16,13.500859 16,12.880859 V 6.1191406 C 16,5.4991412 15.500859,5 14.880859,5 Z m 5,2.6894531 h 6 c 0.552249,0 1,0.4477506 1,1 v 3.9999999 c 0,0.55225 -0.447751,1 -1,1 H 5 c -0.5522494,0 -1,-0.44775 -1,-1 V 8.6894531 c 0,-0.5522494 0.4477506,-1 1,-1 z"
     style="fill:#ffffff"
     id="path3" />
</svg>
