<?xml version="1.0" encoding="UTF-8" standalone="no"?>
<svg
   width="16"
   height="16"
   viewBox="0 0 16 16"
   fill="none"
   version="1.1"
   id="svg2"
   sodipodi:docname="ColumnClosed.svg"
   inkscape:version="1.3.2 (091e20e, 2023-11-25, custom)"
   xmlns:inkscape="http://www.inkscape.org/namespaces/inkscape"
   xmlns:sodipodi="http://sodipodi.sourceforge.net/DTD/sodipodi-0.dtd"
   xmlns="http://www.w3.org/2000/svg"
   xmlns:svg="http://www.w3.org/2000/svg">
  <defs
     id="defs2" />
  <sodipodi:namedview
     id="namedview2"
     pagecolor="#505050"
     bordercolor="#ffffff"
     borderopacity="1"
     inkscape:showpageshadow="0"
     inkscape:pageopacity="0"
     inkscape:pagecheckerboard="1"
     inkscape:deskcolor="#505050"
     inkscape:zoom="35.929863"
     inkscape:cx="4.2861282"
     inkscape:cy="7.3059003"
     inkscape:window-width="1920"
     inkscape:window-height="1009"
     inkscape:window-x="-8"
     inkscape:window-y="-8"
     inkscape:window-maximized="1"
     inkscape:current-layer="svg2" />
  <rect
     style="opacity:0.5;fill:#ffffff;fill-opacity:1;stroke-opacity:0.4"
     id="rect5"
     width="9.2958879"
     height="7.8486242"
     x="3.4511681"
     y="5.9282165" />
  <path
     d="M8 4L6.33 2.33C6.12 2.12 5.83 2 5.54 2H1.12C0.5 2 0 2.5 0 3.12V4H8Z"
     fill="white"
     id="path1" />
  <path
     d="m 8,8.2851563 c -1.1142849,0 -2,0.8857164 -2,1.9999997 0,1.114285 0.8857151,2 2,2 1.1142849,0 2,-0.885715 2,-2 C 10,9.1708727 9.1142849,8.2851563 8,8.2851563 Z"
     style="fill:#ffffff"
     id="path5" />
  <path
     d="m 5.1425781,8.5722656 c -0.1714283,0 -0.2851562,0.1137274 -0.2851562,0.2851563 0,0.1714279 0.1137279,0.2851562 0.2851562,0.2851562 H 5.7148437 C 5.8862722,9.1425781 6,9.0288497 6,8.8574219 6,8.6859929 5.8862722,8.5722657 5.7148437,8.5722656 Z"
     style="fill:#ffffff"
     id="path4" />
  <path
     d="m 0,5 v 7.880859 C 0,13.500859 0.49914124,14 1.1191406,14 H 14.880859 C 15.500859,14 16,13.500859 16,12.880859 V 6.1191406 C 16,5.4991412 15.500859,5 14.880859,5 Z m 6.9140625,1.5722656 h 2.1425781 c 0.3428567,0 0.6286275,0.1986609 0.7714844,0.484375 l 0.34375,0.6582031 h 0.970703 C 11.628292,7.7148438 12,8.0865511 12,8.5722656 v 4.0000004 c 0,0.485713 -0.371708,0.855468 -0.857422,0.855468 H 4.8574219 C 4.3717081,13.427734 4,13.057979 4,12.572266 V 8.5722656 C 4,8.0865511 4.3717081,7.7148437 4.8574219,7.7148437 H 5.828125 L 6.1425781,7.0566406 C 6.285435,6.7423552 6.5997768,6.5722656 6.9140625,6.5722656 Z"
     style="fill:#ffffff"
     id="path3" />
</svg>
