<?xml version="1.0" encoding="UTF-8" standalone="no"?>
<svg
   width="16"
   height="16"
   viewBox="0 0 16 16"
   fill="none"
   version="1.1"
   id="svg2"
   sodipodi:docname="ColumnOpen.svg"
   inkscape:version="1.3.2 (091e20e, 2023-11-25, custom)"
   xmlns:inkscape="http://www.inkscape.org/namespaces/inkscape"
   xmlns:sodipodi="http://sodipodi.sourceforge.net/DTD/sodipodi-0.dtd"
   xmlns="http://www.w3.org/2000/svg"
   xmlns:svg="http://www.w3.org/2000/svg">
  <defs
     id="defs2" />
  <sodipodi:namedview
     id="namedview2"
     pagecolor="#505050"
     bordercolor="#ffffff"
     borderopacity="1"
     inkscape:showpageshadow="0"
     inkscape:pageopacity="0"
     inkscape:pagecheckerboard="1"
     inkscape:deskcolor="#505050"
     inkscape:zoom="101.625"
     inkscape:cx="8.7084871"
     inkscape:cy="10.405904"
     inkscape:window-width="1920"
     inkscape:window-height="1009"
     inkscape:window-x="-8"
     inkscape:window-y="-8"
     inkscape:window-maximized="1"
     inkscape:current-layer="svg2" />
  <rect
     style="opacity:0.5;fill:#ffffff;fill-opacity:1;stroke-width:0.967669;stroke-opacity:0.4"
     id="rect5"
     width="8.2558432"
     height="5.0381303"
     x="4.5264449"
     y="8.7380075" />
  <path
     d="M14 7V5C14 4.44772 13.5523 4 13 4H8L6.28 2.28C6.1 2.1 5.86 2 5.6 2H0.96C0.43 2 0 2.43 0 2.96V13L4 7H14Z"
     fill="white"
     id="path1" />
  <path
     d="m 9.9199219,10.212891 c -0.7493114,0 -1.8439109,0.594439 -2.4726563,1.34375 -0.6287472,0.749311 -0.5325142,1.345703 0.2167969,1.345703 0.7493111,0 1.8439095,-0.596392 2.4726565,-1.345703 0.628745,-0.749311 0.532514,-1.34375 -0.2167971,-1.34375 z"
     style="fill:#ffffff"
     id="path5" />
  <path
     d="m 7.8378906,10.404297 c -0.115278,0 -0.2567837,0.07808 -0.3535156,0.193359 -0.096721,0.115261 -0.084029,0.191407 0.03125,0.191407 h 0.3847656 c 0.1152781,0 0.2567847,-0.07613 0.3535157,-0.191407 0.096722,-0.115261 0.084028,-0.193359 -0.03125,-0.193359 z"
     style="fill:#ffffff"
     id="path4" />
  <path
     d="M 4.8300781,8 0.50976562,14 H 12.310547 c 0.32,0 0.618828,-0.159688 0.798828,-0.429687 L 15.830078,9.5 C 16.260078,8.8600006 15.799296,8 15.029297,8 Z m 5.3281249,1.0605469 h 1.441406 c 0.230564,0 0.309291,0.1340406 0.244141,0.3261719 L 11.703125,9.828125 h 0.654297 c 0.326631,0 0.365868,0.249547 0.0918,0.576172 L 10.191406,13.09375 C 9.9173375,13.420371 9.4594358,13.669922 9.1328125,13.669922 H 4.90625 c -0.3266231,0 -0.3678185,-0.249551 -0.09375,-0.576172 L 7.0703125,10.404297 C 7.3443836,10.077672 7.8022837,9.828125 8.1289063,9.828125 H 8.7832031 L 9.3652344,9.3867188 C 9.6386388,9.1753744 9.9468583,9.0605469 10.158203,9.0605469 Z"
     style="fill:#ffffff"
     id="path3" />
</svg>
