<?xml version="1.0" encoding="UTF-8" standalone="no"?>
<svg
   width="16"
   height="16"
   viewBox="0 0 16 16"
   fill="none"
   version="1.1"
   id="svg2"
   sodipodi:docname="ColumnOpen.svg"
   inkscape:version="1.3.2 (091e20e, 2023-11-25, custom)"
   xmlns:inkscape="http://www.inkscape.org/namespaces/inkscape"
   xmlns:sodipodi="http://sodipodi.sourceforge.net/DTD/sodipodi-0.dtd"
   xmlns="http://www.w3.org/2000/svg"
   xmlns:svg="http://www.w3.org/2000/svg">
  <defs
     id="defs2" />
  <sodipodi:namedview
     id="namedview2"
     pagecolor="#505050"
     bordercolor="#ffffff"
     borderopacity="1"
     inkscape:showpageshadow="0"
     inkscape:pageopacity="0"
     inkscape:pagecheckerboard="1"
     inkscape:deskcolor="#505050"
     inkscape:zoom="35.929863"
     inkscape:cx="3.9799762"
     inkscape:cy="7.0832443"
     inkscape:window-width="1920"
     inkscape:window-height="1009"
     inkscape:window-x="-8"
     inkscape:window-y="-8"
     inkscape:window-maximized="1"
     inkscape:current-layer="svg2" />
  <rect
     style="opacity:0.5;fill:#ffffff;fill-opacity:1;stroke-opacity:0.4"
     id="rect7"
     width="6.6240163"
     height="4.5087843"
     x="4.8427682"
     y="9.351552" />
  <path
     d="M14 7V5C14 4.44772 13.5523 4 13 4H8L6.28 2.28C6.1 2.1 5.86 2 5.6 2H0.96C0.43 2 0 2.43 0 2.96V13L4 7H14Z"
     fill="white"
     id="path1" />
  <path
     d="m 7.2089844,12.494141 -0.09375,0.0332 0.00391,0.02539 c 0.034816,0.21648 0.2270786,0.339844 0.5332031,0.339844 0.3061246,0 0.701487,-0.123364 1.0996094,-0.339844 l 0.046875,-0.02539 -0.039063,-0.0332 c -0.2832435,-0.243999 -0.8580617,-0.243999 -1.5507812,0 z"
     style="fill:#ffffff"
     id="path7" />
  <path
     d="m 9.015625,11.425781 -0.2246094,0.265625 c -0.1853691,0.220914 -0.1564609,0.400391 0.064453,0.400391 0.2209062,0 0.5509594,-0.179477 0.7363281,-0.400391 l 0.2246094,-0.265625 c 0.1853687,-0.220915 0.1564526,-0.40039 -0.064453,-0.40039 -0.2209145,0 -0.5509586,0.179475 -0.7363281,0.40039 z m 0.1542969,0.132813 H 9.4375 l -0.2246094,0.265625 h -0.265625 z"
     style="fill:#ffffff"
     id="path6" />
  <path
     d="m 8.6855469,11.025391 c -0.2209142,0 -0.5509586,0.179475 -0.7363282,0.40039 l -0.2246093,0.265625 c -0.1853682,0.220914 -0.1564611,0.400391 0.064453,0.400391 0.2209142,0 0.5509594,-0.179477 0.7363281,-0.400391 L 8.75,11.425781 c 0.1853691,-0.220915 0.1564611,-0.40039 -0.064453,-0.40039 z m -0.5820313,0.533203 h 0.2675782 l -0.2246094,0.265625 h -0.265625 z"
     style="fill:#ffffff"
     id="path5" />
  <path
     d="m 10.113281,9.9589844 c -0.8100168,0 -2.0175803,0.6567796 -2.6972654,1.4667966 l -1.4570312,1.736328 c -0.080072,0.09543 -0.1890911,0.187642 -0.3085938,0.263672 h 3.1074219 c 0.00802,-0.07607 0.05266,-0.16815 0.1328125,-0.263672 l 1.458984,-1.736328 C 11.029295,10.615764 10.923305,9.9589844 10.113281,9.9589844 Z M 8.9082031,10.757813 c 0.2192929,-1e-6 0.3222735,0.108055 0.3066407,0.271484 0.2585389,-0.163304 0.540571,-0.271484 0.7597656,-0.271484 0.3681866,-1e-6 0.4163696,0.299779 0.1074216,0.667968 l -0.222656,0.265625 c -0.1990141,0.237176 -0.4974857,0.444328 -0.7832031,0.5625 0,0 0.00195,0.002 0.00195,0.002 h 0.00195 l 0.1328125,0.117188 c 0.022261,0.01917 0.018868,0.05536 -0.00977,0.09766 -0.028626,0.04231 -0.079031,0.08492 -0.1347656,0.115235 L 8.78125,12.742188 c -0.4900823,0.266479 -0.9766658,0.416015 -1.3535156,0.416015 -0.3768498,0 -0.6133791,-0.149536 -0.65625,-0.416015 l -0.023437,-0.15625 c -0.00487,-0.03032 0.016223,-0.07292 0.058594,-0.115235 0.04235,-0.04229 0.099869,-0.07848 0.1542969,-0.09766 l 0.3300781,-0.117188 c 0.00201,-7.07e-4 0.00385,-0.0012 0.00586,-0.002 -0.086837,-0.118268 -0.036596,-0.325692 0.1621094,-0.5625 l 0.2226562,-0.265625 c 0.3089478,-0.368189 0.8583741,-0.667968 1.2265625,-0.667968 z"
     style="fill:#ffffff"
     id="path4" />
  <path
     d="M 4.8300781,8 0.50976562,14 H 12.310547 c 0.32,0 0.618828,-0.159688 0.798828,-0.429687 L 15.830078,9.5 C 16.260078,8.8600006 15.799296,8 15.029297,8 Z m 5.5058599,1.6914063 c 0.957305,-1e-7 1.08256,0.7770827 0.279296,1.7343747 l -1.4570309,1.736328 c -0.039958,0.04762 -0.060107,0.09327 -0.054687,0.126954 l 0.029297,0.175781 c 0.00618,0.03813 -0.031306,0.09471 -0.09375,0.144531 -0.062461,0.04984 -0.1374863,0.08203 -0.1914062,0.08203 H 5.1132812 c -0.053929,0 -0.073917,-0.03219 -0.052734,-0.08203 0.021162,-0.04982 0.080254,-0.106391 0.1503906,-0.144531 l 0.3222656,-0.175781 c 0.061926,-0.03368 0.1182452,-0.07933 0.1582031,-0.126954 L 7.1484375,11.425781 C 7.9517009,10.468489 9.3786466,9.6914063 10.335938,9.6914063 Z"
     style="fill:#ffffff"
     id="path3" />
</svg>
