<?xml version="1.0" encoding="UTF-8" standalone="no"?>
<svg
   width="16"
   height="16"
   viewBox="0 0 16 16"
   fill="none"
   version="1.1"
   id="svg2"
   sodipodi:docname="ColumnClosed.svg"
   inkscape:version="1.3.2 (091e20e, 2023-11-25, custom)"
   xmlns:inkscape="http://www.inkscape.org/namespaces/inkscape"
   xmlns:sodipodi="http://sodipodi.sourceforge.net/DTD/sodipodi-0.dtd"
   xmlns="http://www.w3.org/2000/svg"
   xmlns:svg="http://www.w3.org/2000/svg">
  <defs
     id="defs2" />
  <sodipodi:namedview
     id="namedview2"
     pagecolor="#505050"
     bordercolor="#ffffff"
     borderopacity="1"
     inkscape:showpageshadow="0"
     inkscape:pageopacity="0"
     inkscape:pagecheckerboard="1"
     inkscape:deskcolor="#505050"
     inkscape:zoom="35.929863"
     inkscape:cx="5.4829042"
     inkscape:cy="9.0036524"
     inkscape:window-width="1920"
     inkscape:window-height="1009"
     inkscape:window-x="-8"
     inkscape:window-y="-8"
     inkscape:window-maximized="1"
     inkscape:current-layer="svg2" />
  <rect
     style="opacity:0.5;fill:#ffffff;fill-opacity:1;stroke-opacity:0.4"
     id="rect7"
     width="7.0136642"
     height="6.4848561"
     x="4.5087843"
     y="7.3198161" />
  <path
     d="M8 4L6.33 2.33C6.12 2.12 5.83 2 5.54 2H1.12C0.5 2 0 2.5 0 3.12V4H8Z"
     fill="white"
     id="path1" />
  <path
     d="m 6.8378906,11.716797 -0.099609,0.05078 0.037109,0.03711 C 7.100086,12.129406 7.540813,12.3125 8,12.3125 c 0.459187,0 0.8998981,-0.183094 1.2246094,-0.507812 l 0.037109,-0.03711 -0.099609,-0.05078 c -0.7319745,-0.366 -1.5922483,-0.366 -2.3242188,0 z"
     style="fill:#ffffff"
     id="path7" />
  <path
     d="m 8.1992188,10.111328 v 0.400391 c 0,0.331371 0.2701912,0.599609 0.6015625,0.599609 0.3313593,0 0.5996093,-0.268238 0.5996093,-0.599609 v -0.400391 c 0,-0.3313704 -0.26825,-0.5996092 -0.5996093,-0.5996092 -0.3313713,-1e-7 -0.6015625,0.2682388 -0.6015625,0.5996092 z M 8.5996094,10.3125 H 9 v 0.398438 H 8.5996094 Z"
     style="fill:#ffffff"
     id="path6" />
  <path
     d="m 7.1992187,9.5117188 c -0.3313713,-1e-7 -0.5996093,0.2682388 -0.5996093,0.5996092 v 0.400391 c 0,0.331371 0.268238,0.599609 0.5996093,0.599609 0.3313713,0 0.6015625,-0.268238 0.6015625,-0.599609 v -0.400391 c 0,-0.3313704 -0.2701912,-0.5996092 -0.6015625,-0.5996092 z M 7,10.3125 h 0.4003906 v 0.398438 H 7 Z"
     style="fill:#ffffff"
     id="path5" />
  <path
     d="m 8,7.9121094 c -1.2150254,0 -2.1992188,0.984194 -2.1992188,2.1992186 v 2.605469 c 0,0.143295 -0.049079,0.280414 -0.1328125,0.394531 h 4.6640623 c -0.08374,-0.114117 -0.132812,-0.251236 -0.132812,-0.394531 V 10.111328 C 10.199219,8.8963034 9.2150375,7.9121094 8,7.9121094 Z M 7.1992187,9.1113281 C 7.5274147,9.1113281 7.817668,9.2714258 8,9.515625 8.182332,9.2714258 8.4725853,9.1113281 8.8007813,9.1113281 c 0.5522789,0 1,0.4477177 1,0.9999999 v 0.400391 c 0,0.354987 -0.1860254,0.66629 -0.4648438,0.84375 0.00208,0.001 0.00378,0.0029 0.00586,0.0039 l 0.3476562,0.173828 c 0.05752,0.02876 0.097142,0.08305 0.1074219,0.146485 0.01032,0.06348 -0.00925,0.128348 -0.054687,0.173828 l -0.234375,0.234375 C 9.1080933,12.48761 8.5652748,12.710938 8,12.710938 c -0.5652748,0 -1.1081014,-0.223328 -1.5078125,-0.623047 l -0.234375,-0.234375 c -0.04546,-0.04548 -0.064987,-0.110349 -0.054687,-0.173828 0.010296,-0.06344 0.049922,-0.117725 0.1074219,-0.146485 l 0.3476562,-0.173828 c 0.00208,-0.001 0.00378,-0.0029 0.00586,-0.0039 -0.2788183,-0.17746 -0.4648438,-0.488763 -0.4648438,-0.84375 v -0.400391 c 10e-8,-0.5522822 0.4477172,-0.9999999 1,-0.9999999 z"
     style="fill:#ffffff"
     id="path4" />
  <path
     d="m 0,5 v 7.880859 C 0,13.500859 0.49914124,14 1.1191406,14 H 14.880859 C 15.500859,14 16,13.500859 16,12.880859 V 6.1191406 C 16,5.4991412 15.500859,5 14.880859,5 Z m 8,2.5117187 c 1.4359571,0 2.599609,1.163673 2.599609,2.5996093 v 2.605469 c 0,0.07144 0.02956,0.140886 0.08008,0.191406 l 0.261718,0.261719 c 0.0572,0.0572 0.07393,0.14403 0.04297,0.21875 -0.03096,0.07476 -0.102714,0.123047 -0.183594,0.123047 H 5.1992187 c -0.080892,0 -0.1526377,-0.04829 -0.1835937,-0.123047 -0.030956,-0.07472 -0.014231,-0.16155 0.042969,-0.21875 l 0.2617188,-0.261719 c 0.050499,-0.05052 0.080078,-0.119966 0.080078,-0.191406 V 10.111328 C 5.4003906,8.6753917 6.5640629,7.5117187 8,7.5117187 Z"
     style="fill:#ffffff"
     id="path3" />
</svg>
