<?xml version="1.0" encoding="UTF-8" standalone="no"?>
<svg
   width="16"
   height="16"
   viewBox="0 0 16 16"
   fill="none"
   version="1.1"
   id="svg2"
   sodipodi:docname="ColumnOpen.svg"
   inkscape:version="1.3.2 (091e20e, 2023-11-25, custom)"
   xmlns:inkscape="http://www.inkscape.org/namespaces/inkscape"
   xmlns:sodipodi="http://sodipodi.sourceforge.net/DTD/sodipodi-0.dtd"
   xmlns="http://www.w3.org/2000/svg"
   xmlns:svg="http://www.w3.org/2000/svg">
  <defs
     id="defs2" />
  <sodipodi:namedview
     id="namedview2"
     pagecolor="#505050"
     bordercolor="#ffffff"
     borderopacity="1"
     inkscape:showpageshadow="0"
     inkscape:pageopacity="0"
     inkscape:pagecheckerboard="1"
     inkscape:deskcolor="#505050"
     inkscape:zoom="71.859727"
     inkscape:cx="8.3078524"
     inkscape:cy="9.4837544"
     inkscape:window-width="1920"
     inkscape:window-height="1009"
     inkscape:window-x="-8"
     inkscape:window-y="-8"
     inkscape:window-maximized="1"
     inkscape:current-layer="svg2" />
  <rect
     style="opacity:0.5;fill:#ffffff;stroke-opacity:0.4"
     id="rect13"
     width="6.5961843"
     height="4.9401803"
     x="5.5107365"
     y="8.8366604" />
  <path
     d="M14 7V5C14 4.44772 13.5523 4 13 4H8L6.28 2.28C6.1 2.1 5.86 2 5.6 2H0.96C0.43 2 0 2.43 0 2.96V13L4 7H14Z"
     fill="white"
     id="path1" />
  <path
     d="m 10.767578,11.113281 c -0.428956,0.403187 -0.9731833,0.737458 -1.486328,0.927735 l -0.00391,0.0059 -0.00586,0.002 c -0.01167,0.01444 -0.021031,0.02846 -0.033203,0.04297 -0.3431311,0.408927 -0.8281572,0.778333 -1.3222657,1.035156 0.090504,0.08282 0.2309374,0.13086 0.4238282,0.13086 0.3219244,-1e-6 0.7211553,-0.130829 1.109375,-0.341797 0.3877728,-0.210978 0.7630692,-0.502286 1.0332032,-0.824219 0.34512,-0.411298 0.433047,-0.77111 0.285156,-0.978516 z"
     style="fill:#ffffff"
     id="path13" />
  <path
     d="m 10.294922,10.927734 c -0.193193,0 -0.4144954,0.04774 -0.6445314,0.13086 0.046658,0.190058 -0.015421,0.440933 -0.1894531,0.724609 C 9.8753334,11.610029 10.303427,11.328177 10.634766,11 c -0.08668,-0.04607 -0.198463,-0.07226 -0.339844,-0.07227 z"
     style="fill:#ffffff"
     id="path12" />
  <path
     d="m 8.109375,12.148438 c -0.2670071,0.337186 -0.3580337,0.634737 -0.2851563,0.83789 0.4136319,-0.202942 0.821994,-0.500418 1.1210938,-0.83789 -0.1668794,0.04137 -0.3273935,0.06445 -0.4726562,0.06445 -0.1457082,0 -0.2658236,-0.02309 -0.3632813,-0.06445 z"
     style="fill:#ffffff"
     id="path11" />
  <path
     d="m 8.8066406,10.927734 c -0.1415479,0 -0.2993641,0.0262 -0.4628906,0.07227 -0.2198692,0.328186 -0.2629166,0.610038 -0.1386719,0.783203 0.3016183,-0.283533 0.6597764,-0.534551 1.0253907,-0.724609 -0.090401,-0.08312 -0.2306432,-0.13086 -0.4238282,-0.13086 z"
     style="fill:#ffffff"
     id="path10" />
  <path
     d="m 11.005859,9.7304688 -0.261718,0.9824222 c 0.04141,0.0099 0.07974,0.0223 0.115234,0.03711 0.23664,-0.299224 0.340373,-0.571136 0.308594,-0.7695312 -0.01719,-0.1063417 -0.07114,-0.1909839 -0.16211,-0.25 z"
     style="fill:#ffffff"
     id="path9" />
  <path
     d="m 10.582031,9.640625 -0.28125,1.058594 c 0.06808,-0.0084 0.134014,-0.01367 0.197266,-0.01367 0.0323,0 0.06392,0.0017 0.09375,0.0039 l 0.271484,-1.0214842 c -0.06688,-0.018381 -0.144461,-0.027344 -0.232422,-0.027344 -0.01607,0 -0.03249,-6.64e-4 -0.04883,0 z"
     style="fill:#ffffff"
     id="path8" />
  <path
     d="m 10.417969,9.6582031 c -0.08908,0.013397 -0.18023,0.032636 -0.275391,0.060547 l -0.2890624,1.082031 c 0.095399,-0.03014 0.1904194,-0.05554 0.2812504,-0.07422 z"
     style="fill:#ffffff"
     id="path7" />
  <path
     d="M 9.9667969,9.7773438 C 9.8597563,9.8169288 9.7510501,9.8640877 9.6425781,9.9179688 L 9.4160156,10.771484 c 0.063118,0.03385 0.1148352,0.07643 0.1542969,0.126954 l 0.00781,-0.0039 0.00391,0.0039 c 0.032704,-0.01325 0.065189,-0.02484 0.097656,-0.03711 z"
     style="fill:#ffffff"
     id="path6" />
  <path
     d="m 9.4570313,10.017578 c -0.1099,0.0625 -0.2177923,0.130942 -0.3222657,0.205078 l -0.1230468,0.462891 c 0.097729,6.7e-5 0.1843937,0.01145 0.2597656,0.03125 z"
     style="fill:#ffffff"
     id="path5" />
  <path
     d="M 8.9355469,10.373047 C 8.7918424,10.49002 8.6599171,10.618058 8.5429688,10.75 c 0.1064432,-0.02611 0.2095486,-0.04645 0.3085937,-0.05664 z"
     style="fill:#ffffff"
     id="path4" />
  <path
     d="M 4.8300781,8 0.50976562,14 H 12.310547 c 0.32,0 0.618828,-0.159688 0.798828,-0.429687 L 15.830078,9.5 C 16.260078,8.8600006 15.799296,8 15.029297,8 Z m 6.0058599,1.3964844 c 0.777505,0 0.878847,0.6308406 0.226562,1.4082036 -0.01224,0.01458 -0.02645,0.02846 -0.03906,0.04297 l 0.002,0.002 -0.0059,0.0059 c 0.241222,0.237905 0.154845,0.700317 -0.294922,1.236328 C 10.072261,12.869235 8.9143752,13.5 8.1367188,13.5 7.8653891,13.5 7.6795919,13.420169 7.5761719,13.287109 l -0.00781,0.0039 -0.00195,-0.0039 C 7.2396859,13.420169 6.9197587,13.5 6.6484375,13.5 5.8710836,13.5 5.7695269,12.869235 6.421875,12.091797 6.8716421,11.555786 7.5624999,11.093374 8.203125,10.855469 l 0.00391,-0.0059 0.00586,-0.002 c 0.011727,-0.01451 0.020777,-0.02816 0.033203,-0.04297 0.6522846,-0.777363 1.8124812,-1.4082036 2.5898442,-1.4082036 z"
     style="fill:#ffffff"
     id="path3" />
</svg>
