<?xml version="1.0" encoding="UTF-8" standalone="no"?>
<svg
   width="16"
   height="16"
   viewBox="0 0 16 16"
   fill="none"
   version="1.1"
   id="svg2"
   sodipodi:docname="ColumnClosed.svg"
   inkscape:version="1.3.2 (091e20e, 2023-11-25, custom)"
   xmlns:inkscape="http://www.inkscape.org/namespaces/inkscape"
   xmlns:sodipodi="http://sodipodi.sourceforge.net/DTD/sodipodi-0.dtd"
   xmlns="http://www.w3.org/2000/svg"
   xmlns:svg="http://www.w3.org/2000/svg">
  <defs
     id="defs2" />
  <sodipodi:namedview
     id="namedview2"
     pagecolor="#505050"
     bordercolor="#ffffff"
     borderopacity="1"
     inkscape:showpageshadow="0"
     inkscape:pageopacity="0"
     inkscape:pagecheckerboard="1"
     inkscape:deskcolor="#505050"
     inkscape:zoom="50.8125"
     inkscape:cx="7.9901599"
     inkscape:cy="8"
     inkscape:window-width="1920"
     inkscape:window-height="1009"
     inkscape:window-x="-8"
     inkscape:window-y="-8"
     inkscape:window-maximized="1"
     inkscape:current-layer="svg2" />
  <rect
     style="opacity:0.5;fill:#ffffff;fill-opacity:1;stroke-opacity:0.4"
     id="rect13"
     width="8.6199265"
     height="7.4784746"
     x="3.6408365"
     y="6.3173432" />
  <path
     d="M8 4L6.33 2.33C6.12 2.12 5.83 2 5.54 2H1.12C0.5 2 0 2.5 0 3.12V4H8Z"
     fill="white"
     id="path1" />
  <path
     d="m 10.234375,9.453125 c -0.147451,0.65588 -0.5773187,1.202188 -1.1523437,1.511719 v 0.0098 l -0.00586,0.002 c 7.246e-4,0.02349 0.00391,0.04671 0.00391,0.07031 0,0.665218 -0.2850589,1.265809 -0.7382812,1.683594 0.2602713,0.134722 0.5534045,0.210937 0.8671875,0.210937 0.5236871,0 0.9962836,-0.211496 1.3398436,-0.554687 0.342822,-0.343205 0.554688,-0.816144 0.554688,-1.339844 0,-0.669073 -0.345454,-1.2563559 -0.869141,-1.59375 z"
     style="fill:#ffffff"
     id="path13" />
  <path
     d="M 7.3203125,11.136719 C 7.3462207,11.685234 7.6041448,12.171477 8,12.501953 8.3958552,12.171819 8.6537793,11.685698 8.6796875,11.136719 8.4646837,11.204012 8.2363045,11.242188 8,11.242188 c -0.2370291,0 -0.4646837,-0.03818 -0.6796875,-0.105469 z"
     style="fill:#ffffff"
     id="path12" />
  <path
     d="m 9.2089844,9.1542969 c -0.3142752,0 -0.6064377,0.077676 -0.8671875,0.2128906 C 8.6771267,9.6763629 8.9193262,10.083456 9.0234375,10.544922 9.4611696,10.263213 9.7722403,9.805343 9.8632813,9.2714844 9.6594064,9.1965489 9.4389862,9.1543105 9.2089844,9.1542969 Z"
     style="fill:#ffffff"
     id="path11" />
  <path
     d="m 6.7910156,9.1542969 c -0.2302615,0 -0.4511603,0.042252 -0.6542969,0.1171875 0.090303,0.5338723 0.4013597,0.9917426 0.8398438,1.2734376 C 7.0801952,10.083688 7.3228733,9.6763629 7.6582031,9.3671875 7.3976857,9.2319728 7.1052771,9.1542969 6.7910156,9.1542969 Z"
     style="fill:#ffffff"
     id="path10" />
  <path
     d="m 8.7324219,7.2050781 0.9140625,1.5957032 c 0.080869,0.016092 0.1603242,0.036457 0.2382812,0.060547 C 9.8612774,8.374569 9.6623494,7.9360191 9.3398438,7.6132812 9.1667306,7.4402913 8.9609608,7.3010819 8.7324219,7.2050781 Z"
     style="fill:#ffffff"
     id="path9" />
  <path
     d="m 8,7.0585937 c -0.026141,10e-8 -0.052449,8.731e-4 -0.078125,0.00195 l 0.984375,1.71875 c 0.099271,-0.013672 0.1998399,-0.021484 0.3027344,-0.021484 0.052541,0 0.1046797,0.00222 0.15625,0.00586 L 8.4160156,7.1035156 C 8.282127,7.0736153 8.1430898,7.0585937 8,7.0585937 Z"
     style="fill:#ffffff"
     id="path8" />
  <path
     d="M 7.6777344,7.0859375 C 7.5511055,7.1077304 7.4292031,7.1420958 7.3125,7.1875 L 8.3183594,8.9453125 C 8.4324101,8.8962852 8.5515606,8.8545976 8.6738281,8.8242188 Z"
     style="fill:#ffffff"
     id="path7" />
  <path
     d="M 7.1074219,7.28125 C 6.9873282,7.3456444 6.8763456,7.4221154 6.7734375,7.5097656 l 0.7929687,1.3886719 c 0.1488867,0.05507 0.2906642,0.124836 0.4238282,0.2070313 L 8,9.0976563 l 0.00977,0.00781 c 0.035109,-0.021561 0.071356,-0.042539 0.1074219,-0.0625 z"
     style="fill:#ffffff"
     id="path6" />
  <path
     d="M 6.6054687,7.671875 C 6.5120079,7.7735526 6.4300839,7.8852599 6.3613281,8.0058594 l 0.4316406,0.7519531 c 0.1590722,1.094e-4 0.3132521,0.01857 0.4628907,0.050781 z"
     style="fill:#ffffff"
     id="path5" />
  <path
     d="M 6.2441406,8.2519531 C 6.1700391,8.442238 6.1253789,8.6466937 6.1152344,8.8613281 6.252746,8.8188497 6.3957638,8.7880683 6.5429687,8.7714844 Z"
     style="fill:#ffffff"
     id="path4" />
  <path
     d="m 0,5 v 7.880859 C 0,13.500859 0.49914124,14 1.1191406,14 H 14.880859 C 15.500859,14 16,13.500859 16,12.880859 V 6.1191406 C 16,5.4991412 15.500859,5 14.880859,5 Z m 8,1.6621094 c 1.264798,0 2.289063,1.0264509 2.289063,2.2910156 0,0.023721 -0.0012,0.044762 -0.002,0.068359 l 0.0059,0.00391 -0.002,0.00977 C 11.00816,9.4221655 11.5,10.174925 11.5,11.046875 c 0,1.264688 -1.025972,2.291016 -2.2910156,2.291016 -0.4413826,0 -0.8493557,-0.131204 -1.1992188,-0.347657 L 8,12.996094 l -0.00977,-0.0059 C 7.6403713,13.206687 7.2323845,13.337891 6.7910156,13.337891 5.5264637,13.337891 4.5,12.311563 4.5,11.046875 4.5,10.174925 4.9915942,9.4221655 5.7089844,9.0351563 l -0.00195,-0.00977 0.00586,-0.00391 c -7.246e-4,-0.023598 -0.00391,-0.04427 -0.00391,-0.068359 0,-1.2645647 1.02645,-2.2910156 2.2910156,-2.2910156 z"
     style="fill:#ffffff"
     id="path3" />
</svg>
