<?xml version="1.0" encoding="UTF-8" standalone="no"?>
<svg
   width="16"
   height="16"
   viewBox="0 0 16 16"
   fill="none"
   version="1.1"
   id="svg2"
   sodipodi:docname="ColumnOpen.svg"
   inkscape:version="1.3.2 (091e20e, 2023-11-25, custom)"
   xmlns:inkscape="http://www.inkscape.org/namespaces/inkscape"
   xmlns:sodipodi="http://sodipodi.sourceforge.net/DTD/sodipodi-0.dtd"
   xmlns="http://www.w3.org/2000/svg"
   xmlns:svg="http://www.w3.org/2000/svg">
  <defs
     id="defs2" />
  <sodipodi:namedview
     id="namedview2"
     pagecolor="#505050"
     bordercolor="#eeeeee"
     borderopacity="1"
     inkscape:showpageshadow="0"
     inkscape:pageopacity="0"
     inkscape:pagecheckerboard="0"
     inkscape:deskcolor="#505050"
     inkscape:zoom="25.919883"
     inkscape:cx="2.8742414"
     inkscape:cy="12.075672"
     inkscape:window-width="1718"
     inkscape:window-height="1360"
     inkscape:window-x="-7"
     inkscape:window-y="0"
     inkscape:window-maximized="0"
     inkscape:current-layer="svg2" />
  <path
     d="M14 7V5C14 4.44772 13.5523 4 13 4H8L6.28 2.28C6.1 2.1 5.86 2 5.6 2H0.96C0.43 2 0 2.43 0 2.96V13L4 7H14Z"
     fill="white"
     id="path1" />
  <path
     d="M4.83001 8L0.51001 14H12.31C12.63 14 12.93 13.84 13.11 13.57L15.83 9.5C16.26 8.86 15.8 8 15.03 8H4.83001Z"
     fill="white"
     id="path2" />
  <path
     sodipodi:type="star"
     style="fill:#868686"
     id="path3"
     inkscape:flatsided="false"
     sodipodi:sides="5"
     sodipodi:cx="9.0278187"
     sodipodi:cy="11.111161"
     sodipodi:r1="2.8891559"
     sodipodi:r2="1.4445781"
     sodipodi:arg1="0.97538645"
     sodipodi:arg2="1.603705"
     inkscape:rounded="0"
     inkscape:randomized="0"
     d="m 10.648196,13.503147 -1.6679079,-0.94819 -1.7266592,0.836439 0.3863705,-1.879282 -1.329068,-1.383676 1.9066984,-0.21327 0.9052499,-1.6915983 0.792034,1.7474739 1.8885433,0.3382114 -1.417195,1.293268 z"
     inkscape:transform-center-x="-0.029375487"
     inkscape:transform-center-y="-0.24780271" />
</svg>
