<?xml version="1.0" encoding="UTF-8" standalone="no"?>
<svg
   width="16"
   height="16"
   viewBox="0 0 16 16"
   fill="none"
   version="1.1"
   id="svg2"
   sodipodi:docname="ColumnOpen.svg"
   inkscape:version="1.3.2 (091e20e, 2023-11-25, custom)"
   xmlns:inkscape="http://www.inkscape.org/namespaces/inkscape"
   xmlns:sodipodi="http://sodipodi.sourceforge.net/DTD/sodipodi-0.dtd"
   xmlns="http://www.w3.org/2000/svg"
   xmlns:svg="http://www.w3.org/2000/svg">
  <defs
     id="defs2" />
  <sodipodi:namedview
     id="namedview2"
     pagecolor="#505050"
     bordercolor="#ffffff"
     borderopacity="1"
     inkscape:showpageshadow="0"
     inkscape:pageopacity="0"
     inkscape:pagecheckerboard="1"
     inkscape:deskcolor="#505050"
     inkscape:zoom="50.8125"
     inkscape:cx="7.202952"
     inkscape:cy="8.7675277"
     inkscape:window-width="1920"
     inkscape:window-height="1009"
     inkscape:window-x="-8"
     inkscape:window-y="-8"
     inkscape:window-maximized="1"
     inkscape:current-layer="svg2" />
  <rect
     style="opacity:0.5;fill:#ffffff;fill-opacity:1;stroke-opacity:0.4"
     id="rect4"
     width="7.8523984"
     height="4.9003692"
     x="4.7429276"
     y="8.8954487" />
  <path
     d="M14 7V5C14 4.44772 13.5523 4 13 4H8L6.28 2.28C6.1 2.1 5.86 2 5.6 2H0.96C0.43 2 0 2.43 0 2.96V13L4 7H14Z"
     fill="white"
     id="path1" />
  <path
     d="M 8.9882813,10.195313 C 8.7384044,10.435097 8.391955,10.625158 8.1113281,10.673828 l -1.4589844,1.738281 c 0.1989519,0.04866 0.2287089,0.23677 0.076172,0.476563 h 1.7382813 c 0.2498735,-0.239793 0.5982768,-0.427893 0.8789062,-0.476563 l 1.4570309,-1.738281 c -0.198944,-0.04867 -0.228711,-0.238731 -0.07617,-0.478515 z"
     style="fill:#ffffff"
     id="path4" />
  <path
     d="M 4.8300781,8 0.50976562,14 H 12.310547 c 0.32,0 0.618828,-0.159688 0.798828,-0.429687 L 15.830078,9.5 C 16.260078,8.8600006 15.799296,8 15.029297,8 Z m 4.1757813,1.4609375 c 0.2960638,0 0.3651861,0.2109037 0.1875,0.4902344 h 1.7382816 c 0.291078,-0.2793307 0.71565,-0.4902344 1.011718,-0.4902344 0.33798,0 0.381254,0.2753025 0.09766,0.6132815 -0.248428,0.296063 -0.665286,0.542909 -0.992188,0.599609 l -1.4589842,1.738281 c 0.2317556,0.05669 0.2347591,0.303541 -0.013672,0.59961 -0.2835956,0.337975 -0.7870239,0.611328 -1.125,0.611328 -0.2960681,0 -0.3671425,-0.210909 -0.1894531,-0.490234 H 6.5234375 c -0.2910814,0.279325 -0.7137019,0.490234 -1.0097656,0.490234 -0.3379792,0 -0.3812519,-0.273353 -0.097656,-0.611328 0.2484309,-0.296069 0.665287,-0.54292 0.9921875,-0.59961 l 1.4589844,-1.738281 c -0.2317531,-0.0567 -0.2347551,-0.303546 0.013672,-0.599609 0.2835978,-0.3379789 0.7870214,-0.6132815 1.125,-0.6132815 z"
     style="fill:#ffffff"
     id="path3" />
</svg>
