<?xml version="1.0" encoding="UTF-8" standalone="no"?>
<svg
   width="16"
   height="16"
   viewBox="0 0 16 16"
   fill="none"
   version="1.1"
   id="svg2"
   sodipodi:docname="ColumnClosed.svg"
   inkscape:version="1.3.2 (091e20e, 2023-11-25, custom)"
   xmlns:inkscape="http://www.inkscape.org/namespaces/inkscape"
   xmlns:sodipodi="http://sodipodi.sourceforge.net/DTD/sodipodi-0.dtd"
   xmlns="http://www.w3.org/2000/svg"
   xmlns:svg="http://www.w3.org/2000/svg">
  <defs
     id="defs2" />
  <sodipodi:namedview
     id="namedview2"
     pagecolor="#505050"
     bordercolor="#ffffff"
     borderopacity="1"
     inkscape:showpageshadow="0"
     inkscape:pageopacity="0"
     inkscape:pagecheckerboard="1"
     inkscape:deskcolor="#505050"
     inkscape:zoom="50.8125"
     inkscape:cx="7.6555966"
     inkscape:cy="7.9803198"
     inkscape:window-width="1920"
     inkscape:window-height="1009"
     inkscape:window-x="-8"
     inkscape:window-y="-8"
     inkscape:window-maximized="1"
     inkscape:current-layer="svg2" />
  <rect
     style="opacity:0.5;fill:#ffffff;fill-opacity:1;stroke-opacity:0.4"
     id="rect3"
     width="9.0922508"
     height="7.2619925"
     x="3.5030751"
     y="6.5731859" />
  <path
     d="M8 4L6.33 2.33C6.12 2.12 5.83 2 5.54 2H1.12C0.5 2 0 2.5 0 3.12V4H8Z"
     fill="white"
     id="path1" />
  <path
     d="m 0,5 v 7.880859 C 0,13.500859 0.49914124,14 1.1191406,14 H 14.880859 C 15.500859,14 16,13.500859 16,12.880859 V 6.1191406 C 16,5.4991412 15.500859,5 14.880859,5 Z m 5.7050781,2.0449219 c 0.4624477,0 0.8489356,0.3293148 0.9375,0.765625 h 2.7148438 c 0.088553,-0.4363102 0.4750443,-0.765625 0.9375001,-0.765625 0.527913,0 0.955078,0.4291131 0.955078,0.9570312 0,0.4624478 -0.329321,0.8469826 -0.765625,0.9355469 v 2.714844 c 0.436304,0.08855 0.765625,0.475044 0.765625,0.9375 0,0.527913 -0.427165,0.955078 -0.955078,0.955078 -0.4624558,0 -0.8489472,-0.327369 -0.9375001,-0.763672 H 6.6425781 c -0.088564,0.436303 -0.4750523,0.763672 -0.9375,0.763672 C 5.17716,13.544922 4.75,13.117757 4.75,12.589844 c 0,-0.462456 0.3293148,-0.848946 0.765625,-0.9375 V 8.9375 C 5.0793149,8.8489356 4.75,8.4644009 4.75,8.0019531 4.75,7.474035 5.17716,7.0449219 5.7050781,7.0449219 Z m 0.9375,1.1464844 H 9.3574219 C 9.4334308,8.5659475 9.7289631,8.861473 10.103516,8.9375 v 2.714844 c -0.3745529,0.07601 -0.6700824,0.371541 -0.7460941,0.746094 H 6.6425781 C 6.5665511,12.023885 6.2710255,11.728356 5.8964844,11.652344 V 8.9375 C 6.2710255,8.861473 6.5665511,8.5659475 6.6425781,8.1914063 Z"
     style="fill:#ffffff"
     id="path3" />
</svg>
