<?xml version="1.0" encoding="UTF-8" standalone="no"?>
<svg
   width="16"
   height="16"
   viewBox="0 0 16 16"
   fill="none"
   version="1.1"
   id="svg2"
   sodipodi:docname="ColumnClosed.svg"
   inkscape:version="1.3.2 (091e20e, 2023-11-25, custom)"
   xmlns:inkscape="http://www.inkscape.org/namespaces/inkscape"
   xmlns:sodipodi="http://sodipodi.sourceforge.net/DTD/sodipodi-0.dtd"
   xmlns="http://www.w3.org/2000/svg"
   xmlns:svg="http://www.w3.org/2000/svg">
  <defs
     id="defs2" />
  <sodipodi:namedview
     id="namedview2"
     pagecolor="#505050"
     bordercolor="#ffffff"
     borderopacity="1"
     inkscape:showpageshadow="0"
     inkscape:pageopacity="0"
     inkscape:pagecheckerboard="1"
     inkscape:deskcolor="#505050"
     inkscape:zoom="50.8125"
     inkscape:cx="7.9901599"
     inkscape:cy="8"
     inkscape:window-width="1920"
     inkscape:window-height="1009"
     inkscape:window-x="-8"
     inkscape:window-y="-8"
     inkscape:window-maximized="1"
     inkscape:current-layer="svg2" />
  <rect
     style="opacity:0.5;fill:#ffffff;stroke-width:0.992602;stroke-opacity:0.4;fill-opacity:1"
     id="rect5"
     width="7.5178351"
     height="7.8917589"
     x="4.2509227"
     y="5.8646984" />
  <path
     d="M8 4L6.33 2.33C6.12 2.12 5.83 2 5.54 2H1.12C0.5 2 0 2.5 0 3.12V4H8Z"
     fill="white"
     id="path1" />
  <path
     d="m 6,9.7832031 c -0.1840939,0 -0.3339844,0.1479305 -0.3339844,0.3320309 v 2.333985 c 0,0.184101 0.1498905,0.333984 0.3339844,0.333984 h 4 c 0.1841,0 0.333984,-0.149883 0.333984,-0.333984 V 10.115234 C 10.333984,9.9311336 10.1841,9.7832031 10,9.7832031 Z m 2,1.0273439 c 0.2761342,0 0.5,0.223833 0.5,0.5 0,0.276135 -0.2238658,0.5 -0.5,0.5 -0.2761343,0 -0.5,-0.223865 -0.5,-0.5 0,-0.276167 0.2238657,-0.5 0.5,-0.5 z"
     style="fill:#ffffff"
     id="path5" />
  <path
     d="m 8,6.7832031 c -0.4044014,0 -0.6684714,0.1450985 -0.8554688,0.3554688 -0.197444,0.2221244 -0.3253334,0.5362645 -0.4023437,0.8828125 -0.07624,0.3430847 -0.095703,0.6919373 -0.095703,0.9589844 0,0.048312 8.871e-4,0.092982 0.00195,0.1347656 h 2.703125 c 0.00108,-0.04178 0.00195,-0.086459 0.00195,-0.1347656 0,-0.2670471 -0.019467,-0.6158997 -0.095703,-0.9589844 C 9.180806,7.6749364 9.0529027,7.3607963 8.8554688,7.1386719 8.668468,6.9283016 8.4044013,6.7832031 8,6.7832031 Z"
     style="fill:#ffffff"
     id="path4" />
  <path
     d="m 0,5 v 7.880859 C 0,13.500859 0.49914124,14 1.1191406,14 H 14.880859 C 15.500859,14 16,13.500859 16,12.880859 V 6.1191406 C 16,5.4991412 15.500859,5 14.880859,5 Z m 8,1.1152344 c 0.595602,0 1.0405143,0.2279472 1.3535156,0.5800781 0.3025672,0.3403781 0.4650203,0.778186 0.5546875,1.1816406 0.090433,0.4069178 0.1132809,0.8080614 0.1132809,1.1035157 0,0.047862 -9.2e-4,0.092375 -0.002,0.1347656 C 10.562901,9.1255344 11,9.5693989 11,10.115234 v 2.333985 c 0,0.552302 -0.447698,1 -1,1 H 6 c -0.5522851,0 -1,-0.447698 -1,-1 V 10.115234 C 5,9.5693989 5.4370902,9.1255344 5.9804687,9.1152344 c -9.599e-4,-0.04239 -0.00195,-0.086902 -0.00195,-0.1347656 0,-0.2954543 0.022858,-0.6965979 0.1132813,-1.1035157 C 6.1814538,7.4734985 6.3439268,7.0356906 6.6464844,6.6953125 6.9594888,6.3431816 7.404398,6.1152344 8,6.1152344 Z"
     style="fill:#ffffff"
     id="path3" />
</svg>
