<?xml version="1.0" encoding="UTF-8" standalone="no"?>
<svg
   width="16"
   height="16"
   viewBox="0 0 16 16"
   fill="none"
   version="1.1"
   id="svg2"
   sodipodi:docname="ColumnOpen.svg"
   inkscape:version="1.3.2 (091e20e, 2023-11-25, custom)"
   xmlns:inkscape="http://www.inkscape.org/namespaces/inkscape"
   xmlns:sodipodi="http://sodipodi.sourceforge.net/DTD/sodipodi-0.dtd"
   xmlns="http://www.w3.org/2000/svg"
   xmlns:svg="http://www.w3.org/2000/svg">
  <defs
     id="defs2" />
  <sodipodi:namedview
     id="namedview2"
     pagecolor="#505050"
     bordercolor="#ffffff"
     borderopacity="1"
     inkscape:showpageshadow="0"
     inkscape:pageopacity="0"
     inkscape:pagecheckerboard="1"
     inkscape:deskcolor="#505050"
     inkscape:zoom="50.8125"
     inkscape:cx="7.9901599"
     inkscape:cy="8"
     inkscape:window-width="1920"
     inkscape:window-height="1009"
     inkscape:window-x="-8"
     inkscape:window-y="-8"
     inkscape:window-maximized="1"
     inkscape:current-layer="svg2" />
  <rect
     style="opacity:0.5;fill:#ffffff;stroke-opacity:0.4;fill-opacity:1"
     id="rect5"
     width="7.1635919"
     height="5.1365314"
     x="4.8413286"
     y="8.6789665" />
  <path
     d="M14 7V5C14 4.44772 13.5523 4 13 4H8L6.28 2.28C6.1 2.1 5.86 2 5.6 2H0.96C0.43 2 0 2.43 0 2.96V13L4 7H14Z"
     fill="white"
     id="path1" />
  <path
     d="m 7.7597656,11.328125 c -0.1164313,0 -0.2909708,0.09254 -0.3886719,0.208984 l -1.2382812,1.476563 c -0.097701,0.116435 -0.081275,0.210937 0.035156,0.210937 h 2.5292969 c 0.1164355,0 0.2909709,-0.0945 0.3886719,-0.210937 l 1.2382815,-1.476563 c 0.0977,-0.116435 0.08127,-0.208984 -0.03516,-0.208984 z m 0.71875,0.650391 c 0.1746426,0 0.1973421,0.139789 0.050781,0.314453 -0.1465424,0.174642 -0.4073886,0.316406 -0.5820313,0.316406 -0.1746426,0 -0.197324,-0.141764 -0.050781,-0.316406 0.1465604,-0.174664 0.4073886,-0.314453 0.5820312,-0.314453 z"
     style="fill:#ffffff"
     id="path5" />
  <path
     d="m 10.617188,9.4296875 c -0.255766,0 -0.500559,0.093512 -0.7304692,0.2265625 -0.2427543,0.1404836 -0.4900401,0.3374643 -0.7226563,0.556641 -0.2302912,0.216985 -0.4285921,0.438527 -0.5703125,0.607422 -0.025638,0.03055 -0.048813,0.05951 -0.070312,0.08594 h 1.7109375 c 0.02285,-0.02643 0.04663,-0.05538 0.07227,-0.08594 0.14172,-0.168895 0.313406,-0.390437 0.447265,-0.607422 C 10.889118,9.9937143 10.975739,9.7967336 10.96875,9.65625 10.96215,9.5231999 10.87295,9.4296875 10.617188,9.4296875 Z"
     style="fill:#ffffff"
     id="path4" />
  <path
     d="M 4.8300781,8 0.50976562,14 H 12.310547 c 0.32,0 0.618828,-0.159688 0.798828,-0.429687 L 15.830078,9.5 C 16.260078,8.8600006 15.799296,8 15.029297,8 Z m 6.1406249,1.0078125 c 0.376692,0 0.53579,0.1444802 0.546875,0.3671875 0.01073,0.2152739 -0.116038,0.4909262 -0.273437,0.746094 -0.158755,0.257357 -0.358831,0.512357 -0.515625,0.699219 -0.0254,0.03027 -0.04919,0.05913 -0.07227,0.08594 0.33819,0.0065 0.379509,0.285644 0.08984,0.630859 L 9.5078125,13.013672 C 9.2147097,13.362978 8.6930564,13.646484 8.34375,13.646484 H 5.8144531 c -0.3492958,0 -0.3946653,-0.283506 -0.1015625,-0.632812 L 6.9511719,11.537109 C 7.2408426,11.191894 7.7524336,10.912765 8.1015625,10.90625 8.1234515,10.87944 8.146475,10.850582 8.171875,10.820313 8.3286704,10.63345 8.5549874,10.378451 8.828125,10.121094 9.0989398,9.8659262 9.4346501,9.5902739 9.8066406,9.375 10.191475,9.1522927 10.594012,9.0078125 10.970703,9.0078125 Z"
     style="fill:#ffffff"
     id="path3" />
</svg>
