<?xml version="1.0" encoding="UTF-8" standalone="no"?>
<svg
   width="104"
   height="104"
   viewBox="0 0 104 104"
   fill="none"
   version="1.1"
   id="svg15"
   sodipodi:docname="Normal.svg"
   inkscape:version="1.3.2 (091e20e, 2023-11-25, custom)"
   xmlns:inkscape="http://www.inkscape.org/namespaces/inkscape"
   xmlns:sodipodi="http://sodipodi.sourceforge.net/DTD/sodipodi-0.dtd"
   xmlns="http://www.w3.org/2000/svg"
   xmlns:svg="http://www.w3.org/2000/svg">
  <sodipodi:namedview
     id="namedview15"
     pagecolor="#505050"
     bordercolor="#ffffff"
     borderopacity="1"
     inkscape:showpageshadow="0"
     inkscape:pageopacity="0"
     inkscape:pagecheckerboard="1"
     inkscape:deskcolor="#505050"
     inkscape:zoom="7.8173077"
     inkscape:cx="51.936039"
     inkscape:cy="52"
     inkscape:window-width="1920"
     inkscape:window-height="1009"
     inkscape:window-x="-8"
     inkscape:window-y="-8"
     inkscape:window-maximized="1"
     inkscape:current-layer="svg15" />
  <defs
     id="defs10">
    <linearGradient
       id="paint0_linear"
       x1="24.6804"
       y1="12"
       x2="24.6804"
       y2="34.1649"
       gradientUnits="userSpaceOnUse">
      <stop
         offset="0.349258"
         stop-color="#878787"
         id="stop1" />
      <stop
         offset="1"
         stop-color="#464646"
         id="stop2" />
    </linearGradient>
    <linearGradient
       id="paint1_linear"
       x1="24.6804"
       y1="12"
       x2="24.6804"
       y2="34.1649"
       gradientUnits="userSpaceOnUse">
      <stop
         offset="0.349258"
         stop-color="#BEBEBE"
         id="stop3" />
      <stop
         offset="1"
         stop-color="#464646"
         id="stop4" />
    </linearGradient>
    <linearGradient
       id="paint2_linear"
       x1="24.645"
       y1="12"
       x2="24.645"
       y2="27.9794"
       gradientUnits="userSpaceOnUse">
      <stop
         stop-color="#DAB277"
         stop-opacity="0.21"
         id="stop5" />
      <stop
         offset="1"
         stop-opacity="0"
         id="stop6" />
    </linearGradient>
    <linearGradient
       id="paint3_linear"
       x1="72.103"
       y1="17.4124"
       x2="1.99994"
       y2="86.2268"
       gradientUnits="userSpaceOnUse">
      <stop
         stop-color="#C5C5C5"
         id="stop7" />
      <stop
         offset="1"
         stop-color="white"
         id="stop8" />
    </linearGradient>
    <linearGradient
       id="paint4_linear"
       x1="52"
       y1="19.732"
       x2="52"
       y2="86.2268"
       gradientUnits="userSpaceOnUse">
      <stop
         stop-color="white"
         id="stop9" />
      <stop
         offset="0.84496"
         stop-color="white"
         stop-opacity="0"
         id="stop10" />
    </linearGradient>
  </defs>
  <path
     d="M2.00004 20C2.00005 15.5817 5.58177 12 10 12H36.9744C39.2842 12 41.4813 12.9983 43.0005 14.7382L46.7298 19.0093C47.1287 19.4662 47.2988 20.0793 47.1922 20.6764L44.7835 34.1649H2L2.00004 20Z"
     fill="url(#paint0_linear)"
     id="path10" />
  <path
     d="M2.00005 16.1237C2.00006 13.8462 3.8463 12 6.12376 12H38.7358C39.9264 12 41.0589 12.5146 41.842 13.4115L47.0356 19.3595C47.2412 19.595 47.3289 19.911 47.2739 20.2188L44.7835 34.1649H2L2.00005 16.1237Z"
     fill="url(#paint1_linear)"
     id="path11" />
  <path
     fill-rule="evenodd"
     clip-rule="evenodd"
     d="M38.7358 12.5155H6.12376C4.13099 12.5155 2.51552 14.1309 2.51552 16.1237L2.51547 33.6495H44.3519L46.7665 20.1281C46.7939 19.9743 46.7501 19.8162 46.6473 19.6985L41.4537 13.7505C40.7685 12.9657 39.7776 12.5155 38.7358 12.5155ZM44.7835 34.1649L47.2739 20.2188C47.3289 19.911 47.2412 19.595 47.0356 19.3595L41.842 13.4115C41.0589 12.5146 39.9264 12 38.7358 12H6.12376C3.8463 12 2.00006 13.8462 2.00005 16.1237L2 34.1649H44.7835Z"
     fill="url(#paint2_linear)"
     id="path12" />
  <path
     d="M2 29.5258C2 28.387 2.92312 27.4639 4.06186 27.4639H39.1933C40.446 27.4639 41.6308 26.8945 42.4134 25.9163L47.0513 20.1189C47.2469 19.8743 47.5431 19.732 47.8563 19.732H97.8763C100.154 19.732 102 21.5782 102 23.8557V85.1959C102 85.7652 101.538 86.2268 100.969 86.2268H3.03093C2.46156 86.2268 2 85.7652 2 85.1959V29.5258Z"
     fill="url(#paint3_linear)"
     id="path13" />
  <path
     fill-rule="evenodd"
     clip-rule="evenodd"
     d="M101.485 85.1959V23.8557C101.485 21.8629 99.8691 20.2474 97.8763 20.2474H47.8563C47.6997 20.2474 47.5516 20.3186 47.4538 20.4409L42.8159 26.2383C41.9355 27.3388 40.6026 27.9794 39.1933 27.9794H4.06186C3.20781 27.9794 2.51546 28.6717 2.51546 29.5258V85.1959C2.51546 85.4806 2.74624 85.7113 3.03093 85.7113H100.969C101.254 85.7113 101.485 85.4806 101.485 85.1959ZM4.06186 27.4639C2.92312 27.4639 2 28.387 2 29.5258V85.1959C2 85.7652 2.46156 86.2268 3.03093 86.2268H100.969C101.538 86.2268 102 85.7652 102 85.1959V23.8557C102 21.5782 100.154 19.732 97.8763 19.732H47.8563C47.5431 19.732 47.2469 19.8743 47.0513 20.1189L42.4134 25.9163C41.6308 26.8945 40.446 27.4639 39.1933 27.4639H4.06186Z"
     fill="url(#paint4_linear)"
     id="path14" />
  <path
     d="M2 85H102V85C102 85.854 101.308 86.5464 100.454 86.5464H3.54639C2.69235 86.5464 2 85.854 2 85V85Z"
     fill="#878787"
     id="path15" />
  <path
     d="m 55.333334,67.856443 c 0,1.840889 -1.492445,3.333333 -3.333334,3.333333 -1.840888,0 -3.333334,-1.492444 -3.333334,-3.333333 0,-1.841111 1.492445,-3.333333 3.333334,-3.333333 1.840888,0 3.333334,1.492222 3.333334,3.333333 z"
     fill="#0F0F0F"
     id="path1"
     style="fill:#000000;fill-opacity:0.40000001;stroke-width:2.22222" />
  <path
     fill-rule="evenodd"
     clip-rule="evenodd"
     d="m 38.537975,53.223332 c -0.0064,-0.2826 -0.0102,-0.584822 -0.0102,-0.903889 0,-1.969689 0.144533,-4.644289 0.747356,-7.357067 0.59771,-2.689689 1.6858,-5.600111 3.702844,-7.869289 2.086689,-2.347533 5.051356,-3.870867 9.022022,-3.870867 3.970668,0 6.935334,1.523334 9.022,3.870867 2.017112,2.269178 3.105112,5.1796 3.70289,7.869289 0.602888,2.712778 0.747333,5.387378 0.747333,7.357067 0,0.319067 -0.0038,0.621289 -0.01022,0.903889 3.622445,0.06867 6.538,3.026666 6.538,6.665555 v 15.555556 c 0,3.682 -2.984667,6.666667 -6.666667,6.666667 H 38.666667 C 34.984778,82.11111 32,79.126443 32,75.444443 V 59.888887 c 0,-3.638889 2.915467,-6.596889 6.537977,-6.665555 z m 22.478245,-0.0011 c 0.0071,-0.278555 0.01155,-0.58071 0.01155,-0.902777 0,-1.780311 -0.133333,-4.105711 -0.641555,-6.392934 -0.513333,-2.310311 -1.369778,-4.399889 -2.686,-5.880711 -1.246667,-1.402466 -3.004223,-2.379133 -5.700223,-2.379133 -2.696,0 -4.453555,0.976667 -5.7002,2.379133 -1.316288,1.480822 -2.172644,3.5704 -2.686044,5.880711 -0.508267,2.287223 -0.641534,4.612623 -0.641534,6.392934 0,0.322067 0.0043,0.624222 0.01145,0.902777 z m 6.539333,6.666667 c 0,-1.227333 -0.994889,-2.222222 -2.222222,-2.222222 H 38.666664 c -1.227289,0 -2.222222,0.994889 -2.222222,2.222222 v 15.555556 c 0,1.227333 0.994933,2.222222 2.222222,2.222222 h 26.666667 c 1.227333,0 2.222222,-0.994889 2.222222,-2.222222 z"
     fill="#0F0F0F"
     id="path2"
     style="fill:#000000;fill-opacity:0.40000001;stroke-width:2.22222" />
</svg>
