<?xml version="1.0" encoding="UTF-8" standalone="no"?>
<svg
   width="16"
   height="16"
   viewBox="0 0 16 16"
   fill="none"
   version="1.1"
   id="svg2"
   sodipodi:docname="ColumnClosed.svg"
   inkscape:version="1.3.2 (091e20e, 2023-11-25, custom)"
   xmlns:inkscape="http://www.inkscape.org/namespaces/inkscape"
   xmlns:sodipodi="http://sodipodi.sourceforge.net/DTD/sodipodi-0.dtd"
   xmlns="http://www.w3.org/2000/svg"
   xmlns:svg="http://www.w3.org/2000/svg">
  <defs
     id="defs2" />
  <sodipodi:namedview
     id="namedview2"
     pagecolor="#505050"
     bordercolor="#ffffff"
     borderopacity="1"
     inkscape:showpageshadow="0"
     inkscape:pageopacity="0"
     inkscape:pagecheckerboard="1"
     inkscape:deskcolor="#505050"
     inkscape:zoom="50.8125"
     inkscape:cx="7.9901599"
     inkscape:cy="8"
     inkscape:window-width="1920"
     inkscape:window-height="1009"
     inkscape:window-x="-8"
     inkscape:window-y="-8"
     inkscape:window-maximized="1"
     inkscape:current-layer="svg2" />
  <rect
     style="opacity:0.5;fill:#ffffff;fill-opacity:1;stroke-opacity:0.4"
     id="rect5"
     width="9.0135298"
     height="7.9114389"
     x="3.2472324"
     y="5.9237394" />
  <path
     d="M8 4L6.33 2.33C6.12 2.12 5.83 2 5.54 2H1.12C0.5 2 0 2.5 0 3.12V4H8Z"
     fill="white"
     id="path1" />
  <path
     d="M 9.3125,10.964844 8.9648438,11.3125 10.625,12.972656 10.972656,12.625 Z"
     style="fill:#ffffff"
     id="path5" />
  <path
     d="m 6.796875,6.9375 c -1.0252843,0 -1.859375,0.8340907 -1.859375,1.859375 0,1.0252843 0.8340907,1.859375 1.859375,1.859375 1.0252843,0 1.859375,-0.8340907 1.859375,-1.859375 C 8.65625,7.7715907 7.8221593,6.9375 6.796875,6.9375 Z"
     style="fill:#ffffff"
     id="path4" />
  <path
     d="m 0,5 v 7.880859 C 0,13.500859 0.49914124,14 1.1191406,14 H 14.880859 C 15.500859,14 16,13.500859 16,12.880859 V 6.1191406 C 16,5.4991412 15.500859,5 14.880859,5 Z m 6.796875,1.5 c 1.2664568,0 2.296875,1.0303088 2.296875,2.296875 0,0.5546423 -0.1969365,1.063577 -0.5253906,1.460938 l 0.4160156,0.417968 0.1738281,-0.173828 c 0.085422,-0.08542 0.2231716,-0.08542 0.3085938,0 l 1.9687501,1.96875 c 0.08542,0.08542 0.08542,0.223172 0,0.308594 l -0.65625,0.65625 C 10.736531,13.478313 10.681,13.5 10.625,13.5 c -0.056,0 -0.111531,-0.02169 -0.154297,-0.06445 l -1.9687499,-1.96875 c -0.085422,-0.08542 -0.085422,-0.223172 0,-0.308594 L 8.6757813,10.984375 8.2578125,10.568359 C 7.860452,10.896813 7.3515173,11.09375 6.796875,11.09375 5.5304182,11.09375 4.5,10.063441 4.5,8.796875 4.5,7.5303088 5.5304182,6.5 6.796875,6.5 Z"
     style="fill:#ffffff"
     id="path3" />
</svg>
