<?xml version="1.0" encoding="UTF-8" standalone="no"?>
<svg
   width="16"
   height="16"
   viewBox="0 0 16 16"
   fill="none"
   version="1.1"
   id="svg2"
   sodipodi:docname="ColumnOpen.svg"
   inkscape:version="1.3.2 (091e20e, 2023-11-25, custom)"
   xmlns:inkscape="http://www.inkscape.org/namespaces/inkscape"
   xmlns:sodipodi="http://sodipodi.sourceforge.net/DTD/sodipodi-0.dtd"
   xmlns="http://www.w3.org/2000/svg"
   xmlns:svg="http://www.w3.org/2000/svg">
  <defs
     id="defs2" />
  <sodipodi:namedview
     id="namedview2"
     pagecolor="#505050"
     bordercolor="#ffffff"
     borderopacity="1"
     inkscape:showpageshadow="0"
     inkscape:pageopacity="0"
     inkscape:pagecheckerboard="1"
     inkscape:deskcolor="#505050"
     inkscape:zoom="48.878756"
     inkscape:cx="6.6491054"
     inkscape:cy="8.5620018"
     inkscape:window-width="1920"
     inkscape:window-height="1009"
     inkscape:window-x="-8"
     inkscape:window-y="-8"
     inkscape:window-maximized="1"
     inkscape:current-layer="svg2" />
  <rect
     style="opacity:0.5;fill:#ffffff;fill-opacity:1;stroke-opacity:0.4"
     id="rect5"
     width="5.4829545"
     height="5.1760726"
     x="5.8102951"
     y="8.6745253" />
  <path
     d="M14 7V5C14 4.44772 13.5523 4 13 4H8L6.28 2.28C6.1 2.1 5.86 2 5.6 2H0.96C0.43 2 0 2.43 0 2.96V13L4 7H14Z"
     fill="white"
     id="path1" />
  <path
     d="m 8.9648438,11.978516 -0.4257813,0.232422 0.1777344,1.107421 0.4257812,-0.232421 z"
     style="fill:#ffffff"
     id="path5" />
  <path
     d="m 9.5410156,9.2910156 c -0.6841892,0 -1.707147,0.5560452 -2.28125,1.2402344 -0.5741029,0.684189 -0.4849704,1.242188 0.1992188,1.242188 0.6841892,-1e-6 1.7091002,-0.557999 2.2832031,-1.242188 C 10.31629,9.8470608 10.225205,9.2910156 9.5410156,9.2910156 Z"
     style="fill:#ffffff"
     id="path4" />
  <path
     d="M 4.8300781,8 0.50976562,14 H 12.310547 c 0.32,0 0.618828,-0.159688 0.798828,-0.429687 L 15.830078,9.5 C 16.260078,8.8600006 15.799296,8 15.029297,8 Z m 4.9570313,1 c 0.8451276,0 0.9553016,0.6860493 0.2460936,1.53125 -0.3105691,0.370122 -0.7282388,0.711397 -1.1699217,0.976563 l 0.044922,0.277343 0.2128907,-0.115234 c 0.1048353,-0.057 0.1978593,-0.057 0.2070312,0 l 0.2109375,1.3125 c 0.00917,0.057 -0.068993,0.150028 -0.1738281,0.207031 l -0.8046875,0.4375 c -0.052485,0.02854 -0.1013021,0.04297 -0.1386719,0.04297 -0.03737,0 -0.063768,-0.01443 -0.068359,-0.04297 l -0.2109375,-1.3125 c -0.00917,-0.057 0.068993,-0.150028 0.1738282,-0.207031 L 8.5292969,11.992188 8.484375,11.712891 c -0.4490816,0.219182 -0.8994093,0.351562 -1.2695313,0.351562 -0.8451276,0 -0.9572544,-0.688002 -0.2480468,-1.533203 C 7.6760045,9.6860493 8.9419817,9 9.7871094,9 Z"
     style="fill:#ffffff"
     id="path3" />
</svg>
