<?xml version="1.0" encoding="UTF-8" standalone="no"?>
<svg
   width="16"
   height="16"
   viewBox="0 0 16 16"
   fill="none"
   version="1.1"
   id="svg2"
   sodipodi:docname="ColumnOpen.svg"
   inkscape:version="1.3.2 (091e20e, 2023-11-25, custom)"
   xmlns:inkscape="http://www.inkscape.org/namespaces/inkscape"
   xmlns:sodipodi="http://sodipodi.sourceforge.net/DTD/sodipodi-0.dtd"
   xmlns="http://www.w3.org/2000/svg"
   xmlns:svg="http://www.w3.org/2000/svg">
  <defs
     id="defs2" />
  <sodipodi:namedview
     id="namedview2"
     pagecolor="#505050"
     bordercolor="#ffffff"
     borderopacity="1"
     inkscape:showpageshadow="0"
     inkscape:pageopacity="0"
     inkscape:pagecheckerboard="1"
     inkscape:deskcolor="#505050"
     inkscape:zoom="50.8125"
     inkscape:cx="7.9901599"
     inkscape:cy="8"
     inkscape:window-width="1920"
     inkscape:window-height="1009"
     inkscape:window-x="-8"
     inkscape:window-y="-8"
     inkscape:window-maximized="1"
     inkscape:current-layer="svg2" />
  <rect
     style="opacity:0.5;fill:#ffffff;fill-opacity:1;stroke-opacity:0.4"
     id="rect5"
     width="6.8290281"
     height="5.1168513"
     x="5.4514146"
     y="8.7773676" />
  <path
     d="M14 7V5C14 4.44772 13.5523 4 13 4H8L6.28 2.28C6.1 2.1 5.86 2 5.6 2H0.96C0.43 2 0 2.43 0 2.96V13L4 7H14Z"
     fill="white"
     id="path1" />
  <path
     d="m 9.21875,10.902344 -0.6484375,0.43164 -0.097656,0.28711 L 8.7363281,11.476563 9,11.333984 h 0.1445313 z"
     style="fill:#ffffff"
     id="path5" />
  <path
     d="m 10.363281,9.5390625 c -1.070899,0 -2.6678138,0.8666005 -3.566406,1.9375005 -0.8985919,1.070899 -0.7583998,1.939453 0.3125,1.939453 1.0709001,0 2.6678149,-0.868554 3.566406,-1.939453 0.898591,-1.0709 0.7584,-1.9375005 -0.3125,-1.9375005 z m -0.9042966,1.0761715 -0.296875,1.72461 h -2.296875 z"
     style="fill:#ffffff"
     id="path4" />
  <path
     d="M 4.8300781,8 0.50976562,14 H 12.310547 c 0.32,0 0.618828,-0.159688 0.798828,-0.429687 L 15.830078,9.5 C 16.260078,8.8600006 15.799296,8 15.029297,8 Z m 5.8359379,1.1796875 c 1.269231,0 1.434152,1.0276425 0.36914,2.2968755 -1.0650127,1.269231 -2.9573299,2.298828 -4.2265623,2.298828 -1.2692323,0 -1.4341529,-1.029597 -0.3691406,-2.298828 C 7.5044656,10.20733 9.396783,9.1796875 10.666016,9.1796875 Z"
     style="fill:#ffffff"
     id="path3" />
</svg>
