<?xml version="1.0" encoding="UTF-8" standalone="no"?>
<svg
   width="16"
   height="16"
   viewBox="0 0 16 16"
   fill="none"
   version="1.1"
   id="svg2"
   sodipodi:docname="ColumnClosed.svg"
   inkscape:version="1.3.2 (091e20e, 2023-11-25, custom)"
   xmlns:inkscape="http://www.inkscape.org/namespaces/inkscape"
   xmlns:sodipodi="http://sodipodi.sourceforge.net/DTD/sodipodi-0.dtd"
   xmlns="http://www.w3.org/2000/svg"
   xmlns:svg="http://www.w3.org/2000/svg">
  <defs
     id="defs2" />
  <sodipodi:namedview
     id="namedview2"
     pagecolor="#505050"
     bordercolor="#ffffff"
     borderopacity="1"
     inkscape:showpageshadow="0"
     inkscape:pageopacity="0"
     inkscape:pagecheckerboard="1"
     inkscape:deskcolor="#505050"
     inkscape:zoom="35.929863"
     inkscape:cx="3.9799762"
     inkscape:cy="8.5305084"
     inkscape:window-width="1920"
     inkscape:window-height="1009"
     inkscape:window-x="-8"
     inkscape:window-y="-8"
     inkscape:window-maximized="1"
     inkscape:current-layer="svg2" />
  <rect
     style="opacity:0.5;fill:#ffffff;fill-opacity:1;stroke-opacity:0.4"
     id="rect5"
     width="8.8505764"
     height="7.9321203"
     x="3.3955042"
     y="5.8168883" />
  <path
     d="M8 4L6.33 2.33C6.12 2.12 5.83 2 5.54 2H1.12C0.5 2 0 2.5 0 3.12V4H8Z"
     fill="white"
     id="path1" />
  <path
     d="M 8,9.125 7.5625,9.78125 7.78125,10.21875 8,10 8.21875,9.78125 H 8.4375 Z"
     style="fill:#ffffff"
     id="path5" />
  <path
     d="m 8,7.046875 c -1.6310121,0 -2.953125,1.3221125 -2.953125,2.953125 0,1.631011 1.3221129,2.953125 2.953125,2.953125 1.6310124,0 2.953125,-1.322114 2.953125,-2.953125 C 10.953125,8.3689875 9.6310124,7.046875 8,7.046875 Z m 0,1.640625 1.75,2.625 h -3.5 z"
     style="fill:#ffffff"
     id="path4" />
  <path
     d="m 0,5 v 7.880859 C 0,13.500859 0.49914124,14 1.1191406,14 H 14.880859 C 15.500859,14 16,13.500859 16,12.880859 V 6.1191406 C 16,5.4991412 15.500859,5 14.880859,5 Z m 8,1.5 c 1.9330781,0 3.5,1.5669217 3.5,3.5 0,1.933078 -1.5669219,3.5 -3.5,3.5 C 6.0669218,13.5 4.5,11.933078 4.5,10 4.5,8.0669217 6.0669218,6.5 8,6.5 Z"
     style="fill:#ffffff"
     id="path3" />
</svg>
