<?xml version="1.0" encoding="UTF-8" standalone="no"?>
<svg
   width="16"
   height="16"
   viewBox="0 0 16 16"
   fill="none"
   version="1.1"
   id="svg2"
   sodipodi:docname="ColumnClosed.svg"
   inkscape:version="1.3.2 (091e20e, 2023-11-25, custom)"
   xmlns:inkscape="http://www.inkscape.org/namespaces/inkscape"
   xmlns:sodipodi="http://sodipodi.sourceforge.net/DTD/sodipodi-0.dtd"
   xmlns="http://www.w3.org/2000/svg"
   xmlns:svg="http://www.w3.org/2000/svg">
  <defs
     id="defs2" />
  <sodipodi:namedview
     id="namedview2"
     pagecolor="#505050"
     bordercolor="#ffffff"
     borderopacity="1"
     inkscape:showpageshadow="0"
     inkscape:pageopacity="0"
     inkscape:pagecheckerboard="1"
     inkscape:deskcolor="#505050"
     inkscape:zoom="35.929863"
     inkscape:cx="9.1288964"
     inkscape:cy="7.9738683"
     inkscape:window-width="1920"
     inkscape:window-height="1009"
     inkscape:window-x="-8"
     inkscape:window-y="-8"
     inkscape:window-maximized="1"
     inkscape:current-layer="svg2" />
  <rect
     style="opacity:0.5;fill:#ffffff;fill-opacity:1;stroke-opacity:0.4"
     id="rect5"
     width="12.440905"
     height="6.5405202"
     x="1.836912"
     y="7.1528244" />
  <path
     d="M8 4L6.33 2.33C6.12 2.12 5.83 2 5.54 2H1.12C0.5 2 0 2.5 0 3.12V4H8Z"
     fill="white"
     id="path1" />
  <path
     d="m 10.5,9.0722656 c -0.7857135,0 -1.4277344,0.6420212 -1.4277344,1.4277344 0,0.785713 0.6420209,1.429688 1.4277344,1.429688 0.785713,-1e-6 1.427734,-0.643975 1.427734,-1.429688 0,-0.7857132 -0.642021,-1.4277344 -1.427734,-1.4277344 z"
     style="fill:#ffffff"
     id="path5" />
  <path
     d="m 5.5,9.0722656 c -0.7857135,0 -1.4277344,0.6420212 -1.4277344,1.4277344 0,0.785713 0.6420209,1.429688 1.4277344,1.429688 C 6.2857135,11.929687 6.9277344,11.285713 6.9277344,10.5 6.9277344,9.7142868 6.2857135,9.0722656 5.5,9.0722656 Z"
     style="fill:#ffffff"
     id="path4" />
  <path
     d="m 0,5 v 7.880859 C 0,13.500859 0.49914124,14 1.1191406,14 H 14.880859 C 15.500859,14 16,13.500859 16,12.880859 V 6.1191406 C 16,5.4991412 15.500859,5 14.880859,5 Z M 4.0722656,7.6445312 H 11.927734 C 12.534877,7.6445313 13,8.1077012 13,8.7148438 v 3.5722652 c 0,0.607143 -0.465123,1.070313 -1.072266,1.070313 H 9.7148438 c -0.2857141,0 -0.5357146,-0.106027 -0.75,-0.320313 L 8.25,12.322266 c -0.142857,-0.142858 -0.357143,-0.142858 -0.5,0 l -0.7148438,0.714843 c -0.1785712,0.214286 -0.4642859,0.320313 -0.75,0.320313 H 4.0722656 C 3.4651233,13.357422 3,12.894252 3,12.287109 V 8.7148438 C 3,8.1077012 3.4651233,7.6445312 4.0722656,7.6445312 Z"
     style="fill:#ffffff"
     id="path3" />
</svg>
