<?xml version="1.0" encoding="UTF-8" standalone="no"?>
<svg
   width="16"
   height="16"
   viewBox="0 0 16 16"
   fill="none"
   version="1.1"
   id="svg2"
   sodipodi:docname="ColumnOpen.svg"
   inkscape:version="1.3.2 (091e20e, 2023-11-25, custom)"
   xmlns:inkscape="http://www.inkscape.org/namespaces/inkscape"
   xmlns:sodipodi="http://sodipodi.sourceforge.net/DTD/sodipodi-0.dtd"
   xmlns="http://www.w3.org/2000/svg"
   xmlns:svg="http://www.w3.org/2000/svg">
  <defs
     id="defs2" />
  <sodipodi:namedview
     id="namedview2"
     pagecolor="#505050"
     bordercolor="#ffffff"
     borderopacity="1"
     inkscape:showpageshadow="0"
     inkscape:pageopacity="0"
     inkscape:pagecheckerboard="1"
     inkscape:deskcolor="#505050"
     inkscape:zoom="101.625"
     inkscape:cx="8.7773678"
     inkscape:cy="10.907749"
     inkscape:window-width="1920"
     inkscape:window-height="1009"
     inkscape:window-x="-8"
     inkscape:window-y="-8"
     inkscape:window-maximized="1"
     inkscape:current-layer="svg2" />
  <rect
     style="opacity:0.5;fill:#ffffff;fill-opacity:1;stroke-width:0.981426;stroke-opacity:0.4"
     id="rect5"
     width="8.3936043"
     height="4.3493233"
     x="4.1722016"
     y="9.4661751" />
  <path
     d="M14 7V5C14 4.44772 13.5523 4 13 4H8L6.28 2.28C6.1 2.1 5.86 2 5.6 2H0.96C0.43 2 0 2.43 0 2.96V13L4 7H14Z"
     fill="white"
     id="path1" />
  <path
     d="m 10.636719,11.138672 c -0.459748,0 -1.1513352,0.376189 -1.5371096,0.835937 -0.3857745,0.459749 -0.3249822,0.835938 0.1347656,0.835938 0.4597479,0 1.151334,-0.376189 1.537109,-0.835938 0.385775,-0.459748 0.324982,-0.835937 -0.134765,-0.835937 z"
     style="fill:#ffffff"
     id="path5" />
  <path
     d="m 7.7109375,11.138672 c -0.459748,0 -1.151335,0.376189 -1.5371094,0.835937 -0.3857744,0.459749 -0.3249824,0.835938 0.1347656,0.835938 0.4597481,0 1.1513351,-0.376189 1.5371094,-0.835938 0.3857744,-0.459748 0.3249824,-0.835937 -0.1347656,-0.835937 z"
     style="fill:#ffffff"
     id="path4" />
  <path
     d="M 4.8300781,8 0.50976562,14 H 12.310547 c 0.32,0 0.618828,-0.159688 0.798828,-0.429687 L 15.830078,9.5 C 16.260078,8.8600006 15.799296,8 15.029297,8 Z m 2.7460938,2.302734 h 4.5976561 c 0.355261,0 0.399662,0.271693 0.101563,0.626954 l -1.753907,2.089843 c -0.298097,0.35526 -0.7970833,0.626953 -1.1523434,0.626953 h -1.296875 c -0.1671812,0 -0.261075,-0.06211 -0.28125,-0.1875 l -0.066406,-0.417968 c -0.01345,-0.08359 -0.1392375,-0.08359 -0.2929688,0 l -0.7675781,0.417968 c -0.2096992,0.125379 -0.4304752,0.1875 -0.5976563,0.1875 H 4.7714844 c -0.3552599,0 -0.3996608,-0.271693 -0.1015625,-0.626953 l 1.7539062,-2.089843 c 0.2980983,-0.355261 0.7970838,-0.626954 1.1523438,-0.626954 z"
     style="fill:#ffffff"
     id="path3" />
</svg>
