<?xml version="1.0" encoding="UTF-8" standalone="no"?>
<svg
   width="16"
   height="16"
   viewBox="0 0 16 16"
   fill="none"
   version="1.1"
   id="svg2"
   sodipodi:docname="ColumnClosed.svg"
   inkscape:version="1.3.2 (091e20e, 2023-11-25, custom)"
   xmlns:inkscape="http://www.inkscape.org/namespaces/inkscape"
   xmlns:sodipodi="http://sodipodi.sourceforge.net/DTD/sodipodi-0.dtd"
   xmlns="http://www.w3.org/2000/svg"
   xmlns:svg="http://www.w3.org/2000/svg">
  <defs
     id="defs2" />
  <sodipodi:namedview
     id="namedview2"
     pagecolor="#505050"
     bordercolor="#ffffff"
     borderopacity="1"
     inkscape:showpageshadow="0"
     inkscape:pageopacity="0"
     inkscape:pagecheckerboard="1"
     inkscape:deskcolor="#505050"
     inkscape:zoom="35.929863"
     inkscape:cx="6.2482843"
     inkscape:cy="12.649645"
     inkscape:window-width="1920"
     inkscape:window-height="1009"
     inkscape:window-x="-8"
     inkscape:window-y="-8"
     inkscape:window-maximized="1"
     inkscape:current-layer="svg2" />
  <rect
     style="opacity:0.5;fill:#ffffff;stroke-width:1.00246;stroke-opacity:0.4;fill-opacity:1"
     id="rect6"
     width="10.270008"
     height="8.502676"
     x="2.6440401"
     y="5.3715763" />
  <path
     d="M8 4L6.33 2.33C6.12 2.12 5.83 2 5.54 2H1.12C0.5 2 0 2.5 0 3.12V4H8Z"
     fill="white"
     id="path1" />
  <path
     d="m 4.8007812,12.191406 c 0,0.4412 0.3576286,0.800782 0.7988282,0.800782 H 8 v -0.400391 c 0,-0.2208 -0.1795908,-0.400391 -0.4003906,-0.400391 z"
     style="fill:#ffffff"
     id="path6" />
  <path
     d="M 10.400391,6.5917969 V 7.390625 h 0.798828 c 0,-0.4411996 -0.357629,-0.7988281 -0.798828,-0.7988281 z"
     style="fill:#ffffff"
     id="path5" />
  <path
     d="m 7.1992187,6.5917969 c -0.4419995,0 -0.7988281,0.3568285 -0.7988281,0.7988281 v 4 H 8 c 0.4419996,0 0.8007813,0.358782 0.8007813,0.800781 v 0.800782 c 0.4411995,0 0.7988281,-0.359582 0.7988281,-0.800782 V 6.5917969 Z"
     style="fill:#ffffff"
     id="path4" />
  <path
     d="m 0,5 v 7.880859 C 0,13.500859 0.49914124,14 1.1191406,14 H 14.880859 C 15.500859,14 16,13.500859 16,12.880859 V 6.1191406 C 16,5.4991412 15.500859,5 14.880859,5 Z M 7.1992187,5.7910156 H 10.400391 C 11.28399,5.7910156 12,6.5070259 12,7.390625 v 0.4003906 c 0,0.2207998 -0.179591,0.4003907 -0.400391,0.4003907 h -1.199218 v 3.9999997 c 0,0.883599 -0.7160106,1.59961 -1.5996097,1.59961 H 5.5996094 C 4.7160103,13.791016 4,13.075005 4,12.191406 v -0.40039 c 0,-0.2208 0.1795908,-0.400391 0.4003906,-0.400391 h 1.1992188 v -4 c 0,-0.8835991 0.7160102,-1.5996094 1.5996093,-1.5996094 z"
     style="fill:#ffffff"
     id="path3" />
</svg>
