<?xml version="1.0" encoding="UTF-8" standalone="no"?>
<svg
   width="16"
   height="16"
   viewBox="0 0 16 16"
   fill="none"
   version="1.1"
   id="svg2"
   sodipodi:docname="ColumnOpen.svg"
   inkscape:version="1.3.2 (091e20e, 2023-11-25, custom)"
   xmlns:inkscape="http://www.inkscape.org/namespaces/inkscape"
   xmlns:sodipodi="http://sodipodi.sourceforge.net/DTD/sodipodi-0.dtd"
   xmlns="http://www.w3.org/2000/svg"
   xmlns:svg="http://www.w3.org/2000/svg">
  <defs
     id="defs2" />
  <sodipodi:namedview
     id="namedview2"
     pagecolor="#505050"
     bordercolor="#ffffff"
     borderopacity="1"
     inkscape:showpageshadow="0"
     inkscape:pageopacity="0"
     inkscape:pagecheckerboard="1"
     inkscape:deskcolor="#505050"
     inkscape:zoom="71.859727"
     inkscape:cx="7.7999183"
     inkscape:cy="11.292835"
     inkscape:window-width="1920"
     inkscape:window-height="1009"
     inkscape:window-x="-8"
     inkscape:window-y="-8"
     inkscape:window-maximized="1"
     inkscape:current-layer="svg2" />
  <rect
     style="opacity:0.5;fill:#ffffff;stroke-width:0.930689;stroke-opacity:0.4"
     id="rect6"
     width="8.1130276"
     height="5.107172"
     x="4.6201119"
     y="8.6696692" />
  <path
     d="M14 7V5C14 4.44772 13.5523 4 13 4H8L6.28 2.28C6.1 2.1 5.86 2 5.6 2H0.96C0.43 2 0 2.43 0 2.96V13L4 7H14Z"
     fill="white"
     id="path1" />
  <path
     d="m 5.4609375,12.736328 c -0.2277341,0.271403 -0.1913248,0.492188 0.080078,0.492188 h 1.4765625 l 0.2070313,-0.246094 c 0.1139703,-0.135825 0.094809,-0.246094 -0.041016,-0.246094 z"
     style="fill:#ffffff"
     id="path6" />
  <path
     d="m 11.796875,9.2910156 -0.412109,0.4921875 h 0.492187 c 0.227734,-0.2714029 0.191325,-0.4921875 -0.08008,-0.4921875 z"
     style="fill:#ffffff"
     id="path5" />
  <path
     d="m 9.828125,9.2910156 c -0.2718951,0 -0.6761498,0.2202925 -0.9042969,0.4921875 L 6.859375,12.244141 H 7.84375 c 0.2718951,0 0.3062721,0.220292 0.078125,0.492187 l -0.4121094,0.492188 c 0.271403,0 0.6765628,-0.220785 0.9042969,-0.492188 L 11.304688,9.2910156 Z"
     style="fill:#ffffff"
     id="path4" />
  <path
     d="M 4.8300781,8 0.50976562,14 H 12.310547 c 0.32,0 0.618828,-0.159688 0.798828,-0.429687 L 15.830078,9.5 C 16.260078,8.8600006 15.799296,8 15.029297,8 Z m 5.4121099,0.7988281 h 1.96875 c 0.543544,0 0.61429,0.440831 0.158203,0.984375 l -0.207032,0.2460939 c -0.11397,0.135824 -0.3173,0.246094 -0.453125,0.246094 H 10.970703 L 8.90625,12.736328 C 8.4501624,13.279872 7.6392472,13.720703 7.0957031,13.720703 H 5.1289062 c -0.543544,0 -0.6142907,-0.440831 -0.1582031,-0.984375 L 5.1757812,12.490234 C 5.2897515,12.35441 5.4930817,12.244141 5.6289062,12.244141 H 6.3671875 L 8.4316406,9.7832031 c 0.4560877,-0.543544 1.2670028,-0.984375 1.8105474,-0.984375 z"
     style="fill:#ffffff"
     id="path3" />
</svg>
