<svg width="104" height="104" xmlns="http://www.w3.org/2000/svg" xmlns:undefined="http://www.bohemiancoding.com/sketch/ns" fill="none">
 <defs>
  <linearGradient y2="1" x2="0.50152" y1="0" x1="0.50152" id="paint0_linear">
   <stop stop-color="#878787" offset="0.34926"/>
   <stop stop-color="#464646" offset="1"/>
  </linearGradient>
  <linearGradient y2="1" x2="0.50078" y1="0" x1="0.50078" id="paint1_linear">
   <stop stop-color="#BEBEBE" offset="0.34926"/>
   <stop stop-color="#464646" offset="1"/>
  </linearGradient>
  <linearGradient y2="0.72093" x2="0.5" y1="0" x1="0.5" id="paint2_linear">
   <stop stop-opacity="0.21" stop-color="#DAB277"/>
   <stop stop-opacity="0" offset="1"/>
  </linearGradient>
  <linearGradient y2="1" x2="0.5" y1="0" x1="0.5" id="paint4_linear">
   <stop stop-color="white"/>
   <stop stop-opacity="0" stop-color="white" offset="0.84496"/>
  </linearGradient>
  <linearGradient y2="1" x2="0" y1="-0.03488" x1="0.70103" id="paint3_linear">
   <stop stop-color="#C5C5C5"/>
   <stop stop-color="white" offset="1"/>
  </linearGradient>
 </defs>
 <g>
  <title>Layer 1</title>
  <path id="svg_1" fill="url(#paint0_linear)" d="m2.00004,20c0.00001,-4.4183 3.58173,-8 7.99996,-8l26.9744,0c2.3098,0 4.5069,0.9983 6.0261,2.7382l3.7293,4.2711c0.3989,0.4569 0.569,1.07 0.4624,1.6671l-2.4087,13.4885l-42.7835,0l0.00004,-14.1649z"/>
  <path id="svg_2" fill="url(#paint1_linear)" d="m2.00005,16.1237c0.00001,-2.2775 1.84625,-4.1237 4.12371,-4.1237l32.61204,0c1.1906,0 2.3231,0.5146 3.1062,1.4115l5.1936,5.948c0.2056,0.2355 0.2933,0.5515 0.2383,0.8593l-2.4904,13.9461l-42.7835,0l0.00005,-18.0412z"/>
  <path id="svg_3" fill="url(#paint2_linear)" d="m38.7358,12.5155l-32.61204,0c-1.99277,0 -3.60824,1.6154 -3.60824,3.6082l-0.00005,17.5258l41.83643,0l2.4146,-13.5214c0.0274,-0.1538 -0.0164,-0.3119 -0.1192,-0.4296l-5.1936,-5.948c-0.6852,-0.7848 -1.6761,-1.235 -2.7179,-1.235zm6.0477,21.6494l2.4904,-13.9461c0.055,-0.3078 -0.0327,-0.6238 -0.2383,-0.8593l-5.1936,-5.948c-0.7831,-0.8969 -1.9156,-1.4115 -3.1062,-1.4115l-32.61204,0c-2.27746,0 -4.1237,1.8462 -4.12371,4.1237l-0.00005,18.0412l42.7835,0z" clip-rule="evenodd" fill-rule="evenodd"/>
  <path stroke="null" id="svg_4" fill="url(#paint3_linear)" d="m2,29.5258c0,-1.1388 0.92312,-2.0619 2.06186,-2.0619l35.13144,0c1.2527,0 2.4375,-0.5694 3.2201,-1.5476l4.6379,-5.7974c0.1956,-0.2446 0.4918,-0.3869 0.805,-0.3869l50.02,0c2.2777,0 4.1237,1.8462 4.1237,4.1237l0,61.3402c0,0.5693 -0.462,1.0309 -1.031,1.0309l-97.93807,0c-0.56937,0 -1.03093,-0.4616 -1.03093,-1.0309l0,-55.6701z"/>
  <path id="svg_5" fill="url(#paint4_linear)" d="m101.485,85.1959l0,-61.3402c0,-1.9928 -1.6159,-3.6083 -3.6087,-3.6083l-50.02,0c-0.1566,0 -0.3047,0.0712 -0.4025,0.1935l-4.6379,5.7974c-0.8804,1.1005 -2.2133,1.7411 -3.6226,1.7411l-35.13144,0c-0.85405,0 -1.5464,0.6923 -1.5464,1.5464l0,55.6701c0,0.2847 0.23078,0.5154 0.51547,0.5154l97.93807,0c0.285,0 0.516,-0.2307 0.516,-0.5154zm-97.42314,-57.732c-1.13874,0 -2.06186,0.9231 -2.06186,2.0619l0,55.6701c0,0.5693 0.46156,1.0309 1.03093,1.0309l97.93807,0c0.569,0 1.031,-0.4616 1.031,-1.0309l0,-61.3402c0,-2.2775 -1.846,-4.1237 -4.1237,-4.1237l-50.02,0c-0.3132,0 -0.6094,0.1423 -0.805,0.3869l-4.6379,5.7974c-0.7826,0.9782 -1.9674,1.5476 -3.2201,1.5476l-35.13144,0z" clip-rule="evenodd" fill-rule="evenodd"/>
  <path id="svg_6" fill="#878787" d="m2,85l100,0l0,0c0,0.854 -0.692,1.5464 -1.546,1.5464l-96.90761,0c-0.85404,0 -1.54639,-0.6924 -1.54639,-1.5464l0,0z"/>
  <g>
   <path fill-rule="evenodd" d="m472.65423,-908l5.547,52.865c13.923,131.766 -31.47,278.7 -121.238,393.146c-1.359,1.585 -2.944,2.717 -4.189,4.302c14.943,-0.566 29.885,-1.698 45.394,-0.226c67.694,2.83 245.646,28.64 362.016,202.176l31.583,47.205l-47.318,31.47c-40.752,25.81 -165.839,118.748 -164.141,293.077c1.924,220.742 179.876,301.68 200.14,310.17l48.562,20.377l-16.3,50.26c-13.472,43.47 -52.3,154.746 -128.144,267.947c-72.335,107.768 -162.217,242.024 -314.246,244.854c-71.769,1.811 -117.615,-19.81 -159.613,-38.262c-39.96,-17.66 -74.26,-32.828 -131.086,-32.828c-60.11,0 -96.448,15.735 -138.558,34.073c-39.507,17.207 -84.335,36.677 -146.482,39.28c-2.83,0.114 -5.66,0.114 -8.264,0.114c-147.274,0 -249.608,-150.897 -317.755,-251.306l-5.187,-7.735c-170.414,-256.903 -265.7,-675.19 -108.466,-953.793c86.598,-153.614 244.174,-250.627 411.258,-253.117c65.09,-0.906 124.974,19.47 176.594,39.846c8.83,-119.88 65.883,-231.722 125.087,-303.944c86.032,-105.503 230.59,-182.706 351.715,-187.687l53.091,-2.264zm-82.75,562.948c-73.694,-7.81 -144.331,21.282 -207.157,46.639c-47.432,19.13 -88.297,35.545 -126.22,35.545c-32.375,0 -66.335,-10.98 -101.654,-24.791l-5.433,-0.453l-0.227,-1.698c-7.471,-3.056 -14.942,-6 -22.64,-9.056c-49.583,-20.15 -104.033,-46.526 -158.481,-41.884c-127.125,1.924 -247.684,76.863 -314.586,195.61c-144.897,256.627 -23.658,647.057 108.787,842.215c70.41,103.805 145.123,206.365 227.76,201.724c40.978,-1.698 69.505,-14.15 105.843,-29.885c46.865,-20.49 100.07,-43.582 183.725,-43.582c80.712,0 131.765,22.527 176.82,42.45c37.242,16.527 68.146,30.451 111.729,28.64c86.372,-1.585 146.708,-81.731 222.326,-194.706c49.582,-73.92 81.278,-146.708 99.277,-195.271c-76.637,-45.96 -220.628,-162.443 -222.666,-389.411c-1.698,-180.103 97.24,-294.662 165.613,-352.168c-85.353,-92.598 -195.385,-107.88 -242.816,-109.918zm-23.093,-438.314c-76.524,20.49 -158.707,72.449 -211.233,136.86l-0.113,0.113c-46.525,56.827 -95.994,150.784 -101.088,247.457c84.674,-12.678 165.273,-71.769 213.61,-133.01c58.411,-74.374 93.39,-164.821 98.824,-251.42z"/>
  </g>
  <g>
   <path fill-rule="evenodd" d="m472.65423,-908l5.547,52.865c13.923,131.766 -31.47,278.7 -121.238,393.146c-1.359,1.585 -2.944,2.717 -4.189,4.302c14.943,-0.566 29.885,-1.698 45.394,-0.226c67.694,2.83 245.646,28.64 362.016,202.176l31.583,47.205l-47.318,31.47c-40.752,25.81 -165.839,118.748 -164.141,293.077c1.924,220.742 179.876,301.68 200.14,310.17l48.562,20.377l-16.3,50.26c-13.472,43.47 -52.3,154.746 -128.144,267.947c-72.335,107.768 -162.217,242.024 -314.246,244.854c-71.769,1.811 -117.615,-19.81 -159.613,-38.262c-39.96,-17.66 -74.26,-32.828 -131.086,-32.828c-60.11,0 -96.448,15.735 -138.558,34.073c-39.507,17.207 -84.335,36.677 -146.482,39.28c-2.83,0.114 -5.66,0.114 -8.264,0.114c-147.274,0 -249.608,-150.897 -317.755,-251.306l-5.187,-7.735c-170.414,-256.903 -265.7,-675.19 -108.466,-953.793c86.598,-153.614 244.174,-250.627 411.258,-253.117c65.09,-0.906 124.974,19.47 176.594,39.846c8.83,-119.88 65.883,-231.722 125.087,-303.944c86.032,-105.503 230.59,-182.706 351.715,-187.687l53.091,-2.264zm-82.75,562.948c-73.694,-7.81 -144.331,21.282 -207.157,46.639c-47.432,19.13 -88.297,35.545 -126.22,35.545c-32.375,0 -66.335,-10.98 -101.654,-24.791l-5.433,-0.453l-0.227,-1.698c-7.471,-3.056 -14.942,-6 -22.64,-9.056c-49.583,-20.15 -104.033,-46.526 -158.481,-41.884c-127.125,1.924 -247.684,76.863 -314.586,195.61c-144.897,256.627 -23.658,647.057 108.787,842.215c70.41,103.805 145.123,206.365 227.76,201.724c40.978,-1.698 69.505,-14.15 105.843,-29.885c46.865,-20.49 100.07,-43.582 183.725,-43.582c80.712,0 131.765,22.527 176.82,42.45c37.242,16.527 68.146,30.451 111.729,28.64c86.372,-1.585 146.708,-81.731 222.326,-194.706c49.582,-73.92 81.278,-146.708 99.277,-195.271c-76.637,-45.96 -220.628,-162.443 -222.666,-389.411c-1.698,-180.103 97.24,-294.662 165.613,-352.168c-85.353,-92.598 -195.385,-107.88 -242.816,-109.918zm-23.093,-438.314c-76.524,20.49 -158.707,72.449 -211.233,136.86l-0.113,0.113c-46.525,56.827 -95.994,150.784 -101.088,247.457c84.674,-12.678 165.273,-71.769 213.61,-133.01c58.411,-74.374 93.39,-164.821 98.824,-251.42z"/>
  </g>
  <g>
   <path fill-rule="evenodd" d="m472.65423,-908l5.547,52.865c13.923,131.766 -31.47,278.7 -121.238,393.146c-1.359,1.585 -2.944,2.717 -4.189,4.302c14.943,-0.566 29.885,-1.698 45.394,-0.226c67.694,2.83 245.646,28.64 362.016,202.176l31.583,47.205l-47.318,31.47c-40.752,25.81 -165.839,118.748 -164.141,293.077c1.924,220.742 179.876,301.68 200.14,310.17l48.562,20.377l-16.3,50.26c-13.472,43.47 -52.3,154.746 -128.144,267.947c-72.335,107.768 -162.217,242.024 -314.246,244.854c-71.769,1.811 -117.615,-19.81 -159.613,-38.262c-39.96,-17.66 -74.26,-32.828 -131.086,-32.828c-60.11,0 -96.448,15.735 -138.558,34.073c-39.507,17.207 -84.335,36.677 -146.482,39.28c-2.83,0.114 -5.66,0.114 -8.264,0.114c-147.274,0 -249.608,-150.897 -317.755,-251.306l-5.187,-7.735c-170.414,-256.903 -265.7,-675.19 -108.466,-953.793c86.598,-153.614 244.174,-250.627 411.258,-253.117c65.09,-0.906 124.974,19.47 176.594,39.846c8.83,-119.88 65.883,-231.722 125.087,-303.944c86.032,-105.503 230.59,-182.706 351.715,-187.687l53.091,-2.264zm-82.75,562.948c-73.694,-7.81 -144.331,21.282 -207.157,46.639c-47.432,19.13 -88.297,35.545 -126.22,35.545c-32.375,0 -66.335,-10.98 -101.654,-24.791l-5.433,-0.453l-0.227,-1.698c-7.471,-3.056 -14.942,-6 -22.64,-9.056c-49.583,-20.15 -104.033,-46.526 -158.481,-41.884c-127.125,1.924 -247.684,76.863 -314.586,195.61c-144.897,256.627 -23.658,647.057 108.787,842.215c70.41,103.805 145.123,206.365 227.76,201.724c40.978,-1.698 69.505,-14.15 105.843,-29.885c46.865,-20.49 100.07,-43.582 183.725,-43.582c80.712,0 131.765,22.527 176.82,42.45c37.242,16.527 68.146,30.451 111.729,28.64c86.372,-1.585 146.708,-81.731 222.326,-194.706c49.582,-73.92 81.278,-146.708 99.277,-195.271c-76.637,-45.96 -220.628,-162.443 -222.666,-389.411c-1.698,-180.103 97.24,-294.662 165.613,-352.168c-85.353,-92.598 -195.385,-107.88 -242.816,-109.918zm-23.093,-438.314c-76.524,20.49 -158.707,72.449 -211.233,136.86l-0.113,0.113c-46.525,56.827 -95.994,150.784 -101.088,247.457c84.674,-12.678 165.273,-71.769 213.61,-133.01c58.411,-74.374 93.39,-164.821 98.824,-251.42z"/>
  </g>
  <g>
   <path d="m31.5215,-440.24603l0,76.401c0,11.311 9.169,20.48 20.48,20.48s20.48,-9.169 20.48,-20.48l0,-76.401c0,-11.311 -9.169,-20.48 -20.48,-20.48s-20.48,9.169 -20.48,20.48zm-269.704,92.457l38.195,66.161c5.655,9.796 18.18,13.152 27.976,7.497s13.152,-18.18 7.497,-27.976l-38.195,-66.161c-5.655,-9.796 -18.18,-13.152 -27.976,-7.497s-13.152,18.18 -7.497,27.976zm-161.228,197.727l66.161,38.195c9.796,5.655 22.321,2.299 27.976,-7.497s2.299,-22.321 -7.497,-27.976l-66.161,-38.195c-9.796,-5.655 -22.321,-2.299 -27.976,7.497s-2.299,22.321 7.497,27.976zm836.66,38.2l66.161,-38.195c9.796,-5.655 13.152,-18.18 7.497,-27.976s-18.18,-13.152 -27.976,-7.497l-66.161,38.195c-9.796,5.655 -13.152,18.18 -7.497,27.976s18.18,13.152 27.976,7.497zm-133.264,-169.763l38.195,-66.161c5.655,-9.796 2.299,-22.321 -7.497,-27.976s-22.321,-2.299 -27.976,7.497l-38.195,66.161c-5.655,9.796 -2.299,22.321 7.497,27.976s22.321,2.299 27.976,-7.497zm-145.132,430.445a20.479,20.479 0 0 1 9.029,-16.979c53.847,-36.315 86.469,-95.279 86.469,-159.497c0,-107.392 -90.442,-194.744 -202.353,-194.744s-202.353,87.353 -202.353,194.744c0,64.218 32.623,123.181 86.469,159.497a20.48,20.48 0 0 1 9.029,16.979l0,181.903c0,22.143 17.946,40.09 40.09,40.09l133.54,0c22.134,0 40.079,-17.947 40.079,-40.09l0,-181.903l0.001,0zm40.96,181.904c0,44.763 -36.283,81.05 -81.039,81.05l-133.54,0c-44.765,0 -81.05,-36.285 -81.05,-81.05l0,-171.312c-59.555,-44.178 -95.498,-112.657 -95.498,-187.067c0,-130.338 109.092,-235.704 243.313,-235.704s243.313,105.366 243.313,235.704c0,74.41 -35.943,142.89 -95.498,187.067l0,171.312l-0.001,0zm-249.679,157.602l203.735,0c11.311,0 20.48,-9.169 20.48,-20.48s-9.169,-20.48 -20.48,-20.48l-203.735,0c-11.311,0 -20.48,9.169 -20.48,20.48s9.169,20.48 20.48,20.48zm25.467,76.4l152.801,0c11.311,0 20.48,-9.169 20.48,-20.48s-9.169,-20.48 -20.48,-20.48l-152.801,0c-11.311,0 -20.48,9.169 -20.48,20.48s9.169,20.48 20.48,20.48z"/>
  </g>
  <g>
   <path d="m31.5215,-440.24603l0,76.401c0,11.311 9.169,20.48 20.48,20.48s20.48,-9.169 20.48,-20.48l0,-76.401c0,-11.311 -9.169,-20.48 -20.48,-20.48s-20.48,9.169 -20.48,20.48zm-269.704,92.457l38.195,66.161c5.655,9.796 18.18,13.152 27.976,7.497s13.152,-18.18 7.497,-27.976l-38.195,-66.161c-5.655,-9.796 -18.18,-13.152 -27.976,-7.497s-13.152,18.18 -7.497,27.976zm-161.228,197.727l66.161,38.195c9.796,5.655 22.321,2.299 27.976,-7.497s2.299,-22.321 -7.497,-27.976l-66.161,-38.195c-9.796,-5.655 -22.321,-2.299 -27.976,7.497s-2.299,22.321 7.497,27.976zm836.66,38.2l66.161,-38.195c9.796,-5.655 13.152,-18.18 7.497,-27.976s-18.18,-13.152 -27.976,-7.497l-66.161,38.195c-9.796,5.655 -13.152,18.18 -7.497,27.976s18.18,13.152 27.976,7.497zm-133.264,-169.763l38.195,-66.161c5.655,-9.796 2.299,-22.321 -7.497,-27.976s-22.321,-2.299 -27.976,7.497l-38.195,66.161c-5.655,9.796 -2.299,22.321 7.497,27.976s22.321,2.299 27.976,-7.497zm-145.132,430.445a20.479,20.479 0 0 1 9.029,-16.979c53.847,-36.315 86.469,-95.279 86.469,-159.497c0,-107.392 -90.442,-194.744 -202.353,-194.744s-202.353,87.353 -202.353,194.744c0,64.218 32.623,123.181 86.469,159.497a20.48,20.48 0 0 1 9.029,16.979l0,181.903c0,22.143 17.946,40.09 40.09,40.09l133.54,0c22.134,0 40.079,-17.947 40.079,-40.09l0,-181.903l0.001,0zm40.96,181.904c0,44.763 -36.283,81.05 -81.039,81.05l-133.54,0c-44.765,0 -81.05,-36.285 -81.05,-81.05l0,-171.312c-59.555,-44.178 -95.498,-112.657 -95.498,-187.067c0,-130.338 109.092,-235.704 243.313,-235.704s243.313,105.366 243.313,235.704c0,74.41 -35.943,142.89 -95.498,187.067l0,171.312l-0.001,0zm-249.679,157.602l203.735,0c11.311,0 20.48,-9.169 20.48,-20.48s-9.169,-20.48 -20.48,-20.48l-203.735,0c-11.311,0 -20.48,9.169 -20.48,20.48s9.169,20.48 20.48,20.48zm25.467,76.4l152.801,0c11.311,0 20.48,-9.169 20.48,-20.48s-9.169,-20.48 -20.48,-20.48l-152.801,0c-11.311,0 -20.48,9.169 -20.48,20.48s9.169,20.48 20.48,20.48z"/>
  </g>
  <g>
   <path d="m15.7566,49.5476l24.4868,0c4.5986,0 6.6528,-2.1475 7.3297,-6.7228l3.478,-23.413l0.5134,0c2.8713,0 4.4355,-1.7974 4.4355,-4.6453l0,-3.5482c0,-2.8478 -1.5642,-4.6452 -4.4355,-4.6452l-47.1293,0c-2.7312,0 -4.4352,1.7974 -4.4352,4.6452l0,3.5482c0,2.8479 1.564,4.6453 4.4352,4.6453l0.5369,0l3.4547,23.413c0.7003,4.5986 2.7311,6.7228 7.3298,6.7228zm-10.3644,-33.6606c-1.1671,0 -1.634,-0.4902 -1.634,-1.6574l0,-2.4743c0,-1.1672 0.4669,-1.6574 1.634,-1.6574l45.2386,0c1.1675,0 1.6111,0.4902 1.6111,1.6574l0,2.4743c0,1.1672 -0.4436,1.6574 -1.6111,1.6574l-45.2386,0zm10.411,30.1358c-2.1008,0 -3.2914,-0.9337 -3.6415,-3.2446l-3.4781,-23.3664l38.6328,0l-3.4784,23.3664c-0.3265,2.3109 -1.5637,3.2446 -3.6413,3.2446l-24.3935,0zm5.4156,-4.8787c0.4902,0 0.9104,-0.2334 1.2372,-0.5602l5.5323,-5.5323l5.5323,5.5323c0.3268,0.3035 0.747,0.5602 1.2605,0.5602c0.9804,0 1.7741,-0.8403 1.7741,-1.8207c0,-0.5369 -0.2101,-0.9104 -0.5369,-1.2605l-5.509,-5.509l5.5323,-5.579c0.3502,-0.3735 0.5369,-0.7236 0.5369,-1.2138c0,-1.0038 -0.7936,-1.7974 -1.7974,-1.7974c-0.4435,0 -0.8403,0.1867 -1.2138,0.5602l-5.579,5.5323l-5.5557,-5.509c-0.3501,-0.3501 -0.7236,-0.5368 -1.2138,-0.5368c-0.9804,0 -1.7974,0.7703 -1.7974,1.7507c0,0.5135 0.2101,0.9104 0.5369,1.2372l5.509,5.5556l-5.509,5.5323c-0.3268,0.3268 -0.5369,0.7236 -0.5369,1.2372c0,0.9804 0.7936,1.8207 1.7974,1.8207z"/>
  </g>
  <g>
   <title/>
   <path d="m42,31l-14,0a2,2 0 0 0 -2,-2l-4,0a2,2 0 0 0 -2,2l-14,0a2,2 0 0 0 0,4l36,0a2,2 0 0 0 0,-4z"/>
   <path d="m39,37a2,2 0 0 0 -2,2l0,32l-26,0l0,-32a2,2 0 0 0 -4,0l0,34a2,2 0 0 0 2,2l30,0a2,2 0 0 0 2,-2l0,-34a2,2 0 0 0 -2,-2z"/>
   <path d="m21,65l0,-18a2,2 0 0 0 -4,0l0,18a2,2 0 0 0 4,0z"/>
   <path d="m31,65l0,-18a2,2 0 0 0 -4,0l0,18a2,2 0 0 0 4,0z"/>
  </g>
  <g stroke="null">
   <title stroke="null">movie-recorder</title>
   <desc stroke="null">Created with Sketch Beta.</desc>

   <g stroke="null"  fill-rule="evenodd" fill="none" id="svg_36">
    <g stroke="null" fill="#000000"  id="svg_37">
     <path stroke="null"  id="svg_38" d="m259.62671,513.31327l-10.96479,-9.13732l0,-5.48239l10.96479,-7.30986l0,21.92957l0,0zm-20.10211,-25.56257c-5.05842,0 -9.15743,-4.10083 -9.15743,-9.15925c0,-5.05842 4.099,-9.15743 9.15743,-9.15743c5.05842,0 9.15743,4.099 9.15743,9.15743c0,5.05842 -4.099,9.15925 -9.15743,9.15925l0,0zm5.48239,21.90765c0,2.01752 -1.63741,3.65493 -3.65493,3.65493l-29.23943,0c-2.01752,0 -3.65493,-1.63741 -3.65493,-3.65493l0,-14.61972c0,-2.01752 1.63741,-3.65493 3.65493,-3.65493l29.23943,0c2.01752,0 3.65493,1.63741 3.65493,3.65493l0,14.61972l0,0zm-36.54929,-29.23943c0,-4.03687 3.27299,-7.30986 7.30986,-7.30986c4.03687,0 7.30986,3.27299 7.30986,7.30986c0,4.03687 -3.27299,7.30986 -7.30986,7.30986c-4.03687,0 -7.30986,-3.27299 -7.30986,-7.30986l0,0zm51.16901,7.30986l-10.96479,7.30986c0,-2.21854 -1.00876,-4.18124 -2.56942,-5.52077c3.71341,-2.24047 6.22434,-6.27369 6.22434,-10.92641c0,-7.06498 -5.72727,-12.79225 -12.79225,-12.79225c-7.06498,0 -12.79225,5.72727 -12.79225,12.79225c0,3.58549 1.4839,6.81462 3.85778,9.13732l-6.70314,0c1.74888,-1.94259 2.84536,-4.48825 2.84536,-7.30986c0,-6.05439 -4.9104,-10.96479 -10.96479,-10.96479c-6.05439,0 -10.96479,4.9104 -10.96479,10.96479c0,3.30588 1.49121,6.23165 3.80478,8.24369c-2.25692,1.24268 -3.80478,3.61655 -3.80478,6.37602l0,14.61972c0,4.03687 3.27299,7.30986 7.30986,7.30986l29.23943,0c4.03687,0 7.30986,-3.27299 7.30986,-7.30986l0,-1.82746l10.96479,9.13732c2.01752,0 3.65493,-1.63741 3.65493,-3.65493l0,-21.92957c0,-2.01752 -1.63741,-3.65493 -3.65493,-3.65493l0,0z"/>
    </g>
   </g>
  </g>
  <g stroke="null">
   <title stroke="null">1091</title>

   <g stroke="null" fill-rule="evenodd" fill="none">
    <g stroke="null" fill="#434343" transform="translate(1 0)">
     <path stroke="null" class="si-glyph-fill" d="m75.60633,59.21838l-4.61937,3.02615l0,9.58174l4.61937,3.02615c0.92003,0 1.67015,-1.15083 1.67015,-2.56133l0,-10.50817c0,-1.4137 -0.75013,-2.56453 -1.67015,-2.56453l0,0z"/>
     <path stroke="null" class="si-glyph-fill" d="m54.90734,49.3289c5.24768,0 9.51121,-4.28277 9.51121,-9.5625c0,-5.28614 -4.26354,-9.56571 -9.51121,-9.56571c-5.25729,0 -9.51762,4.27956 -9.51762,9.56571c0.00321,5.27973 4.26354,9.5625 9.51762,9.5625l0,0zm0,-16.03795c3.55188,0 6.43057,2.90113 6.43057,6.47545c0,3.57752 -2.87548,6.47545 -6.43057,6.47545c-3.5615,0 -6.44018,-2.89472 -6.44018,-6.47545c0.00321,-3.57432 2.87869,-6.47545 6.44018,-6.47545l0,0z"/>
     <path stroke="null" class="si-glyph-fill" d="m34.14103,49.36736c4.38215,0 7.94044,-3.55188 7.94044,-7.93723c0,-4.37894 -3.55508,-7.93402 -7.94044,-7.93402c-4.38535,0 -7.94044,3.55188 -7.94044,7.93402c0,4.38535 3.55829,7.93723 7.94044,7.93723l0,0zm0,-12.74573c2.6575,0 4.81491,2.15421 4.81491,4.81171c0,2.6575 -2.15741,4.81491 -4.81491,4.81491c-2.65429,0 -4.81491,-2.15741 -4.81491,-4.81491c0,-2.6575 2.16062,-4.81171 4.81491,-4.81171l0,0z"/>
     <path stroke="null" class="si-glyph-fill" d="m63.12346,52.80384l-32.48943,0c-2.50363,0 -4.53281,2.10292 -4.53281,4.6963l0,19.27567c0,2.59338 2.02919,4.6931 4.53281,4.6931l32.48943,0c2.50363,0 4.53602,-2.09971 4.53602,-4.6931l0,-5.02007l0,-8.7675l0,-5.4849c0,-2.59659 -2.03239,-4.69951 -4.53602,-4.69951l0,0z"/>
    </g>
   </g>
  </g>
 </g>
</svg>