<svg width="104" height="104" xmlns="http://www.w3.org/2000/svg" fill="none">
 <defs>
  <linearGradient y2="1" x2="0.50152" y1="0" x1="0.50152" id="paint0_linear">
   <stop stop-color="#878787" offset="0.34926"/>
   <stop stop-color="#464646" offset="1"/>
  </linearGradient>
  <linearGradient y2="1" x2="0.50078" y1="0" x1="0.50078" id="paint1_linear">
   <stop stop-color="#BEBEBE" offset="0.34926"/>
   <stop stop-color="#464646" offset="1"/>
  </linearGradient>
  <linearGradient y2="0.72093" x2="0.5" y1="0" x1="0.5" id="paint2_linear">
   <stop stop-opacity="0.21" stop-color="#DAB277"/>
   <stop stop-opacity="0" offset="1"/>
  </linearGradient>
  <linearGradient y2="1" x2="0" y1="-0.03488" x1="0.70103" id="paint3_linear">
   <stop stop-color="#C5C5C5"/>
   <stop stop-color="white" offset="1"/>
  </linearGradient>
  <linearGradient y2="1" x2="0.5" y1="0" x1="0.5" id="paint4_linear">
   <stop stop-color="white"/>
   <stop stop-opacity="0" stop-color="white" offset="0.84496"/>
  </linearGradient>
 </defs>
 <g>
  <title>Layer 1</title>
  <path id="svg_1" fill="url(#paint0_linear)" d="m2.00004,20c0.00001,-4.4183 3.58173,-8 7.99996,-8l26.9744,0c2.3098,0 4.5069,0.9983 6.0261,2.7382l3.7293,4.2711c0.3989,0.4569 0.569,1.07 0.4624,1.6671l-2.4087,13.4885l-42.7835,0l0.00004,-14.1649z"/>
  <path id="svg_2" fill="url(#paint1_linear)" d="m2.00005,16.1237c0.00001,-2.2775 1.84625,-4.1237 4.12371,-4.1237l32.61204,0c1.1906,0 2.3231,0.5146 3.1062,1.4115l5.1936,5.948c0.2056,0.2355 0.2933,0.5515 0.2383,0.8593l-2.4904,13.9461l-42.7835,0l0.00005,-18.0412z"/>
  <path id="svg_3" fill="url(#paint2_linear)" d="m38.7358,12.5155l-32.61204,0c-1.99277,0 -3.60824,1.6154 -3.60824,3.6082l-0.00005,17.5258l41.83643,0l2.4146,-13.5214c0.0274,-0.1538 -0.0164,-0.3119 -0.1192,-0.4296l-5.1936,-5.948c-0.6852,-0.7848 -1.6761,-1.235 -2.7179,-1.235zm6.0477,21.6494l2.4904,-13.9461c0.055,-0.3078 -0.0327,-0.6238 -0.2383,-0.8593l-5.1936,-5.948c-0.7831,-0.8969 -1.9156,-1.4115 -3.1062,-1.4115l-32.61204,0c-2.27746,0 -4.1237,1.8462 -4.12371,4.1237l-0.00005,18.0412l42.7835,0z" clip-rule="evenodd" fill-rule="evenodd"/>
  <path stroke="null" id="svg_4" fill="url(#paint3_linear)" d="m2,29.5258c0,-1.1388 0.92312,-2.0619 2.06186,-2.0619l35.13144,0c1.2527,0 2.4375,-0.5694 3.2201,-1.5476l4.6379,-5.7974c0.1956,-0.2446 0.4918,-0.3869 0.805,-0.3869l50.02,0c2.2777,0 4.1237,1.8462 4.1237,4.1237l0,61.3402c0,0.5693 -0.462,1.0309 -1.031,1.0309l-97.93807,0c-0.56937,0 -1.03093,-0.4616 -1.03093,-1.0309l0,-55.6701z"/>
  <path id="svg_5" fill="url(#paint4_linear)" d="m101.485,85.1959l0,-61.3402c0,-1.9928 -1.6159,-3.6083 -3.6087,-3.6083l-50.02,0c-0.1566,0 -0.3047,0.0712 -0.4025,0.1935l-4.6379,5.7974c-0.8804,1.1005 -2.2133,1.7411 -3.6226,1.7411l-35.13144,0c-0.85405,0 -1.5464,0.6923 -1.5464,1.5464l0,55.6701c0,0.2847 0.23078,0.5154 0.51547,0.5154l97.93807,0c0.285,0 0.516,-0.2307 0.516,-0.5154zm-97.42314,-57.732c-1.13874,0 -2.06186,0.9231 -2.06186,2.0619l0,55.6701c0,0.5693 0.46156,1.0309 1.03093,1.0309l97.93807,0c0.569,0 1.031,-0.4616 1.031,-1.0309l0,-61.3402c0,-2.2775 -1.846,-4.1237 -4.1237,-4.1237l-50.02,0c-0.3132,0 -0.6094,0.1423 -0.805,0.3869l-4.6379,5.7974c-0.7826,0.9782 -1.9674,1.5476 -3.2201,1.5476l-35.13144,0z" clip-rule="evenodd" fill-rule="evenodd"/>
  <path id="svg_6" fill="#878787" d="m2,85l100,0l0,0c0,0.854 -0.692,1.5464 -1.546,1.5464l-96.90761,0c-0.85404,0 -1.54639,-0.6924 -1.54639,-1.5464l0,0z"/>
  <g>
   <path fill-rule="evenodd" d="m472.65423,-908l5.547,52.865c13.923,131.766 -31.47,278.7 -121.238,393.146c-1.359,1.585 -2.944,2.717 -4.189,4.302c14.943,-0.566 29.885,-1.698 45.394,-0.226c67.694,2.83 245.646,28.64 362.016,202.176l31.583,47.205l-47.318,31.47c-40.752,25.81 -165.839,118.748 -164.141,293.077c1.924,220.742 179.876,301.68 200.14,310.17l48.562,20.377l-16.3,50.26c-13.472,43.47 -52.3,154.746 -128.144,267.947c-72.335,107.768 -162.217,242.024 -314.246,244.854c-71.769,1.811 -117.615,-19.81 -159.613,-38.262c-39.96,-17.66 -74.26,-32.828 -131.086,-32.828c-60.11,0 -96.448,15.735 -138.558,34.073c-39.507,17.207 -84.335,36.677 -146.482,39.28c-2.83,0.114 -5.66,0.114 -8.264,0.114c-147.274,0 -249.608,-150.897 -317.755,-251.306l-5.187,-7.735c-170.414,-256.903 -265.7,-675.19 -108.466,-953.793c86.598,-153.614 244.174,-250.627 411.258,-253.117c65.09,-0.906 124.974,19.47 176.594,39.846c8.83,-119.88 65.883,-231.722 125.087,-303.944c86.032,-105.503 230.59,-182.706 351.715,-187.687l53.091,-2.264zm-82.75,562.948c-73.694,-7.81 -144.331,21.282 -207.157,46.639c-47.432,19.13 -88.297,35.545 -126.22,35.545c-32.375,0 -66.335,-10.98 -101.654,-24.791l-5.433,-0.453l-0.227,-1.698c-7.471,-3.056 -14.942,-6 -22.64,-9.056c-49.583,-20.15 -104.033,-46.526 -158.481,-41.884c-127.125,1.924 -247.684,76.863 -314.586,195.61c-144.897,256.627 -23.658,647.057 108.787,842.215c70.41,103.805 145.123,206.365 227.76,201.724c40.978,-1.698 69.505,-14.15 105.843,-29.885c46.865,-20.49 100.07,-43.582 183.725,-43.582c80.712,0 131.765,22.527 176.82,42.45c37.242,16.527 68.146,30.451 111.729,28.64c86.372,-1.585 146.708,-81.731 222.326,-194.706c49.582,-73.92 81.278,-146.708 99.277,-195.271c-76.637,-45.96 -220.628,-162.443 -222.666,-389.411c-1.698,-180.103 97.24,-294.662 165.613,-352.168c-85.353,-92.598 -195.385,-107.88 -242.816,-109.918zm-23.093,-438.314c-76.524,20.49 -158.707,72.449 -211.233,136.86l-0.113,0.113c-46.525,56.827 -95.994,150.784 -101.088,247.457c84.674,-12.678 165.273,-71.769 213.61,-133.01c58.411,-74.374 93.39,-164.821 98.824,-251.42z"/>
  </g>
  <g>
   <path fill-rule="evenodd" d="m472.65423,-908l5.547,52.865c13.923,131.766 -31.47,278.7 -121.238,393.146c-1.359,1.585 -2.944,2.717 -4.189,4.302c14.943,-0.566 29.885,-1.698 45.394,-0.226c67.694,2.83 245.646,28.64 362.016,202.176l31.583,47.205l-47.318,31.47c-40.752,25.81 -165.839,118.748 -164.141,293.077c1.924,220.742 179.876,301.68 200.14,310.17l48.562,20.377l-16.3,50.26c-13.472,43.47 -52.3,154.746 -128.144,267.947c-72.335,107.768 -162.217,242.024 -314.246,244.854c-71.769,1.811 -117.615,-19.81 -159.613,-38.262c-39.96,-17.66 -74.26,-32.828 -131.086,-32.828c-60.11,0 -96.448,15.735 -138.558,34.073c-39.507,17.207 -84.335,36.677 -146.482,39.28c-2.83,0.114 -5.66,0.114 -8.264,0.114c-147.274,0 -249.608,-150.897 -317.755,-251.306l-5.187,-7.735c-170.414,-256.903 -265.7,-675.19 -108.466,-953.793c86.598,-153.614 244.174,-250.627 411.258,-253.117c65.09,-0.906 124.974,19.47 176.594,39.846c8.83,-119.88 65.883,-231.722 125.087,-303.944c86.032,-105.503 230.59,-182.706 351.715,-187.687l53.091,-2.264zm-82.75,562.948c-73.694,-7.81 -144.331,21.282 -207.157,46.639c-47.432,19.13 -88.297,35.545 -126.22,35.545c-32.375,0 -66.335,-10.98 -101.654,-24.791l-5.433,-0.453l-0.227,-1.698c-7.471,-3.056 -14.942,-6 -22.64,-9.056c-49.583,-20.15 -104.033,-46.526 -158.481,-41.884c-127.125,1.924 -247.684,76.863 -314.586,195.61c-144.897,256.627 -23.658,647.057 108.787,842.215c70.41,103.805 145.123,206.365 227.76,201.724c40.978,-1.698 69.505,-14.15 105.843,-29.885c46.865,-20.49 100.07,-43.582 183.725,-43.582c80.712,0 131.765,22.527 176.82,42.45c37.242,16.527 68.146,30.451 111.729,28.64c86.372,-1.585 146.708,-81.731 222.326,-194.706c49.582,-73.92 81.278,-146.708 99.277,-195.271c-76.637,-45.96 -220.628,-162.443 -222.666,-389.411c-1.698,-180.103 97.24,-294.662 165.613,-352.168c-85.353,-92.598 -195.385,-107.88 -242.816,-109.918zm-23.093,-438.314c-76.524,20.49 -158.707,72.449 -211.233,136.86l-0.113,0.113c-46.525,56.827 -95.994,150.784 -101.088,247.457c84.674,-12.678 165.273,-71.769 213.61,-133.01c58.411,-74.374 93.39,-164.821 98.824,-251.42z"/>
  </g>
  <g>
   <path fill-rule="evenodd" d="m472.65423,-908l5.547,52.865c13.923,131.766 -31.47,278.7 -121.238,393.146c-1.359,1.585 -2.944,2.717 -4.189,4.302c14.943,-0.566 29.885,-1.698 45.394,-0.226c67.694,2.83 245.646,28.64 362.016,202.176l31.583,47.205l-47.318,31.47c-40.752,25.81 -165.839,118.748 -164.141,293.077c1.924,220.742 179.876,301.68 200.14,310.17l48.562,20.377l-16.3,50.26c-13.472,43.47 -52.3,154.746 -128.144,267.947c-72.335,107.768 -162.217,242.024 -314.246,244.854c-71.769,1.811 -117.615,-19.81 -159.613,-38.262c-39.96,-17.66 -74.26,-32.828 -131.086,-32.828c-60.11,0 -96.448,15.735 -138.558,34.073c-39.507,17.207 -84.335,36.677 -146.482,39.28c-2.83,0.114 -5.66,0.114 -8.264,0.114c-147.274,0 -249.608,-150.897 -317.755,-251.306l-5.187,-7.735c-170.414,-256.903 -265.7,-675.19 -108.466,-953.793c86.598,-153.614 244.174,-250.627 411.258,-253.117c65.09,-0.906 124.974,19.47 176.594,39.846c8.83,-119.88 65.883,-231.722 125.087,-303.944c86.032,-105.503 230.59,-182.706 351.715,-187.687l53.091,-2.264zm-82.75,562.948c-73.694,-7.81 -144.331,21.282 -207.157,46.639c-47.432,19.13 -88.297,35.545 -126.22,35.545c-32.375,0 -66.335,-10.98 -101.654,-24.791l-5.433,-0.453l-0.227,-1.698c-7.471,-3.056 -14.942,-6 -22.64,-9.056c-49.583,-20.15 -104.033,-46.526 -158.481,-41.884c-127.125,1.924 -247.684,76.863 -314.586,195.61c-144.897,256.627 -23.658,647.057 108.787,842.215c70.41,103.805 145.123,206.365 227.76,201.724c40.978,-1.698 69.505,-14.15 105.843,-29.885c46.865,-20.49 100.07,-43.582 183.725,-43.582c80.712,0 131.765,22.527 176.82,42.45c37.242,16.527 68.146,30.451 111.729,28.64c86.372,-1.585 146.708,-81.731 222.326,-194.706c49.582,-73.92 81.278,-146.708 99.277,-195.271c-76.637,-45.96 -220.628,-162.443 -222.666,-389.411c-1.698,-180.103 97.24,-294.662 165.613,-352.168c-85.353,-92.598 -195.385,-107.88 -242.816,-109.918zm-23.093,-438.314c-76.524,20.49 -158.707,72.449 -211.233,136.86l-0.113,0.113c-46.525,56.827 -95.994,150.784 -101.088,247.457c84.674,-12.678 165.273,-71.769 213.61,-133.01c58.411,-74.374 93.39,-164.821 98.824,-251.42z"/>
  </g>
  <g>
   <path d="m31.5215,-440.24603l0,76.401c0,11.311 9.169,20.48 20.48,20.48s20.48,-9.169 20.48,-20.48l0,-76.401c0,-11.311 -9.169,-20.48 -20.48,-20.48s-20.48,9.169 -20.48,20.48zm-269.704,92.457l38.195,66.161c5.655,9.796 18.18,13.152 27.976,7.497s13.152,-18.18 7.497,-27.976l-38.195,-66.161c-5.655,-9.796 -18.18,-13.152 -27.976,-7.497s-13.152,18.18 -7.497,27.976zm-161.228,197.727l66.161,38.195c9.796,5.655 22.321,2.299 27.976,-7.497s2.299,-22.321 -7.497,-27.976l-66.161,-38.195c-9.796,-5.655 -22.321,-2.299 -27.976,7.497s-2.299,22.321 7.497,27.976zm836.66,38.2l66.161,-38.195c9.796,-5.655 13.152,-18.18 7.497,-27.976s-18.18,-13.152 -27.976,-7.497l-66.161,38.195c-9.796,5.655 -13.152,18.18 -7.497,27.976s18.18,13.152 27.976,7.497zm-133.264,-169.763l38.195,-66.161c5.655,-9.796 2.299,-22.321 -7.497,-27.976s-22.321,-2.299 -27.976,7.497l-38.195,66.161c-5.655,9.796 -2.299,22.321 7.497,27.976s22.321,2.299 27.976,-7.497zm-145.132,430.445a20.479,20.479 0 0 1 9.029,-16.979c53.847,-36.315 86.469,-95.279 86.469,-159.497c0,-107.392 -90.442,-194.744 -202.353,-194.744s-202.353,87.353 -202.353,194.744c0,64.218 32.623,123.181 86.469,159.497a20.48,20.48 0 0 1 9.029,16.979l0,181.903c0,22.143 17.946,40.09 40.09,40.09l133.54,0c22.134,0 40.079,-17.947 40.079,-40.09l0,-181.903l0.001,0zm40.96,181.904c0,44.763 -36.283,81.05 -81.039,81.05l-133.54,0c-44.765,0 -81.05,-36.285 -81.05,-81.05l0,-171.312c-59.555,-44.178 -95.498,-112.657 -95.498,-187.067c0,-130.338 109.092,-235.704 243.313,-235.704s243.313,105.366 243.313,235.704c0,74.41 -35.943,142.89 -95.498,187.067l0,171.312l-0.001,0zm-249.679,157.602l203.735,0c11.311,0 20.48,-9.169 20.48,-20.48s-9.169,-20.48 -20.48,-20.48l-203.735,0c-11.311,0 -20.48,9.169 -20.48,20.48s9.169,20.48 20.48,20.48zm25.467,76.4l152.801,0c11.311,0 20.48,-9.169 20.48,-20.48s-9.169,-20.48 -20.48,-20.48l-152.801,0c-11.311,0 -20.48,9.169 -20.48,20.48s9.169,20.48 20.48,20.48z"/>
  </g>
  <g>
   <path d="m31.5215,-440.24603l0,76.401c0,11.311 9.169,20.48 20.48,20.48s20.48,-9.169 20.48,-20.48l0,-76.401c0,-11.311 -9.169,-20.48 -20.48,-20.48s-20.48,9.169 -20.48,20.48zm-269.704,92.457l38.195,66.161c5.655,9.796 18.18,13.152 27.976,7.497s13.152,-18.18 7.497,-27.976l-38.195,-66.161c-5.655,-9.796 -18.18,-13.152 -27.976,-7.497s-13.152,18.18 -7.497,27.976zm-161.228,197.727l66.161,38.195c9.796,5.655 22.321,2.299 27.976,-7.497s2.299,-22.321 -7.497,-27.976l-66.161,-38.195c-9.796,-5.655 -22.321,-2.299 -27.976,7.497s-2.299,22.321 7.497,27.976zm836.66,38.2l66.161,-38.195c9.796,-5.655 13.152,-18.18 7.497,-27.976s-18.18,-13.152 -27.976,-7.497l-66.161,38.195c-9.796,5.655 -13.152,18.18 -7.497,27.976s18.18,13.152 27.976,7.497zm-133.264,-169.763l38.195,-66.161c5.655,-9.796 2.299,-22.321 -7.497,-27.976s-22.321,-2.299 -27.976,7.497l-38.195,66.161c-5.655,9.796 -2.299,22.321 7.497,27.976s22.321,2.299 27.976,-7.497zm-145.132,430.445a20.479,20.479 0 0 1 9.029,-16.979c53.847,-36.315 86.469,-95.279 86.469,-159.497c0,-107.392 -90.442,-194.744 -202.353,-194.744s-202.353,87.353 -202.353,194.744c0,64.218 32.623,123.181 86.469,159.497a20.48,20.48 0 0 1 9.029,16.979l0,181.903c0,22.143 17.946,40.09 40.09,40.09l133.54,0c22.134,0 40.079,-17.947 40.079,-40.09l0,-181.903l0.001,0zm40.96,181.904c0,44.763 -36.283,81.05 -81.039,81.05l-133.54,0c-44.765,0 -81.05,-36.285 -81.05,-81.05l0,-171.312c-59.555,-44.178 -95.498,-112.657 -95.498,-187.067c0,-130.338 109.092,-235.704 243.313,-235.704s243.313,105.366 243.313,235.704c0,74.41 -35.943,142.89 -95.498,187.067l0,171.312l-0.001,0zm-249.679,157.602l203.735,0c11.311,0 20.48,-9.169 20.48,-20.48s-9.169,-20.48 -20.48,-20.48l-203.735,0c-11.311,0 -20.48,9.169 -20.48,20.48s9.169,20.48 20.48,20.48zm25.467,76.4l152.801,0c11.311,0 20.48,-9.169 20.48,-20.48s-9.169,-20.48 -20.48,-20.48l-152.801,0c-11.311,0 -20.48,9.169 -20.48,20.48s9.169,20.48 20.48,20.48z"/>
  </g>
  <g>
   <g>
    <g>
     <g>
      <path d="m111.467,-28.2865l0,0l-80.907,0c-5.1,0 -9.301,3.802 -9.901,8.804l-20.602,172.777c-0.3,2.801 0.6,5.703 2.5,7.803c1.9,2.101 4.6,3.401 7.501,3.401l81.707,0c5.5,0 10.001,-4.502 10.001,-10.004s-4.5,-10.004 -10.001,-10.004l-70.406,0l7.901,-66.43l51.805,0c5.5,0 10.001,-4.502 10.001,-10.004s-4.5,-10.004 -10.001,-10.004l-49.406,0l7.901,-66.43l72.006,0c5.5,0 10.001,-4.502 10.001,-10.004s-4.5,-9.905 -10.1,-9.905z"/>
      <path d="m183.273,36.3425l-50.404,0c-5.5,0 -10.001,4.502 -10.001,10.004s4.5,10.004 10.001,10.004l50.404,0c5.5,0 10.001,-4.502 10.001,-10.004s-4.501,-10.004 -10.001,-10.004z"/>
      <path d="m183.273,79.8615l-50.404,0c-5.5,0 -10.001,4.502 -10.001,10.004s4.5,10.004 10.001,10.004l50.404,0c5.5,0 10.001,-4.502 10.001,-10.004s-4.501,-10.004 -10.001,-10.004z"/>
      <path d="m477.999,-6.4765l0,0l-9.101,0c2.9,-5.202 4.6,-11.205 4.6,-17.408c0,-0.2 0,-0.4 0,-0.5c-1,-19.909 -19.202,-36.116 -40.504,-36.116c-5.5,0 -10.001,4.502 -10.001,10.004s4.5,10.004 10.001,10.004c10.601,0 19.902,7.703 20.502,16.908c-0.2,9.104 -8.301,16.607 -18.602,17.208l-7.301,0c-5.5,0 -10.001,4.502 -10.001,10.004s4.5,10.004 10.001,10.004l50.404,0c5.5,0 10.001,-4.502 10.001,-10.004s-4.498,-10.104 -9.999,-10.104z"/>
      <path d="m397.092,56.2515c5.5,0 10.001,-4.502 10.001,-10.004s-4.5,-10.004 -10.001,-10.004c-21.602,0 -41.904,12.105 -53.005,31.714c0,0.1 -0.1,0.1 -0.1,0.2c-10.701,19.909 -10.701,44.52 0,64.429c0,0.1 0.1,0.1 0.1,0.2c11.101,19.609 31.403,31.714 53.005,31.714c5.5,0 10.001,-4.502 10.001,-10.004s-4.5,-10.004 -10.001,-10.004l0,0c-14.401,0 -28.003,-8.204 -35.503,-21.51c-7.501,-13.906 -7.501,-31.214 0,-45.22c7.6,-13.308 21.202,-21.511 35.503,-21.511z"/>
      <path d="m285.582,36.3425c-8.101,0 -15.501,3.201 -20.902,8.404c-1.5,-1.301 -3.2,-2.601 -5.1,-3.702c-9.401,-6.103 -21.002,-6.103 -30.403,0c-9.901,5.903 -15.401,15.507 -15.401,27.112l0,85.638c0,5.502 4.5,10.004 10.001,10.004s10.001,-4.502 10.001,-10.004l0,-85.638c0,-4.402 1.9,-7.703 5.801,-9.904c0.2,-0.1 0.3,-0.2 0.4,-0.3c2.8,-1.801 6.101,-1.801 8.801,0c0.1,0.1 0.3,0.2 0.4,0.3c3.9,2.301 5.801,5.502 5.801,9.904l0,85.638c0,5.502 4.5,10.004 10.001,10.004s10.001,-4.502 10.001,-10.004l0,-85.638c0,-0.2 0,-0.3 0,-0.5c0,-0.1 0,-0.2 0,-0.3c0,-6.003 4.9,-11.005 10.601,-11.005c5.3,0 9.801,5.402 9.801,11.805l0,85.638c0,5.502 4.5,10.004 10.001,10.004s10.001,-4.502 10.001,-10.004l0,-85.638c0.098,-17.608 -13.304,-31.814 -29.805,-31.814z"/>
     </g>
    </g>
   </g>
  </g>
  <g>
   <g>
    <g>
     <g>
      <path d="m111.467,-28.2865l0,0l-80.907,0c-5.1,0 -9.301,3.802 -9.901,8.804l-20.602,172.777c-0.3,2.801 0.6,5.703 2.5,7.803c1.9,2.101 4.6,3.401 7.501,3.401l81.707,0c5.5,0 10.001,-4.502 10.001,-10.004s-4.5,-10.004 -10.001,-10.004l-70.406,0l7.901,-66.43l51.805,0c5.5,0 10.001,-4.502 10.001,-10.004s-4.5,-10.004 -10.001,-10.004l-49.406,0l7.901,-66.43l72.006,0c5.5,0 10.001,-4.502 10.001,-10.004s-4.5,-9.905 -10.1,-9.905z"/>
      <path d="m183.273,36.3425l-50.404,0c-5.5,0 -10.001,4.502 -10.001,10.004s4.5,10.004 10.001,10.004l50.404,0c5.5,0 10.001,-4.502 10.001,-10.004s-4.501,-10.004 -10.001,-10.004z"/>
      <path d="m183.273,79.8615l-50.404,0c-5.5,0 -10.001,4.502 -10.001,10.004s4.5,10.004 10.001,10.004l50.404,0c5.5,0 10.001,-4.502 10.001,-10.004s-4.501,-10.004 -10.001,-10.004z"/>
      <path d="m477.999,-6.4765l0,0l-9.101,0c2.9,-5.202 4.6,-11.205 4.6,-17.408c0,-0.2 0,-0.4 0,-0.5c-1,-19.909 -19.202,-36.116 -40.504,-36.116c-5.5,0 -10.001,4.502 -10.001,10.004s4.5,10.004 10.001,10.004c10.601,0 19.902,7.703 20.502,16.908c-0.2,9.104 -8.301,16.607 -18.602,17.208l-7.301,0c-5.5,0 -10.001,4.502 -10.001,10.004s4.5,10.004 10.001,10.004l50.404,0c5.5,0 10.001,-4.502 10.001,-10.004s-4.498,-10.104 -9.999,-10.104z"/>
      <path d="m397.092,56.2515c5.5,0 10.001,-4.502 10.001,-10.004s-4.5,-10.004 -10.001,-10.004c-21.602,0 -41.904,12.105 -53.005,31.714c0,0.1 -0.1,0.1 -0.1,0.2c-10.701,19.909 -10.701,44.52 0,64.429c0,0.1 0.1,0.1 0.1,0.2c11.101,19.609 31.403,31.714 53.005,31.714c5.5,0 10.001,-4.502 10.001,-10.004s-4.5,-10.004 -10.001,-10.004l0,0c-14.401,0 -28.003,-8.204 -35.503,-21.51c-7.501,-13.906 -7.501,-31.214 0,-45.22c7.6,-13.308 21.202,-21.511 35.503,-21.511z"/>
      <path d="m285.582,36.3425c-8.101,0 -15.501,3.201 -20.902,8.404c-1.5,-1.301 -3.2,-2.601 -5.1,-3.702c-9.401,-6.103 -21.002,-6.103 -30.403,0c-9.901,5.903 -15.401,15.507 -15.401,27.112l0,85.638c0,5.502 4.5,10.004 10.001,10.004s10.001,-4.502 10.001,-10.004l0,-85.638c0,-4.402 1.9,-7.703 5.801,-9.904c0.2,-0.1 0.3,-0.2 0.4,-0.3c2.8,-1.801 6.101,-1.801 8.801,0c0.1,0.1 0.3,0.2 0.4,0.3c3.9,2.301 5.801,5.502 5.801,9.904l0,85.638c0,5.502 4.5,10.004 10.001,10.004s10.001,-4.502 10.001,-10.004l0,-85.638c0,-0.2 0,-0.3 0,-0.5c0,-0.1 0,-0.2 0,-0.3c0,-6.003 4.9,-11.005 10.601,-11.005c5.3,0 9.801,5.402 9.801,11.805l0,85.638c0,5.502 4.5,10.004 10.001,10.004s10.001,-4.502 10.001,-10.004l0,-85.638c0.098,-17.608 -13.304,-31.814 -29.805,-31.814z"/>
     </g>
    </g>
   </g>
  </g>
  <g>
   <g>
    <g>
     <g>
      <path d="m-102.20942,-32.79355l0,0l-80.907,0c-5.1,0 -9.301,3.802 -9.901,8.804l-20.602,172.777c-0.3,2.801 0.6,5.703 2.5,7.803c1.9,2.101 4.6,3.401 7.501,3.401l81.707,0c5.5,0 10.001,-4.502 10.001,-10.004s-4.5,-10.004 -10.001,-10.004l-70.406,0l7.901,-66.43l51.805,0c5.5,0 10.001,-4.502 10.001,-10.004s-4.5,-10.004 -10.001,-10.004l-49.406,0l7.901,-66.43l72.006,0c5.5,0 10.001,-4.502 10.001,-10.004s-4.5,-9.905 -10.1,-9.905z"/>
      <path d="m-30.40342,31.83545l-50.404,0c-5.5,0 -10.001,4.502 -10.001,10.004s4.5,10.004 10.001,10.004l50.404,0c5.5,0 10.001,-4.502 10.001,-10.004s-4.501,-10.004 -10.001,-10.004z"/>
      <path d="m-30.40342,75.35445l-50.404,0c-5.5,0 -10.001,4.502 -10.001,10.004s4.5,10.004 10.001,10.004l50.404,0c5.5,0 10.001,-4.502 10.001,-10.004s-4.501,-10.004 -10.001,-10.004z"/>
      <path d="m264.32258,-10.98355l0,0l-9.101,0c2.9,-5.202 4.6,-11.205 4.6,-17.408c0,-0.2 0,-0.4 0,-0.5c-1,-19.909 -19.202,-36.116 -40.504,-36.116c-5.5,0 -10.001,4.502 -10.001,10.004s4.5,10.004 10.001,10.004c10.601,0 19.902,7.703 20.502,16.908c-0.2,9.104 -8.301,16.607 -18.602,17.208l-7.301,0c-5.5,0 -10.001,4.502 -10.001,10.004s4.5,10.004 10.001,10.004l50.404,0c5.5,0 10.001,-4.502 10.001,-10.004s-4.498,-10.104 -9.999,-10.104z"/>
      <path d="m183.41558,51.74445c5.5,0 10.001,-4.502 10.001,-10.004s-4.5,-10.004 -10.001,-10.004c-21.602,0 -41.904,12.105 -53.005,31.714c0,0.1 -0.1,0.1 -0.1,0.2c-10.701,19.909 -10.701,44.52 0,64.429c0,0.1 0.1,0.1 0.1,0.2c11.101,19.609 31.403,31.714 53.005,31.714c5.5,0 10.001,-4.502 10.001,-10.004s-4.5,-10.004 -10.001,-10.004l0,0c-14.401,0 -28.003,-8.204 -35.503,-21.51c-7.501,-13.906 -7.501,-31.214 0,-45.22c7.6,-13.308 21.202,-21.511 35.503,-21.511z"/>
      <path d="m71.90558,31.83545c-8.101,0 -15.501,3.201 -20.902,8.404c-1.5,-1.301 -3.2,-2.601 -5.1,-3.702c-9.401,-6.103 -21.002,-6.103 -30.403,0c-9.901,5.903 -15.401,15.507 -15.401,27.112l0,85.638c0,5.502 4.5,10.004 10.001,10.004s10.001,-4.502 10.001,-10.004l0,-85.638c0,-4.402 1.9,-7.703 5.801,-9.904c0.2,-0.1 0.3,-0.2 0.4,-0.3c2.8,-1.801 6.101,-1.801 8.801,0c0.1,0.1 0.3,0.2 0.4,0.3c3.9,2.301 5.801,5.502 5.801,9.904l0,85.638c0,5.502 4.5,10.004 10.001,10.004s10.001,-4.502 10.001,-10.004l0,-85.638c0,-0.2 0,-0.3 0,-0.5c0,-0.1 0,-0.2 0,-0.3c0,-6.003 4.9,-11.005 10.601,-11.005c5.3,0 9.801,5.402 9.801,11.805l0,85.638c0,5.502 4.5,10.004 10.001,10.004s10.001,-4.502 10.001,-10.004l0,-85.638c0.098,-17.608 -13.304,-31.814 -29.805,-31.814z"/>
     </g>
    </g>
   </g>
  </g>
  <g stroke="null">
   <g stroke="null" id="svg_34">
    <path stroke="null" fill="rgb(0%,0%,0%)" fill-rule="nonzero" d="m79.63097,34.58239c0.14093,-0.41678 0,-0.83657 -0.41978,-1.25635l-4.18585,-4.18585c-0.55771,-0.55771 -1.39428,-0.55771 -1.95499,0l-9.76899,9.76898c-0.27886,0.27886 -0.41678,0.55772 -0.41678,0.9775l0,4.18585c0,0.83957 0.55771,1.39728 1.39428,1.39728l4.18585,0c0.41978,0 0.69864,-0.14093 0.97749,-0.41979l7.95492,-7.95491l0.83957,0c0.83657,0 1.39428,0.55771 1.39428,1.39728l0,33.4928c0,0.83957 -0.55771,1.39728 -1.39428,1.39728l-53.03675,0c-0.83658,0 -1.39429,-0.55771 -1.39429,-1.39728l0,-33.4928c0,-0.83957 0.55771,-1.39728 1.39429,-1.39728l34.89307,0c0.83657,0 1.39428,-0.55771 1.39428,-1.39428c0,-0.83957 -0.55771,-1.39729 -1.39428,-1.39729l-34.89307,0c-2.37179,0 -4.18585,1.81407 -4.18585,4.18885l0,33.4928c0,2.37478 1.81407,4.18885 4.18585,4.18885l53.03675,0c2.37178,0 4.18585,-1.81407 4.18585,-4.18885l0,-33.4928c0,-1.81706 -1.25636,-3.35227 -2.79157,-3.90999zm-3.76906,0.14093l-7.95492,7.95491l-2.23085,0l0,-2.23386l8.3717,-8.37469l2.23386,2.23385l-0.41978,0.41979zm0,0"/>
    <path stroke="null" fill="rgb(0%,0%,0%)" fill-rule="nonzero" d="m32.18035,56.63307c0.83657,0 1.39428,-0.55772 1.39428,-1.39429c0,-0.83657 -0.55771,-1.39429 -1.39428,-1.39429l-2.79157,0l0,-2.79156l2.79157,0c0.83657,0 1.39428,-0.56071 1.39428,-1.39729c0,-0.83657 -0.55771,-1.39428 -1.39428,-1.39428l-4.18885,0c-0.83657,0 -1.39428,0.55771 -1.39428,1.39428l0,11.16627c0,0.83657 0.55771,1.39428 1.39428,1.39428l4.18885,0c0.83657,0 1.39428,-0.55771 1.39428,-1.39428c0,-0.83658 -0.55771,-1.39728 -1.39428,-1.39728l-2.79157,0l0,-2.79157l2.79157,0zm0,0"/>
    <path stroke="null" fill="rgb(0%,0%,0%)" fill-rule="nonzero" d="m41.94933,51.05294l-4.18885,0c-0.83658,0 -1.39429,0.55771 -1.39429,1.39428c0,0.83658 0.55771,1.39728 1.39429,1.39728l4.18885,0c0.83657,0 1.39428,-0.56071 1.39428,-1.39728c0,-0.83657 -0.55771,-1.39428 -1.39428,-1.39428zm0,0"/>
    <path stroke="null" fill="rgb(0%,0%,0%)" fill-rule="nonzero" d="m41.94933,56.63307l-4.18885,0c-0.83658,0 -1.39429,0.56071 -1.39429,1.39728c0,0.83657 0.55771,1.39429 1.39429,1.39429l4.18885,0c0.83657,0 1.39428,-0.55772 1.39428,-1.39429c0,-0.83657 -0.55771,-1.39728 -1.39428,-1.39728zm0,0"/>
    <path stroke="null" fill="rgb(0%,0%,0%)" fill-rule="nonzero" d="m67.07042,56.63307c-0.83657,0 -1.39429,0.56071 -1.39429,1.39728c0,0.83657 -0.56071,1.39429 -1.39728,1.39429c-0.83657,0 -1.39428,-0.55772 -1.39428,-1.39429l0,-5.58313c0,-0.83657 0.55771,-1.39428 1.39428,-1.39428c0.83658,0 1.39728,0.55771 1.39728,1.39428c0,0.83658 0.55772,1.39728 1.39429,1.39728c0.83657,0 1.39429,-0.56071 1.39429,-1.39728c0,-2.37178 -1.81407,-4.18585 -4.18585,-4.18585c-2.37178,0 -4.18585,1.81407 -4.18585,4.18585l0,5.58313c0,2.37178 1.81407,4.18585 4.18585,4.18585c2.37179,0 4.18585,-1.81407 4.18585,-4.18585c0,-0.83657 -0.55772,-1.39728 -1.39429,-1.39728zm0,0"/>
    <path stroke="null" fill="rgb(0%,0%,0%)" fill-rule="nonzero" d="m56.46487,48.3993c-0.56071,-0.27886 -1.11842,-0.13792 -1.53521,0.27886l-3.21135,3.21135l-3.21135,-3.21135c-0.41679,-0.41679 -0.9745,-0.55772 -1.53521,-0.27886c-0.55772,0.14093 -0.83658,0.69864 -0.83658,1.25636l0,11.16627c0,0.83657 0.55772,1.39428 1.39729,1.39428c0.83657,0 1.39428,-0.55771 1.39428,-1.39428l0,-7.81699l1.81407,1.81407c0.55772,0.56071 1.39729,0.56071 1.955,0l1.81407,-1.81407l0,7.81699c0,0.83657 0.55771,1.39428 1.39429,1.39428c0.83957,0 1.39728,-0.55771 1.39728,-1.39428l0,-11.16627c0,-0.55771 -0.27886,-1.11542 -0.83658,-1.25636zm0,0"/>
    <path stroke="null" fill="rgb(0%,0%,0%)" fill-rule="nonzero" d="m75.44512,52.44722l0.83657,-1.11542c0.69864,-0.83957 0.69864,-1.955 0.27886,-2.9325c-0.41978,-0.97749 -1.39428,-1.53521 -2.51271,-1.53521l-1.39428,0c-0.83658,0 -1.39728,0.55772 -1.39728,1.39729c0,0.83657 0.56071,1.39428 1.39728,1.39428l1.39428,0l-2.5127,3.34928c-0.27886,0.41979 -0.41679,0.9775 -0.13793,1.39729c0.27886,0.41679 0.69864,0.83657 1.25636,0.83657l2.79157,0c0.83657,0 1.39428,-0.55771 1.39428,-1.39429c0,-0.83957 -0.55771,-1.39728 -1.39428,-1.39728zm0,0"/>
    <path stroke="null" fill="rgb(0%,0%,0%)" fill-rule="nonzero" d="m81.02825,78.9656l-58.61988,0c-0.83658,0 -1.39429,0.55771 -1.39429,1.39428c0,0.83658 0.55771,1.39729 1.39429,1.39729l58.61988,0c0.83658,0 1.39429,-0.56071 1.39429,-1.39729c0,-0.83657 -0.55771,-1.39428 -1.39429,-1.39428zm0,0"/>
   </g>
  </g>
 </g>
</svg>