<?xml version="1.0" encoding="UTF-8" standalone="no"?>
<svg
   width="16"
   height="16"
   viewBox="0 0 16 16"
   fill="none"
   version="1.1"
   id="svg2"
   sodipodi:docname="ColumnClosed.svg"
   inkscape:version="1.3.2 (091e20e, 2023-11-25, custom)"
   xmlns:inkscape="http://www.inkscape.org/namespaces/inkscape"
   xmlns:sodipodi="http://sodipodi.sourceforge.net/DTD/sodipodi-0.dtd"
   xmlns="http://www.w3.org/2000/svg"
   xmlns:svg="http://www.w3.org/2000/svg">
  <defs
     id="defs2" />
  <sodipodi:namedview
     id="namedview2"
     pagecolor="#505050"
     bordercolor="#ffffff"
     borderopacity="1"
     inkscape:showpageshadow="0"
     inkscape:pageopacity="0"
     inkscape:pagecheckerboard="1"
     inkscape:deskcolor="#505050"
     inkscape:zoom="71.859727"
     inkscape:cx="7.7372963"
     inkscape:cy="10.457874"
     inkscape:window-width="1920"
     inkscape:window-height="1009"
     inkscape:window-x="-8"
     inkscape:window-y="-8"
     inkscape:window-maximized="1"
     inkscape:current-layer="svg2" />
  <rect
     style="opacity:0.5;fill:#ffffff;stroke-width:1.00798;stroke-opacity:0.4;fill-opacity:1"
     id="rect8"
     width="8.3217688"
     height="7.9460363"
     x="3.7851522"
     y="5.9282165" />
  <path
     d="M8 4L6.33 2.33C6.12 2.12 5.83 2 5.54 2H1.12C0.5 2 0 2.5 0 3.12V4H8Z"
     fill="white"
     id="path1" />
  <path
     d="m 0,5 v 7.880859 C 0,13.500859 0.49914124,14 1.1191406,14 H 14.880859 C 15.500859,14 16,13.500859 16,12.880859 V 6.1191406 C 16,5.4991412 15.500859,5 14.880859,5 Z m 10.060547,1.2578125 c 0.424736,0.00479 0.816229,0.2738841 0.962891,0.6894531 l 0.01758,0.058594 0.207031,0.7226562 c 0.03933,0.137154 -0.02916,0.280081 -0.15625,0.3359375 l -0.03516,0.013672 -4.0312504,1.1542969 4.1933594,0.00195 c 0.142681,0 0.260635,0.1046247 0.279297,0.2421875 L 11.5,9.515625 v 3.193359 c 0,0.549587 -0.429293,0.998717 -0.970703,1.03125 l -0.0625,0.002 H 5.7695312 c -0.5495867,0 -0.9987163,-0.429293 -1.03125,-0.970704 l -0.00195,-0.0625 V 9.5546875 L 4.5410156,8.8710938 C 4.389529,8.342797 4.6779837,7.7918344 5.1894531,7.6113281 l 0.058594,-0.019531 4.515625,-1.2929688 c 0.099056,-0.028404 0.1988589,-0.04212 0.2968751,-0.041016 z"
     style="fill:#ffffff"
     id="path8" />
  <path
     d="m 5.3007812,9.796875 v 2.912109 c 0,0.226993 0.1609556,0.417138 0.375,0.460938 l 0.046875,0.0059 0.046875,0.002 h 4.6972658 c 0.243206,0 0.442742,-0.185014 0.466797,-0.421875 l 0.002,-0.04687 V 9.796875 Z"
     style="fill:#ffffff"
     id="path7" />
  <path
     d="M 10.236328,6.8613281 9.6640625,7.890625 10.628906,7.6132812 10.5,7.1621094 c -0.04027,-0.1404335 -0.139374,-0.2468 -0.263672,-0.3007813 z"
     style="fill:#ffffff"
     id="path6" />
  <path
     d="M 9.5410156,6.9492187 8.5195313,7.2402344 7.8769531,8.4023438 8.8964844,8.109375 Z"
     style="fill:#ffffff"
     id="path5" />
  <path
     d="M 7.7539062,7.4609375 6.7324219,7.7539062 6.0878906,8.9160156 7.109375,8.6230469 Z"
     style="fill:#ffffff"
     id="path4" />
  <path
     d="m 5.9667969,7.9726562 -0.5625,0.1621094 C 5.1705117,8.2018024 5.0281494,8.4336533 5.0703125,8.6679688 l 0.011719,0.046875 0.1289063,0.4511718 0.1113281,-0.03125 z"
     style="fill:#ffffff"
     id="path3" />
</svg>
