<?xml version="1.0" encoding="UTF-8" standalone="no"?>
<svg
   width="16"
   height="16"
   viewBox="0 0 16 16"
   fill="none"
   version="1.1"
   id="svg2"
   sodipodi:docname="ColumnOpen.svg"
   inkscape:version="1.3.2 (091e20e, 2023-11-25, custom)"
   xmlns:inkscape="http://www.inkscape.org/namespaces/inkscape"
   xmlns:sodipodi="http://sodipodi.sourceforge.net/DTD/sodipodi-0.dtd"
   xmlns="http://www.w3.org/2000/svg"
   xmlns:svg="http://www.w3.org/2000/svg">
  <defs
     id="defs2" />
  <sodipodi:namedview
     id="namedview2"
     pagecolor="#505050"
     bordercolor="#ffffff"
     borderopacity="1"
     inkscape:showpageshadow="0"
     inkscape:pageopacity="0"
     inkscape:pagecheckerboard="1"
     inkscape:deskcolor="#505050"
     inkscape:zoom="101.625"
     inkscape:cx="8.2361624"
     inkscape:cy="11.202952"
     inkscape:window-width="1920"
     inkscape:window-height="1009"
     inkscape:window-x="-8"
     inkscape:window-y="-8"
     inkscape:window-maximized="1"
     inkscape:current-layer="svg2" />
  <rect
     style="opacity:0.5;fill:#ffffff;stroke-opacity:0.4;fill-opacity:1"
     id="rect8"
     width="7.8523984"
     height="5.0381303"
     x="4.6445265"
     y="8.7773676" />
  <path
     d="M14 7V5C14 4.44772 13.5523 4 13 4H8L6.28 2.28C6.1 2.1 5.86 2 5.6 2H0.96C0.43 2 0 2.43 0 2.96V13L4 7H14Z"
     fill="white"
     id="path1" />
  <path
     d="m 7.1640625,11.269531 -1.484375,1.769532 c -0.1157099,0.137897 -0.1155169,0.252688 -0.00781,0.279296 l 0.025391,0.0039 0.027344,0.002 H 8.578125 c 0.1477472,0 0.3646474,-0.111968 0.5,-0.25586 l 0.025391,-0.0293 1.4843754,-1.769532 z"
     style="fill:#ffffff"
     id="path8" />
  <path
     d="m 11.658203,9.4863281 -0.871094,0.6249999 0.726563,-0.1679686 0.152344,-0.2753906 c 0.04712,-0.085313 0.04018,-0.1488472 -0.0078,-0.1816407 z"
     style="fill:#ffffff"
     id="path7" />
  <path
     d="M 11.191406,9.5390625 10.421875,9.7167969 9.4394531,10.421875 10.208984,10.244141 Z"
     style="fill:#ffffff"
     id="path6" />
  <path
     d="M 9.8457031,9.8496094 9.0742188,10.027344 8.0917969,10.734375 8.8613281,10.556641 Z"
     style="fill:#ffffff"
     id="path5" />
  <path
     d="m 8.4980469,10.162109 -0.4238281,0.09766 c -0.176196,0.04072 -0.3807809,0.181872 -0.4746094,0.324218 l -0.017578,0.0293 -0.1503906,0.273438 0.082031,-0.01953 z"
     style="fill:#ffffff"
     id="path4" />
  <path
     d="M 4.8300781,8 0.50976562,14 H 12.310547 c 0.32,0 0.618828,-0.159688 0.798828,-0.429687 L 15.830078,9.5 C 16.260078,8.8600006 15.799296,8 15.029297,8 Z m 6.9667969,1.1210938 c 0.300498,-0.023852 0.429057,0.1441387 0.296875,0.4160156 l -0.01953,0.037109 -0.242188,0.4394532 c -0.04602,0.08332 -0.161898,0.169192 -0.267578,0.203125 l -0.02734,0.0078 -3.0390621,0.703125 h 2.5468751 c 0.08668,0 0.105661,0.06487 0.04687,0.148438 l -0.01758,0.02148 -1.6289065,1.941407 c -0.2801523,0.333872 -0.769745,0.607188 -1.1152344,0.626953 H 8.2910156 5.4375 c -0.3338725,0 -0.3870796,-0.260939 -0.1308594,-0.589844 l 0.029297,-0.03711 1.6074219,-1.916016 0.2304687,-0.416016 C 7.3511,10.386092 7.8062548,10.051063 8.2089844,9.9414063 l 0.046875,-0.011719 3.4023436,-0.7851562 c 0.04977,-0.011503 0.09574,-0.02003 0.138672,-0.023437 z"
     style="fill:#ffffff"
     id="path3" />
</svg>
