<?xml version="1.0" encoding="UTF-8" standalone="no"?>
<svg
   width="16"
   height="16"
   viewBox="0 0 16 16"
   fill="none"
   version="1.1"
   id="svg2"
   sodipodi:docname="ColumnClosed.svg"
   inkscape:version="1.3.2 (091e20e, 2023-11-25, custom)"
   xmlns:inkscape="http://www.inkscape.org/namespaces/inkscape"
   xmlns:sodipodi="http://sodipodi.sourceforge.net/DTD/sodipodi-0.dtd"
   xmlns="http://www.w3.org/2000/svg"
   xmlns:svg="http://www.w3.org/2000/svg">
  <defs
     id="defs2" />
  <sodipodi:namedview
     id="namedview2"
     pagecolor="#505050"
     bordercolor="#ffffff"
     borderopacity="1"
     inkscape:showpageshadow="0"
     inkscape:pageopacity="0"
     inkscape:pagecheckerboard="1"
     inkscape:deskcolor="#505050"
     inkscape:zoom="50.8125"
     inkscape:cx="9.8499385"
     inkscape:cy="8.4723247"
     inkscape:window-width="1920"
     inkscape:window-height="1009"
     inkscape:window-x="-8"
     inkscape:window-y="-8"
     inkscape:window-maximized="1"
     inkscape:current-layer="svg2" />
  <rect
     style="opacity:0.5;fill:#ffffff;stroke-opacity:0.4;fill-opacity:1"
     id="rect7"
     width="10.292743"
     height="8.1672821"
     x="2.8142681"
     y="5.7269373" />
  <path
     d="M8 4L6.33 2.33C6.12 2.12 5.83 2 5.54 2H1.12C0.5 2 0 2.5 0 3.12V4H8Z"
     fill="white"
     id="path1" />
  <path
     d="m 8.7890625,10.482422 -0.7519531,0.103516 -0.6210938,0.80664 0.984375,1.369141 -0.2285156,0.371094 c 1.0893323,-0.0552 2.040089,-0.63326 2.607422,-1.488282 z"
     style="fill:#ffffff"
     id="path7" />
  <path
     d="M 9.3476563,6.7539062 9.5722656,7.203125 7.9902344,8.7832031 6.8242187,8.9511719 6.203125,9.5722656 6.2480469,9.7578125 7.0527344,9.6230469 7.7207031,9.9570313 8.9257813,9.7910156 11.091797,11.052734 c 0.1564,-0.386133 0.242187,-0.807778 0.242187,-1.2499996 0,-1.3612031 -0.816907,-2.5311398 -1.9863277,-3.0488282 z"
     style="fill:#ffffff"
     id="path6" />
  <path
     d="m 4.9785156,8.3945313 c -0.1999287,0.4280084 -0.3125,0.9046036 -0.3125,1.4082031 0,1.6419986 1.187126,3.0074256 2.75,3.2832036 L 7.5996094,12.789063 6.5839844,11.378906 7.2773437,10.480469 6.9472656,10.316406 5.7519531,10.515625 5.5175781,9.5800781 Z"
     style="fill:#ffffff"
     id="path5" />
  <path
     d="m 8,6.4707031 c -1.0503367,0 -1.986679,0.4849769 -2.5976563,1.2441406 L 5.9375,8.8945313 6.5097656,8.3222656 7.6757812,8.15625 8.7617188,7.0703125 8.4785156,6.5039062 C 8.3225158,6.4815183 8.162222,6.4707031 8,6.4707031 Z"
     style="fill:#ffffff"
     id="path4" />
  <path
     d="m 0,5 v 7.880859 C 0,13.500859 0.49914124,14 1.1191406,14 H 14.880859 C 15.500859,14 16,13.500859 16,12.880859 V 6.1191406 C 16,5.4991412 15.500859,5 14.880859,5 Z m 8,0.8027344 c 2.209153,0 4,1.7908644 4,4 0,2.2091526 -1.790847,3.9999996 -4,3.9999996 -2.2091356,0 -4,-1.790847 -4,-3.9999996 0,-2.2091356 1.7908644,-4 4,-4 z"
     style="fill:#ffffff"
     id="path3" />
</svg>
