<?xml version="1.0" encoding="UTF-8" standalone="no"?>
<svg
   width="16"
   height="16"
   viewBox="0 0 16 16"
   fill="none"
   version="1.1"
   id="svg2"
   sodipodi:docname="ColumnOpen.svg"
   inkscape:version="1.3.2 (091e20e, 2023-11-25, custom)"
   xmlns:inkscape="http://www.inkscape.org/namespaces/inkscape"
   xmlns:sodipodi="http://sodipodi.sourceforge.net/DTD/sodipodi-0.dtd"
   xmlns="http://www.w3.org/2000/svg"
   xmlns:svg="http://www.w3.org/2000/svg">
  <defs
     id="defs2" />
  <sodipodi:namedview
     id="namedview2"
     pagecolor="#505050"
     bordercolor="#ffffff"
     borderopacity="1"
     inkscape:showpageshadow="0"
     inkscape:pageopacity="0"
     inkscape:pagecheckerboard="1"
     inkscape:deskcolor="#505050"
     inkscape:zoom="50.8125"
     inkscape:cx="7.8228782"
     inkscape:cy="8.2558426"
     inkscape:window-width="1920"
     inkscape:window-height="1009"
     inkscape:window-x="-8"
     inkscape:window-y="-8"
     inkscape:window-maximized="1"
     inkscape:current-layer="svg2" />
  <rect
     style="opacity:0.5;fill:#ffffff;stroke-width:0.971117;stroke-opacity:0.4"
     id="rect7"
     width="7.4981546"
     height="5.5301352"
     x="4.9594097"
     y="8.2853632" />
  <path
     d="M14 7V5C14 4.44772 13.5523 4 13 4H8L6.28 2.28C6.1 2.1 5.86 2 5.6 2H0.96C0.43 2 0 2.43 0 2.96V13L4 7H14Z"
     fill="white"
     id="path1" />
  <path
     d="M 7.6132812,10.144531 C 7.2385518,10.431414 6.8945653,10.752295 6.6113281,11.089844 5.6878268,12.19043 5.716922,13.104216 6.609375,13.289063 L 6.8984375,13.091797 7.0097656,12.146484 7.9804687,11.544922 7.8515625,11.433594 6.9375,11.568359 7.3085937,10.939453 Z"
     style="fill:#ffffff"
     id="path7" />
  <path
     d="m 8.9921875,11.544922 -0.5605469,0.07031 -0.8710937,0.541016 -0.109375,0.916016 -0.3613282,0.248047 c 0.7611951,-0.037 1.7228308,-0.422996 2.5839844,-0.996094 z"
     style="fill:#ffffff"
     id="path6" />
  <path
     d="m 11.464844,9.0449219 -0.101563,0.3007812 -1.9511716,1.0605469 -0.875,0.111328 -0.765625,0.417969 -0.072266,0.123047 0.6132813,-0.08984 0.2597656,0.224609 0.9023438,-0.111328 0.7402346,0.845703 c 0.321999,-0.258813 0.616516,-0.541482 0.865234,-0.83789 0.765574,-0.912375 0.877435,-1.6979297 0.384766,-2.0449221 z"
     style="fill:#ffffff"
     id="path5" />
  <path
     d="m 10.720703,8.8554688 c -0.704011,0 -1.6049118,0.3251378 -2.4414061,0.8339843 L 7.9746094,10.480469 8.6796875,10.097656 9.5566406,9.9863281 10.892578,9.2578125 11.021484,8.8789063 c -0.09197,-0.015013 -0.192047,-0.023437 -0.300781,-0.023437 z"
     style="fill:#ffffff"
     id="path4" />
  <path
     d="M 4.8300781,8 0.50976562,14 H 12.310547 c 0.32,0 0.618828,-0.159688 0.798828,-0.429687 L 15.830078,9.5 C 16.260078,8.8600006 15.799296,8 15.029297,8 Z m 6.2656249,0.4082031 c 1.480737,0 1.674115,1.2009182 0.431641,2.6816409 -1.242484,1.480735 -3.4509065,2.68164 -4.9316409,2.68164 -1.4807228,0 -1.6721713,-1.200905 -0.4296875,-2.68164 C 7.4084896,9.6091213 9.61498,8.4082031 11.095703,8.4082031 Z"
     style="fill:#ffffff"
     id="path3" />
</svg>
