<?xml version="1.0" encoding="UTF-8" standalone="no"?>
<svg
   width="16"
   height="16"
   viewBox="0 0 16 16"
   fill="none"
   version="1.1"
   id="svg2"
   sodipodi:docname="ColumnOpen.svg"
   inkscape:version="1.3.2 (091e20e, 2023-11-25, custom)"
   xmlns:inkscape="http://www.inkscape.org/namespaces/inkscape"
   xmlns:sodipodi="http://sodipodi.sourceforge.net/DTD/sodipodi-0.dtd"
   xmlns="http://www.w3.org/2000/svg"
   xmlns:svg="http://www.w3.org/2000/svg">
  <defs
     id="defs2" />
  <sodipodi:namedview
     id="namedview2"
     pagecolor="#505050"
     bordercolor="#ffffff"
     borderopacity="1"
     inkscape:showpageshadow="0"
     inkscape:pageopacity="0"
     inkscape:pagecheckerboard="1"
     inkscape:deskcolor="#505050"
     inkscape:zoom="50.8125"
     inkscape:cx="7.9901599"
     inkscape:cy="8"
     inkscape:window-width="1920"
     inkscape:window-height="1009"
     inkscape:window-x="-8"
     inkscape:window-y="-8"
     inkscape:window-maximized="1"
     inkscape:current-layer="svg2" />
  <rect
     style="opacity:0.5;fill:#ffffff;fill-opacity:1;stroke-opacity:0.4"
     id="rect4"
     width="7.9114389"
     height="4.9790897"
     x="4.8413286"
     y="8.8560886" />
  <path
     d="M14 7V5C14 4.44772 13.5523 4 13 4H8L6.28 2.28C6.1 2.1 5.86 2 5.6 2H0.96C0.43 2 0 2.43 0 2.96V13L4 7H14Z"
     fill="white"
     id="path1" />
  <path
     d="m 8.9160156,9.8417969 c -0.074033,0 -0.1602692,0.027931 -0.2597656,0.082031 -0.099497,0.0541 -0.1774911,0.1163139 -0.234375,0.1874999 L 6.1816406,12.78125 c -0.062121,0.07403 -0.088325,0.136243 -0.080078,0.1875 0.00825,0.05125 0.050073,0.07617 0.1269531,0.07617 h 2.6699219 c 0.071185,0 0.1548461,-0.02492 0.2519531,-0.07617 0.097107,-0.05125 0.1751018,-0.113467 0.234375,-0.1875 L 11.625,10.111328 c 0.06212,-0.07403 0.08832,-0.1362434 0.08008,-0.1874999 -0.0082,-0.051253 -0.0475,-0.079185 -0.11914,-0.082031 z m 1.5332034,0.7695311 c 0.07403,0 0.115236,0.02598 0.121094,0.08008 0.0059,0.0541 -0.02123,0.118267 -0.07813,0.189453 -0.05689,0.07118 -0.135941,0.133397 -0.238282,0.1875 l -2.082031,1.13086 c -0.096649,0.0541 -0.1818268,0.08203 -0.2558594,0.08203 -0.074033,0 -0.1132835,-0.02793 -0.1191406,-0.08203 l -0.091797,-0.566406 c -0.011094,-0.05125 0.014052,-0.115421 0.076172,-0.189454 0.06212,-0.07403 0.1431266,-0.136242 0.2402344,-0.1875 0.097107,-0.05125 0.180768,-0.07617 0.2519531,-0.07617 0.071185,0 0.111953,0.02492 0.1230469,0.07617 l 0.064453,0.376954 1.7324215,-0.941407 c 0.09665,-0.0541 0.181828,-0.08008 0.25586,-0.08008 z"
     style="fill:#ffffff"
     id="path4" />
  <path
     d="M 4.8300781,8 0.50976562,14 H 12.310547 c 0.32,0 0.618828,-0.159688 0.798828,-0.429687 L 15.830078,9.5 C 16.260078,8.8600006 15.799296,8 15.029297,8 Z m 4.5351563,1.3085938 h 2.6679686 c 0.219251,0 0.34199,0.077768 0.367188,0.234375 0.0252,0.1566067 -0.05582,0.3462611 -0.242188,0.5683592 L 9.9199219,12.78125 c -0.186362,0.222098 -0.4233576,0.40874 -0.7089844,0.5625 -0.2856268,0.153759 -0.5400795,0.233481 -0.7617187,0.236328 H 5.78125 c -0.2220975,0 -0.3458956,-0.07972 -0.3710938,-0.236328 -0.025199,-0.156607 0.054308,-0.34325 0.2382813,-0.5625 L 7.8886719,10.111328 C 8.0750339,9.8892299 8.3115933,9.6995755 8.5996094,9.5429688 8.8876256,9.3863616 9.1431369,9.3085938 9.3652344,9.3085938 Z"
     style="fill:#ffffff"
     id="path3" />
</svg>
