<?xml version="1.0" encoding="UTF-8" standalone="no"?>
<svg
   width="16"
   height="16"
   viewBox="0 0 16 16"
   fill="none"
   version="1.1"
   id="svg2"
   sodipodi:docname="ColumnClosed.svg"
   inkscape:version="1.3.2 (091e20e, 2023-11-25, custom)"
   xmlns:inkscape="http://www.inkscape.org/namespaces/inkscape"
   xmlns:sodipodi="http://sodipodi.sourceforge.net/DTD/sodipodi-0.dtd"
   xmlns="http://www.w3.org/2000/svg"
   xmlns:svg="http://www.w3.org/2000/svg">
  <defs
     id="defs2" />
  <sodipodi:namedview
     id="namedview2"
     pagecolor="#505050"
     bordercolor="#ffffff"
     borderopacity="1"
     inkscape:showpageshadow="0"
     inkscape:pageopacity="0"
     inkscape:pagecheckerboard="1"
     inkscape:deskcolor="#505050"
     inkscape:zoom="50.8125"
     inkscape:cx="7.9901599"
     inkscape:cy="8"
     inkscape:window-width="1920"
     inkscape:window-height="1009"
     inkscape:window-x="-8"
     inkscape:window-y="-8"
     inkscape:window-maximized="1"
     inkscape:current-layer="svg2" />
  <rect
     style="opacity:0.5;fill:#ffffff;fill-opacity:1;stroke-opacity:0.4"
     id="rect4"
     width="8.7773676"
     height="7.7539973"
     x="3.6408365"
     y="6.0615005" />
  <path
     d="M8 4L6.33 2.33C6.12 2.12 5.83 2 5.54 2H1.12C0.5 2 0 2.5 0 3.12V4H8Z"
     fill="white"
     id="path1" />
  <path
     d="M 5.8164062,7.375 C 5.695073,7.375 5.5906197,7.4191459 5.5019531,7.5078125 5.4132865,7.5964791 5.3703333,7.6997398 5.375,7.8164062 v 4.3749998 c 0,0.121333 0.042953,0.222641 0.1269531,0.306641 0.084,0.084 0.1884533,0.126953 0.3144531,0.126953 h 4.3749998 c 0.116667,0 0.217974,-0.04295 0.306641,-0.126953 0.08867,-0.084 0.13162,-0.185308 0.126953,-0.306641 V 7.8164062 c 0,-0.1213332 -0.04295,-0.2245939 -0.126953,-0.3085937 -0.084,-0.084 -0.185308,-0.1281459 -0.306641,-0.1328125 z m 3.5703126,1.2597656 c 0.121333,0 0.2226407,0.044146 0.3066406,0.1328125 0.084,0.088667 0.1281458,0.1919272 0.1328125,0.3085938 0.00467,0.1166665 -0.039479,0.2199271 -0.1328125,0.3085937 L 7.8398437,11.238281 c -0.084,0.08867 -0.1872605,0.132813 -0.3085937,0.132813 -0.1213332,0 -0.2245938,-0.04415 -0.3085938,-0.132813 L 6.2929687,10.308594 C 6.2043021,10.224594 6.1582031,10.121333 6.1582031,10 c 0,-0.1213333 0.046099,-0.2245938 0.1347656,-0.3085937 0.088667,-0.084 0.1899741,-0.125 0.3066407,-0.125 0.1166665,0 0.2199271,0.041 0.3085937,0.125 L 7.53125,10.308594 9.078125,8.7675781 c 0.084,-0.088667 0.1872605,-0.1328125 0.3085938,-0.1328125 z"
     style="fill:#ffffff"
     id="path4" />
  <path
     d="m 0,5 v 7.880859 C 0,13.500859 0.49914124,14 1.1191406,14 H 14.880859 C 15.500859,14 16,13.500859 16,12.880859 V 6.1191406 C 16,5.4991412 15.500859,5 14.880859,5 Z m 5.8164062,1.5 h 4.3749998 c 0.359333,0 0.667162,0.1280993 0.923828,0.3847656 C 11.371901,7.141432 11.5,7.4524066 11.5,7.8164062 v 4.3749998 c 0,0.364 -0.128099,0.671829 -0.384766,0.923828 -0.256666,0.252 -0.564495,0.380099 -0.923828,0.384766 H 5.8164062 C 5.4524066,13.5 5.141432,13.371901 4.8847656,13.115234 4.6280991,12.858568 4.5,12.550739 4.5,12.191406 V 7.8164062 C 4.5,7.4524066 4.6280991,7.141432 4.8847656,6.8847656 5.141432,6.6280993 5.4524066,6.5 5.8164062,6.5 Z"
     style="fill:#ffffff"
     id="path3" />
</svg>
