<?xml version="1.0" encoding="UTF-8" standalone="no"?>
<svg
   width="16"
   height="16"
   viewBox="0 0 16 16"
   fill="none"
   version="1.1"
   id="svg2"
   sodipodi:docname="ColumnOpen.svg"
   inkscape:version="1.3.2 (091e20e, 2023-11-25, custom)"
   xmlns:inkscape="http://www.inkscape.org/namespaces/inkscape"
   xmlns:sodipodi="http://sodipodi.sourceforge.net/DTD/sodipodi-0.dtd"
   xmlns="http://www.w3.org/2000/svg"
   xmlns:svg="http://www.w3.org/2000/svg">
  <defs
     id="defs2" />
  <sodipodi:namedview
     id="namedview2"
     pagecolor="#505050"
     bordercolor="#ffffff"
     borderopacity="1"
     inkscape:showpageshadow="0"
     inkscape:pageopacity="0"
     inkscape:pagecheckerboard="1"
     inkscape:deskcolor="#505050"
     inkscape:zoom="101.625"
     inkscape:cx="8.6691267"
     inkscape:cy="10.671587"
     inkscape:window-width="1920"
     inkscape:window-height="1009"
     inkscape:window-x="-8"
     inkscape:window-y="-8"
     inkscape:window-maximized="1"
     inkscape:current-layer="svg2" />
  <rect
     style="opacity:0.5;fill:#ffffff;fill-opacity:1;stroke-width:0.984204;stroke-opacity:0.4"
     id="rect3"
     width="7.6026216"
     height="5.3159122"
     x="4.754787"
     y="8.48876" />
  <path
     d="M14 7V5C14 4.44772 13.5523 4 13 4H8L6.28 2.28C6.1 2.1 5.86 2 5.6 2H0.96C0.43 2 0 2.43 0 2.96V13L4 7H14Z"
     fill="white"
     id="path1" />
  <path
     d="M 4.8300781,8 0.50976562,14 H 12.310547 c 0.32,0 0.618828,-0.159688 0.798828,-0.429687 L 15.830078,9.5 C 16.260078,8.8600006 15.799296,8 15.029297,8 Z m 5.5332029,0.9394531 h 1.464844 c 0.07819,0 0.08905,0.0683 0.02344,0.1464844 l -0.902344,1.0742185 c -0.0656,0.07819 -0.191362,0.146485 -0.269531,0.146485 h -0.4375 l -0.5742192,0.683593 h 1.3183592 c 0.07826,0 0.08905,0.06832 0.02344,0.146485 l -0.94336,1.125 h 0.44336 c 0.07818,0 0.08905,0.06829 0.02344,0.146484 l -0.9023436,1.074219 c -0.065605,0.07817 -0.1913484,0.146484 -0.2695313,0.146484 H 7.8964844 c -0.078262,0 -0.090995,-0.06831 -0.025391,-0.146484 l 0.9023438,-1.074219 c 0.065604,-0.07818 0.1912683,-0.146484 0.2695313,-0.146484 H 9.4824219 L 10.056641,11.578125 H 7.7089844 l -0.5742188,0.683594 h 0.4414063 c 0.078184,0 0.089041,0.06829 0.023437,0.146484 l -0.9023438,1.074219 c -0.065605,0.07817 -0.1913463,0.146484 -0.2695312,0.146484 H 4.9609375 c -0.078184,0 -0.089041,-0.06831 -0.023437,-0.146484 l 0.9023437,-1.074219 c 0.065604,-0.07818 0.1913464,-0.146484 0.2695313,-0.146484 h 0.4414062 l 0.9433594,-1.125 c 0.065606,-0.07819 0.1914254,-0.146485 0.2695313,-0.146485 H 9.0820313 L 9.65625,10.306641 H 9.2148438 c -0.078262,0 -0.089042,-0.06831 -0.023437,-0.146485 L 10.09375,9.0859375 c 0.0656,-0.078185 0.191261,-0.1464844 0.269531,-0.1464844 z"
     style="fill:#ffffff"
     id="path3" />
</svg>
