<?xml version="1.0" encoding="UTF-8" standalone="no"?>
<svg
   width="16"
   height="16"
   viewBox="0 0 16 16"
   fill="none"
   version="1.1"
   id="svg2"
   sodipodi:docname="ColumnClosed.svg"
   inkscape:version="1.3.2 (091e20e, 2023-11-25, custom)"
   xmlns:inkscape="http://www.inkscape.org/namespaces/inkscape"
   xmlns:sodipodi="http://sodipodi.sourceforge.net/DTD/sodipodi-0.dtd"
   xmlns="http://www.w3.org/2000/svg"
   xmlns:svg="http://www.w3.org/2000/svg">
  <defs
     id="defs2" />
  <sodipodi:namedview
     id="namedview2"
     pagecolor="#505050"
     bordercolor="#ffffff"
     borderopacity="1"
     inkscape:showpageshadow="0"
     inkscape:pageopacity="0"
     inkscape:pagecheckerboard="1"
     inkscape:deskcolor="#505050"
     inkscape:zoom="35.929863"
     inkscape:cx="6.7075123"
     inkscape:cy="10.840564"
     inkscape:window-width="1920"
     inkscape:window-height="1009"
     inkscape:window-x="-8"
     inkscape:window-y="-8"
     inkscape:window-maximized="1"
     inkscape:current-layer="svg2" />
  <rect
     style="opacity:0.5;fill:#ffffff;stroke-width:0.853706;stroke-opacity:0.4;fill-opacity:1"
     id="rect3"
     width="5.9838805"
     height="7.7929602"
     x="5.0097604"
     y="6.1230402" />
  <path
     d="M8 4L6.33 2.33C6.12 2.12 5.83 2 5.54 2H1.12C0.5 2 0 2.5 0 3.12V4H8Z"
     fill="white"
     id="path1" />
  <path
     d="m 0,5 v 7.880859 C 0,13.500859 0.49914124,14 1.1191406,14 H 14.880859 C 15.500859,14 16,13.500859 16,12.880859 V 6.1191406 C 16,5.4991412 15.500859,5 14.880859,5 Z M 9.2207031,6.3632812 C 9.67093,6.3632812 10.100682,6.4447089 10.5,6.5878906 9.0761378,7.0981174 8.0585938,8.4318197 8.0585938,10 c 0,1.568408 1.017544,2.901883 2.4414062,3.412109 -0.399318,0.143182 -0.82907,0.22461 -1.2792969,0.22461 C 7.1657052,13.636719 5.5,12.008407 5.5,10 5.5,7.9918202 7.1657052,6.3632812 9.2207031,6.3632812 Z"
     style="fill:#ffffff"
     id="path3" />
</svg>
