<?xml version="1.0" encoding="UTF-8" standalone="no"?>
<svg
   width="16"
   height="16"
   viewBox="0 0 16 16"
   fill="none"
   version="1.1"
   id="svg2"
   sodipodi:docname="ColumnOpen.svg"
   inkscape:version="1.3.2 (091e20e, 2023-11-25, custom)"
   xmlns:inkscape="http://www.inkscape.org/namespaces/inkscape"
   xmlns:sodipodi="http://sodipodi.sourceforge.net/DTD/sodipodi-0.dtd"
   xmlns="http://www.w3.org/2000/svg"
   xmlns:svg="http://www.w3.org/2000/svg">
  <defs
     id="defs2" />
  <sodipodi:namedview
     id="namedview2"
     pagecolor="#505050"
     bordercolor="#ffffff"
     borderopacity="1"
     inkscape:showpageshadow="0"
     inkscape:pageopacity="0"
     inkscape:pagecheckerboard="1"
     inkscape:deskcolor="#505050"
     inkscape:zoom="91.776885"
     inkscape:cx="7.7742887"
     inkscape:cy="10.857854"
     inkscape:window-width="1920"
     inkscape:window-height="1009"
     inkscape:window-x="-8"
     inkscape:window-y="-8"
     inkscape:window-maximized="1"
     inkscape:current-layer="svg2" />
  <rect
     style="opacity:0.5;fill:#ffffff;stroke-opacity:0.4"
     id="rect4"
     width="7.3964434"
     height="5.0850549"
     x="5.3007841"
     y="8.7832766" />
  <path
     d="M14 7V5C14 4.44772 13.5523 4 13 4H8L6.28 2.28C6.1 2.1 5.86 2 5.6 2H0.96C0.43 2 0 2.43 0 2.96V13L4 7H14Z"
     fill="white"
     id="path1" />
  <path
     d="M 10.144531,9.9042969 8.2617188,11.132813 c -0.4765618,0.322421 -0.9162354,0.69009 -1.1933594,1.021484 -0.1200347,0.143052 -0.2120193,0.278559 -0.2695313,0.40625 -0.057352,0.127821 -0.080281,0.248002 -0.0625,0.359375 0.039217,0.242867 0.2538828,0.364964 0.5722656,0.365234 0.3188357,-2.7e-4 0.736791,-0.122359 1.1835938,-0.365234 C 8.6967359,12.808558 8.8723788,12.690191 9.0292969,12.5625 9.1862062,12.434809 9.3252705,12.297357 9.4453125,12.154297 9.7242033,11.822903 9.9020016,11.455234 9.9667969,11.132813 Z M 8.5429688,11.289063 c 0,0 -0.6869898,0.564622 -0.8828126,1.130859 -0.1015225,0.293588 -0.641928,0.569175 -0.4804687,0.105469 0.1445189,-0.415161 0.9693419,-1.00978 1.3632813,-1.236328 z"
     style="fill:#ffffff"
     id="path4" />
  <path
     d="M 4.8300781,8 0.50976562,14 H 12.310547 c 0.32,0 0.618828,-0.159688 0.798828,-0.429687 L 15.830078,9.5 C 16.260078,8.8600006 15.799296,8 15.029297,8 Z m 5.8886719,1.21875 -0.244141,1.695313 -0.002,0.0039 v 0.002 c -0.07535,0.371785 -0.27492,0.802226 -0.6367185,1.234375 -0.1556427,0.185488 -0.3425526,0.371364 -0.5605469,0.548828 -0.2174821,0.177185 -0.4655482,0.345919 -0.7382812,0.494141 v 0 c -0.5854654,0.318348 -1.1396611,0.478785 -1.5566407,0.478515 -0.4174235,2.7e-4 -0.702842,-0.160176 -0.7539062,-0.478515 -0.023858,-0.148222 0.00986,-0.316817 0.089844,-0.494141 0.079708,-0.177324 0.2054367,-0.36321 0.3613282,-0.548828 0.363332,-0.432027 0.8851504,-0.86259 1.4335937,-1.234375 l 0.00391,-0.002 z"
     style="display:inline;fill:#ffffff"
     id="path3" />
</svg>
