<?xml version="1.0" encoding="UTF-8" standalone="no"?>
<svg
   width="16"
   height="16"
   viewBox="0 0 16 16"
   fill="none"
   version="1.1"
   id="svg2"
   sodipodi:docname="ColumnClosed.svg"
   inkscape:version="1.3.2 (091e20e, 2023-11-25, custom)"
   xmlns:inkscape="http://www.inkscape.org/namespaces/inkscape"
   xmlns:sodipodi="http://sodipodi.sourceforge.net/DTD/sodipodi-0.dtd"
   xmlns="http://www.w3.org/2000/svg"
   xmlns:svg="http://www.w3.org/2000/svg">
  <defs
     id="defs2" />
  <sodipodi:namedview
     id="namedview2"
     pagecolor="#505050"
     bordercolor="#ffffff"
     borderopacity="1"
     inkscape:showpageshadow="0"
     inkscape:pageopacity="0"
     inkscape:pagecheckerboard="1"
     inkscape:deskcolor="#505050"
     inkscape:zoom="35.929863"
     inkscape:cx="6.7214284"
     inkscape:cy="9.3654685"
     inkscape:window-width="1920"
     inkscape:window-height="1009"
     inkscape:window-x="-8"
     inkscape:window-y="-8"
     inkscape:window-maximized="1"
     inkscape:current-layer="svg2"
     showgrid="false" />
  <rect
     style="opacity:0.5;fill:#ffffff;fill-opacity:1;stroke:none;stroke-width:1.03617;stroke-opacity:0.4"
     id="rect4"
     width="10.186512"
     height="7.7094646"
     x="2.9223602"
     y="6.0117121" />
  <path
     d="M8 4L6.33 2.33C6.12 2.12 5.83 2 5.54 2H1.12C0.5 2 0 2.5 0 3.12V4H8Z"
     fill="white"
     id="path1" />
  <path
     d="M 8,7.5351562 6.6503906,9.4804688 c -0.3262012,0.5105093 -0.532752,1.0924712 -0.53125,1.6171872 0,0.226503 0.036647,0.442351 0.1152344,0.644532 0.079015,0.202387 0.1988772,0.392016 0.375,0.568359 0.3847665,0.384546 0.8861513,0.575745 1.390625,0.576172 0.5044737,-4.27e-4 1.0058585,-0.191612 1.390625,-0.576172 0.1759161,-0.17633 0.2961919,-0.366179 0.375,-0.568359 0.078794,-0.202181 0.1152344,-0.418015 0.1152344,-0.644532 C 9.8821547,10.57294 9.6773366,9.9909781 9.3515625,9.4804688 Z M 7.3007812,9.7265625 c 0,0 -0.332868,0.8964115 0.109375,1.7929685 C 7.63947,11.984387 7.1475403,12.421715 6.7871094,11.6875 6.4643531,11.03015 6.978025,10.085271 7.3007812,9.7265625 Z"
     style="fill:#ffffff"
     id="path4" />
  <path
     d="m 0,5 v 7.880859 C 0,13.500859 0.49914124,14 1.1191406,14 H 14.880859 C 15.500859,14 16,13.500859 16,12.880859 V 6.1191406 C 16,5.4991412 15.500859,5 14.880859,5 Z m 8,1.4511719 1.8632813,2.6835937 0.00391,0.00586 0.00195,0.00391 C 10.243793,9.733201 10.498705,10.413408 10.5,11.097656 c 0,0.293694 -0.04882,0.588152 -0.158203,0.869141 -0.108945,0.280548 -0.278764,0.546562 -0.513672,0.78125 v 0 C 9.3240785,13.252107 8.6605879,13.506287 8,13.505859 7.3394259,13.506287 6.6756735,13.252093 6.171875,12.748047 5.9371733,12.513359 5.7671482,12.247565 5.6582031,11.966797 5.5488171,11.686028 5.4997795,11.391557 5.5,11.097656 5.5012953,10.413601 5.7544748,9.733201 6.1289062,9.1445313 l 0.00391,-0.00586 z"
     style="display:inline;fill:#ffffff"
     id="path3" />
</svg>
