<?xml version="1.0" encoding="UTF-8" standalone="no"?>
<svg
   width="16"
   height="16"
   viewBox="0 0 16 16"
   fill="none"
   version="1.1"
   id="svg2"
   sodipodi:docname="ColumnOpen.svg"
   inkscape:version="1.3.2 (091e20e, 2023-11-25, custom)"
   xmlns:inkscape="http://www.inkscape.org/namespaces/inkscape"
   xmlns:sodipodi="http://sodipodi.sourceforge.net/DTD/sodipodi-0.dtd"
   xmlns="http://www.w3.org/2000/svg"
   xmlns:svg="http://www.w3.org/2000/svg">
  <defs
     id="defs2" />
  <sodipodi:namedview
     id="namedview2"
     pagecolor="#505050"
     bordercolor="#ffffff"
     borderopacity="1"
     inkscape:showpageshadow="0"
     inkscape:pageopacity="0"
     inkscape:pagecheckerboard="1"
     inkscape:deskcolor="#505050"
     inkscape:zoom="50.8125"
     inkscape:cx="7.9901599"
     inkscape:cy="8"
     inkscape:window-width="1920"
     inkscape:window-height="1009"
     inkscape:window-x="-8"
     inkscape:window-y="-8"
     inkscape:window-maximized="1"
     inkscape:current-layer="svg2" />
  <rect
     style="opacity:0.5;fill:#ffffff;fill-opacity:1;stroke-opacity:0.4"
     id="rect7"
     width="6.8093481"
     height="4.9003692"
     x="5.1168513"
     y="8.9348097" />
  <path
     d="M14 7V5C14 4.44772 13.5523 4 13 4H8L6.28 2.28C6.1 2.1 5.86 2 5.6 2H0.96C0.43 2 0 2.43 0 2.96V13L4 7H14Z"
     fill="white"
     id="path1" />
  <path
     d="M 8.2441406,12.003906 C 7.9972325,12.003729 7.6681894,12.116171 7.4199219,12.363281 6.8892317,12.933006 7.8758638,13.077246 8.4433594,12.511719 8.7431165,12.19076 8.5615939,12.004135 8.2441406,12.003906 Z"
     style="fill:#ffffff"
     id="path7" />
  <path
     d="m 10.392578,10.275391 c -0.4936043,0.0119 -1.0904093,0.719756 -0.6171874,0.732422 0.4942894,-0.01256 1.0908814,-0.720472 0.6171874,-0.732422 z"
     style="fill:#ffffff"
     id="path6" />
  <path
     d="m 9.1308594,10.279297 c -0.1804086,-1.4e-5 -0.4628418,0.119378 -0.671875,0.361328 -0.393184,0.483617 0.3158247,0.483707 0.734375,0 0.1970092,-0.241907 0.1179085,-0.361314 -0.0625,-0.361328 z"
     style="fill:#ffffff"
     id="path5" />
  <path
     d="m 7.4726562,11.082031 c -0.074001,0.0042 -0.1686714,0.02942 -0.2871093,0.08594 -0.6316575,0.320086 -0.6315374,0.863873 0,0.5625 0.5126375,-0.260163 0.6077817,-0.666548 0.2871093,-0.648438 z"
     style="fill:#ffffff"
     id="path4" />
  <path
     d="M 4.8300781,8 0.50976562,14 H 12.310547 c 0.32,0 0.618828,-0.159688 0.798828,-0.429687 L 15.830078,9.5 C 16.260078,8.8600006 15.799296,8 15.029297,8 Z m 5.4023439,1.7148438 c 1.388729,0 1.786212,0.8710062 0.884766,1.9453122 -0.20764,0.251634 -0.622468,0.392886 -0.691407,0.238282 l -0.07226,-0.16211 a 0.28255587,0.63914181 56.380236 0 0 -0.4843754,-0.01563 c -0.6019405,0.274333 -0.616685,0.618942 -0.7285156,0.941406 a 0.35861812,0.81119476 56.380236 0 1 -0.9238281,0.75 C 6.2325932,14.011286 4.8087361,13.165798 6.0859375,11.660156 6.9873821,10.585856 8.8426684,9.7148438 10.232422,9.7148438 Z"
     style="fill:#ffffff"
     id="path3" />
</svg>
