<?xml version="1.0" encoding="UTF-8" standalone="no"?>
<svg
   width="16"
   height="16"
   viewBox="0 0 16 16"
   fill="none"
   version="1.1"
   id="svg2"
   sodipodi:docname="ColumnClosed.svg"
   inkscape:version="1.3.2 (091e20e, 2023-11-25, custom)"
   xmlns:inkscape="http://www.inkscape.org/namespaces/inkscape"
   xmlns:sodipodi="http://sodipodi.sourceforge.net/DTD/sodipodi-0.dtd"
   xmlns="http://www.w3.org/2000/svg"
   xmlns:svg="http://www.w3.org/2000/svg">
  <defs
     id="defs2" />
  <sodipodi:namedview
     id="namedview2"
     pagecolor="#505050"
     bordercolor="#ffffff"
     borderopacity="1"
     inkscape:showpageshadow="0"
     inkscape:pageopacity="0"
     inkscape:pagecheckerboard="1"
     inkscape:deskcolor="#505050"
     inkscape:zoom="50.8125"
     inkscape:cx="8.6199262"
     inkscape:cy="8.0590406"
     inkscape:window-width="1920"
     inkscape:window-height="1009"
     inkscape:window-x="-8"
     inkscape:window-y="-8"
     inkscape:window-maximized="1"
     inkscape:current-layer="svg2" />
  <rect
     style="opacity:0.5;fill:#ffffff;fill-opacity:1;stroke-opacity:0.4"
     id="rect7"
     width="10.745387"
     height="7.5375152"
     x="2.5977859"
     y="6.081181" />
  <path
     d="M8 4L6.33 2.33C6.12 2.12 5.83 2 5.54 2H1.12C0.5 2 0 2.5 0 3.12V4H8Z"
     fill="white"
     id="path1" />
  <path
     d="M 7.8945312,10.546875 C 7.5016733,10.546592 7.1275645,10.726198 7.0625,11.119141 c -0.083697,0.905946 1.6763952,1.133647 1.8242188,0.234375 0.048405,-0.510373 -0.4870845,-0.806278 -0.9921876,-0.806641 z"
     style="fill:#ffffff"
     id="path7" />
  <path
     d="M 9,7.796875 C 8.2309723,7.8157965 8.2306066,8.9427501 9,8.9628906 9.7692296,8.942912 9.7691896,7.8158784 9,7.796875 Z"
     style="fill:#ffffff"
     id="path6" />
  <path
     d="m 7,7.8027344 c -0.286895,-2.19e-5 -0.5744227,0.1933883 -0.5839844,0.578125 0.020066,0.7690239 1.1478187,0.7691668 1.1679688,0 C 7.5744836,7.9961912 7.286895,7.8027563 7,7.8027344 Z"
     style="fill:#ffffff"
     id="path5" />
  <path
     d="M 5.4355469,9.0800781 C 5.3234502,9.0867239 5.2066691,9.128874 5.09375,9.21875 4.5164097,9.7277356 5.2416312,10.590556 5.84375,10.111328 6.3117866,9.6976303 5.921299,9.0512796 5.4355469,9.0800781 Z"
     style="fill:#ffffff"
     id="path4" />
  <path
     d="m 0,5 v 7.880859 C 0,13.500859 0.49914124,14 1.1191406,14 H 14.880859 C 15.500859,14 16,13.500859 16,12.880859 V 6.1191406 C 16,5.4991412 15.500859,5 14.880859,5 Z m 8,1.90625 c 2.208287,0 3.999994,1.3834897 4,3.0917969 0.0056,0.4001341 -0.463385,0.6267041 -0.779297,0.3808591 l -0.330078,-0.257812 a 0.67575417,0.67575417 0 0 0 -0.792969,-0.02539 c -0.5911341,0.436231 -0.1547782,0.985281 0.09766,1.498047 A 0.85766293,0.85766293 0 0 1 9.7285156,12.785156 C 7.3728125,13.737936 3.9780271,12.392243 4,9.9980469 4,8.2897492 5.7900843,6.90625 8,6.90625 Z"
     style="fill:#ffffff"
     id="path3" />
</svg>
