<?xml version="1.0" encoding="UTF-8" standalone="no"?>
<svg
   width="16"
   height="16"
   viewBox="0 0 16 16"
   fill="none"
   version="1.1"
   id="svg2"
   sodipodi:docname="ColumnClosed.svg"
   inkscape:version="1.3.2 (091e20e, 2023-11-25, custom)"
   xmlns:inkscape="http://www.inkscape.org/namespaces/inkscape"
   xmlns:sodipodi="http://sodipodi.sourceforge.net/DTD/sodipodi-0.dtd"
   xmlns="http://www.w3.org/2000/svg"
   xmlns:svg="http://www.w3.org/2000/svg">
  <defs
     id="defs2" />
  <sodipodi:namedview
     id="namedview2"
     pagecolor="#505050"
     bordercolor="#ffffff"
     borderopacity="1"
     inkscape:showpageshadow="0"
     inkscape:pageopacity="0"
     inkscape:pagecheckerboard="1"
     inkscape:deskcolor="#505050"
     showgrid="false"
     inkscape:zoom="35.929863"
     inkscape:cx="5.6220642"
     inkscape:cy="7.5563883"
     inkscape:window-width="1920"
     inkscape:window-height="1009"
     inkscape:window-x="-8"
     inkscape:window-y="-8"
     inkscape:window-maximized="1"
     inkscape:current-layer="svg2" />
  <rect
     style="opacity:0.5;fill:#ffffff;fill-opacity:1;stroke-opacity:0.4"
     id="rect4"
     width="11.1328"
     height="7.7651281"
     x="2.560544"
     y="6.0673761" />
  <path
     d="M8 4L6.33 2.33C6.12 2.12 5.83 2 5.54 2H1.12C0.5 2 0 2.5 0 3.12V4H8Z"
     fill="white"
     id="path1" />
  <path
     d="m 5.6796875,7.1992187 c -0.2306197,10e-8 -0.3788557,5.057e-4 -0.4921875,0.00977 -0.1086678,0.00888 -0.1501459,0.02508 -0.1699219,0.035156 -0.075264,0.038352 -0.1354761,0.098564 -0.1738281,0.1738281 -0.010072,0.019776 -0.024323,0.061254 -0.033203,0.1699219 -0.00927,0.1133318 -0.00977,0.2615678 -0.00977,0.4921875 v 3.8398439 c 10e-8,0.23064 5.057e-4,0.378827 0.00977,0.492187 0.00887,0.10864 0.023123,0.150122 0.033203,0.169922 0.038352,0.07528 0.098564,0.135468 0.1738281,0.173828 0.019776,0.01008 0.061254,0.02626 0.1699219,0.03516 0.1133318,0.0093 0.2615678,0.0098 0.4921875,0.0098 h 4.6406255 c 0.230639,0 0.378826,-5.65e-4 0.492187,-0.0098 0.108639,-0.0089 0.150122,-0.02508 0.169922,-0.03516 0.07528,-0.03836 0.135468,-0.09855 0.173828,-0.173828 0.01008,-0.0198 0.0243,-0.06128 0.0332,-0.169922 0.0093,-0.11336 0.0098,-0.261547 0.0098,-0.492187 V 8.0800781 c 0,-0.2306197 0.0014,-0.3788557 -0.0078,-0.4921875 -0.0089,-0.1086678 -0.02508,-0.1501459 -0.03516,-0.1699219 -0.03836,-0.075264 -0.09855,-0.1354761 -0.173828,-0.1738281 -0.0198,-0.010076 -0.06128,-0.026276 -0.169922,-0.035156 -0.113361,-0.00926 -0.261548,-0.00977 -0.492187,-0.00977 z M 8,8.1992188 C 8.4418394,8.1992188 8.8007813,8.5581727 8.8007813,9 8.8007813,9.441839 8.4418394,9.8007813 8,9.8007813 7.5581607,9.8007813 7.1992187,9.441839 7.1992187,9 7.1992187,8.5581727 7.5581607,8.1992188 8,8.1992188 Z m 0,2.0000002 c 0.726799,0 1.4192108,0.424957 1.5878906,1.103515 0.05328,0.2144 -0.076616,0.433009 -0.2910156,0.486329 C 9.0824752,11.842342 8.8658199,11.710494 8.8125,11.496094 8.7542602,11.261774 8.4579993,11 8,11 7.5420008,11 7.2457559,11.261774 7.1875,11.496094 7.1342121,11.710494 6.9175167,11.842342 6.703125,11.789063 6.4887301,11.735743 6.3588214,11.517134 6.4121094,11.302734 6.5807724,10.624176 7.2732011,10.199219 8,10.199219 Z"
     style="fill:#ffffff"
     id="path4" />
  <path
     d="m 0,5 v 7.880859 C 0,13.500859 0.49914124,14 1.1191406,14 H 14.880859 C 15.500859,14 16,13.500859 16,12.880859 V 6.1191406 C 16,5.4991412 15.500859,5 14.880859,5 Z m 5.6796875,1.4003906 h 4.6406255 c 0.217439,0 0.405153,-8.212e-4 0.558593,0.011719 0.15816,0.01292 0.315437,0.042027 0.466797,0.1191406 0.2258,0.1150479 0.408398,0.2976419 0.523438,0.5234375 0.07712,0.1513517 0.10622,0.3086612 0.11914,0.4667969 C 12.000841,7.6749521 12,7.8626583 12,8.0800781 v 3.8398439 c 0,0.21744 8.41e-4,0.405154 -0.01172,0.558594 -0.01292,0.158159 -0.04202,0.315437 -0.11914,0.466797 -0.11504,0.225798 -0.297638,0.408398 -0.523438,0.523437 -0.15136,0.07712 -0.308637,0.106221 -0.466797,0.119141 -0.15344,0.01256 -0.341154,0.01172 -0.558593,0.01172 H 5.6796875 c -0.2174197,0 -0.405126,8.42e-4 -0.5585938,-0.01172 C 4.962958,13.574971 4.8056487,13.54587 4.6542969,13.46875 4.4285013,13.353711 4.2459072,13.171111 4.1308594,12.945313 4.0537436,12.793953 4.0246387,12.636675 4.0117187,12.478516 3.9991748,12.325076 4,12.137362 4,11.919922 V 8.0800781 C 4,7.8626583 3.9991828,7.6749521 4.0117187,7.5214844 4.0246387,7.3633487 4.0537395,7.2060392 4.1308594,7.0546875 4.2459072,6.8288919 4.4285013,6.6462979 4.6542969,6.53125 4.8056487,6.4541342 4.962958,6.4250294 5.1210937,6.4121094 5.2745615,6.3995694 5.4622678,6.4003906 5.6796875,6.4003906 Z"
     style="fill:#ffffff"
     id="path3" />
</svg>
