<?xml version="1.0" encoding="UTF-8" standalone="no"?>
<svg
   width="16"
   height="16"
   viewBox="0 0 16 16"
   fill="none"
   version="1.1"
   id="svg2"
   sodipodi:docname="ColumnOpen.svg"
   inkscape:version="1.3.2 (091e20e, 2023-11-25, custom)"
   xmlns:inkscape="http://www.inkscape.org/namespaces/inkscape"
   xmlns:sodipodi="http://sodipodi.sourceforge.net/DTD/sodipodi-0.dtd"
   xmlns="http://www.w3.org/2000/svg"
   xmlns:svg="http://www.w3.org/2000/svg">
  <defs
     id="defs2" />
  <sodipodi:namedview
     id="namedview2"
     pagecolor="#505050"
     bordercolor="#ffffff"
     borderopacity="1"
     inkscape:showpageshadow="0"
     inkscape:pageopacity="0"
     inkscape:pagecheckerboard="1"
     inkscape:deskcolor="#505050"
     inkscape:zoom="101.625"
     inkscape:cx="8.0393604"
     inkscape:cy="10.769988"
     inkscape:window-width="1920"
     inkscape:window-height="1009"
     inkscape:window-x="-8"
     inkscape:window-y="-8"
     inkscape:window-maximized="1"
     inkscape:current-layer="svg2" />
  <rect
     style="opacity:0.5;fill:#ffffff;fill-opacity:1;stroke-width:0.925093;stroke-opacity:0.4"
     id="rect4"
     width="8.2365351"
     height="4.9701104"
     x="4.4180055"
     y="8.8393373" />
  <path
     d="M14 7V5C14 4.44772 13.5523 4 13 4H8L6.28 2.28C6.1 2.1 5.86 2 5.6 2H0.96C0.43 2 0 2.43 0 2.96V13L4 7H14Z"
     fill="white"
     id="path1" />
  <path
     d="m 8.125,9.7011719 c -0.06736,0.024042 -0.1375349,0.062195 -0.2011719,0.109375 -0.01672,0.012403 -0.046643,0.037339 -0.109375,0.1054687 -0.065423,0.07105 -0.1443065,0.1640134 -0.265625,0.3085934 l -2.0195312,2.408204 c -0.1213289,0.144593 -0.2000783,0.237523 -0.2539063,0.308593 -0.051586,0.0681 -0.064259,0.09306 -0.068359,0.105469 -0.015557,0.0472 -0.00943,0.08532 0.017578,0.109375 0.0071,0.0063 0.024446,0.01588 0.087891,0.02148 0.066169,0.0058 0.1601059,0.0059 0.3046875,0.0059 h 2.9082031 c 0.1445943,0 0.2385452,-6e-5 0.3144532,-0.0059 0.072781,-0.0056 0.107284,-0.01518 0.125,-0.02148 0.067374,-0.02405 0.1375219,-0.06217 0.2011718,-0.109375 0.016735,-0.01242 0.046645,-0.03736 0.109375,-0.105469 0.065451,-0.07107 0.144296,-0.164 0.265625,-0.308593 l 2.0195314,-2.408204 c 0.121319,-0.14458 0.200056,-0.2375434 0.253906,-0.3085934 0.0516,-0.068123 0.06231,-0.093069 0.06641,-0.1054687 0.01554,-0.047182 0.0094,-0.085335 -0.01758,-0.109375 -0.0071,-0.00632 -0.02445,-0.015884 -0.08789,-0.021484 -0.0662,-0.0058 -0.158141,-0.00586 -0.302735,-0.00586 H 8.5625 c -0.1445816,0 -0.2365781,5.94e-5 -0.3125,0.00586 -0.072796,0.00556 -0.107301,0.015184 -0.125,0.021484 z m 1.3671875,0.5996091 c 0.2770002,0 0.3125034,0.223007 0.080078,0.5 -0.2324313,0.277001 -0.6448742,0.501953 -0.921875,0.501953 -0.2770008,0 -0.3144626,-0.224952 -0.082031,-0.501953 0.232425,-0.276993 0.6468269,-0.5 0.9238281,-0.5 z m -1.0527344,1.253907 c 0.4556493,0 0.6672244,0.265999 0.4160157,0.691406 -0.079383,0.134413 -0.276991,0.269304 -0.4394532,0.302734 -0.162441,0.0334 -0.2297485,-0.04723 -0.1503906,-0.18164 0.086753,-0.146902 0.041038,-0.3125 -0.2460937,-0.3125 -0.287132,-1e-6 -0.6116999,0.165598 -0.7714844,0.3125 -0.1461934,0.134416 -0.3506515,0.21504 -0.4570313,0.18164 -0.106359,-0.03343 -0.073928,-0.168321 0.072266,-0.302734 0.4626986,-0.425407 1.1205223,-0.691406 1.5761719,-0.691406 z"
     style="fill:#ffffff"
     id="path4" />
  <path
     d="M 4.8300781,8 0.50976562,14 H 12.310547 c 0.32,0 0.618828,-0.159688 0.798828,-0.429687 L 15.830078,9.5 C 16.260078,8.8600006 15.799296,8 15.029297,8 Z m 3.9628907,1.171875 c 0.059177,-9.343e-4 0.1232531,0 0.1914062,0 h 2.908203 c 0.136319,0 0.25415,-4.75e-5 0.34375,0.00781 0.09236,0.0081 0.176149,0.025873 0.230469,0.074219 0.08104,0.072127 0.09938,0.1865671 0.05273,0.328125 -0.03127,0.094886 -0.09679,0.1938288 -0.171875,0.2929687 -0.07286,0.096213 -0.170781,0.213304 -0.285156,0.349609 l -2.019531,2.408204 c -0.1143851,0.136318 -0.2141427,0.253409 -0.3027346,0.349609 -0.091301,0.09915 -0.1903875,0.198079 -0.3183594,0.292969 -0.1909049,0.141559 -0.4033925,0.256005 -0.6054687,0.328125 -0.1354608,0.04835 -0.2495177,0.06612 -0.3554688,0.07422 -0.1028028,0.0079 -0.21915,0.0078 -0.3554687,0.0078 H 5.1972656 c -0.1363061,0 -0.2541441,8.7e-5 -0.34375,-0.0078 -0.092343,-0.0081 -0.1761508,-0.02587 -0.2304687,-0.07422 -0.08104,-0.07212 -0.099391,-0.186566 -0.052734,-0.328125 0.031277,-0.09489 0.094821,-0.193819 0.1699219,-0.292969 0.072856,-0.0962 0.1727243,-0.213291 0.2871093,-0.349609 L 7.046875,10.224609 C 7.1612495,10.088304 7.2590623,9.9712099 7.3476562,9.875 7.4389442,9.7758601 7.5400036,9.6769212 7.6679687,9.5820313 7.858876,9.4404744 8.0713587,9.3260329 8.2734375,9.2539063 c 0.1354536,-0.048346 0.2475794,-0.066119 0.3535156,-0.074219 0.051405,-0.00393 0.106839,-0.00688 0.1660157,-0.00781 z"
     style="fill:#ffffff"
     id="path3" />
</svg>
