<?xml version="1.0" encoding="UTF-8" standalone="no"?>
<svg
   width="16"
   height="16"
   viewBox="0 0 16 16"
   fill="none"
   version="1.1"
   id="svg2"
   sodipodi:docname="ColumnClosed.svg"
   inkscape:version="1.3.2 (091e20e, 2023-11-25, custom)"
   xmlns:inkscape="http://www.inkscape.org/namespaces/inkscape"
   xmlns:sodipodi="http://sodipodi.sourceforge.net/DTD/sodipodi-0.dtd"
   xmlns="http://www.w3.org/2000/svg"
   xmlns:svg="http://www.w3.org/2000/svg">
  <defs
     id="defs2" />
  <sodipodi:namedview
     id="namedview2"
     pagecolor="#505050"
     bordercolor="#ffffff"
     borderopacity="1"
     inkscape:showpageshadow="0"
     inkscape:pageopacity="0"
     inkscape:pagecheckerboard="1"
     inkscape:deskcolor="#505050"
     inkscape:zoom="35.929863"
     inkscape:cx="8.9062404"
     inkscape:cy="6.0534603"
     inkscape:window-width="1920"
     inkscape:window-height="1009"
     inkscape:window-x="-8"
     inkscape:window-y="-8"
     inkscape:window-maximized="1"
     inkscape:current-layer="svg2" />
  <rect
     style="opacity:0.5;fill:#ffffff;fill-opacity:1;stroke-opacity:0.4"
     id="rect6"
     width="5.2324162"
     height="8.460928"
     x="5.3437443"
     y="5.4272404" />
  <path
     d="M8 4L6.33 2.33C6.12 2.12 5.83 2 5.54 2H1.12C0.5 2 0 2.5 0 3.12V4H8Z"
     fill="white"
     id="path1" />
  <path
     d="m 6.4160156,12.212891 v 0.55664 c 0,0.149401 0.1220834,0.271485 0.2714844,0.271485 h 2.5175781 c 0.1494011,0 0.2695313,-0.122084 0.2695313,-0.271485 v -0.55664 z M 7.5625,12.414063 h 0.7675781 v 0.470703 H 7.5625 Z"
     style="fill:#ffffff"
     id="path6" />
  <path
     d="m 6.4257812,7.53125 v 4.210938 H 9.4648438 V 7.53125 Z"
     style="fill:#ffffff"
     id="path5" />
  <path
     d="m 6.6875,6.296875 c -0.149401,0 -0.2714844,0.1220833 -0.2714844,0.2714844 V 7.0605469 H 9.4746094 V 6.5683594 c 0,-0.1494011 -0.1201302,-0.2714844 -0.2695313,-0.2714844 z M 7.0917969,6.5273437 H 8.2675781 V 6.8105469 H 7.0917969 Z m 1.4257812,0 H 8.8007813 V 6.8105469 H 8.5175781 Z"
     style="fill:#ffffff"
     id="path4" />
  <path
     d="m 0,5 v 7.880859 C 0,13.500859 0.49914124,14 1.1191406,14 H 14.880859 C 15.500859,14 16,13.500859 16,12.880859 V 6.1191406 C 16,5.4991412 15.500859,5 14.880859,5 Z m 6.6875,0.8261719 h 2.5175781 c 0.4088341,0 0.7402494,0.3333534 0.7402344,0.7421875 v 6.2011716 c 0,0.408834 -0.3314153,0.742188 -0.7402344,0.742188 H 6.6875 c -0.4088341,0 -0.7421875,-0.333369 -0.7421875,-0.742188 V 6.5683594 c 0,-0.4088341 0.3333684,-0.7421875 0.7421875,-0.7421875 z"
     style="fill:#ffffff"
     id="path3" />
</svg>
