<?xml version="1.0" encoding="UTF-8" standalone="no"?>
<svg
   width="16"
   height="16"
   viewBox="0 0 16 16"
   fill="none"
   version="1.1"
   id="svg2"
   sodipodi:docname="ColumnOpen.svg"
   inkscape:version="1.3.2 (091e20e, 2023-11-25, custom)"
   xmlns:inkscape="http://www.inkscape.org/namespaces/inkscape"
   xmlns:sodipodi="http://sodipodi.sourceforge.net/DTD/sodipodi-0.dtd"
   xmlns="http://www.w3.org/2000/svg"
   xmlns:svg="http://www.w3.org/2000/svg">
  <defs
     id="defs2" />
  <sodipodi:namedview
     id="namedview2"
     pagecolor="#505050"
     bordercolor="#ffffff"
     borderopacity="1"
     inkscape:showpageshadow="0"
     inkscape:pageopacity="0"
     inkscape:pagecheckerboard="1"
     inkscape:deskcolor="#505050"
     inkscape:zoom="50.8125"
     inkscape:cx="5.4907749"
     inkscape:cy="8.8659287"
     inkscape:window-width="1920"
     inkscape:window-height="1009"
     inkscape:window-x="-8"
     inkscape:window-y="-8"
     inkscape:window-maximized="1"
     inkscape:current-layer="svg2" />
  <rect
     style="opacity:0.5;fill:#ffffff;fill-opacity:1;stroke-opacity:0.4"
     id="rect6"
     width="7.0061502"
     height="5.3333335"
     x="5.313653"
     y="8.5805655" />
  <path
     d="M14 7V5C14 4.44772 13.5523 4 13 4H8L6.28 2.28C6.1 2.1 5.86 2 5.6 2H0.96C0.43 2 0 2.43 0 2.96V13L4 7H14Z"
     fill="white"
     id="path1" />
  <path
     d="M 6.6523437,12.927734 6.359375,13.275391 c -0.078351,0.09337 -0.066032,0.169922 0.027344,0.169922 h 1.5742188 c 0.093376,-1e-6 0.2321954,-0.07655 0.3105469,-0.169922 l 0.2929687,-0.347657 z m 0.6113282,0.125 H 7.7421875 L 7.4960937,13.347656 H 7.015625 Z"
     style="fill:#ffffff"
     id="path6" />
  <path
     d="m 9.1132813,10.001953 -2.2089844,2.63086 h 1.9003906 l 2.2089845,-2.63086 z"
     style="fill:#ffffff"
     id="path5" />
  <path
     d="m 9.9238281,9.2304688 c -0.093376,-1e-7 -0.2321954,0.076546 -0.3105468,0.1699218 L 9.3535156,9.7070313 h 1.9121094 l 0.257813,-0.3066407 c 0.07835,-0.093376 0.06603,-0.1699218 -0.02734,-0.1699218 z M 10.054688,9.375 h 0.736328 L 10.642578,9.5507813 H 9.9082031 Z m 0.892578,0 h 0.175781 l -0.146484,0.1757813 h -0.177735 z"
     style="fill:#ffffff"
     id="path4" />
  <path
     d="M 4.8300781,8 0.50976562,14 H 12.310547 c 0.32,0 0.618828,-0.159688 0.798828,-0.429687 L 15.830078,9.5 C 16.260078,8.8600006 15.799296,8 15.029297,8 Z m 5.3398439,0.9355469 h 1.574219 c 0.255521,0 0.288636,0.2093225 0.07422,0.4648437 L 8.5664063,13.275391 c -0.2144078,0.255521 -0.5980039,0.46289 -0.8535157,0.46289 H 6.140625 c -0.2555212,0 -0.2886186,-0.207379 -0.074219,-0.46289 L 9.3183594,9.4003906 C 9.5327671,9.1448694 9.9144101,8.9355469 10.169922,8.9355469 Z"
     style="fill:#ffffff"
     id="path3" />
</svg>
