<?xml version="1.0" encoding="UTF-8" standalone="no"?>
<svg
   width="16"
   height="16"
   viewBox="0 0 16 16"
   fill="none"
   version="1.1"
   id="svg2"
   sodipodi:docname="ColumnOpen.svg"
   inkscape:version="1.3.2 (091e20e, 2023-11-25, custom)"
   xmlns:inkscape="http://www.inkscape.org/namespaces/inkscape"
   xmlns:sodipodi="http://sodipodi.sourceforge.net/DTD/sodipodi-0.dtd"
   xmlns="http://www.w3.org/2000/svg"
   xmlns:svg="http://www.w3.org/2000/svg">
  <defs
     id="defs2" />
  <sodipodi:namedview
     id="namedview2"
     pagecolor="#505050"
     bordercolor="#ffffff"
     borderopacity="1"
     inkscape:showpageshadow="0"
     inkscape:pageopacity="0"
     inkscape:pagecheckerboard="1"
     inkscape:deskcolor="#505050"
     inkscape:zoom="47.906484"
     inkscape:cx="11.282397"
     inkscape:cy="11.115405"
     inkscape:window-width="1920"
     inkscape:window-height="1009"
     inkscape:window-x="-8"
     inkscape:window-y="-8"
     inkscape:window-maximized="1"
     inkscape:current-layer="svg2" />
  <rect
     style="opacity:0.5;fill:#ffffff;fill-opacity:1;stroke-width:0.968465;stroke-opacity:0.4"
     id="rect6"
     width="8.3099632"
     height="5.0922513"
     x="4.4428043"
     y="8.6642065" />
  <path
     d="M14 7V5C14 4.44772 13.5523 4 13 4H8L6.28 2.28C6.1 2.1 5.86 2 5.6 2H0.96C0.43 2 0 2.43 0 2.96V13L4 7H14Z"
     fill="white"
     id="path1" />
  <path
     d="M 11.230469,9.2109375 8.5117188,12.449219 c 0.126457,0.01504 0.2321211,0.06449 0.3710937,0.128906 0.00769,0.0037 0.01551,0.008 0.023437,0.01172 0.13404,0.06203 0.2229989,0.101387 0.3007813,0.121094 0.076056,0.0192 0.1153545,0.01209 0.1347656,0.0059 0.033669,-0.01107 0.068793,-0.02704 0.1035156,-0.04687 0.019979,-0.01133 0.060976,-0.03923 0.1503906,-0.132813 0.091464,-0.09573 0.2006232,-0.225699 0.3652344,-0.421875 l 1.7714845,-2.111328 c 0.117454,-0.1399998 0.191728,-0.2280018 0.240234,-0.2949216 0.04488,-0.061936 0.05302,-0.085465 0.05469,-0.099609 0.0017,-0.01424 -6.87e-4,-0.032322 -0.03516,-0.058594 -0.03721,-0.028421 -0.09769,-0.057301 -0.19336,-0.1015625 l -0.21875,-0.099609 C 11.41429,9.2728925 11.314961,9.2292575 11.230469,9.2109375 Z"
     style="fill:#ffffff"
     id="path6" />
  <path
     d="m 10.769531,9.2949219 c -0.12,0.0467 -0.280835,0.1150249 -0.509765,0.2128906 L 9.6992188,9.7480469 C 9.6841948,9.7544469 9.670871,9.759433 9.65625,9.765625 9.3774169,9.8849046 9.168058,9.9754841 8.9882813,10.025391 L 6.3027344,13.226563 C 6.4227595,13.179843 6.5835602,13.111541 6.8125,13.013672 l 0.5605469,-0.240234 c 0.015024,-0.0064 0.028369,-0.01139 0.042969,-0.01758 0.2788389,-0.119279 0.4881852,-0.209852 0.6679688,-0.259765 z"
     style="fill:#ffffff"
     id="path5" />
  <path
     d="m 7.7773437,9.7988281 c -0.02166,5.4e-4 -0.037181,0.00274 -0.046875,0.00586 -0.033671,0.01104 -0.068789,0.027051 -0.1035156,0.046875 -0.019981,0.011333 -0.060966,0.039212 -0.1503906,0.1328125 -0.091448,0.095733 -0.2006229,0.225699 -0.3652344,0.421875 L 5.3398437,12.517578 C 5.222388,12.657562 5.1481293,12.745575 5.0996094,12.8125 c -0.044904,0.06193 -0.05302,0.08547 -0.054687,0.09961 -0.00169,0.01424 6.833e-4,0.03228 0.035156,0.05859 0.037231,0.02841 0.097703,0.0573 0.1933594,0.101563 l 0.21875,0.09961 c 0.1658135,0.07672 0.2651108,0.120346 0.3496094,0.138672 l 2.71875,-3.238281 C 8.4340831,10.057226 8.3284136,10.007786 8.1894531,9.9433594 8.1817631,9.9396294 8.1739306,9.9353736 8.1660156,9.9316406 8.0319581,9.8696137 7.9430228,9.8302588 7.8652344,9.8105469 c -0.038032,-0.0096 -0.066231,-0.012259 -0.087891,-0.011719 z"
     style="fill:#ffffff"
     id="path4" />
  <path
     d="M 4.8300781,8 0.50976562,14 H 12.310547 c 0.32,0 0.618828,-0.159688 0.798828,-0.429687 L 15.830078,9.5 C 16.260078,8.8600006 15.799296,8 15.029297,8 Z m 6.6113279,0.8105469 c 0.200251,-0.0047 0.344979,0.062437 0.542969,0.1542969 0.0097,0.00456 0.01916,0.010937 0.0293,0.015625 l 0.224609,0.1035156 c 0.08665,0.04008 0.163872,0.074378 0.214844,0.1132812 0.05511,0.042059 0.09243,0.097667 0.08203,0.1855469 -0.0104,0.08788 -0.06684,0.1821797 -0.138672,0.28125 -0.06645,0.091632 -0.159251,0.2033024 -0.265625,0.3300781 l -1.789062,2.1328124 c -0.152191,0.181381 -0.280979,0.33416 -0.3964845,0.455078 -0.1200265,0.125653 -0.255998,0.249418 -0.4316406,0.34961 -0.1041759,0.05944 -0.211496,0.107899 -0.3125,0.140625 -0.1703157,0.0552 -0.2904685,0.04735 -0.3925781,0.02148 -0.098279,-0.02489 -0.2041903,-0.07351 -0.328125,-0.130859 l -0.00781,-0.0039 c -0.2096035,-0.09699 -0.2832294,-0.128293 -0.3828125,-0.125 -0.039697,0.0013 -0.081922,0.0067 -0.1269532,0.01563 -0.1129679,0.02229 -0.2484744,0.0779 -0.6464844,0.248047 l -0.5605468,0.240235 c -0.019181,0.0081 -0.037906,0.01551 -0.056641,0.02344 -0.4300625,0.184 -0.7291883,0.311775 -0.9785156,0.341797 -0.2493294,0.03001 -0.4065409,-0.04342 -0.6328125,-0.148437 -0.00984,-0.0047 -0.01917,-0.0092 -0.029297,-0.01367 L 4.8339844,13.4375 c -0.086623,-0.04009 -0.1619033,-0.07438 -0.2128907,-0.113281 -0.055111,-0.04208 -0.094386,-0.09767 -0.083984,-0.185547 0.0104,-0.08788 0.066848,-0.182169 0.1386718,-0.28125 0.06644,-0.09165 0.1592529,-0.203318 0.265625,-0.330078 L 6.7304687,10.394531 C 6.8826619,10.21315 7.0114223,10.060385 7.1269531,9.9394531 7.2469849,9.8138214 7.3849299,9.6900357 7.5605469,9.5898438 c 0.1041772,-0.05944 0.209533,-0.1078858 0.3105468,-0.140625 0.1702936,-0.05516 0.2904743,-0.047364 0.3925782,-0.021484 0.098279,0.024901 0.2041858,0.0735 0.328125,0.1308594 l 0.00781,0.00391 c 0.2096129,0.097008 0.283228,0.1263428 0.3828125,0.1230469 0.039679,-0.00132 0.081939,-0.00471 0.1269531,-0.013672 C 9.2223428,9.649587 9.3578587,9.5939826 9.7558594,9.4238281 L 10.316406,9.1835938 c 0.0192,-0.00821 0.03793,-0.015518 0.05664,-0.023437 0.430067,-0.1840038 0.72921,-0.3117812 0.978516,-0.3417969 0.03117,-0.00375 0.06124,-0.00714 0.08984,-0.00781 z"
     style="fill:#ffffff"
     id="path3" />
</svg>
