<?xml version="1.0" encoding="UTF-8" standalone="no"?>
<svg
   width="16"
   height="16"
   viewBox="0 0 16 16"
   fill="none"
   version="1.1"
   id="svg2"
   sodipodi:docname="ColumnClosed.svg"
   inkscape:version="1.3.2 (091e20e, 2023-11-25, custom)"
   xmlns:inkscape="http://www.inkscape.org/namespaces/inkscape"
   xmlns:sodipodi="http://sodipodi.sourceforge.net/DTD/sodipodi-0.dtd"
   xmlns="http://www.w3.org/2000/svg"
   xmlns:svg="http://www.w3.org/2000/svg">
  <defs
     id="defs2" />
  <sodipodi:namedview
     id="namedview2"
     pagecolor="#505050"
     bordercolor="#ffffff"
     borderopacity="1"
     inkscape:showpageshadow="0"
     inkscape:pageopacity="0"
     inkscape:pagecheckerboard="1"
     inkscape:deskcolor="#505050"
     inkscape:zoom="50.8125"
     inkscape:cx="7.4686347"
     inkscape:cy="7.901599"
     inkscape:window-width="1920"
     inkscape:window-height="1009"
     inkscape:window-x="-8"
     inkscape:window-y="-8"
     inkscape:window-maximized="1"
     inkscape:current-layer="svg2" />
  <rect
     style="opacity:0.5;fill:#ffffff;fill-opacity:1;stroke-opacity:0.4"
     id="rect6"
     width="10.509225"
     height="8.00984"
     x="2.6765068"
     y="5.8450184" />
  <path
     d="M8 4L6.33 2.33C6.12 2.12 5.83 2 5.54 2H1.12C0.5 2 0 2.5 0 3.12V4H8Z"
     fill="white"
     id="path1" />
  <path
     d="m 9.5390625,6.5644531 v 5.1171879 c 0.2197742,0.02384 0.4509166,0.10134 0.7558595,0.203125 0.01686,0.0056 0.03343,0.01179 0.05078,0.01758 0.29399,0.09801 0.489667,0.16222 0.638672,0.193359 0.145723,0.03048 0.194479,0.0158 0.216797,0.0059 0.03873,-0.01723 0.07492,-0.04097 0.103516,-0.07227 0.01645,-0.01801 0.04531,-0.06113 0.0625,-0.208984 0.0176,-0.15122 0.01758,-0.358063 0.01758,-0.667969 V 7.8183594 c 0,-0.2211526 3.4e-4,-0.3610822 -0.01172,-0.4667969 -0.0112,-0.09785 -0.03075,-0.1339198 -0.04687,-0.15625 -0.01608,-0.02233 -0.0435,-0.052207 -0.132813,-0.09375 -0.09645,-0.044882 -0.229648,-0.088271 -0.439453,-0.1582031 L 10.275391,6.7832031 C 9.9117804,6.6619929 9.6968059,6.5933721 9.5390625,6.5644531 Z"
     style="fill:#ffffff"
     id="path6" />
  <path
     d="M 8.9238281,6.6992187 C 8.7961565,6.772991 8.6323083,6.8805472 8.4003906,7.0351562 L 7.8320312,7.4121094 c -0.01522,0.010137 -0.030112,0.021376 -0.044922,0.03125 -0.2823791,0.1884223 -0.4930915,0.3274112 -0.7109375,0.40625 v 5.0585936 c 0.1276716,-0.07381 0.2915198,-0.181312 0.5234375,-0.335937 l 0.5683594,-0.378907 c 0.015221,-0.01013 0.030112,-0.01945 0.044922,-0.0293 0.2823792,-0.188431 0.4930915,-0.329352 0.7109375,-0.408204 z"
     style="fill:#ffffff"
     id="path5" />
  <path
     d="m 4.8613281,7.4921875 c -0.033493,8.631e-4 -0.051351,0.00676 -0.0625,0.011719 -0.038732,0.017231 -0.074917,0.042925 -0.1035156,0.074219 -0.01646,0.018018 -0.045306,0.06112 -0.0625,0.2089844 -0.01758,0.1512121 -0.017578,0.3561083 -0.017578,0.6660156 v 3.333984 c 0,0.221129 -3.466e-4,0.361074 0.011719,0.466797 0.011175,0.09785 0.03078,0.135885 0.046875,0.158203 0.016094,0.02236 0.043517,0.05028 0.1328125,0.0918 0.096472,0.04488 0.2296482,0.09021 0.4394531,0.160157 l 0.4785157,0.158203 c 0.3636304,0.12119 0.5785724,0.19178 0.7363281,0.220703 V 7.9238281 C 6.2411674,7.9000044 6.0100132,7.8224958 5.7050781,7.7207031 5.6882002,7.7150702 5.6716342,7.7108586 5.6542969,7.7050781 5.3602869,7.6070761 5.1646382,7.5428571 5.015625,7.5117187 4.9427677,7.4964943 4.8948209,7.4913244 4.8613281,7.4921875 Z"
     style="fill:#ffffff"
     id="path4" />
  <path
     d="m 0,5 v 7.880859 C 0,13.500859 0.49914124,14 1.1191406,14 H 14.880859 C 15.500859,14 16,13.500859 16,12.880859 V 6.1191406 C 16,5.4991412 15.500859,5 14.880859,5 Z m 9.3417969,0.9335937 c 0.3101142,-0.00742 0.6279621,0.099026 1.0625001,0.2441407 0.02162,0.00721 0.04422,0.014087 0.06641,0.021484 l 0.492188,0.1640625 c 0.19003,0.063319 0.356178,0.1201802 0.488281,0.1816407 0.14281,0.066445 0.274939,0.1521849 0.375,0.2910156 0.100062,0.1388305 0.140316,0.288804 0.158203,0.4453125 C 12.00091,7.4260211 12,7.6024638 12,7.8027344 v 3.3691406 c 0,0.286523 7.06e-4,0.527734 -0.02148,0.71875 -0.02306,0.198482 -0.07605,0.394458 -0.220703,0.552734 -0.08579,0.09391 -0.190456,0.169012 -0.306641,0.220704 -0.195897,0.08718 -0.39814,0.07407 -0.59375,0.0332 -0.188267,-0.03934 -0.417659,-0.114494 -0.689453,-0.205078 l -0.01758,-0.0059 c -0.4596949,-0.15323 -0.6165881,-0.202475 -0.7695316,-0.197265 -0.060923,0.0021 -0.1203646,0.01135 -0.1796875,0.02539 -0.148923,0.0352 -0.2901598,0.121825 -0.6933594,0.390625 l -0.5664063,0.378906 c -0.019446,0.01296 -0.037687,0.02638 -0.056641,0.03906 -0.4354867,0.290667 -0.7396744,0.491636 -1.09375,0.539062 -0.3540795,0.04743 -0.6986812,-0.06851 -1.1953125,-0.234375 -0.021596,-0.0072 -0.044228,-0.01409 -0.066406,-0.02148 L 5.0371094,13.242188 C 4.8471198,13.178845 4.6809428,13.123956 4.5488281,13.0625 4.4060016,12.996038 4.2738895,12.910315 4.1738281,12.771484 4.0737626,12.632654 4.0334917,12.480732 4.015625,12.324219 3.9990957,12.179439 3.9999877,12.004934 4,11.804688 V 8.4355469 C 3.9999917,8.1490076 3.9992771,7.9058836 4.0214844,7.7148437 4.0445614,7.516366 4.0975678,7.3203861 4.2421875,7.1621094 4.3279764,7.0682185 4.4326313,6.9931026 4.5488281,6.9414062 c 0.1958931,-0.087147 0.3981604,-0.074072 0.59375,-0.033203 0.1882623,0.03934 0.4176217,0.1164099 0.6894531,0.2070313 l 0.017578,0.00586 c 0.4597164,0.153239 0.616596,0.200535 0.7695312,0.1953125 0.060935,-0.00208 0.1203563,-0.00941 0.1796875,-0.023437 C 6.9477469,7.2577647 7.0890044,7.1691944 7.4921875,6.9003906 L 8.0585938,6.5234375 c 0.019446,-0.012968 0.037687,-0.026422 0.056641,-0.039063 0.4354867,-0.2906787 0.7396991,-0.4935984 1.09375,-0.5410156 0.044261,-0.00593 0.08851,-0.00871 0.1328125,-0.00977 z"
     style="fill:#ffffff"
     id="path3" />
</svg>
