<?xml version="1.0" encoding="UTF-8" standalone="no"?>
<svg
   width="16"
   height="16"
   viewBox="0 0 16 16"
   fill="none"
   version="1.1"
   id="svg2"
   sodipodi:docname="ColumnOpen.svg"
   inkscape:version="1.3.2 (091e20e, 2023-11-25, custom)"
   xmlns:inkscape="http://www.inkscape.org/namespaces/inkscape"
   xmlns:sodipodi="http://sodipodi.sourceforge.net/DTD/sodipodi-0.dtd"
   xmlns="http://www.w3.org/2000/svg"
   xmlns:svg="http://www.w3.org/2000/svg">
  <defs
     id="defs2" />
  <sodipodi:namedview
     id="namedview2"
     pagecolor="#505050"
     bordercolor="#ffffff"
     borderopacity="1"
     inkscape:showpageshadow="0"
     inkscape:pageopacity="0"
     inkscape:pagecheckerboard="1"
     inkscape:deskcolor="#505050"
     inkscape:zoom="71.859727"
     inkscape:cx="8.8088284"
     inkscape:cy="10.221302"
     inkscape:window-width="1920"
     inkscape:window-height="1009"
     inkscape:window-x="-8"
     inkscape:window-y="-8"
     inkscape:window-maximized="1"
     inkscape:current-layer="svg2" />
  <rect
     style="opacity:0.5;fill:#ffffff;stroke-opacity:0.4;fill-opacity:1"
     id="rect6"
     width="6.9023361"
     height="5.1767521"
     x="5.538568"
     y="8.5722561" />
  <path
     d="M14 7V5C14 4.44772 13.5523 4 13 4H8L6.28 2.28C6.1 2.1 5.86 2 5.6 2H0.96C0.43 2 0 2.43 0 2.96V13L4 7H14Z"
     fill="white"
     id="path1" />
  <path
     d="m 11.113281,9.734375 -0.43164,0.511719 h 0.640625 l 0.43164,-0.511719 z"
     style="fill:#ffffff"
     id="path6" />
  <path
     d="m 8.0371094,10.501953 -1.0703125,1.275391 c -0.7152304,0.852379 -0.6161785,1.544922 0.2363281,1.544922 0.8526346,0 2.1207065,-0.692543 2.835938,-1.544922 l 1.068359,-1.275391 H 10.466797 L 9.4453125,11.71875 c -0.4422149,0.527011 -1.13132,0.953125 -1.6582031,0.953125 -0.5268832,0 -0.5711212,-0.426114 -0.1289063,-0.953125 l 1.0195313,-1.216797 z"
     style="fill:#ffffff"
     id="path5" />
  <path
     d="m 8.6816406,9.734375 -0.4296875,0.511719 h 0.640625 L 9.3222656,9.734375 Z"
     style="fill:#ffffff"
     id="path4" />
  <path
     d="M 4.8300781,8 0.50976562,14 H 12.310547 c 0.32,0 0.618828,-0.159688 0.798828,-0.429687 L 15.830078,9.5 C 16.260078,8.8600006 15.799296,8 15.029297,8 Z m 3.9375,1.4785156 h 0.8964844 c 0.070754,0 0.080747,0.056327 0.021484,0.1269532 L 9.5878906,9.7226563 7.9140625,11.71875 c -0.3231527,0.385119 -0.2972279,0.697266 0.087891,0.697266 0.3851186,0 0.8643474,-0.312148 1.1875,-0.697266 l 1.3339849,-1.589844 0.439453,-0.5234372 c 0.05926,-0.070627 0.163745,-0.1269532 0.234375,-0.1269532 h 0.898437 c 0.07063,0 0.08074,0.056327 0.02149,0.1269532 l -0.09766,0.1171875 -1.724609,2.0546877 c -0.8350443,0.995167 -2.3116018,1.800781 -3.3066408,1.800781 -0.9950389,0 -1.1124954,-0.805486 -0.2773437,-1.800781 l 1.3769531,-1.640625 c 0.00213,-0.0027 0.0036,-0.0051 0.00586,-0.0078 L 8.53125,9.6054688 C 8.5905126,9.5348424 8.6968242,9.4785156 8.7675781,9.4785156 Z"
     style="fill:#ffffff"
     id="path3" />
</svg>
