<?xml version="1.0" encoding="UTF-8" standalone="no"?>
<svg
   width="16"
   height="16"
   viewBox="0 0 16 16"
   fill="none"
   version="1.1"
   id="svg2"
   sodipodi:docname="ColumnOpen.svg"
   inkscape:version="1.3.2 (091e20e, 2023-11-25, custom)"
   xmlns:inkscape="http://www.inkscape.org/namespaces/inkscape"
   xmlns:sodipodi="http://sodipodi.sourceforge.net/DTD/sodipodi-0.dtd"
   xmlns="http://www.w3.org/2000/svg"
   xmlns:svg="http://www.w3.org/2000/svg">
  <defs
     id="defs2" />
  <sodipodi:namedview
     id="namedview2"
     pagecolor="#505050"
     bordercolor="#ffffff"
     borderopacity="1"
     inkscape:showpageshadow="0"
     inkscape:pageopacity="0"
     inkscape:pagecheckerboard="1"
     inkscape:deskcolor="#505050"
     inkscape:zoom="50.8125"
     inkscape:cx="6.4649446"
     inkscape:cy="7.5276753"
     inkscape:window-width="1920"
     inkscape:window-height="1009"
     inkscape:window-x="-8"
     inkscape:window-y="-8"
     inkscape:window-maximized="1"
     inkscape:current-layer="svg2" />
  <rect
     style="fill:#ffffff;opacity:0.5"
     id="rect6"
     width="7.3603935"
     height="5.6678967"
     x="5.0578108"
     y="8.1476011" />
  <path
     d="M14 7V5C14 4.44772 13.5523 4 13 4H8L6.28 2.28C6.1 2.1 5.86 2 5.6 2H0.96C0.43 2 0 2.43 0 2.96V13L4 7H14Z"
     fill="white"
     id="path1" />
  <path
     d="M 4.8300781,8 0.50976562,14 H 12.310547 c 0.32,0 0.618828,-0.159688 0.798828,-0.429687 L 15.830078,9.5 C 16.260078,8.8600006 15.799296,8 15.029297,8 Z m 6.0624999,0.359375 a 0.10010603,0.19987275 54.7127 0 1 0.05664,0.017578 l 1.361328,1.2714844 a 0.10010603,0.19987275 54.7127 0 1 -0.01367,0.1230469 L 10.503906,12.314453 A 0.10010603,0.19987275 54.7127 0 1 10.345703,12.4375 l -3.1562499,1.269531 a 0.10010603,0.19987275 54.7127 0 1 -0.1386719,0 L 5.6875,12.4375 A 0.10010603,0.19987275 54.7127 0 1 5.703125,12.314453 L 7.4941406,9.7714844 A 0.10010603,0.19987275 54.7127 0 1 7.6542969,9.6484375 L 10.808594,8.3769531 a 0.10010603,0.19987275 54.7127 0 1 0.08398,-0.017578 z"
     style="fill:#ffffff"
     id="path6" />
  <path
     d="M 11.84375,10.013672 9.0820313,11.125 7.5175781,13.34375 10.279297,12.230469 Z"
     style="fill:#ffffff"
     id="path5" />
  <path
     d="m 7.6074219,10.013672 -1.5644532,2.216797 1.1933594,1.113281 1.5625,-2.21875 z"
     style="fill:#ffffff"
     id="path4" />
  <path
     d="M 10.677734,8.6621094 7.9238281,9.7714844 9.1132813,10.880859 11.867188,9.7714844 Z"
     style="fill:#ffffff"
     id="path3" />
</svg>
