<?xml version="1.0" encoding="UTF-8" standalone="no"?>
<svg
   width="16"
   height="16"
   viewBox="0 0 16 16"
   fill="none"
   version="1.1"
   id="svg2"
   sodipodi:docname="ColumnClosed.svg"
   inkscape:version="1.3.2 (091e20e, 2023-11-25, custom)"
   xmlns:inkscape="http://www.inkscape.org/namespaces/inkscape"
   xmlns:sodipodi="http://sodipodi.sourceforge.net/DTD/sodipodi-0.dtd"
   xmlns="http://www.w3.org/2000/svg"
   xmlns:svg="http://www.w3.org/2000/svg">
  <defs
     id="defs2" />
  <sodipodi:namedview
     id="namedview2"
     pagecolor="#505050"
     bordercolor="#ffffff"
     borderopacity="1"
     inkscape:showpageshadow="0"
     inkscape:pageopacity="0"
     inkscape:pagecheckerboard="1"
     inkscape:deskcolor="#505050"
     inkscape:zoom="50.8125"
     inkscape:cx="8"
     inkscape:cy="8"
     inkscape:window-width="1920"
     inkscape:window-height="1009"
     inkscape:window-x="-8"
     inkscape:window-y="-8"
     inkscape:window-maximized="1"
     inkscape:current-layer="svg2" />
  <rect
     style="fill:#ffffff;fill-opacity:1;opacity:0.5"
     id="rect6"
     width="8.9544897"
     height="8.2460022"
     x="3.4440343"
     y="5.6678967" />
  <path
     d="M8 4L6.33 2.33C6.12 2.12 5.83 2 5.54 2H1.12C0.5 2 0 2.5 0 3.12V4H8Z"
     fill="white"
     id="path1" />
  <path
     d="m 0,5 v 7.880859 C 0,13.500859 0.49914124,14 1.1191406,14 H 14.880859 C 15.500859,14 16,13.500859 16,12.880859 V 6.1191406 C 16,5.4991412 15.500859,5 14.880859,5 Z m 8.0019531,1.0039062 a 0.20033498,0.20033498 0 0 1 0.095703,0.025391 L 11.298828,7.828125 a 0.20033498,0.20033498 0 0 1 0.101563,0.1757813 v 3.5996097 a 0.20033498,0.20033498 0 0 1 -0.101563,0.173828 l -3.2011717,1.800781 a 0.20033498,0.20033498 0 0 1 -0.1953126,0 L 4.7011719,11.777344 A 0.20033498,0.20033498 0 0 1 4.5996094,11.603516 V 8.0039063 A 0.20033498,0.20033498 0 0 1 4.7011719,7.828125 L 7.9023437,6.0292969 a 0.20033498,0.20033498 0 0 1 0.099609,-0.025391 z"
     style="fill:#ffffff"
     id="path6" />
  <path
     d="M 11,8.3457031 8.1992188,9.9199219 V 13.060547 L 11,11.486328 Z"
     style="fill:#ffffff"
     id="path5" />
  <path
     d="m 5,8.3457031 v 3.1406249 l 2.8007812,1.574219 V 9.9199219 Z"
     style="fill:#ffffff"
     id="path4" />
  <path
     d="M 8,6.4335937 5.2089844,8.0039063 8,9.5742188 10.791016,8.0039063 Z"
     style="fill:#ffffff"
     id="path3" />
</svg>
