<?xml version="1.0" encoding="UTF-8" standalone="no"?>
<svg
   width="16"
   height="16"
   viewBox="0 0 16 16"
   fill="none"
   version="1.1"
   id="svg2"
   sodipodi:docname="ColumnClosed.svg"
   inkscape:version="1.3.2 (091e20e, 2023-11-25, custom)"
   xmlns:inkscape="http://www.inkscape.org/namespaces/inkscape"
   xmlns:sodipodi="http://sodipodi.sourceforge.net/DTD/sodipodi-0.dtd"
   xmlns="http://www.w3.org/2000/svg"
   xmlns:svg="http://www.w3.org/2000/svg">
  <defs
     id="defs2" />
  <sodipodi:namedview
     id="namedview2"
     pagecolor="#505050"
     bordercolor="#ffffff"
     borderopacity="1"
     inkscape:showpageshadow="0"
     inkscape:pageopacity="0"
     inkscape:pagecheckerboard="1"
     inkscape:deskcolor="#505050"
     showgrid="false"
     inkscape:zoom="35.929863"
     inkscape:cx="7.4311443"
     inkscape:cy="7.5842203"
     inkscape:window-width="1920"
     inkscape:window-height="1009"
     inkscape:window-x="-8"
     inkscape:window-y="-8"
     inkscape:window-maximized="1"
     inkscape:current-layer="svg2" />
  <rect
     style="opacity:0.5;fill:#ffffff;fill-opacity:1;stroke-opacity:0.4"
     id="rect4"
     width="8.1547766"
     height="7.9042883"
     x="3.8964801"
     y="5.9560485" />
  <path
     d="M8 4L6.33 2.33C6.12 2.12 5.83 2 5.54 2H1.12C0.5 2 0 2.5 0 3.12V4H8Z"
     fill="white"
     id="path1" />
  <path
     d="M 7.7207031,7.015625 C 6.1969475,7.1565532 5,8.4406516 5,10 5,11.56031 6.196707,12.845159 7.7207031,12.986328 6.6998157,12.381251 5.7636719,11.272682 5.7636719,10 c 0,-1.2729228 0.9363843,-2.3797788 1.9570312,-2.984375 z"
     style="fill:#ffffff"
     id="path4" />
  <path
     d="m 0,5 v 7.880859 C 0,13.500859 0.49914124,14 1.1191406,14 H 14.880859 C 15.500859,14 16,13.500859 16,12.880859 V 6.1191406 C 16,5.4991412 15.500859,5 14.880859,5 Z m 8,1.5 c 1.8034476,0 3.302053,1.3887011 3.482422,3.1445313 C 11.494206,9.7618912 11.49976,9.8804756 11.5,10 c 0,0.120246 -0.0058,0.238109 -0.01758,0.355469 C 11.302053,12.11202 9.8034476,13.5 8,13.5 6.1979954,13.5 4.6977064,12.112261 4.5175781,10.355469 4.505313,10.238109 4.5,10.120246 4.5,10 4.5,9.8804756 4.505313,9.7618912 4.5175781,9.6445313 4.6977064,7.8887011 6.1982359,6.5 8,6.5 Z"
     style="fill:#ffffff"
     id="path3" />
</svg>
