<?xml version="1.0" encoding="UTF-8" standalone="no"?>
<svg
   width="16"
   height="16"
   viewBox="0 0 16 16"
   fill="none"
   version="1.1"
   id="svg2"
   sodipodi:docname="ColumnOpen.svg"
   inkscape:version="1.3.2 (091e20e, 2023-11-25, custom)"
   xmlns:inkscape="http://www.inkscape.org/namespaces/inkscape"
   xmlns:sodipodi="http://sodipodi.sourceforge.net/DTD/sodipodi-0.dtd"
   xmlns="http://www.w3.org/2000/svg"
   xmlns:svg="http://www.w3.org/2000/svg">
  <defs
     id="defs2" />
  <sodipodi:namedview
     id="namedview2"
     pagecolor="#505050"
     bordercolor="#ffffff"
     borderopacity="1"
     inkscape:showpageshadow="0"
     inkscape:pageopacity="0"
     inkscape:pagecheckerboard="1"
     inkscape:deskcolor="#505050"
     inkscape:zoom="34.5625"
     inkscape:cx="7.4647378"
     inkscape:cy="9.1283906"
     inkscape:window-width="1920"
     inkscape:window-height="1009"
     inkscape:window-x="-8"
     inkscape:window-y="-8"
     inkscape:window-maximized="1"
     inkscape:current-layer="svg2" />
  <rect
     style="opacity:0.5;fill:#ffffff;fill-opacity:1;stroke-width:0.952205;stroke-opacity:0.4"
     id="rect4"
     width="6.7424994"
     height="4.8458242"
     x="5.3509121"
     y="9.0382452" />
  <path
     d="M14 7V5C14 4.44772 13.5523 4 13 4H8L6.28 2.28C6.1 2.1 5.86 2 5.6 2H0.96C0.43 2 0 2.43 0 2.96V13L4 7H14Z"
     fill="white"
     id="path1" />
  <path
     d="M 10.152344,9.5585938 C 9.0725093,9.6512724 7.5772723,10.49601 6.7167969,11.521484 5.8557906,12.547592 5.9350483,13.393491 6.859375,13.486328 6.5219006,13.088411 6.5164619,12.358439 7.21875,11.521484 7.9211708,10.684372 9.1475088,9.9561945 10.152344,9.5585938 Z"
     style="fill:#ffffff"
     id="path4" />
  <path
     d="M 4.8300781,8 0.50976562,14 H 12.310547 c 0.32,0 0.618828,-0.159688 0.798828,-0.429687 L 15.830078,9.5 C 16.260078,8.8600006 15.799296,8 15.029297,8 Z m 5.7910159,1.2207031 c 1.186001,0 1.404969,0.9117189 0.554687,2.0664059 -0.05701,0.07718 -0.117796,0.155773 -0.183593,0.234375 -0.06635,0.07908 -0.136474,0.157196 -0.208985,0.234375 -1.0879114,1.155162 -2.8393888,2.06836 -4.0253905,2.06836 -1.1850527,0 -1.4056579,-0.91304 -0.5546875,-2.06836 0.056695,-0.07718 0.1191931,-0.155297 0.1855469,-0.234375 0.065956,-0.0786 0.1342041,-0.157195 0.2070312,-0.234375 1.0873553,-1.154687 2.8404961,-2.0664059 4.0253909,-2.0664059 z"
     style="fill:#ffffff"
     id="path3" />
</svg>
