<?xml version="1.0" encoding="UTF-8" standalone="no"?>
<svg
   width="16"
   height="16"
   viewBox="0 0 16 16"
   fill="none"
   version="1.1"
   id="svg2"
   sodipodi:docname="ColumnOpen.svg"
   inkscape:version="1.3.2 (091e20e, 2023-11-25, custom)"
   xmlns:inkscape="http://www.inkscape.org/namespaces/inkscape"
   xmlns:sodipodi="http://sodipodi.sourceforge.net/DTD/sodipodi-0.dtd"
   xmlns="http://www.w3.org/2000/svg"
   xmlns:svg="http://www.w3.org/2000/svg">
  <defs
     id="defs2" />
  <sodipodi:namedview
     id="namedview2"
     pagecolor="#505050"
     bordercolor="#ffffff"
     borderopacity="1"
     inkscape:showpageshadow="0"
     inkscape:pageopacity="0"
     inkscape:pagecheckerboard="1"
     inkscape:deskcolor="#505050"
     inkscape:zoom="69.125"
     inkscape:cx="9.5189873"
     inkscape:cy="10.611212"
     inkscape:window-width="1920"
     inkscape:window-height="1009"
     inkscape:window-x="-8"
     inkscape:window-y="-8"
     inkscape:window-maximized="1"
     inkscape:current-layer="svg2" />
  <rect
     style="opacity:0.5;fill:#ffffff;fill-opacity:1;stroke-opacity:0.4"
     id="rect3"
     width="7.6106682"
     height="4.8078146"
     x="4.951026"
     y="8.9814072" />
  <path
     d="M14 7V5C14 4.44772 13.5523 4 13 4H8L6.28 2.28C6.1 2.1 5.86 2 5.6 2H0.96C0.43 2 0 2.43 0 2.96V13L4 7H14Z"
     fill="white"
     id="path1" />
  <path
     d="M 4.8300781,8 0.50976562,14 H 12.310547 c 0.32,0 0.618828,-0.159688 0.798828,-0.429687 L 15.830078,9.5 C 16.260078,8.8600006 15.799296,8 15.029297,8 Z m 7.4687499,1.5117188 c 0.03833,-0.00435 0.06323,0.00627 0.07031,0.029297 0.0069,0.023033 -0.0058,0.056886 -0.03516,0.091797 l -1.423828,1.6972655 c -0.05635,0.06716 -0.155743,0.121094 -0.222656,0.121094 H 8.7480469 c -0.066912,0 -0.075884,-0.05393 -0.019531,-0.121094 L 9.9316406,9.8964844 C 9.9824955,9.835875 10.069435,9.7855872 10.136719,9.7773438 Z M 9.5917969,9.8476563 c 0.038944,-0.0051 0.065163,0.00628 0.072266,0.029297 0.00735,0.023033 -0.00586,0.056886 -0.035156,0.091797 l -1.1425782,1.361328 c -0.056351,0.06716 -0.1555026,0.121094 -0.2226562,0.121094 H 6.8085937 c -0.066912,0 -0.075884,-0.05392 -0.019531,-0.121094 L 7.7636719,10.169922 C 7.8143278,10.109552 7.90171,10.057072 7.96875,10.048828 Z M 6.6054687,11.693359 h 1.4550782 c 0.066912,0 0.075676,0.05419 0.019531,0.121094 L 6.9375,13.177734 c -0.029494,0.03515 -0.073388,0.06681 -0.1191406,0.08984 -0.038578,0.01939 -0.076376,0.03125 -0.1054688,0.03125 -0.00535,0 -0.011051,-0.0011 -0.015625,-0.002 L 5.4121094,13.095703 c -0.05321,-0.0083 -0.054766,-0.06049 -0.00391,-0.121094 l 0.9746094,-1.160156 c 0.056151,-0.06692 0.155745,-0.121094 0.2226562,-0.121094 z m 1.9394532,0 h 1.9394531 c 0.06692,0 0.07568,0.05419 0.01953,0.121094 l -1.4238279,1.697266 c -0.029494,0.03515 -0.073834,0.06901 -0.1191406,0.0918 -0.038781,0.01964 -0.074425,0.0293 -0.1035156,0.0293 -0.00536,0 -0.010907,7.18e-4 -0.015625,0 L 7.125,13.367188 c -0.053204,-0.0083 -0.056721,-0.05854 -0.00586,-0.119141 l 1.203125,-1.433594 c 0.05615,-0.06692 0.1557444,-0.121094 0.2226563,-0.121094 z"
     style="fill:#ffffff"
     id="path3" />
</svg>
