<?xml version="1.0" encoding="UTF-8" standalone="no"?>
<svg
   width="16"
   height="16"
   viewBox="0 0 16 16"
   fill="none"
   version="1.1"
   id="svg2"
   sodipodi:docname="ColumnClosed.svg"
   inkscape:version="1.3.2 (091e20e, 2023-11-25, custom)"
   xmlns:inkscape="http://www.inkscape.org/namespaces/inkscape"
   xmlns:sodipodi="http://sodipodi.sourceforge.net/DTD/sodipodi-0.dtd"
   xmlns="http://www.w3.org/2000/svg"
   xmlns:svg="http://www.w3.org/2000/svg">
  <defs
     id="defs2" />
  <sodipodi:namedview
     id="namedview2"
     pagecolor="#505050"
     bordercolor="#ffffff"
     borderopacity="1"
     inkscape:showpageshadow="0"
     inkscape:pageopacity="0"
     inkscape:pagecheckerboard="1"
     inkscape:deskcolor="#505050"
     showgrid="false"
     inkscape:zoom="50.8125"
     inkscape:cx="7.3603936"
     inkscape:cy="6.897909"
     inkscape:window-width="1920"
     inkscape:window-height="1009"
     inkscape:window-x="-8"
     inkscape:window-y="-8"
     inkscape:window-maximized="1"
     inkscape:current-layer="svg2" />
  <rect
     style="opacity:0.5;fill:#ffffff;fill-opacity:1;stroke-opacity:0.4"
     id="rect3"
     width="7.9311194"
     height="7.6555967"
     x="3.99508"
     y="6.1008611" />
  <path
     d="M8 4L6.33 2.33C6.12 2.12 5.83 2 5.54 2H1.12C0.5 2 0 2.5 0 3.12V4H8Z"
     fill="white"
     id="path1" />
  <path
     d="m 0,5 v 7.880859 C 0,13.500859 0.49914124,14 1.1191406,14 H 14.880859 C 15.500859,14 16,13.500859 16,12.880859 V 6.1191406 C 16,5.4991412 15.500859,5 14.880859,5 Z m 11.265625,1.5019531 c 0.05888,-0.00741 0.119185,0.00971 0.164063,0.048828 0.04446,0.039118 0.07031,0.095006 0.07031,0.1542969 v 2.8828125 c 0,0.1140568 -0.09145,0.2050782 -0.205078,0.2050782 H 8 C 7.8863597,9.7929687 7.7949219,9.7019433 7.7949219,9.5878906 V 7.15625 c 0,-0.1029373 0.075206,-0.1910786 0.1777343,-0.2050781 z M 7.1484375,7.0703125 c 0.058883,-0.00864 0.1172306,0.00971 0.1621094,0.048828 0.045295,0.039118 0.072266,0.096956 0.072266,0.15625 v 2.3125 c 0,0.1140568 -0.092978,0.2050781 -0.2070313,0.2050782 H 4.7050781 C 4.5914378,9.792969 4.5,9.7019474 4.5,9.5878906 V 7.6171875 C 4.5,7.5146586 4.5756214,7.428062 4.6777344,7.4140625 Z M 4.7050781,10.205078 h 2.4707031 c 0.1136403,0 0.2070313,0.09339 0.2070313,0.207031 v 2.3125 c 0,0.0597 -0.025431,0.117136 -0.070312,0.15625 -0.037879,0.03295 -0.087308,0.05078 -0.1367188,0.05078 -0.00907,0 -0.018289,-3.66e-4 -0.027344,-0.002 L 4.6777344,12.585938 C 4.5756173,12.571938 4.5,12.485748 4.5,12.382813 v -1.970704 c 0,-0.11364 0.091437,-0.207031 0.2050781,-0.207031 z m 3.2949219,0 h 3.294922 c 0.113645,0 0.205078,0.09339 0.205078,0.207031 v 2.88086 c 0,0.0597 -0.02585,0.117541 -0.07031,0.15625 -0.03788,0.03336 -0.08535,0.05078 -0.134766,0.05078 -0.0091,0 -0.02024,-7.65e-4 -0.0293,-0.002 L 7.9726562,13.048828 C 7.8705473,13.034828 7.7949219,12.946694 7.7949219,12.84375 v -2.431641 c 0,-0.11364 0.091437,-0.207031 0.2050781,-0.207031 z"
     style="fill:#ffffff"
     id="path3" />
</svg>
