<?xml version="1.0" encoding="UTF-8" standalone="no"?>
<svg
   width="16"
   height="16"
   viewBox="0 0 16 16"
   fill="none"
   version="1.1"
   id="svg2"
   sodipodi:docname="ColumnClosed.svg"
   inkscape:version="1.3.2 (091e20e, 2023-11-25, custom)"
   xmlns:inkscape="http://www.inkscape.org/namespaces/inkscape"
   xmlns:sodipodi="http://sodipodi.sourceforge.net/DTD/sodipodi-0.dtd"
   xmlns="http://www.w3.org/2000/svg"
   xmlns:svg="http://www.w3.org/2000/svg">
  <defs
     id="defs2" />
  <sodipodi:namedview
     id="namedview2"
     pagecolor="#505050"
     bordercolor="#ffffff"
     borderopacity="1"
     inkscape:showpageshadow="0"
     inkscape:pageopacity="0"
     inkscape:pagecheckerboard="1"
     inkscape:deskcolor="#505050"
     inkscape:zoom="48.878756"
     inkscape:cx="7.0378223"
     inkscape:cy="9.114389"
     inkscape:window-width="1920"
     inkscape:window-height="1009"
     inkscape:window-x="-8"
     inkscape:window-y="-8"
     inkscape:window-maximized="1"
     inkscape:current-layer="svg2" />
  <rect
     style="opacity:0.5;fill:#ffffff;stroke-opacity:0.4;fill-opacity:1"
     id="rect6"
     width="7.8152561"
     height="7.7743387"
     x="4.2349687"
     y="5.9944243" />
  <path
     d="M8 4L6.33 2.33C6.12 2.12 5.83 2 5.54 2H1.12C0.5 2 0 2.5 0 3.12V4H8Z"
     fill="white"
     id="path1" />
  <path
     d="m 9.7460938,10.630859 c -0.3559721,0 -0.6445313,0.288528 -0.6445313,0.644532 0,0.355972 0.2885592,0.644531 0.6445313,0.644531 0.3560042,0 0.6445312,-0.288559 0.6445312,-0.644531 0,-0.356004 -0.288527,-0.644532 -0.6445312,-0.644532 z"
     style="fill:#ffffff"
     id="path6" />
  <path
     d="m 5.8457031,11.605469 c -0.3559885,0 -0.6445312,0.288526 -0.6445312,0.644531 0,0.355973 0.2885427,0.644531 0.6445312,0.644531 0.3559883,0 0.6445313,-0.288558 0.6445313,-0.644531 0,-0.356005 -0.288543,-0.644531 -0.6445313,-0.644531 z"
     style="fill:#ffffff"
     id="path5" />
  <path
     d="m 10.068359,7.1582031 c -0.02461,0.00124 -0.04925,0.00423 -0.074218,0.011719 L 7.3671875,7.9589844 c -0.1316569,0.0395 -0.2226563,0.1613564 -0.2226563,0.2988281 10e-8,0.2085226 0.202599,0.3567919 0.4023438,0.296875 l 2.626953,-0.7871094 c 0.131655,-0.0395 0.220703,-0.1613564 0.220703,-0.2988281 0,-0.1824581 -0.153883,-0.3192093 -0.326172,-0.3105469 z"
     style="fill:#ffffff"
     id="path4" />
  <path
     d="m 0,5 v 7.880859 C 0,13.500859 0.49914124,14 1.1191406,14 H 14.880859 C 15.500859,14 16,13.500859 16,12.880859 V 6.1191406 C 16,5.4991412 15.500859,5 14.880859,5 Z m 10.371094,1.4492187 c 0.357279,-0.013897 0.673828,0.2725278 0.673828,0.6503907 v 4.1757816 c 0,0.717957 -0.580871,1.300781 -1.2988282,1.300781 -0.7179567,0 -1.3007813,-0.582824 -1.3007813,-1.300781 0,-0.717957 0.5828246,-1.2988285 1.3007813,-1.2988285 0.2367947,0 0.4572402,0.06323 0.6484372,0.1738285 V 8.3730469 L 7.1445312,9.3027344 V 12.25 c 0,0.717957 -0.5808583,1.300781 -1.2988281,1.300781 -0.7179698,0 -1.3007812,-0.582824 -1.3007812,-1.300781 0,-0.717956 0.5828114,-1.298828 1.3007812,-1.298828 0.236785,0 0.4591771,0.06323 0.6503906,0.173828 V 8.0292969 c 0,-0.2902117 0.1916585,-0.5452744 0.4707032,-0.625 L 10.216797,6.4746094 c 0.0519,-0.01483 0.103257,-0.023405 0.154297,-0.025391 z"
     style="fill:#ffffff"
     id="path3" />
</svg>
