<?xml version="1.0" encoding="UTF-8" standalone="no"?>
<svg
   width="16"
   height="16"
   viewBox="0 0 16 16"
   fill="none"
   version="1.1"
   id="svg2"
   sodipodi:docname="ColumnOpen.svg"
   inkscape:version="1.3.2 (091e20e, 2023-11-25, custom)"
   xmlns:inkscape="http://www.inkscape.org/namespaces/inkscape"
   xmlns:sodipodi="http://sodipodi.sourceforge.net/DTD/sodipodi-0.dtd"
   xmlns="http://www.w3.org/2000/svg"
   xmlns:svg="http://www.w3.org/2000/svg">
  <defs
     id="defs2" />
  <sodipodi:namedview
     id="namedview2"
     pagecolor="#505050"
     bordercolor="#ffffff"
     borderopacity="1"
     inkscape:showpageshadow="0"
     inkscape:pageopacity="0"
     inkscape:pagecheckerboard="1"
     inkscape:deskcolor="#505050"
     inkscape:zoom="50.8125"
     inkscape:cx="6.6322263"
     inkscape:cy="9.1611316"
     inkscape:window-width="1920"
     inkscape:window-height="1009"
     inkscape:window-x="-8"
     inkscape:window-y="-8"
     inkscape:window-maximized="1"
     inkscape:current-layer="svg2" />
  <rect
     style="opacity:0.5;fill:#ffffff;stroke-opacity:0.4;fill-opacity:1"
     id="rect6"
     width="7.7343173"
     height="4.9594097"
     x="4.703567"
     y="8.9151287" />
  <path
     d="M14 7V5C14 4.44772 13.5523 4 13 4H8L6.28 2.28C6.1 2.1 5.86 2 5.6 2H0.96C0.43 2 0 2.43 0 2.96V13L4 7H14Z"
     fill="white"
     id="path1" />
  <path
     d="m 11.335938,9.7265625 c -0.01573,7.587e-4 -0.03358,0.00322 -0.05274,0.00781 l -2.017578,0.482422 c -0.1010366,0.02422 -0.2183436,0.09931 -0.2890625,0.183594 -0.1072703,0.127836 -0.059532,0.220323 0.09375,0.183593 l 2.0156255,-0.484375 c 0.101033,-0.02422 0.218342,-0.09736 0.289062,-0.1816402 0.09386,-0.1118607 0.07102,-0.1967173 -0.03906,-0.1914063 z"
     style="fill:#ffffff"
     id="path6" />
  <path
     d="m 9.3496094,11.855469 c -0.2182382,0 -0.5434228,0.176274 -0.7265625,0.394531 -0.1831237,0.218239 -0.1537849,0.396484 0.064453,0.396484 0.218258,0 0.5434388,-0.178245 0.7265625,-0.396484 0.1831402,-0.218257 0.1538053,-0.394531 -0.064453,-0.394531 z"
     style="fill:#ffffff"
     id="path5" />
  <path
     d="m 6.4570312,12.453125 c -0.218248,0 -0.5434227,0.178227 -0.7265625,0.396484 -0.1831237,0.218238 -0.1537947,0.394532 0.064453,0.394532 0.218248,0 0.5434388,-0.176294 0.7265625,-0.394532 0.1831401,-0.218257 0.1537952,-0.396484 -0.064453,-0.396484 z"
     style="fill:#ffffff"
     id="path4" />
  <path
     d="M 4.8300781,8 0.50976562,14 H 12.310547 c 0.32,0 0.618828,-0.159688 0.798828,-0.429687 L 15.830078,9.5 C 16.260078,8.8600006 15.799296,8 15.029297,8 Z m 7.0546879,1.2929688 c 0.226188,-0.00852 0.272508,0.1667787 0.07813,0.3984375 L 9.8164063,12.25 C 9.447066,12.690164 8.7897722,13.048828 8.3496094,13.048828 7.9094471,13.048828 7.8513629,12.690164 8.2207031,12.25 8.5900429,11.809838 9.2473376,11.453125 9.6875,11.453125 c 0.1451733,0 0.2482702,0.03962 0.3085938,0.107422 l 0.9140622,-1.087891 -2.4707029,0.56836 -1.515625,1.808593 c -0.3693401,0.440163 -1.0266267,0.796875 -1.4667969,0.796875 -0.4401701,0 -0.4982463,-0.356712 -0.1289062,-0.796875 0.3693397,-0.440161 1.0266267,-0.798828 1.4667969,-0.798828 0.1451672,0 0.2482604,0.03962 0.3085937,0.107422 l 1.59375,-1.898437 C 8.8465599,10.081844 9.0945513,9.9258316 9.3066406,9.8769531 L 11.777344,9.3085938 c 0.03945,-0.00909 0.07511,-0.014408 0.107422,-0.015625 z"
     style="fill:#ffffff"
     id="path3" />
</svg>
