<?xml version="1.0" encoding="UTF-8" standalone="no"?>
<svg
   width="16"
   height="16"
   viewBox="0 0 16 16"
   fill="none"
   version="1.1"
   id="svg2"
   sodipodi:docname="ColumnOpen.svg"
   inkscape:version="1.3.2 (091e20e, 2023-11-25, custom)"
   xmlns:inkscape="http://www.inkscape.org/namespaces/inkscape"
   xmlns:sodipodi="http://sodipodi.sourceforge.net/DTD/sodipodi-0.dtd"
   xmlns="http://www.w3.org/2000/svg"
   xmlns:svg="http://www.w3.org/2000/svg">
  <defs
     id="defs2" />
  <sodipodi:namedview
     id="namedview2"
     pagecolor="#505050"
     bordercolor="#ffffff"
     borderopacity="1"
     inkscape:showpageshadow="0"
     inkscape:pageopacity="0"
     inkscape:pagecheckerboard="1"
     inkscape:deskcolor="#505050"
     inkscape:zoom="50.8125"
     inkscape:cx="5.3726937"
     inkscape:cy="7.5670357"
     inkscape:window-width="1920"
     inkscape:window-height="1009"
     inkscape:window-x="-8"
     inkscape:window-y="-8"
     inkscape:window-maximized="1"
     inkscape:current-layer="svg2" />
  <rect
     style="opacity:0.5;fill:#ffffff;stroke-width:0.964465;stroke-opacity:0.4;fill-opacity:1"
     id="rect3"
     width="6.5701838"
     height="4.5228639"
     x="5.7859778"
     y="9.289053" />
  <path
     d="M14 7V5C14 4.44772 13.5523 4 13 4H8L6.28 2.28C6.1 2.1 5.86 2 5.6 2H0.96C0.43 2 0 2.43 0 2.96V13L4 7H14Z"
     fill="white"
     id="path1" />
  <path
     d="M 4.8300781,8 0.50976562,14 H 12.310547 c 0.32,0 0.618828,-0.159688 0.798828,-0.429687 L 15.830078,9.5 C 16.260078,8.8600006 15.799296,8 15.029297,8 Z m 5.6132809,1.4882813 c 0.975305,-1e-7 1.552641,0.3702641 1.710938,0.9785157 0.0331,0.127224 -0.1382,0.344517 -0.382813,0.484375 -0.244607,0.139897 -0.468853,0.150661 -0.501953,0.02344 -0.129614,-0.498078 -0.602021,-0.800781 -1.4003904,-0.800781 -0.7983495,0 -1.7805998,0.302703 -2.7460937,0.800781 -0.2466286,0.127219 -0.4549938,0.116455 -0.4648438,-0.02344 -0.00988,-0.139857 0.1830589,-0.35715 0.4296875,-0.484375 C 8.266955,9.8585454 9.4680473,9.4882813 10.443359,9.4882813 Z M 9.0058594,11.199219 c 0.5319037,0 0.8472603,0.203503 0.9335937,0.535156 0.033076,0.127258 -0.1381714,0.344484 -0.3828125,0.484375 -0.244579,0.139859 -0.4688151,0.148708 -0.5019531,0.02148 -0.05765,-0.221477 -0.2681132,-0.355468 -0.6230469,-0.355468 -0.3549335,0 -0.7894186,0.133991 -1.21875,0.355468 -0.2466251,0.127224 -0.4549637,0.118375 -0.4648437,-0.02148 -0.00985,-0.139892 0.1810771,-0.357116 0.4277343,-0.484375 0.6429089,-0.331653 1.2981742,-0.535156 1.8300782,-0.535156 z m -1.4355469,1.71289 h 0.00391 c 0.18909,0 0.2133533,0.152707 0.054687,0.341797 C 7.470241,13.442996 7.1890902,13.595703 7,13.595703 h -0.00391 c -0.1890901,0 -0.2133527,-0.152707 -0.054687,-0.341797 0.158666,-0.18909 0.4398161,-0.341797 0.6289063,-0.341797 z"
     style="fill:#ffffff"
     id="path3" />
</svg>
