<?xml version="1.0" encoding="UTF-8" standalone="no"?>
<svg
   width="16"
   height="16"
   viewBox="0 0 16 16"
   fill="none"
   version="1.1"
   id="svg2"
   sodipodi:docname="ColumnClosed.svg"
   inkscape:version="1.3.2 (091e20e, 2023-11-25, custom)"
   xmlns:inkscape="http://www.inkscape.org/namespaces/inkscape"
   xmlns:sodipodi="http://sodipodi.sourceforge.net/DTD/sodipodi-0.dtd"
   xmlns="http://www.w3.org/2000/svg"
   xmlns:svg="http://www.w3.org/2000/svg">
  <defs
     id="defs2" />
  <sodipodi:namedview
     id="namedview2"
     pagecolor="#505050"
     bordercolor="#ffffff"
     borderopacity="1"
     inkscape:showpageshadow="0"
     inkscape:pageopacity="0"
     inkscape:pagecheckerboard="1"
     inkscape:deskcolor="#505050"
     inkscape:zoom="50.8125"
     inkscape:cx="7.9901599"
     inkscape:cy="8"
     inkscape:window-width="1920"
     inkscape:window-height="1009"
     inkscape:window-x="-8"
     inkscape:window-y="-8"
     inkscape:window-maximized="1"
     inkscape:current-layer="svg2" />
  <rect
     style="opacity:0.5;fill:#ffffff;stroke-opacity:0.4;fill-opacity:1"
     id="rect3"
     width="9.8204184"
     height="7.301353"
     x="3.0701108"
     y="6.5338254" />
  <path
     d="M8 4L6.33 2.33C6.12 2.12 5.83 2 5.54 2H1.12C0.5 2 0 2.5 0 3.12V4H8Z"
     fill="white"
     id="path1" />
  <path
     d="m 0,5 v 7.880859 C 0,13.500859 0.49914124,14 1.1191406,14 H 14.880859 C 15.500859,14 16,13.500859 16,12.880859 V 6.1191406 C 16,5.4991412 15.500859,5 14.880859,5 Z m 8,2.2871094 c 1.4747129,0 2.818999,0.5607592 3.830078,1.4804687 C 12.041549,8.9599479 12.057656,9.2885282 11.865234,9.5 11.672866,9.7115208 11.346237,9.7275261 11.134766,9.5351563 10.30684,8.782036 9.2071763,8.3222656 8,8.3222656 6.7928547,8.3222656 5.693169,8.782036 4.8652344,9.5351563 4.6537363,9.7275291 4.3271507,9.7115238 4.1347656,9.5 3.9423855,9.2885282 3.9584238,8.9599469 4.1699219,8.7675781 5.1810012,7.8478686 6.5252767,7.2871094 8,7.2871094 Z M 8,9.875 c 0.8042665,0 1.5385163,0.307117 2.089844,0.808594 0.211471,0.192421 0.227577,0.520898 0.03516,0.732422 -0.1923698,0.21147 -0.5208982,0.225573 -0.7324219,0.0332 C 9.0244046,11.114332 8.5366781,10.912109 8,10.912109 c -0.5366782,0 -1.0244099,0.202223 -1.3925781,0.53711 C 6.3959291,11.64159 6.0673851,11.627487 5.875,11.416016 5.68262,11.204492 5.6986585,10.876016 5.9101562,10.683594 6.4614796,10.182117 7.1957334,9.875 8,9.875 Z m 0,2.589844 h 0.00586 c 0.2859143,0 0.5175781,0.231663 0.5175781,0.517578 0,0.285915 -0.2316638,0.517578 -0.5175781,0.517578 H 8 c -0.2859143,0 -0.5175781,-0.231663 -0.5175781,-0.517578 0,-0.285915 0.2316638,-0.517578 0.5175781,-0.517578 z"
     style="fill:#ffffff"
     id="path3" />
</svg>
