<?xml version="1.0" encoding="UTF-8" standalone="no"?>
<svg
   width="16"
   height="16"
   viewBox="0 0 16 16"
   fill="none"
   version="1.1"
   id="svg2"
   sodipodi:docname="ColumnOpen.svg"
   inkscape:version="1.3.2 (091e20e, 2023-11-25, custom)"
   xmlns:inkscape="http://www.inkscape.org/namespaces/inkscape"
   xmlns:sodipodi="http://sodipodi.sourceforge.net/DTD/sodipodi-0.dtd"
   xmlns="http://www.w3.org/2000/svg"
   xmlns:svg="http://www.w3.org/2000/svg">
  <defs
     id="defs2" />
  <sodipodi:namedview
     id="namedview2"
     pagecolor="#505050"
     bordercolor="#ffffff"
     borderopacity="1"
     inkscape:showpageshadow="0"
     inkscape:pageopacity="0"
     inkscape:pagecheckerboard="1"
     inkscape:deskcolor="#505050"
     inkscape:zoom="50.8125"
     inkscape:cx="7.9901599"
     inkscape:cy="8"
     inkscape:window-width="1920"
     inkscape:window-height="1009"
     inkscape:window-x="-8"
     inkscape:window-y="-8"
     inkscape:window-maximized="1"
     inkscape:current-layer="svg2" />
  <rect
     style="opacity:0.5;fill:#ffffff;fill-opacity:1;stroke-opacity:0.4"
     id="rect4"
     width="6.9667897"
     height="5.0184503"
     x="5.6678967"
     y="8.8364086" />
  <path
     d="M14 7V5C14 4.44772 13.5523 4 13 4H8L6.28 2.28C6.1 2.1 5.86 2 5.6 2H0.96C0.43 2 0 2.43 0 2.96V13L4 7H14Z"
     fill="white"
     id="path1" />
  <path
     d="m 9.1660156,9.6972656 c -0.3533316,0 -0.7561568,0.1727024 -1.1328125,0.4375004 -0.3858931,0.271291 -0.7532959,0.648169 -0.9824219,1.037109 -0.082435,0.139942 -0.1319579,0.320233 -0.1445312,0.527344 -0.012317,0.203076 0.011893,0.415454 0.054687,0.61914 0.084831,0.403907 0.2425659,0.759069 0.3222656,0.923829 0.3561993,-0.16476 1.110377,-0.519922 1.8730469,-0.923829 0.3846322,-0.203686 0.7652621,-0.416064 1.09375,-0.61914 0.335013,-0.207111 0.587809,-0.387402 0.740234,-0.527344 0.423581,-0.38894 0.686479,-0.765816 0.75586,-1.037109 0.06772,-0.264798 -0.0451,-0.4375004 -0.398438,-0.4375004 -0.307406,0 -0.714709,0.2287685 -1.125,0.5351564 -0.197134,0.14722 -0.3726849,0.296166 -0.4999997,0.410156 -0.063199,0.05658 -0.1145787,0.102629 -0.1484375,0.134766 C 9.4542577,10.891227 9.3185427,10.898438 9.25,10.898438 c -0.068542,0 -0.1935285,-0.0083 -0.1230469,-0.121094 0.020074,-0.03213 0.048326,-0.07819 0.080078,-0.134766 0.063984,-0.11399 0.1395232,-0.262936 0.1894531,-0.410156 C 9.5003701,9.9260321 9.4734177,9.6972656 9.1660156,9.6972656 Z"
     style="fill:#ffffff"
     id="path4" />
  <path
     d="M 4.8300781,8 0.50976562,14 H 12.310547 c 0.32,0 0.618828,-0.159688 0.798828,-0.429687 L 15.830078,9.5 C 16.260078,8.8600006 15.799296,8 15.029297,8 Z M 9.53125,9.2617188 c 0.564915,0 0.535931,0.4275389 0.4179688,0.7753902 -0.00537,0.01583 -0.00984,0.03112 -0.015625,0.04687 0.020661,-0.01576 0.041306,-0.03105 0.0625,-0.04687 0.4658012,-0.3478532 1.1518812,-0.7753902 1.7167972,-0.7753902 0.518987,0 0.693358,0.2648533 0.59375,0.6542968 -0.09795,0.3829474 -0.455957,0.8779464 -0.982422,1.3613284 -0.249421,0.229028 -0.59551,0.467163 -0.955078,0.689453 -0.366056,0.226302 -0.7777096,0.454172 -1.1777347,0.666016 -0.8004115,0.423883 -1.5857902,0.795819 -1.9472657,0.96289 -0.2496294,0.115386 -0.4596367,0.115386 -0.515625,0 -0.08109,-0.167071 -0.244922,-0.539007 -0.3339844,-0.96289 -0.044499,-0.211844 -0.070366,-0.439713 -0.056641,-0.666016 0.013486,-0.222289 0.06625,-0.460425 0.2011719,-0.689453 C 6.8238196,10.793961 7.2970791,10.298965 7.8417969,9.9160156 8.395753,9.526572 9.0122603,9.2617188 9.53125,9.2617188 Z"
     style="fill:#ffffff"
     id="path3" />
</svg>
