<?xml version="1.0" encoding="UTF-8" standalone="no"?>
<svg
   width="16"
   height="16"
   viewBox="0 0 16 16"
   fill="none"
   version="1.1"
   id="svg2"
   sodipodi:docname="ColumnClosed.svg"
   inkscape:version="1.3.2 (091e20e, 2023-11-25, custom)"
   xmlns:inkscape="http://www.inkscape.org/namespaces/inkscape"
   xmlns:sodipodi="http://sodipodi.sourceforge.net/DTD/sodipodi-0.dtd"
   xmlns="http://www.w3.org/2000/svg"
   xmlns:svg="http://www.w3.org/2000/svg">
  <defs
     id="defs2" />
  <sodipodi:namedview
     id="namedview2"
     pagecolor="#505050"
     bordercolor="#ffffff"
     borderopacity="1"
     inkscape:showpageshadow="0"
     inkscape:pageopacity="0"
     inkscape:pagecheckerboard="1"
     inkscape:deskcolor="#505050"
     inkscape:zoom="50.8125"
     inkscape:cx="7.0848708"
     inkscape:cy="8.2361624"
     inkscape:window-width="1920"
     inkscape:window-height="1009"
     inkscape:window-x="-8"
     inkscape:window-y="-8"
     inkscape:window-maximized="1"
     inkscape:current-layer="svg2" />
  <rect
     style="opacity:0.5;fill:#ffffff;fill-opacity:1;stroke-opacity:0.4"
     id="rect4"
     width="10.469865"
     height="7.9114389"
     x="2.9520295"
     y="5.8646984" />
  <path
     d="M8 4L6.33 2.33C6.12 2.12 5.83 2 5.54 2H1.12C0.5 2 0 2.5 0 3.12V4H8Z"
     fill="white"
     id="path1" />
  <path
     d="m 6.2226562,7.109375 c -0.5758266,0 -0.9963151,0.2813487 -1.2480468,0.7128906 -0.2579047,0.4421268 -0.3420552,1.0555953 -0.1835938,1.6894532 0.057024,0.2280645 0.2216441,0.5218442 0.484375,0.8593752 0.257631,0.330954 0.5872624,0.675863 0.9355469,1.007812 C 6.9015256,12.037156 7.6448067,12.618208 8,12.886719 8.355194,12.618208 9.0984716,12.037156 9.7890625,11.378906 10.137362,11.046957 10.466975,10.702048 10.724609,10.371094 10.987361,10.033563 11.151942,9.7397833 11.208984,9.5117188 11.367425,8.8778609 11.28331,8.2643956 11.025391,7.8222656 10.773656,7.3907237 10.353173,7.109375 9.7773438,7.109375 9.2763623,7.109375 8.9235015,7.4791937 8.6738281,7.9785156 8.5538778,8.2184402 8.4715266,8.4626665 8.4199219,8.6484375 8.3942979,8.7406444 8.3764664,8.8167647 8.3652344,8.8691406 8.3254664,9.054734 8.1117047,9.0644531 8,9.0644531 7.8882961,9.0644531 7.67418,9.0530036 7.6347656,8.8691406 7.6235336,8.8167647 7.6057021,8.7406446 7.5800781,8.6484375 7.5284702,8.4626665 7.4461222,8.2184394 7.3261719,7.9785156 7.0764913,7.4791897 6.7236309,7.109375 6.2226562,7.109375 Z"
     style="fill:#ffffff"
     id="path4" />
  <path
     d="m 0,5 v 7.880859 C 0,13.500859 0.49914124,14 1.1191406,14 H 14.880859 C 15.500859,14 16,13.500859 16,12.880859 V 6.1191406 C 16,5.4991412 15.500859,5 14.880859,5 Z m 6.2226562,1.3984375 c 0.9206463,0 1.456797,0.6967772 1.7402344,1.2636719 0.012904,0.025792 0.024989,0.050492 0.037109,0.076172 0.01212,-0.025688 0.024213,-0.05038 0.037109,-0.076172 0.2834373,-0.5668987 0.8195885,-1.2636719 1.7402344,-1.2636719 0.8457972,0 1.4911002,0.4297746 1.8613282,1.0644531 0.364044,0.6240906 0.456732,1.4329334 0.259766,2.2207032 -0.09329,0.3732482 -0.331266,0.7607812 -0.613282,1.1230472 -0.287096,0.368805 -0.643628,0.742649 -1.005859,1.08789 -0.7247818,0.690805 -1.4987435,1.29413 -1.8593751,1.566407 -0.2490334,0.188046 -0.5908103,0.188046 -0.8398438,0 C 7.2194569,13.188661 6.4455024,12.585336 5.7207031,11.894531 5.3584899,11.54929 5.0019412,11.175446 4.7148437,10.806641 4.4328464,10.444375 4.1948712,10.056842 4.1015625,9.6835938 3.9046155,8.895824 3.9972757,8.0869852 4.3613281,7.4628906 4.7315558,6.8282121 5.3768555,6.3984375 6.2226562,6.3984375 Z"
     style="fill:#ffffff"
     id="path3" />
</svg>
