<?xml version="1.0" encoding="UTF-8" standalone="no"?>
<svg
   width="16"
   height="16"
   viewBox="0 0 16 16"
   fill="none"
   version="1.1"
   id="svg2"
   sodipodi:docname="ColumnOpen.svg"
   inkscape:version="1.3.2 (091e20e, 2023-11-25, custom)"
   xmlns:inkscape="http://www.inkscape.org/namespaces/inkscape"
   xmlns:sodipodi="http://sodipodi.sourceforge.net/DTD/sodipodi-0.dtd"
   xmlns="http://www.w3.org/2000/svg"
   xmlns:svg="http://www.w3.org/2000/svg">
  <defs
     id="defs2" />
  <sodipodi:namedview
     id="namedview2"
     pagecolor="#505050"
     bordercolor="#ffffff"
     borderopacity="1"
     inkscape:showpageshadow="0"
     inkscape:pageopacity="0"
     inkscape:pagecheckerboard="1"
     inkscape:deskcolor="#505050"
     inkscape:zoom="35.929863"
     inkscape:cx="3.6877402"
     inkscape:cy="8.7253324"
     inkscape:window-width="1920"
     inkscape:window-height="1009"
     inkscape:window-x="-8"
     inkscape:window-y="-8"
     inkscape:window-maximized="1"
     inkscape:current-layer="svg2" />
  <rect
     style="opacity:0.5;fill:#ffffff;fill-opacity:1;stroke-width:0.994855;stroke-opacity:0.4"
     id="rect4"
     width="7.0771909"
     height="5.3437443"
     x="5.4550724"
     y="8.460928" />
  <path
     d="M14 7V5C14 4.44772 13.5523 4 13 4H8L6.28 2.28C6.1 2.1 5.86 2 5.6 2H0.96C0.43 2 0 2.43 0 2.96V13L4 7H14Z"
     fill="white"
     id="path1" />
  <path
     d="M 10.505859,9.0507813 10.277344,9.1464844 10.050781,9.234375 9.8261719,9.3164063 9.6035156,9.3925781 9.3867188,9.4609375 9.1699219,9.5214844 8.9570313,9.5742188 8.75,9.6191406 8.5449219,9.6582031 8.3476563,9.6894531 8.1523438,9.7128906 7.9648437,9.7285156 7.8164062,9.921875 l -0.1425781,0.193359 -0.1328125,0.195313 -0.1230469,0.191406 -0.1152343,0.189453 -0.1054688,0.1875 -0.095703,0.185547 -0.085937,0.183594 -0.078125,0.181641 -0.064453,0.175781 -0.058594,0.173828 -0.044922,0.169922 -0.037109,0.166015 -0.027344,0.16211 -0.015625,0.158203 -0.00586,0.152344 0.00586,0.146484 0.013672,0.142578 0.025391,0.136719 0.037109,0.130859 0.044922,0.125 0.054687,0.117188 0.2558593,-0.117188 0.2539063,-0.125 0.2558594,-0.130859 0.2539062,-0.136719 0.2539063,-0.142578 0.2519531,-0.146484 0.25,-0.152344 0.2460938,-0.158203 0.2460937,-0.16211 0.2421875,-0.166015 0.2382813,-0.169922 0.2363281,-0.173828 0.2304686,-0.175781 0.226563,-0.181641 0.220703,-0.183594 0.214844,-0.185547 0.210937,-0.1875 0.205078,-0.189453 0.197266,-0.191406 0.191406,-0.195313 0.183594,-0.193359 0.177734,-0.1933594 -0.162109,-0.015625 -0.154297,-0.023437 -0.148438,-0.03125 -0.138671,-0.039063 -0.132813,-0.044922 -0.121094,-0.052734 -0.115234,-0.060547 -0.103516,-0.068359 -0.09766,-0.076172 -0.08398,-0.082031 -0.07813,-0.087891 z"
     style="fill:#ffffff"
     id="path4" />
  <path
     d="M 4.8300781,8 0.50976562,14 H 12.310547 c 0.32,0 0.618828,-0.159688 0.798828,-0.429687 L 15.830078,9.5 C 16.260078,8.8600006 15.799296,8 15.029297,8 Z m 5.9296879,0.7460938 0.05469,0.099609 0.06641,0.091797 0.07422,0.085937 0.08594,0.080078 0.09375,0.072266 0.101562,0.064453 0.113281,0.058594 0.121094,0.048828 0.128906,0.042969 0.136719,0.035156 0.146485,0.027344 0.152343,0.019531 0.160157,0.011719 0.166015,0.00391 L 12.185547,9.6933594 12,9.9003906 l -0.193359,0.2050784 -0.201172,0.203125 -0.207031,0.203125 -0.212891,0.201172 -0.222656,0.199218 -0.226563,0.195313 -0.232422,0.195312 -0.236328,0.191407 -0.24414,0.1875 -0.2460942,0.183593 -0.2519532,0.179688 -0.2539062,0.175781 -0.2597656,0.171875 -0.2597657,0.166016 -0.2636718,0.162109 -0.265625,0.15625 L 7.9550781,13.027344 7.6875,13.173828 7.4179687,13.3125 l -0.2695312,0.130859 -0.2675781,0.126954 -0.2695313,0.11914 -0.066406,-0.11914 -0.058594,-0.126954 -0.046875,-0.130859 -0.035156,-0.138672 -0.025391,-0.146484 -0.013672,-0.150391 -0.00391,-0.15625 0.00781,-0.162109 0.019531,-0.166016 0.029297,-0.171875 0.039063,-0.175781 0.052734,-0.179688 0.060547,-0.183593 0.072266,-0.1875 0.083984,-0.191407 0.091797,-0.195312 L 6.921875,10.912109 7.0351562,10.712891 7.1582031,10.511719 7.2910156,10.308594 7.4335937,10.105469 7.5839844,9.9003906 7.7441406,9.6933594 7.9140625,9.4882813 8.0878906,9.484375 8.2675781,9.4726563 8.4511719,9.453125 8.6425781,9.4257813 8.8398438,9.390625 9.0410156,9.3476563 9.2441406,9.2988281 9.453125,9.2402344 9.6660156,9.1757813 9.8808594,9.1035156 10.097656,9.0234375 10.318359,8.9375 l 0.21875,-0.091797 z"
     style="fill:#ffffff"
     id="path3" />
</svg>
