<?xml version="1.0" encoding="UTF-8" standalone="no"?>
<svg
   width="16"
   height="16"
   viewBox="0 0 16 16"
   fill="none"
   version="1.1"
   id="svg2"
   sodipodi:docname="ColumnClosed.svg"
   inkscape:version="1.3.2 (091e20e, 2023-11-25, custom)"
   xmlns:inkscape="http://www.inkscape.org/namespaces/inkscape"
   xmlns:sodipodi="http://sodipodi.sourceforge.net/DTD/sodipodi-0.dtd"
   xmlns="http://www.w3.org/2000/svg"
   xmlns:svg="http://www.w3.org/2000/svg">
  <defs
     id="defs2" />
  <sodipodi:namedview
     id="namedview2"
     pagecolor="#505050"
     bordercolor="#ffffff"
     borderopacity="1"
     inkscape:showpageshadow="0"
     inkscape:pageopacity="0"
     inkscape:pagecheckerboard="1"
     inkscape:deskcolor="#505050"
     inkscape:zoom="35.929863"
     inkscape:cx="5.0654242"
     inkscape:cy="7.8903723"
     inkscape:window-width="1920"
     inkscape:window-height="1009"
     inkscape:window-x="-8"
     inkscape:window-y="-8"
     inkscape:window-maximized="1"
     inkscape:current-layer="svg2" />
  <rect
     style="opacity:0.5;fill:#ffffff;fill-opacity:1;stroke-opacity:0.4"
     id="rect4"
     width="8.6279202"
     height="7.9042883"
     x="3.7294881"
     y="5.9003844" />
  <path
     d="M8 4L6.33 2.33C6.12 2.12 5.83 2 5.54 2H1.12C0.5 2 0 2.5 0 3.12V4H8Z"
     fill="white"
     id="path1" />
  <path
     d="M 8,7.0761719 7.8007812,7.2050781 7.5976562,7.3242187 7.3867187,7.4355469 7.171875,7.5371094 6.9550781,7.6289062 6.7324219,7.7109375 6.5058594,7.7832031 6.2773437,7.84375 6.0449219,7.8964844 5.8125,7.9375 5.5761719,7.96875 l -0.234375,0.021484 0.017578,0.2617187 0.029297,0.2617188 0.039063,0.2617187 0.050781,0.2578125 0.060547,0.2558594 0.070312,0.2539063 0.080078,0.25 0.091797,0.2480472 0.099609,0.24414 0.1113281,0.238282 0.1210937,0.234375 0.1289063,0.228515 0.1386719,0.22461 0.1484375,0.21875 0.15625,0.210937 0.1640625,0.207031 0.1738281,0.197266 0.1796875,0.191406 0.1894531,0.185547 0.1953125,0.175781 0.203125,0.167969 L 8,12.925781 l 0.2089844,-0.160156 0.203125,-0.167969 0.1953125,-0.175781 0.1894531,-0.185547 0.1796875,-0.191406 0.1738281,-0.197266 0.1640625,-0.207031 0.15625,-0.210937 0.1484375,-0.21875 0.1386719,-0.22461 0.1289063,-0.228515 0.1210942,-0.234375 0.109375,-0.238282 0.101562,-0.24414 0.0918,-0.2480472 0.08008,-0.25 0.07031,-0.2539063 0.06055,-0.2558594 0.05078,-0.2578125 0.03906,-0.2617187 0.0293,-0.2617188 0.01758,-0.2617187 L 10.421875,7.96875 10.1875,7.9375 9.9550781,7.8964844 9.7226563,7.84375 9.4941406,7.7832031 9.2675781,7.7109375 9.0449219,7.6289062 8.828125,7.5371094 8.6132813,7.4355469 8.4042969,7.3242187 8.1992188,7.2050781 Z"
     style="fill:#ffffff"
     id="path4" />
  <path
     d="m 0,5 v 7.880859 C 0,13.500859 0.49914124,14 1.1191406,14 H 14.880859 C 15.500859,14 16,13.500859 16,12.880859 V 6.1191406 C 16,5.4991412 15.500859,5 14.880859,5 Z m 8,1.6660156 0.1875,0.1347656 0.1914063,0.125 0.1992187,0.1152344 0.203125,0.1074219 0.2089844,0.095703 0.2128906,0.087891 0.2167969,0.078125 0.21875,0.068359 0.2226562,0.056641 0.2246099,0.046875 0.226562,0.037109 0.228516,0.025391 0.228515,0.017578 0.230469,0.00391 -0.0059,0.2792969 -0.01563,0.2773438 -0.0293,0.2753906 -0.03906,0.2753906 -0.05078,0.2734375 -0.06055,0.2714844 -0.07422,0.2675781 -0.08203,0.265625 -0.09375,0.2617185 -0.105469,0.257813 -0.115234,0.253906 -0.125,0.248047 -0.134766,0.242187 -0.1445309,0.238282 -0.1542968,0.230468 -0.1640625,0.22461 -0.171875,0.21875 L 9.2519531,12.238281 9.0625,12.441406 8.8652344,12.636719 8.6601563,12.824219 8.4472656,13.001953 8.2265625,13.171875 8,13.333984 7.7734375,13.171875 7.5527344,13.001953 7.3398437,12.824219 7.1347656,12.636719 6.9375,12.441406 6.7480469,12.238281 6.5664062,12.027344 6.3945312,11.808594 6.2304687,11.583984 6.0761719,11.353516 5.9316406,11.115234 5.796875,10.873047 5.671875,10.625 5.5566406,10.371094 5.4511719,10.113281 5.3574219,9.8515625 5.2734375,9.5859375 5.2011719,9.3183594 5.140625,9.046875 5.0898437,8.7734375 5.0507812,8.4980469 5.0214844,8.2226563 5.0058594,7.9453125 5,7.6660156 5.2304687,7.6621094 5.4589844,7.6445312 5.6875,7.6191406 5.9140625,7.5820312 6.1386719,7.5351562 6.3613281,7.4785156 6.5800781,7.4101562 6.796875,7.3320312 7.0097656,7.2441406 7.21875,7.1484375 7.421875,7.0410156 7.6210937,6.9257812 7.8125,6.8007812 Z"
     style="fill:#ffffff"
     id="path3" />
</svg>
