<?xml version="1.0" encoding="UTF-8" standalone="no"?>
<svg
   width="16"
   height="16"
   viewBox="0 0 16 16"
   fill="none"
   version="1.1"
   id="svg2"
   sodipodi:docname="ColumnOpen.svg"
   inkscape:version="1.3.2 (091e20e, 2023-11-25, custom)"
   xmlns:inkscape="http://www.inkscape.org/namespaces/inkscape"
   xmlns:sodipodi="http://sodipodi.sourceforge.net/DTD/sodipodi-0.dtd"
   xmlns="http://www.w3.org/2000/svg"
   xmlns:svg="http://www.w3.org/2000/svg">
  <defs
     id="defs2" />
  <sodipodi:namedview
     id="namedview2"
     pagecolor="#505050"
     bordercolor="#ffffff"
     borderopacity="1"
     inkscape:showpageshadow="0"
     inkscape:pageopacity="0"
     inkscape:pagecheckerboard="1"
     inkscape:deskcolor="#505050"
     inkscape:zoom="35.929863"
     inkscape:cx="5.9838803"
     inkscape:cy="8.6140044"
     inkscape:window-width="1920"
     inkscape:window-height="1009"
     inkscape:window-x="-8"
     inkscape:window-y="-8"
     inkscape:window-maximized="1"
     inkscape:current-layer="svg2" />
  <rect
     style="fill:#ffffff;stroke-width:0.924056;stroke-opacity:0.4;opacity:0.5;fill-opacity:1"
     id="rect6"
     width="8.1771221"
     height="4.6346865"
     x="4.5362854"
     y="9.1512918" />
  <path
     d="M14 7V5C14 4.44772 13.5523 4 13 4H8L6.28 2.28C6.1 2.1 5.86 2 5.6 2H0.96C0.43 2 0 2.43 0 2.96V13L4 7H14Z"
     fill="white"
     id="path1" />
  <path
     d="m 12.109375,9.6523438 c -0.03951,0 -0.09131,0.013178 -0.146484,0.042969 L 8.3339844,11.654297 8.3710938,11.871094 12,9.9121094 c 0.110359,-0.059582 0.190056,-0.1572152 0.179688,-0.2167969 -0.0051,-0.029791 -0.03081,-0.042969 -0.07031,-0.042969 z"
     style="fill:#ffffff"
     id="path6" />
  <path
     d="m 7.9355469,11.871094 -0.5996094,0.322265 c 0,0 0.033601,0.196937 0.037109,0.216797 l 0.5996093,-0.324218 z"
     style="fill:#ffffff"
     id="path5" />
  <path
     d="m 6.8378906,12.404297 c -0.1934689,0.0035 -0.6584876,0.07453 -1.2753906,0.582031 -0.2918047,0.220656 -0.5234375,0.330078 -0.5234375,0.330078 0.1459761,0.308543 1.0993624,-0.0096 1.3730469,-0.152343 0.4840513,-0.252402 0.5628522,-0.536874 0.5625,-0.539063 l -0.039063,-0.214844 c 0,0 -0.033167,-0.007 -0.097656,-0.0059 z"
     style="fill:#ffffff"
     id="path4" />
  <path
     d="M 4.8300781,8 0.50976562,14 H 12.310547 c 0.32,0 0.618828,-0.159688 0.798828,-0.429687 L 15.830078,9.5 C 16.260078,8.8600006 15.799296,8 15.029297,8 Z m 7.5351559,1.3457031 c 0.118577,0 0.199304,0.045471 0.214844,0.1347657 0.03108,0.1785886 -0.212049,0.4677393 -0.542969,0.6464842 L 7.1796875,12.75 c -0.1408646,0.192663 -0.3710103,0.43413 -0.7304688,0.630859 -0.4088758,0.22394 -1.810332,0.739365 -1.8671875,-0.171875 10e-8,0 0.382278,0.01834 0.8183594,-0.322265 0.7369381,-0.643983 1.2907078,-0.761413 1.6132813,-0.753906 L 11.923828,9.4804688 c 0.165394,-0.089294 0.322829,-0.1347657 0.441406,-0.1347657 z"
     style="fill:#ffffff"
     id="path3" />
</svg>
