<?xml version="1.0" encoding="UTF-8" standalone="no"?>
<svg
   width="16"
   height="16"
   viewBox="0 0 16 16"
   fill="none"
   version="1.1"
   id="svg2"
   sodipodi:docname="ColumnClosed.svg"
   inkscape:version="1.3.2 (091e20e, 2023-11-25, custom)"
   xmlns:inkscape="http://www.inkscape.org/namespaces/inkscape"
   xmlns:sodipodi="http://sodipodi.sourceforge.net/DTD/sodipodi-0.dtd"
   xmlns="http://www.w3.org/2000/svg"
   xmlns:svg="http://www.w3.org/2000/svg">
  <defs
     id="defs2" />
  <sodipodi:namedview
     id="namedview2"
     pagecolor="#505050"
     bordercolor="#ffffff"
     borderopacity="1"
     inkscape:showpageshadow="0"
     inkscape:pageopacity="0"
     inkscape:pagecheckerboard="1"
     inkscape:deskcolor="#505050"
     inkscape:zoom="50.8125"
     inkscape:cx="7.9901599"
     inkscape:cy="8"
     inkscape:window-width="1920"
     inkscape:window-height="1009"
     inkscape:window-x="-8"
     inkscape:window-y="-8"
     inkscape:window-maximized="1"
     inkscape:current-layer="svg2" />
  <rect
     style="fill:#ffffff;stroke-opacity:0.4;fill-opacity:1;opacity:0.5"
     id="rect6"
     width="8.6199265"
     height="7.6162362"
     x="3.7982781"
     y="6.1008611" />
  <path
     d="M8 4L6.33 2.33C6.12 2.12 5.83 2 5.54 2H1.12C0.5 2 0 2.5 0 3.12V4H8Z"
     fill="white"
     id="path1" />
  <path
     d="m 11.259766,6.984375 c -0.06316,0 -0.127531,0.022687 -0.175782,0.070312 L 7.9121094,10.1875 8.2617188,10.53125 11.433594,7.4003906 c 0.0965,-0.095251 0.0965,-0.2504525 0,-0.3457031 -0.04813,-0.047625 -0.110672,-0.070312 -0.173828,-0.070312 z"
     style="fill:#ffffff"
     id="path6" />
  <path
     d="m 7.5644531,10.53125 -0.5253906,0.517578 c 0,0 0.3173592,0.313953 0.3496094,0.345703 l 0.5234375,-0.517578 z"
     style="fill:#ffffff"
     id="path5" />
  <path
     d="M 6.5253906,11.386719 C 6.22083,11.392356 5.5730177,11.503135 5.2675781,12.314453 5.097077,12.667206 4.8730469,12.84375 4.8730469,12.84375 c 0.6472544,0.493253 1.7461858,-0.01589 1.9921875,-0.244141 0.4352529,-0.403502 0.1773281,-0.857828 0.1738281,-0.861328 l -0.3476563,-0.34375 c 0,0 -0.064495,-0.0097 -0.1660156,-0.0078 z"
     style="fill:#ffffff"
     id="path4" />
  <path
     d="m 0,5 v 7.880859 C 0,13.500859 0.49914124,14 1.1191406,14 H 14.880859 C 15.500859,14 16,13.500859 16,12.880859 V 6.1191406 C 16,5.4991412 15.500859,5 14.880859,5 Z m 11.259766,1.4960937 c 0.189563,0 0.378811,0.072093 0.523437,0.2148438 0.289252,0.2855019 0.289252,0.7474512 0,1.0332031 L 7.5371094,11.9375 c 0.03325,0.308002 -0.011514,0.69331 -0.3222657,1.007813 C 6.8615913,13.303315 5.3132589,14.128635 4,12.671875 c 0,0 0.6327952,0.02693 0.8730469,-0.517578 C 5.187299,11.12479 5.9156527,10.939172 6.4414062,10.951172 L 10.736328,6.7109375 c 0.144626,-0.142751 0.333874,-0.2148438 0.523438,-0.2148438 z"
     style="fill:#ffffff"
     id="path3" />
</svg>
