<?xml version="1.0" encoding="UTF-8" standalone="no"?>
<svg
   width="16"
   height="16"
   viewBox="0 0 16 16"
   fill="none"
   version="1.1"
   id="svg2"
   sodipodi:docname="ColumnOpen.svg"
   inkscape:version="1.3.2 (091e20e, 2023-11-25, custom)"
   xmlns:inkscape="http://www.inkscape.org/namespaces/inkscape"
   xmlns:sodipodi="http://sodipodi.sourceforge.net/DTD/sodipodi-0.dtd"
   xmlns="http://www.w3.org/2000/svg"
   xmlns:svg="http://www.w3.org/2000/svg">
  <defs
     id="defs2" />
  <sodipodi:namedview
     id="namedview2"
     pagecolor="#505050"
     bordercolor="#ffffff"
     borderopacity="1"
     inkscape:showpageshadow="0"
     inkscape:pageopacity="0"
     inkscape:pagecheckerboard="1"
     inkscape:deskcolor="#505050"
     inkscape:zoom="104.5"
     inkscape:cx="7.9617225"
     inkscape:cy="10.904306"
     inkscape:window-width="1920"
     inkscape:window-height="1009"
     inkscape:window-x="-8"
     inkscape:window-y="-8"
     inkscape:window-maximized="1"
     inkscape:current-layer="svg2" />
  <rect
     style="opacity:0.5;fill:#ffffff;fill-opacity:1;stroke-width:0.973795;stroke-opacity:0.4"
     id="rect4"
     width="8.4210529"
     height="3.6937799"
     x="3.6267943"
     y="10.124402" />
  <path
     d="M14 7V5C14 4.44772 13.5523 4 13 4H8L6.28 2.28C6.1 2.1 5.86 2 5.6 2H0.96C0.43 2 0 2.43 0 2.96V13L4 7H14Z"
     fill="white"
     id="path1" />
  <path
     d="m 8.0585938,11.144531 c -0.5215024,0 -1.1966782,0.413138 -1.7382813,1.058594 -0.5458437,0.650511 -0.5623152,1.0625 -0.041016,1.0625 0.5162443,0 1.1943898,-0.411989 1.7402344,-1.0625 0.5416028,-0.645456 0.5553067,-1.058594 0.039063,-1.058594 z"
     style="fill:#ffffff"
     id="path4" />
  <path
     d="M 4.8300781,8 0.50976562,14 H 12.310547 c 0.32,0 0.618828,-0.159688 0.798828,-0.429687 L 15.830078,9.5 C 16.260078,8.8600006 15.799296,8 15.029297,8 Z m 1.6738281,2.697266 h 0.00391 c 0.0028,-2.02e-4 0.00518,0 0.00781,0 0.1510518,0 0.1716688,0.122385 0.044922,0.273437 -0.1267474,0.151051 -0.3528547,0.273438 -0.5039063,0.273438 -0.00263,0 -0.00364,0 -0.00586,0 h -0.00586 C 5.8938698,11.244141 5.8732528,11.121755 6,10.970703 6.1267473,10.819652 6.3528588,10.697267 6.5039062,10.697266 Z m 1.9257813,0.0039 c 0.8454436,0 0.8941334,0.58068 0.1210938,1.501953 -0.7793175,0.928754 -1.7971346,1.505859 -2.6425782,1.505859 -0.8504985,0 -0.8986276,-0.576903 -0.1191406,-1.505859 0.7730394,-0.921273 1.7903285,-1.501953 2.640625,-1.501953 z m 2.7441405,0 c 0.642828,0 0.773624,0.348186 0.357422,0.859375 H 11.035156 C 11.237074,11.289786 11.148033,11.125 10.816406,11.125 c -0.329198,0 -0.686677,0.161239 -0.8906247,0.404297 -0.161362,0.192302 -0.1107923,0.306438 0.1738277,0.392578 l 0.273438,0.07617 c 0.474354,0.134267 0.521308,0.379768 0.158203,0.8125 -0.462873,0.55163 -1.1962237,0.898437 -1.9023437,0.898437 -0.6681046,0 -0.8343935,-0.328566 -0.4042969,-0.865234 h 0.5078125 c -0.1972862,0.268132 -0.075652,0.441406 0.28125,0.441406 0.349218,0 0.7394103,-0.171005 0.9433594,-0.414062 C 10.133323,12.660996 10.086,12.538588 9.7890625,12.455078 L 9.4882813,12.365234 C 9.0556248,12.241279 9.0151909,11.982822 9.3613281,11.570313 9.7967138,11.051439 10.54111,10.701172 11.173828,10.701172 Z M 5.5664062,11.521484 H 6.0683594 L 4.2753906,13.660156 H 3.7714844 Z"
     style="fill:#ffffff"
     id="path3" />
</svg>
