<?xml version="1.0" encoding="UTF-8" standalone="no"?>
<svg
   width="16"
   height="16"
   viewBox="0 0 16 16"
   fill="none"
   version="1.1"
   id="svg2"
   sodipodi:docname="ColumnClosed.svg"
   inkscape:version="1.3.2 (091e20e, 2023-11-25, custom)"
   xmlns:inkscape="http://www.inkscape.org/namespaces/inkscape"
   xmlns:sodipodi="http://sodipodi.sourceforge.net/DTD/sodipodi-0.dtd"
   xmlns="http://www.w3.org/2000/svg"
   xmlns:svg="http://www.w3.org/2000/svg">
  <defs
     id="defs2" />
  <sodipodi:namedview
     id="namedview2"
     pagecolor="#505050"
     bordercolor="#ffffff"
     borderopacity="1"
     inkscape:showpageshadow="0"
     inkscape:pageopacity="0"
     inkscape:pagecheckerboard="1"
     inkscape:deskcolor="#505050"
     inkscape:zoom="35.929863"
     inkscape:cx="6.4570243"
     inkscape:cy="8.0573644"
     inkscape:window-width="1920"
     inkscape:window-height="1009"
     inkscape:window-x="-8"
     inkscape:window-y="-8"
     inkscape:window-maximized="1"
     inkscape:current-layer="svg2" />
  <rect
     style="opacity:0.5;fill:#ffffff;fill-opacity:1;stroke-opacity:0.4"
     id="rect4"
     width="11.383288"
     height="5.8447204"
     x="2.115232"
     y="7.9042883" />
  <path
     d="M8 4L6.33 2.33C6.12 2.12 5.83 2 5.54 2H1.12C0.5 2 0 2.5 0 3.12V4H8Z"
     fill="white"
     id="path1" />
  <path
     d="m 6.6289062,9.2597656 c -0.858521,0 -1.4003906,0.6796056 -1.4003906,1.7421874 0,1.070905 0.5422024,1.75 1.4003906,1.75 0.8498661,0 1.3964844,-0.679095 1.3964844,-1.75 0,-1.0625818 -0.5466183,-1.7421874 -1.3964844,-1.7421874 z"
     style="fill:#ffffff"
     id="path4" />
  <path
     d="m 0,5 v 7.880859 C 0,13.500859 0.49914124,14 1.1191406,14 H 14.880859 C 15.500859,14 16,13.500859 16,12.880859 V 6.1191406 C 16,5.4991412 15.500859,5 14.880859,5 Z m 3.4492188,3.5234375 h 0.00781 0.00195 c 0.00371,-2.097e-4 0.00801,0 0.011719,0 0.2486683,0 0.4492188,0.20055 0.4492188,0.4492188 0,0.2486677 -0.2005505,0.4511718 -0.4492188,0.4511718 -0.00433,0 -0.00806,-0.00195 -0.011719,-0.00195 h -0.00977 C 3.2005505,9.421875 3,9.221324 3,8.9726563 3,8.7239875 3.2005512,8.5234155 3.4492188,8.5234375 Z m 3.1796874,0.00781 c 1.3918098,0 2.2714844,0.9540606 2.2714844,2.470703 0,1.52896 -0.8796748,2.478516 -2.2714844,2.478516 -1.4001316,0 -2.2753906,-0.949223 -2.2753906,-2.478516 0,-1.5166424 0.8755918,-2.470703 2.2753906,-2.470703 z m 4.5156248,0 h 0.002 c 1.058254,0 1.752468,0.5705662 1.773438,1.4121094 h -0.816406 c -0.04161,-0.4457386 -0.414999,-0.7167969 -0.960938,-0.7167969 -0.541943,0 -0.910156,0.2678362 -0.910156,0.6679688 0,0.3165777 0.242529,0.5027207 0.830078,0.6445317 l 0.554688,0.125 C 12.583565,10.885101 13,11.28957 13,12.001953 c 0,0.908121 -0.730129,1.478516 -1.892578,1.478516 -1.099866,0 -1.824133,-0.54034 -1.857422,-1.423828 h 0.833984 c 0.04561,0.44141 0.48667,0.728515 1.074219,0.728515 0.5749,0 0.978516,-0.283461 0.978516,-0.683593 0,-0.345872 -0.245416,-0.546111 -0.84961,-0.683594 L 10.666016,11.267578 C 9.7825276,11.063516 9.3613281,10.640031 9.3613281,9.9609375 9.3613281,9.1067444 10.102921,8.53125 11.144531,8.53125 Z M 3.046875,9.8808594 H 3.875 V 13.402344 H 3.046875 Z"
     style="fill:#ffffff"
     id="path3" />
</svg>
