<?xml version="1.0" encoding="UTF-8" standalone="no"?>
<svg
   width="16"
   height="16"
   viewBox="0 0 16 16"
   fill="none"
   version="1.1"
   id="svg2"
   sodipodi:docname="ColumnClosed.svg"
   inkscape:version="1.3.2 (091e20e, 2023-11-25, custom)"
   xmlns:inkscape="http://www.inkscape.org/namespaces/inkscape"
   xmlns:sodipodi="http://sodipodi.sourceforge.net/DTD/sodipodi-0.dtd"
   xmlns="http://www.w3.org/2000/svg"
   xmlns:svg="http://www.w3.org/2000/svg">
  <defs
     id="defs2" />
  <sodipodi:namedview
     id="namedview2"
     pagecolor="#505050"
     bordercolor="#ffffff"
     borderopacity="1"
     inkscape:showpageshadow="0"
     inkscape:pageopacity="0"
     inkscape:pagecheckerboard="1"
     inkscape:deskcolor="#505050"
     inkscape:zoom="50.8125"
     inkscape:cx="7.9901599"
     inkscape:cy="8"
     inkscape:window-width="1920"
     inkscape:window-height="1009"
     inkscape:window-x="-8"
     inkscape:window-y="-8"
     inkscape:window-maximized="1"
     inkscape:current-layer="svg2" />
  <rect
     style="opacity:0.5;fill:#ffffff;stroke-opacity:0.4;fill-opacity:1"
     id="rect9"
     width="8.6986465"
     height="7.8130383"
     x="3.8573186"
     y="5.9040589" />
  <path
     d="M8 4L6.33 2.33C6.12 2.12 5.83 2 5.54 2H1.12C0.5 2 0 2.5 0 3.12V4H8Z"
     fill="white"
     id="path1" />
  <path
     d="M 5.3242187,9.359375 7.3945312,12.220703 6.515625,9.359375 Z"
     style="fill:#ffffff"
     id="path9" />
  <path
     d="M 7.1699219,9.359375 8,12.054688 8.8300781,9.359375 Z"
     style="fill:#ffffff"
     id="path8" />
  <path
     d="M 9.484375,9.359375 8.6054688,12.220703 10.675781,9.359375 Z"
     style="fill:#ffffff"
     id="path7" />
  <path
     d="M 9.0429688,7.1660156 9.4902344,8.7324219 H 10.783203 L 10.085938,7.3378906 C 10.032852,7.2317222 9.9253484,7.1660156 9.8066406,7.1660156 Z"
     style="fill:#ffffff"
     id="path6" />
  <path
     d="M 7.609375,7.1660156 7.1621094,8.7324219 H 8.8378906 L 8.390625,7.1660156 Z"
     style="fill:#ffffff"
     id="path5" />
  <path
     d="m 6.1933594,7.1660156 c -0.1186977,0 -0.2262143,0.065706 -0.2792969,0.171875 L 5.2167969,8.7324219 H 6.5097656 L 6.9570312,7.1660156 Z"
     style="fill:#ffffff"
     id="path4" />
  <path
     d="m 0,5 v 7.880859 C 0,13.500859 0.49914124,14 1.1191406,14 H 14.880859 C 15.500859,14 16,13.500859 16,12.880859 V 6.1191406 C 16,5.4991412 15.500859,5 14.880859,5 Z m 6.1933594,1.5390625 h 3.6132812 c 0.3561214,0 0.6805874,0.2010312 0.8398434,0.5195312 l 0.753907,1.5078126 c 0.156689,0.3134326 0.127386,0.686875 -0.07813,0.9707031 L 8.7617188,13.072266 c -0.375331,0.518325 -1.1481004,0.518325 -1.5234376,0 L 4.6777344,9.5371094 C 4.4722053,9.2532813 4.4428945,8.8798359 4.5996094,8.5664063 L 5.3535156,7.0585937 c 0.1592519,-0.3185 0.483751,-0.5195312 0.8398438,-0.5195312 z"
     style="fill:#ffffff"
     id="path3" />
</svg>
