<?xml version="1.0" encoding="UTF-8" standalone="no"?>
<svg
   width="16"
   height="16"
   viewBox="0 0 16 16"
   fill="none"
   version="1.1"
   id="svg2"
   sodipodi:docname="ColumnClosed.svg"
   inkscape:version="1.3.2 (091e20e, 2023-11-25, custom)"
   xmlns:inkscape="http://www.inkscape.org/namespaces/inkscape"
   xmlns:sodipodi="http://sodipodi.sourceforge.net/DTD/sodipodi-0.dtd"
   xmlns="http://www.w3.org/2000/svg"
   xmlns:svg="http://www.w3.org/2000/svg">
  <defs
     id="defs2" />
  <sodipodi:namedview
     id="namedview2"
     pagecolor="#505050"
     bordercolor="#ffffff"
     borderopacity="1"
     inkscape:showpageshadow="0"
     inkscape:pageopacity="0"
     inkscape:pagecheckerboard="1"
     inkscape:deskcolor="#505050"
     inkscape:zoom="50.8125"
     inkscape:cx="7.9901599"
     inkscape:cy="8"
     inkscape:window-width="1920"
     inkscape:window-height="1009"
     inkscape:window-x="-8"
     inkscape:window-y="-8"
     inkscape:window-maximized="1"
     inkscape:current-layer="svg2" />
  <rect
     style="opacity:0.5;fill:#ffffff;fill-opacity:1;stroke-opacity:0.4"
     id="rect7"
     width="11.296432"
     height="7.0061502"
     x="2.400984"
     y="6.7699876" />
  <path
     d="M8 4L6.33 2.33C6.12 2.12 5.83 2 5.54 2H1.12C0.5 2 0 2.5 0 3.12V4H8Z"
     fill="white"
     id="path1" />
  <path
     d="m 9.7910156,9.4472656 c -0.2048818,0 -0.3730468,0.1662119 -0.3730468,0.3710938 0,0.2048816 0.168165,0.3710936 0.3730468,0.3710936 0.2048819,0 0.3710934,-0.166178 0.3710934,-0.3710936 0,-0.2048819 -0.1662115,-0.3710938 -0.3710934,-0.3710938 z"
     style="fill:#ffffff"
     id="path7" />
  <path
     d="M 5.8261719,8.0878906 C 5.7170693,8.091876 5.6081272,8.1120108 5.5019531,8.1484375 5.2218188,8.2445653 4.9954359,8.4423852 4.8632812,8.7070313 L 3.7988281,11.265625 c -0.00263,0.0063 -0.00482,0.01145 -0.00781,0.01758 -0.1314813,0.268922 -0.1518591,0.574291 -0.054687,0.857422 0.097172,0.283131 0.2994372,0.511097 0.5683594,0.642578 0.2689222,0.131481 0.5723042,0.149906 0.8554687,0.05274 0.283131,-0.09717 0.51305,-0.297485 0.6445313,-0.566407 L 6.0566406,11.751953 C 6.1133409,11.636027 6.2323047,11.5625 6.3613281,11.5625 h 3.2773438 c 0.1290234,0 0.2480209,0.07353 0.3046875,0.189453 l 0.2519536,0.517578 c 0.131481,0.268889 0.3614,0.469235 0.644531,0.566407 0.283097,0.09714 0.586513,0.07875 0.855469,-0.05274 0.268888,-0.131481 0.471187,-0.359447 0.568359,-0.642578 0.09717,-0.283131 0.07679,-0.588533 -0.05469,-0.857422 -0.003,-0.0062 -0.0052,-0.01128 -0.0078,-0.01758 L 11.136719,8.7070313 C 11.004564,8.4423852 10.778181,8.2445653 10.498047,8.1484375 10.214916,8.0512322 9.9115676,8.0696906 9.6425781,8.2011719 9.5533863,8.2448082 9.4694806,8.2994432 9.3945313,8.3652344 9.3329152,8.4192747 9.2538614,8.4492188 9.171875,8.4492188 h -2.34375 c -0.081953,0 -0.1610402,-0.029944 -0.2226563,-0.083984 C 6.5305194,8.2994432 6.4466473,8.2448082 6.3574219,8.2011719 6.1893876,8.118975 6.0080095,8.0812484 5.8261719,8.0878906 Z m 0.3164062,0.6835938 c 0.5774066,0 1.046875,0.4694347 1.046875,1.046875 0,0.5774066 -0.4694684,1.0468746 -1.046875,1.0468746 -0.5774066,0 -1.046875,-0.469468 -1.046875,-1.0468746 0,-0.5774066 0.4694684,-1.046875 1.046875,-1.046875 z m 3.6484375,0 c 0.5774064,0 1.0468754,0.4694347 1.0468754,1.046875 0,0.5774066 -0.469469,1.0468746 -1.0468754,1.0468746 -0.5774066,0 -1.046875,-0.469468 -1.046875,-1.0468746 0,-0.5774066 0.4694684,-1.046875 1.046875,-1.046875 z"
     style="fill:#ffffff"
     id="path6" />
  <path
     d="m 6.1425781,9.4472656 c -0.2048818,0 -0.3710937,0.1662119 -0.3710937,0.3710938 0,0.2048816 0.1662119,0.3710936 0.3710937,0.3710936 0.2048819,0 0.3710938,-0.166178 0.3710938,-0.3710936 0,-0.2048819 -0.1662119,-0.3710938 -0.3710938,-0.3710938 z"
     style="fill:#ffffff"
     id="path5" />
  <path
     d="m 0,5 v 7.880859 C 0,13.500859 0.49914124,14 1.1191406,14 H 14.880859 C 15.500859,14 16,13.500859 16,12.880859 V 6.1191406 C 16,5.4991412 15.500859,5 14.880859,5 Z m 5.8027344,2.4121094 c 0.2914489,-0.010622 0.5821815,0.049907 0.8515625,0.1816406 0.1032658,0.050471 0.201218,0.110462 0.2929687,0.1796875 H 9.0527344 C 9.1444851,7.704212 9.2424709,7.6442213 9.3457031,7.59375 9.77678,7.3829422 10.26498,7.3520888 10.71875,7.5078125 c 0.453838,0.1557237 0.818523,0.4791131 1.029297,0.9101563 0.003,0.00616 0.0071,0.013235 0.0098,0.019531 l 1.0625,2.558594 c 0.206498,0.428652 0.236677,0.912844 0.08203,1.363281 -0.155758,0.453838 -0.479113,0.820476 -0.910156,1.03125 -0.249428,0.121986 -0.517346,0.18356 -0.78711,0.183594 -0.19633,0 -0.394759,-0.03399 -0.585937,-0.09961 C 10.165303,13.318852 9.8006179,12.995496 9.5898438,12.564453 L 9.4296875,12.238281 H 6.5703125 L 6.4101562,12.564453 C 6.1994158,12.995496 5.8346971,13.318852 5.3808594,13.474609 4.9271563,13.630333 4.438822,13.601433 4.0078125,13.390625 3.5767693,13.179885 3.2534136,12.813213 3.0976563,12.359375 2.9430773,11.908972 2.9731895,11.424746 3.1796875,10.996094 l 1.0625,-2.558594 c 0.00266,-0.00633 0.00677,-0.013403 0.00977,-0.019531 C 4.4626936,7.9869256 4.8273786,7.6635362 5.28125,7.5078125 5.4514265,7.4493909 5.627865,7.4184827 5.8027344,7.4121094 Z"
     style="fill:#ffffff"
     id="path4" />
</svg>
