<?xml version="1.0" encoding="UTF-8" standalone="no"?>
<svg
   width="16"
   height="16"
   viewBox="0 0 16 16"
   fill="none"
   version="1.1"
   id="svg2"
   sodipodi:docname="ColumnOpen.svg"
   inkscape:version="1.3.2 (091e20e, 2023-11-25, custom)"
   xmlns:inkscape="http://www.inkscape.org/namespaces/inkscape"
   xmlns:sodipodi="http://sodipodi.sourceforge.net/DTD/sodipodi-0.dtd"
   xmlns="http://www.w3.org/2000/svg"
   xmlns:svg="http://www.w3.org/2000/svg">
  <defs
     id="defs2" />
  <sodipodi:namedview
     id="namedview2"
     pagecolor="#505050"
     bordercolor="#ffffff"
     borderopacity="1"
     inkscape:showpageshadow="0"
     inkscape:pageopacity="0"
     inkscape:pagecheckerboard="1"
     inkscape:deskcolor="#505050"
     inkscape:zoom="44.239987"
     inkscape:cx="6.2160959"
     inkscape:cy="8.6234203"
     inkscape:window-width="1920"
     inkscape:window-height="1009"
     inkscape:window-x="-8"
     inkscape:window-y="-8"
     inkscape:window-maximized="1"
     inkscape:current-layer="svg2" />
  <rect
     style="opacity:0.5;fill:#ffffff;fill-opacity:1;stroke-opacity:0.4"
     id="rect7"
     width="8.2730589"
     height="4.3625693"
     x="4.1591334"
     y="9.4710693" />
  <path
     d="M14 7V5C14 4.44772 13.5523 4 13 4H8L6.28 2.28C6.1 2.1 5.86 2 5.6 2H0.96C0.43 2 0 2.43 0 2.96V13L4 7H14Z"
     fill="white"
     id="path1" />
  <path
     d="m 10.298828,11.136719 c -0.122929,0 -0.3070064,0.09973 -0.4101561,0.222656 -0.1031498,0.122929 -0.087773,0.222656 0.035156,0.222656 0.1229289,0 0.3069899,-0.09971 0.4101559,-0.222656 0.10315,-0.122929 0.08777,-0.222656 -0.03516,-0.222656 z"
     style="fill:#ffffff"
     id="path7" />
  <path
     d="m 8.6679688,10.322266 c -0.082478,-0.0054 -0.1796708,0.006 -0.2890625,0.03516 -0.2164771,0.05768 -0.4515311,0.17715 -0.6640626,0.335937 l -1.9277343,1.535157 c -0.00476,0.0038 -0.00879,0.0061 -0.013672,0.0098 -0.2142803,0.161354 -0.3786485,0.343794 -0.4628906,0.513672 -0.084242,0.169879 -0.07758,0.30783 0.017578,0.386719 0.095158,0.07889 0.2675074,0.08955 0.4863281,0.03125 0.2188005,-0.0583 0.4575948,-0.178491 0.671875,-0.339844 l 0.4121094,-0.310547 c 0.092384,-0.06956 0.1999297,-0.113281 0.2773437,-0.113281 h 1.9667969 c 0.077414,0 0.1122547,0.04373 0.087891,0.113281 l -0.109375,0.310547 c -0.056486,0.161333 -0.021347,0.281541 0.099609,0.339844 0.1209533,0.05828 0.3134466,0.04764 0.5410157,-0.03125 0.2275286,-0.07889 0.4632142,-0.21684 0.6640622,-0.386719 0.200848,-0.169878 0.341952,-0.352339 0.398438,-0.513672 0.0013,-0.0037 0.0042,-0.006 0.0059,-0.0098 l 0.648438,-1.535157 c 0.05394,-0.158787 0.01812,-0.27826 -0.101563,-0.335937 -0.120939,-0.05832 -0.311473,-0.04764 -0.539062,0.03125 -0.07549,0.02618 -0.154329,0.06014 -0.232422,0.09961 -0.06418,0.03242 -0.12659,0.05078 -0.175781,0.05078 H 9.0234375 c -0.049172,0 -0.082034,-0.01836 -0.091797,-0.05078 -0.011846,-0.03947 -0.03484,-0.07343 -0.066406,-0.09961 -0.04755,-0.03946 -0.1147881,-0.061 -0.1972656,-0.06641 z m -0.21875,0.408203 c 0.3464439,0 0.3922804,0.282442 0.1015625,0.628906 -0.290701,0.346444 -0.8098061,0.628906 -1.1562501,0.628906 -0.3464439,0 -0.3903103,-0.282462 -0.099609,-0.628906 0.290701,-0.346444 0.8078529,-0.628906 1.1542969,-0.628906 z m 2.1894532,0 c 0.346444,0 0.39228,0.282442 0.101562,0.628906 -0.290701,0.346444 -0.8098057,0.628906 -1.1562496,0.628906 -0.3464439,0 -0.3922635,-0.282462 -0.1015625,-0.628906 0.290701,-0.346444 0.8098061,-0.628906 1.1562501,-0.628906 z"
     style="fill:#ffffff"
     id="path6" />
  <path
     d="m 8.109375,11.136719 c -0.1229291,0 -0.3070065,0.09973 -0.4101563,0.222656 -0.1031497,0.122929 -0.087773,0.222656 0.035156,0.222656 0.1229291,0 0.3069895,-0.09971 0.4101563,-0.222656 0.1031497,-0.122929 0.087773,-0.222656 -0.035156,-0.222656 z"
     style="fill:#ffffff"
     id="path5" />
  <path
     d="M 4.8300781,8 0.50976562,14 H 12.310547 c 0.32,0 0.618828,-0.159688 0.798828,-0.429687 L 15.830078,9.5 C 16.260078,8.8600006 15.799296,8 15.029297,8 Z m 4.0996094,1.9160156 c 0.1802172,-0.00637 0.324616,0.030335 0.4199219,0.1093754 0.036549,0.03028 0.065739,0.06589 0.085937,0.107422 h 1.2617191 c 0.0899,-0.04154 0.180228,-0.07714 0.267578,-0.107422 0.364779,-0.126485 0.671373,-0.1442158 0.865234,-0.050782 0.193902,0.093435 0.250705,0.2862956 0.160156,0.5449216 -0.0013,0.0037 -0.0023,0.0079 -0.0039,0.01172 l -0.65039,1.535156 c -0.09191,0.257192 -0.317155,0.548097 -0.636719,0.81836 -0.321944,0.272302 -0.6997112,0.490723 -1.0644534,0.617187 -0.2110715,0.07319 -0.4045309,0.111308 -0.5664062,0.111328 -0.1177978,0 -0.2191128,-0.01922 -0.3007813,-0.05859 -0.193885,-0.09346 -0.2507047,-0.28825 -0.1601562,-0.546875 l 0.068359,-0.197266 H 6.9609375 L 6.7011719,13.007813 C 6.3577147,13.266438 5.9757202,13.461233 5.625,13.554688 5.2743776,13.648122 4.9962224,13.628438 4.84375,13.501953 4.6912235,13.375509 4.6813716,13.157068 4.8164062,12.884766 4.9504189,12.614524 5.2110731,12.323598 5.5507812,12.066406 L 7.4785156,10.53125 c 0.00478,-0.0038 0.00879,-0.008 0.013672,-0.01172 0.3434571,-0.258626 0.7254484,-0.451487 1.0761719,-0.5449216 0.1315188,-0.035053 0.2531978,-0.05477 0.3613281,-0.058594 z"
     style="fill:#ffffff"
     id="path4" />
</svg>
