<?xml version="1.0" encoding="UTF-8" standalone="no"?>
<svg
   width="16"
   height="16"
   viewBox="0 0 16 16"
   fill="none"
   version="1.1"
   id="svg2"
   sodipodi:docname="ColumnClosed.svg"
   inkscape:version="1.3.2 (091e20e, 2023-11-25, custom)"
   xmlns:inkscape="http://www.inkscape.org/namespaces/inkscape"
   xmlns:sodipodi="http://sodipodi.sourceforge.net/DTD/sodipodi-0.dtd"
   xmlns="http://www.w3.org/2000/svg"
   xmlns:svg="http://www.w3.org/2000/svg">
  <defs
     id="defs2" />
  <sodipodi:namedview
     id="namedview2"
     pagecolor="#505050"
     bordercolor="#ffffff"
     borderopacity="1"
     inkscape:showpageshadow="0"
     inkscape:pageopacity="0"
     inkscape:pagecheckerboard="1"
     inkscape:deskcolor="#505050"
     inkscape:zoom="50.8125"
     inkscape:cx="7.9901599"
     inkscape:cy="8"
     inkscape:window-width="1920"
     inkscape:window-height="1009"
     inkscape:window-x="-8"
     inkscape:window-y="-8"
     inkscape:window-maximized="1"
     inkscape:current-layer="svg2" />
  <rect
     style="opacity:0.5;fill:#ffffff;stroke-opacity:0.4;fill-opacity:1"
     id="rect5"
     width="8.2066422"
     height="7.5768757"
     x="4.0344405"
     y="6.1992621" />
  <path
     d="M8 4L6.33 2.33C6.12 2.12 5.83 2 5.54 2H1.12C0.5 2 0 2.5 0 3.12V4H8Z"
     fill="white"
     id="path1" />
  <path
     d="M 6.6835937,10.724609 V 11.75 h 1.0234375 z"
     style="fill:#ffffff"
     id="path5" />
  <path
     d="m 5.2832031,7.3457031 v 5.8046879 h 0.3496094 v -0.34961 h 0.3496094 v 0.34961 h 0.3496093 v -0.34961 h 0.3515625 v 0.34961 h 0.3496094 v -0.34961 h 0.3496094 v 0.34961 h 0.3496094 v -0.34961 h 0.3496094 v 0.34961 h 0.3515625 v -0.34961 h 0.3496093 v 0.34961 h 0.3496094 v -0.34961 h 0.3496094 v 0.34961 h 0.3496094 v -0.34961 h 0.3515627 v 0.34961 h 0.904297 z M 6.3320312,9.8808594 8.5527344,12.099609 H 6.3320312 Z"
     style="fill:#ffffff"
     id="path4" />
  <path
     d="m 0,5 v 7.880859 C 0,13.500859 0.49914124,14 1.1191406,14 H 14.880859 C 15.500859,14 16,13.500859 16,12.880859 V 6.1191406 C 16,5.4991412 15.500859,5 14.880859,5 Z m 4.9335937,1.5 7.0000003,7 H 4.9335937 Z"
     style="fill:#ffffff"
     id="path3" />
</svg>
