<?xml version="1.0" encoding="UTF-8" standalone="no"?>
<svg
   width="16"
   height="16"
   viewBox="0 0 16 16"
   fill="none"
   version="1.1"
   id="svg2"
   sodipodi:docname="ColumnOpen.svg"
   inkscape:version="1.3.2 (091e20e, 2023-11-25, custom)"
   xmlns:inkscape="http://www.inkscape.org/namespaces/inkscape"
   xmlns:sodipodi="http://sodipodi.sourceforge.net/DTD/sodipodi-0.dtd"
   xmlns="http://www.w3.org/2000/svg"
   xmlns:svg="http://www.w3.org/2000/svg">
  <defs
     id="defs2" />
  <sodipodi:namedview
     id="namedview2"
     pagecolor="#505050"
     bordercolor="#ffffff"
     borderopacity="1"
     inkscape:showpageshadow="0"
     inkscape:pageopacity="0"
     inkscape:pagecheckerboard="1"
     inkscape:deskcolor="#505050"
     inkscape:zoom="50.8125"
     inkscape:cx="7.9901599"
     inkscape:cy="8"
     inkscape:window-width="1920"
     inkscape:window-height="1009"
     inkscape:window-x="-8"
     inkscape:window-y="-8"
     inkscape:window-maximized="1"
     inkscape:current-layer="svg2" />
  <rect
     style="opacity:0.5;fill:#ffffff;stroke-width:1.0056;stroke-opacity:0.4;fill-opacity:1"
     id="rect5"
     width="5.98278"
     height="5.313653"
     x="5.0578108"
     y="8.5215254" />
  <path
     d="M14 7V5C14 4.44772 13.5523 4 13 4H8L6.28 2.28C6.1 2.1 5.86 2 5.6 2H0.96C0.43 2 0 2.43 0 2.96V13L4 7H14Z"
     fill="white"
     id="path1" />
  <path
     d="M 8.3886719,11.666016 7.7753906,12.398438 H 8.5058594 Z"
     style="fill:#ffffff"
     id="path5" />
  <path
     d="M 9.4140625,9.2519531 5.9355469,13.398438 h 0.25 l 0.2089843,-0.25 h 0.25 l -0.2089843,0.25 h 0.25 l 0.2089843,-0.25 h 0.25 l -0.2089843,0.25 h 0.25 l 0.2089843,-0.25 h 0.25 l -0.2089843,0.25 h 0.25 l 0.2089843,-0.25 h 0.2500001 l -0.2089844,0.25 h 0.25 l 0.2089844,-0.25 h 0.25 l -0.2089844,0.25 h 0.25 l 0.2089844,-0.25 h 0.25 l -0.2089844,0.25 h 0.25 l 0.2089844,-0.25 h 0.25 l -0.2089844,0.25 H 10.082031 Z M 8.6445313,11.0625 8.9003906,12.648438 H 7.3144531 Z"
     style="fill:#ffffff"
     id="path4" />
  <path
     d="M 4.8300781,8 0.50976562,14 H 12.310547 c 0.32,0 0.618828,-0.159688 0.798828,-0.429687 L 15.830078,9.5 C 16.260078,8.8600006 15.799296,8 15.029297,8 Z M 9.671875,8.6484375 10.476563,13.648438 H 5.4765625 Z"
     style="fill:#ffffff"
     id="path3" />
</svg>
