<svg width="104" height="104" xmlns="http://www.w3.org/2000/svg" fill="none">
 <defs>
  <linearGradient y2="1" x2="0.50152" y1="0" x1="0.50152" id="paint0_linear">
   <stop stop-color="#878787" offset="0.34926"/>
   <stop stop-color="#464646" offset="1"/>
  </linearGradient>
  <linearGradient y2="1" x2="0.50078" y1="0" x1="0.50078" id="paint1_linear">
   <stop stop-color="#BEBEBE" offset="0.34926"/>
   <stop stop-color="#464646" offset="1"/>
  </linearGradient>
  <linearGradient y2="0.72093" x2="0.5" y1="0" x1="0.5" id="paint2_linear">
   <stop stop-opacity="0.21" stop-color="#DAB277"/>
   <stop stop-opacity="0" offset="1"/>
  </linearGradient>
  <linearGradient y2="1" x2="0" y1="-0.03488" x1="0.70103" id="paint3_linear">
   <stop stop-color="#C5C5C5"/>
   <stop stop-color="white" offset="1"/>
  </linearGradient>
  <linearGradient y2="1" x2="0.5" y1="0" x1="0.5" id="paint4_linear">
   <stop stop-color="white"/>
   <stop stop-opacity="0" stop-color="white" offset="0.84496"/>
  </linearGradient>
 </defs>
 <g>
  <title>Layer 1</title>
  <path id="svg_1" fill="url(#paint0_linear)" d="m2.00004,20c0.00001,-4.4183 3.58173,-8 7.99996,-8l26.9744,0c2.3098,0 4.5069,0.9983 6.0261,2.7382l3.7293,4.2711c0.3989,0.4569 0.569,1.07 0.4624,1.6671l-2.4087,13.4885l-42.7835,0l0.00004,-14.1649z"/>
  <path id="svg_2" fill="url(#paint1_linear)" d="m2.00005,16.1237c0.00001,-2.2775 1.84625,-4.1237 4.12371,-4.1237l32.61204,0c1.1906,0 2.3231,0.5146 3.1062,1.4115l5.1936,5.948c0.2056,0.2355 0.2933,0.5515 0.2383,0.8593l-2.4904,13.9461l-42.7835,0l0.00005,-18.0412z"/>
  <path id="svg_3" fill="url(#paint2_linear)" d="m38.7358,12.5155l-32.61204,0c-1.99277,0 -3.60824,1.6154 -3.60824,3.6082l-0.00005,17.5258l41.83643,0l2.4146,-13.5214c0.0274,-0.1538 -0.0164,-0.3119 -0.1192,-0.4296l-5.1936,-5.948c-0.6852,-0.7848 -1.6761,-1.235 -2.7179,-1.235zm6.0477,21.6494l2.4904,-13.9461c0.055,-0.3078 -0.0327,-0.6238 -0.2383,-0.8593l-5.1936,-5.948c-0.7831,-0.8969 -1.9156,-1.4115 -3.1062,-1.4115l-32.61204,0c-2.27746,0 -4.1237,1.8462 -4.12371,4.1237l-0.00005,18.0412l42.7835,0z" clip-rule="evenodd" fill-rule="evenodd"/>
  <path id="svg_4" fill="url(#paint3_linear)" d="m2,29.5258c0,-1.1388 0.92312,-2.0619 2.06186,-2.0619l35.13144,0c1.2527,0 2.4375,-0.5694 3.2201,-1.5476l4.6379,-5.7974c0.1956,-0.2446 0.4918,-0.3869 0.805,-0.3869l50.02,0c2.2777,0 4.1237,1.8462 4.1237,4.1237l0,61.3402c0,0.5693 -0.462,1.0309 -1.031,1.0309l-97.93807,0c-0.56937,0 -1.03093,-0.4616 -1.03093,-1.0309l0,-55.6701z"/>
  <path id="svg_5" fill="url(#paint4_linear)" d="m101.485,85.1959l0,-61.3402c0,-1.9928 -1.6159,-3.6083 -3.6087,-3.6083l-50.02,0c-0.1566,0 -0.3047,0.0712 -0.4025,0.1935l-4.6379,5.7974c-0.8804,1.1005 -2.2133,1.7411 -3.6226,1.7411l-35.13144,0c-0.85405,0 -1.5464,0.6923 -1.5464,1.5464l0,55.6701c0,0.2847 0.23078,0.5154 0.51547,0.5154l97.93807,0c0.285,0 0.516,-0.2307 0.516,-0.5154zm-97.42314,-57.732c-1.13874,0 -2.06186,0.9231 -2.06186,2.0619l0,55.6701c0,0.5693 0.46156,1.0309 1.03093,1.0309l97.93807,0c0.569,0 1.031,-0.4616 1.031,-1.0309l0,-61.3402c0,-2.2775 -1.846,-4.1237 -4.1237,-4.1237l-50.02,0c-0.3132,0 -0.6094,0.1423 -0.805,0.3869l-4.6379,5.7974c-0.7826,0.9782 -1.9674,1.5476 -3.2201,1.5476l-35.13144,0z" clip-rule="evenodd" fill-rule="evenodd"/>
  <path id="svg_6" fill="#878787" d="m2,85l100,0l0,0c0,0.854 -0.692,1.5464 -1.546,1.5464l-96.90761,0c-0.85404,0 -1.54639,-0.6924 -1.54639,-1.5464l0,0z"/>
  <g>
   <g id="svg_10">
    <path transform="matrix(0.170068, 0, 0, 0.144928, 25, 10.1449)" stroke-miterlimit="4" stroke="rgb(100%,100%,100%)" stroke-width="14.4" fill="rgb(64.313725%,77.647059%,22.352941%)" fill-rule="nonzero" d="m377.81545,276.39787c0,-46.38633 -40.74656,-83.98594 -91.00219,-83.98594c-50.25563,0 -91.00219,37.59961 -91.00219,83.98594c0,46.38633 40.74656,84.01289 91.00219,84.01289c50.25563,0 91.00219,-37.62656 91.00219,-84.01289zm0,0"/>
    <path transform="matrix(0.170068, 0, 0, 0.144928, 25, 10.1449)" stroke-miterlimit="4" stroke="rgb(100%,100%,100%)" stroke-width="14.4" fill="rgb(64.313725%,77.647059%,22.352941%)" fill-rule="nonzero" d="m217.81513,255.40138l137.99626,0c12.15046,0 22.00406,9.86485 22.00406,21.99375l0,138c0,12.15586 -9.8536,22.02071 -22.00406,22.02071l-137.99626,0c-12.15046,0 -22.00406,-9.86485 -22.00406,-22.02071l0,-138c0,-12.1289 9.8536,-21.99375 22.00406,-21.99375zm0,0"/>
    <path transform="matrix(-0.148745, 0.0702623, 0.0824506, 0.126756, 25, 10.1449)" stroke-miterlimit="4" stroke="rgb(100%,100%,100%)" stroke-width="7.2" fill="rgb(64.313725%,77.647059%,22.352941%)" fill-rule="nonzero" d="m-116.224,258.93554c3.60155,0.00674 6.50678,2.92644 6.49581,6.50728l-0.00099,73.00594c0.00912,3.56971 -2.91745,6.48625 -6.48583,6.49195c-3.60155,-0.00673 -6.50678,-2.92643 -6.5159,-6.49614l0.00099,-73.00594c0.01097,-3.58085 2.91745,-6.48625 6.50592,-6.50309zm0,0"/>
    <path transform="matrix(-0.170068, 0, 0, 0.144928, 25, 10.1449)" stroke-miterlimit="4" stroke="rgb(100%,100%,100%)" stroke-width="7.2" fill="rgb(64.313725%,77.647059%,22.352941%)" fill-rule="nonzero" d="m-405.81435,276.39787c13.25296,0 24.00234,10.7543 24.00234,24.01523l0,84.98321c0,13.26093 -10.74938,24.01523 -24.00234,24.01523c-13.25297,0 -24.00235,-10.7543 -24.00235,-24.01523l0,-84.98321c0,-13.26093 10.74938,-24.01523 24.00235,-24.01523zm0,0"/>
    <path transform="matrix(-0.170068, 0, 0, 0.144928, 10.5442, 24.2029)" stroke-miterlimit="4" stroke="rgb(100%,100%,100%)" stroke-width="7.2" fill="rgb(64.313725%,77.647059%,22.352941%)" fill-rule="nonzero" d="m-405.80701,276.40217c13.25297,0 24.00234,10.75429 24.00234,24.01523l0,84.9832c0,13.26094 -10.74937,24.01524 -24.00234,24.01524c-13.25297,0 -24.00234,-10.7543 -24.00234,-24.01524l0,-84.9832c0,-13.26094 10.74937,-24.01523 24.00234,-24.01523zm0,0"/>
    <path transform="matrix(0.148745, 0.0702623, -0.0824506, 0.126756, 25, 10.1449)" stroke-miterlimit="4" stroke="rgb(100%,100%,100%)" stroke-width="7.2" fill="rgb(64.313725%,77.647059%,22.352941%)" fill-rule="nonzero" d="m385.48007,-19.16476c3.60155,0.00674 6.50678,2.92644 6.49581,6.50728l-0.00099,73.00594c0.00912,3.56971 -2.91745,6.48625 -6.48583,6.49195c-3.60155,-0.00673 -6.50678,-2.92643 -6.5159,-6.49614l0.00099,-73.00594c0.01097,-3.58085 2.91745,-6.48625 6.50592,-6.50309zm0,0"/>
    <path transform="matrix(0.170068, 0, 0, 0.144928, 25, 10.1449)" stroke-miterlimit="4" stroke="rgb(100%,100%,100%)" stroke-width="7.2" fill="rgb(64.313725%,77.647059%,22.352941%)" fill-rule="nonzero" d="m167.81217,276.39787c13.25296,0 24.00234,10.7543 24.00234,24.01523l0,84.98321c0,13.26093 -10.74938,24.01523 -24.00234,24.01523c-13.25297,0 -24.00235,-10.7543 -24.00235,-24.01523l0,-84.98321c0,-13.26093 10.74938,-24.01523 24.00235,-24.01523zm0,0"/>
    <path transform="matrix(0.170068, 0, 0, 0.144928, 39.4558, 24.2029)" stroke-miterlimit="4" stroke="rgb(100%,100%,100%)" stroke-width="7.2" fill="rgb(64.313725%,77.647059%,22.352941%)" fill-rule="nonzero" d="m167.81951,276.40217c13.25297,0 24.00234,10.75429 24.00234,24.01523l0,84.9832c0,13.26094 -10.74937,24.01524 -24.00234,24.01524c-13.25297,0 -24.00234,-10.7543 -24.00234,-24.01524l0,-84.9832c0,-13.26094 10.74937,-24.01523 24.00234,-24.01523zm0,0"/>
    <path fill="rgb(64.313725%,77.647059%,22.352941%)" fill-rule="nonzero" d="m89.25432,50.2027c0,-6.72266 -6.92968,-12.17188 -15.47656,-12.17188c-8.54687,0 -15.47656,5.44922 -15.47656,12.17188c0,6.72265 6.92969,12.17578 15.47656,12.17578c8.54688,0 15.47656,-5.45313 15.47656,-12.17578zm0,0"/>
    <path fill="rgb(64.313725%,77.647059%,22.352941%)" fill-rule="nonzero" d="m62.04339,47.15973l23.46875,0c2.0664,0 3.74218,1.42969 3.74218,3.1875l0,20c0,1.76172 -1.67578,3.19141 -3.74218,3.19141l-23.46875,0c-2.06641,0 -3.74219,-1.42969 -3.74219,-3.19141l0,-20c0,-1.75781 1.67578,-3.1875 3.74219,-3.1875zm0,0"/>
    <path transform="matrix(0.170068, 0, 0, 0.144928, 25, 10.1449)" stroke-miterlimit="4" stroke="rgb(100%,100%,100%)" stroke-width="7.2" fill="none" d="m191.81451,279.90178l189.9975,0"/>
    <path transform="matrix(0.170068, 0, 0, 0.144928, 25, 10.1449)" stroke-miterlimit="4" stroke="rgb(100%,100%,100%)" stroke-width="7.2" fill="rgb(100%,100%,100%)" fill-rule="nonzero" d="m248.82295,235.40217c0,2.21015 -1.79156,4.01601 -4.01953,4.01601c-2.205,0 -3.99657,-1.80586 -3.99657,-4.01601c0,-2.21016 1.79157,-3.98907 3.99657,-3.98907c2.22797,0 4.01953,1.77891 4.01953,3.98907zm0,0"/>
    <path transform="matrix(0.170068, 0, 0, 0.144928, 25, 10.1449)" stroke-miterlimit="4" stroke="rgb(100%,100%,100%)" stroke-width="7.2" fill="rgb(100%,100%,100%)" fill-rule="nonzero" d="m332.81967,235.40217c0,2.21015 -1.79157,4.01601 -3.99657,4.01601c-2.22797,0 -4.01953,-1.80586 -4.01953,-4.01601c0,-2.21016 1.79156,-3.98907 4.01953,-3.98907c2.205,0 3.99657,1.77891 3.99657,3.98907zm0,0"/>
   </g>
  </g>
 </g>
</svg>