<svg width="104" height="104" xmlns="http://www.w3.org/2000/svg" fill="none">
 <defs>
  <linearGradient y2="1" x2="0.50152" y1="0" x1="0.50152" id="paint0_linear">
   <stop stop-color="#878787" offset="0.34926"/>
   <stop stop-color="#464646" offset="1"/>
  </linearGradient>
  <linearGradient y2="1" x2="0.50078" y1="0" x1="0.50078" id="paint1_linear">
   <stop stop-color="#BEBEBE" offset="0.34926"/>
   <stop stop-color="#464646" offset="1"/>
  </linearGradient>
  <linearGradient y2="0.72093" x2="0.5" y1="0" x1="0.5" id="paint2_linear">
   <stop stop-opacity="0.21" stop-color="#DAB277"/>
   <stop stop-opacity="0" offset="1"/>
  </linearGradient>
  <linearGradient y2="1" x2="0" y1="-0.03488" x1="0.70103" id="paint3_linear">
   <stop stop-color="#C5C5C5"/>
   <stop stop-color="white" offset="1"/>
  </linearGradient>
  <linearGradient y2="1" x2="0.5" y1="0" x1="0.5" id="paint4_linear">
   <stop stop-color="white"/>
   <stop stop-opacity="0" stop-color="white" offset="0.84496"/>
  </linearGradient>
 </defs>
 <g>
  <title>Layer 1</title>
  <path id="svg_1" fill="url(#paint0_linear)" d="m2.00004,20c0.00001,-4.4183 3.58173,-8 7.99996,-8l26.9744,0c2.3098,0 4.5069,0.9983 6.0261,2.7382l3.7293,4.2711c0.3989,0.4569 0.569,1.07 0.4624,1.6671l-2.4087,13.4885l-42.7835,0l0.00004,-14.1649z"/>
  <path id="svg_2" fill="url(#paint1_linear)" d="m2.00005,16.1237c0.00001,-2.2775 1.84625,-4.1237 4.12371,-4.1237l32.61204,0c1.1906,0 2.3231,0.5146 3.1062,1.4115l5.1936,5.948c0.2056,0.2355 0.2933,0.5515 0.2383,0.8593l-2.4904,13.9461l-42.7835,0l0.00005,-18.0412z"/>
  <path id="svg_3" fill="url(#paint2_linear)" d="m38.7358,12.5155l-32.61204,0c-1.99277,0 -3.60824,1.6154 -3.60824,3.6082l-0.00005,17.5258l41.83643,0l2.4146,-13.5214c0.0274,-0.1538 -0.0164,-0.3119 -0.1192,-0.4296l-5.1936,-5.948c-0.6852,-0.7848 -1.6761,-1.235 -2.7179,-1.235zm6.0477,21.6494l2.4904,-13.9461c0.055,-0.3078 -0.0327,-0.6238 -0.2383,-0.8593l-5.1936,-5.948c-0.7831,-0.8969 -1.9156,-1.4115 -3.1062,-1.4115l-32.61204,0c-2.27746,0 -4.1237,1.8462 -4.12371,4.1237l-0.00005,18.0412l42.7835,0z" clip-rule="evenodd" fill-rule="evenodd"/>
  <path id="svg_4" fill="url(#paint3_linear)" d="m2,29.5258c0,-1.1388 0.92312,-2.0619 2.06186,-2.0619l35.13144,0c1.2527,0 2.4375,-0.5694 3.2201,-1.5476l4.6379,-5.7974c0.1956,-0.2446 0.4918,-0.3869 0.805,-0.3869l50.02,0c2.2777,0 4.1237,1.8462 4.1237,4.1237l0,61.3402c0,0.5693 -0.462,1.0309 -1.031,1.0309l-97.93807,0c-0.56937,0 -1.03093,-0.4616 -1.03093,-1.0309l0,-55.6701z"/>
  <path id="svg_5" fill="url(#paint4_linear)" d="m101.485,85.1959l0,-61.3402c0,-1.9928 -1.6159,-3.6083 -3.6087,-3.6083l-50.02,0c-0.1566,0 -0.3047,0.0712 -0.4025,0.1935l-4.6379,5.7974c-0.8804,1.1005 -2.2133,1.7411 -3.6226,1.7411l-35.13144,0c-0.85405,0 -1.5464,0.6923 -1.5464,1.5464l0,55.6701c0,0.2847 0.23078,0.5154 0.51547,0.5154l97.93807,0c0.285,0 0.516,-0.2307 0.516,-0.5154zm-97.42314,-57.732c-1.13874,0 -2.06186,0.9231 -2.06186,2.0619l0,55.6701c0,0.5693 0.46156,1.0309 1.03093,1.0309l97.93807,0c0.569,0 1.031,-0.4616 1.031,-1.0309l0,-61.3402c0,-2.2775 -1.846,-4.1237 -4.1237,-4.1237l-50.02,0c-0.3132,0 -0.6094,0.1423 -0.805,0.3869l-4.6379,5.7974c-0.7826,0.9782 -1.9674,1.5476 -3.2201,1.5476l-35.13144,0z" clip-rule="evenodd" fill-rule="evenodd"/>
  <path id="svg_6" fill="#878787" d="m2,85l100,0l0,0c0,0.854 -0.692,1.5464 -1.546,1.5464l-96.90761,0c-0.85404,0 -1.54639,-0.6924 -1.54639,-1.5464l0,0z"/>
  <g>
   <path fill-rule="evenodd" d="m472.65423,-908l5.547,52.865c13.923,131.766 -31.47,278.7 -121.238,393.146c-1.359,1.585 -2.944,2.717 -4.189,4.302c14.943,-0.566 29.885,-1.698 45.394,-0.226c67.694,2.83 245.646,28.64 362.016,202.176l31.583,47.205l-47.318,31.47c-40.752,25.81 -165.839,118.748 -164.141,293.077c1.924,220.742 179.876,301.68 200.14,310.17l48.562,20.377l-16.3,50.26c-13.472,43.47 -52.3,154.746 -128.144,267.947c-72.335,107.768 -162.217,242.024 -314.246,244.854c-71.769,1.811 -117.615,-19.81 -159.613,-38.262c-39.96,-17.66 -74.26,-32.828 -131.086,-32.828c-60.11,0 -96.448,15.735 -138.558,34.073c-39.507,17.207 -84.335,36.677 -146.482,39.28c-2.83,0.114 -5.66,0.114 -8.264,0.114c-147.274,0 -249.608,-150.897 -317.755,-251.306l-5.187,-7.735c-170.414,-256.903 -265.7,-675.19 -108.466,-953.793c86.598,-153.614 244.174,-250.627 411.258,-253.117c65.09,-0.906 124.974,19.47 176.594,39.846c8.83,-119.88 65.883,-231.722 125.087,-303.944c86.032,-105.503 230.59,-182.706 351.715,-187.687l53.091,-2.264zm-82.75,562.948c-73.694,-7.81 -144.331,21.282 -207.157,46.639c-47.432,19.13 -88.297,35.545 -126.22,35.545c-32.375,0 -66.335,-10.98 -101.654,-24.791l-5.433,-0.453l-0.227,-1.698c-7.471,-3.056 -14.942,-6 -22.64,-9.056c-49.583,-20.15 -104.033,-46.526 -158.481,-41.884c-127.125,1.924 -247.684,76.863 -314.586,195.61c-144.897,256.627 -23.658,647.057 108.787,842.215c70.41,103.805 145.123,206.365 227.76,201.724c40.978,-1.698 69.505,-14.15 105.843,-29.885c46.865,-20.49 100.07,-43.582 183.725,-43.582c80.712,0 131.765,22.527 176.82,42.45c37.242,16.527 68.146,30.451 111.729,28.64c86.372,-1.585 146.708,-81.731 222.326,-194.706c49.582,-73.92 81.278,-146.708 99.277,-195.271c-76.637,-45.96 -220.628,-162.443 -222.666,-389.411c-1.698,-180.103 97.24,-294.662 165.613,-352.168c-85.353,-92.598 -195.385,-107.88 -242.816,-109.918zm-23.093,-438.314c-76.524,20.49 -158.707,72.449 -211.233,136.86l-0.113,0.113c-46.525,56.827 -95.994,150.784 -101.088,247.457c84.674,-12.678 165.273,-71.769 213.61,-133.01c58.411,-74.374 93.39,-164.821 98.824,-251.42z"/>
  </g>
  <g>
   <path fill-rule="evenodd" d="m472.65423,-908l5.547,52.865c13.923,131.766 -31.47,278.7 -121.238,393.146c-1.359,1.585 -2.944,2.717 -4.189,4.302c14.943,-0.566 29.885,-1.698 45.394,-0.226c67.694,2.83 245.646,28.64 362.016,202.176l31.583,47.205l-47.318,31.47c-40.752,25.81 -165.839,118.748 -164.141,293.077c1.924,220.742 179.876,301.68 200.14,310.17l48.562,20.377l-16.3,50.26c-13.472,43.47 -52.3,154.746 -128.144,267.947c-72.335,107.768 -162.217,242.024 -314.246,244.854c-71.769,1.811 -117.615,-19.81 -159.613,-38.262c-39.96,-17.66 -74.26,-32.828 -131.086,-32.828c-60.11,0 -96.448,15.735 -138.558,34.073c-39.507,17.207 -84.335,36.677 -146.482,39.28c-2.83,0.114 -5.66,0.114 -8.264,0.114c-147.274,0 -249.608,-150.897 -317.755,-251.306l-5.187,-7.735c-170.414,-256.903 -265.7,-675.19 -108.466,-953.793c86.598,-153.614 244.174,-250.627 411.258,-253.117c65.09,-0.906 124.974,19.47 176.594,39.846c8.83,-119.88 65.883,-231.722 125.087,-303.944c86.032,-105.503 230.59,-182.706 351.715,-187.687l53.091,-2.264zm-82.75,562.948c-73.694,-7.81 -144.331,21.282 -207.157,46.639c-47.432,19.13 -88.297,35.545 -126.22,35.545c-32.375,0 -66.335,-10.98 -101.654,-24.791l-5.433,-0.453l-0.227,-1.698c-7.471,-3.056 -14.942,-6 -22.64,-9.056c-49.583,-20.15 -104.033,-46.526 -158.481,-41.884c-127.125,1.924 -247.684,76.863 -314.586,195.61c-144.897,256.627 -23.658,647.057 108.787,842.215c70.41,103.805 145.123,206.365 227.76,201.724c40.978,-1.698 69.505,-14.15 105.843,-29.885c46.865,-20.49 100.07,-43.582 183.725,-43.582c80.712,0 131.765,22.527 176.82,42.45c37.242,16.527 68.146,30.451 111.729,28.64c86.372,-1.585 146.708,-81.731 222.326,-194.706c49.582,-73.92 81.278,-146.708 99.277,-195.271c-76.637,-45.96 -220.628,-162.443 -222.666,-389.411c-1.698,-180.103 97.24,-294.662 165.613,-352.168c-85.353,-92.598 -195.385,-107.88 -242.816,-109.918zm-23.093,-438.314c-76.524,20.49 -158.707,72.449 -211.233,136.86l-0.113,0.113c-46.525,56.827 -95.994,150.784 -101.088,247.457c84.674,-12.678 165.273,-71.769 213.61,-133.01c58.411,-74.374 93.39,-164.821 98.824,-251.42z"/>
  </g>
  <g>
   <path fill-rule="evenodd" d="m472.65423,-908l5.547,52.865c13.923,131.766 -31.47,278.7 -121.238,393.146c-1.359,1.585 -2.944,2.717 -4.189,4.302c14.943,-0.566 29.885,-1.698 45.394,-0.226c67.694,2.83 245.646,28.64 362.016,202.176l31.583,47.205l-47.318,31.47c-40.752,25.81 -165.839,118.748 -164.141,293.077c1.924,220.742 179.876,301.68 200.14,310.17l48.562,20.377l-16.3,50.26c-13.472,43.47 -52.3,154.746 -128.144,267.947c-72.335,107.768 -162.217,242.024 -314.246,244.854c-71.769,1.811 -117.615,-19.81 -159.613,-38.262c-39.96,-17.66 -74.26,-32.828 -131.086,-32.828c-60.11,0 -96.448,15.735 -138.558,34.073c-39.507,17.207 -84.335,36.677 -146.482,39.28c-2.83,0.114 -5.66,0.114 -8.264,0.114c-147.274,0 -249.608,-150.897 -317.755,-251.306l-5.187,-7.735c-170.414,-256.903 -265.7,-675.19 -108.466,-953.793c86.598,-153.614 244.174,-250.627 411.258,-253.117c65.09,-0.906 124.974,19.47 176.594,39.846c8.83,-119.88 65.883,-231.722 125.087,-303.944c86.032,-105.503 230.59,-182.706 351.715,-187.687l53.091,-2.264zm-82.75,562.948c-73.694,-7.81 -144.331,21.282 -207.157,46.639c-47.432,19.13 -88.297,35.545 -126.22,35.545c-32.375,0 -66.335,-10.98 -101.654,-24.791l-5.433,-0.453l-0.227,-1.698c-7.471,-3.056 -14.942,-6 -22.64,-9.056c-49.583,-20.15 -104.033,-46.526 -158.481,-41.884c-127.125,1.924 -247.684,76.863 -314.586,195.61c-144.897,256.627 -23.658,647.057 108.787,842.215c70.41,103.805 145.123,206.365 227.76,201.724c40.978,-1.698 69.505,-14.15 105.843,-29.885c46.865,-20.49 100.07,-43.582 183.725,-43.582c80.712,0 131.765,22.527 176.82,42.45c37.242,16.527 68.146,30.451 111.729,28.64c86.372,-1.585 146.708,-81.731 222.326,-194.706c49.582,-73.92 81.278,-146.708 99.277,-195.271c-76.637,-45.96 -220.628,-162.443 -222.666,-389.411c-1.698,-180.103 97.24,-294.662 165.613,-352.168c-85.353,-92.598 -195.385,-107.88 -242.816,-109.918zm-23.093,-438.314c-76.524,20.49 -158.707,72.449 -211.233,136.86l-0.113,0.113c-46.525,56.827 -95.994,150.784 -101.088,247.457c84.674,-12.678 165.273,-71.769 213.61,-133.01c58.411,-74.374 93.39,-164.821 98.824,-251.42z"/>
  </g>
  <g stroke="null">
   <g stroke="null" id="svg_7">
    <path stroke="null" fill="rgb(0%,0%,0%)" fill-rule="evenodd" d="m65.15801,26.41293l0.15528,1.48441c0.39215,3.69784 -0.88169,7.82469 -3.40307,11.03563c-0.03685,0.04475 -0.08159,0.07632 -0.11844,0.12107c0.42111,-0.01579 0.83958,-0.04737 1.27648,-0.00526c1.90024,0.07895 6.89563,0.80273 10.16183,5.67441l0.88696,1.32649l-1.32912,0.88432c-1.14225,0.72378 -4.65586,3.33201 -4.60849,8.22738c0.05527,6.19553 5.05065,8.46951 5.61914,8.70638l1.36334,0.57376l-0.45796,1.41071c-0.37636,1.21858 -1.46861,4.34266 -3.59783,7.52202c-2.02921,3.02407 -4.55322,6.79298 -8.81955,6.87457c-2.01605,0.05001 -3.30306,-0.55796 -4.48216,-1.07382c-1.1212,-0.49743 -2.08448,-0.9238 -3.67942,-0.9238c-1.68706,0 -2.70824,0.44216 -3.88997,0.95802c-1.11067,0.48164 -2.36873,1.02908 -4.11369,1.10277c-0.07896,0.00263 -0.15792,0.00263 -0.23161,0.00263c-4.13474,0 -7.00617,-4.23739 -8.91957,-7.05617l-0.14739,-0.21582c-4.7822,-7.21145 -7.45886,-18.95507 -3.04513,-26.77714c2.43189,-4.31108 6.85615,-7.03511 11.54622,-7.10618c1.82919,-0.02369 3.50835,0.54744 4.95854,1.11857c0.2474,-3.36623 1.85024,-6.50347 3.51098,-8.53268c2.4161,-2.96091 6.47452,-5.12961 9.87496,-5.2691l1.48966,-0.06317zm-2.32398,15.80467c-2.06869,-0.22108 -4.05052,0.59745 -5.81391,1.30807c-1.33175,0.53691 -2.47927,0.9975 -3.54519,0.9975c-0.90801,0 -1.86077,-0.30793 -2.853,-0.69483l-0.15266,-0.01316l-0.00526,-0.04738c-0.21055,-0.08685 -0.42111,-0.16844 -0.63692,-0.25529c-1.39229,-0.56587 -2.9188,-1.30543 -4.44794,-1.17384c-3.56888,0.05263 -6.95353,2.15817 -8.83272,5.49018c-4.06632,7.20619 -0.66324,18.16549 3.05566,23.64515c1.97657,2.91353 4.07421,5.79285 6.39293,5.66389c1.15015,-0.05001 1.95025,-0.39742 2.97143,-0.83959c1.31596,-0.57639 2.80826,-1.22384 5.15856,-1.22384c2.26609,0 3.69785,0.63166 4.9638,1.19226c1.04487,0.46322 1.91341,0.85274 3.13725,0.80273c2.424,-0.04474 4.11632,-2.29503 6.24028,-5.46649c1.39229,-2.07395 2.28187,-4.11895 2.7872,-5.48229c-2.15028,-1.28964 -6.19291,-4.55848 -6.2508,-10.93035c-0.04738,-5.05592 2.7293,-8.27212 4.64796,-9.88812c-2.39504,-2.5977 -5.48491,-3.02671 -6.81666,-3.08461zm-0.64745,-12.30685c-2.14765,0.57639 -4.45584,2.03447 -5.92971,3.8426l-0.00263,0.00263c-1.30807,1.59757 -2.69508,4.23475 -2.83984,6.94826c2.37925,-0.35531 4.64007,-2.01605 5.99814,-3.73469c1.63968,-2.08711 2.62139,-4.62691 2.77404,-7.0588zm0,0"/>
   </g>
  </g>
 </g>
</svg>