<?xml version="1.0" encoding="UTF-8" standalone="no"?>
<svg
   width="16"
   height="16"
   viewBox="0 0 16 16"
   fill="none"
   version="1.1"
   id="svg2"
   sodipodi:docname="ColumnClosed.svg"
   inkscape:version="1.3.2 (091e20e, 2023-11-25, custom)"
   xmlns:inkscape="http://www.inkscape.org/namespaces/inkscape"
   xmlns:sodipodi="http://sodipodi.sourceforge.net/DTD/sodipodi-0.dtd"
   xmlns="http://www.w3.org/2000/svg"
   xmlns:svg="http://www.w3.org/2000/svg">
  <defs
     id="defs2" />
  <sodipodi:namedview
     id="namedview2"
     pagecolor="#505050"
     bordercolor="#ffffff"
     borderopacity="1"
     inkscape:showpageshadow="0"
     inkscape:pageopacity="0"
     inkscape:pagecheckerboard="1"
     inkscape:deskcolor="#505050"
     inkscape:zoom="50.8125"
     inkscape:cx="7.9901599"
     inkscape:cy="8"
     inkscape:window-width="1920"
     inkscape:window-height="1009"
     inkscape:window-x="-8"
     inkscape:window-y="-8"
     inkscape:window-maximized="1"
     inkscape:current-layer="svg2" />
  <rect
     style="opacity:0.5;fill:#ffffff;fill-opacity:1;stroke-opacity:0.4"
     id="rect6"
     width="7.2423124"
     height="7.4784746"
     x="4.3886838"
     y="6.2386222" />
  <path
     d="M8 4L6.33 2.33C6.12 2.12 5.83 2 5.54 2H1.12C0.5 2 0 2.5 0 3.12V4H8Z"
     fill="white"
     id="path1" />
  <path
     d="m 5.6015625,11.720703 v 0.261719 c 0,0.129051 0.082642,0.244349 0.2050781,0.285156 l 2.0976563,0.699219 c 0.061527,0.0205 0.1298793,0.0205 0.1914062,0 l 2.0976559,-0.699219 c 0.122449,-0.04081 0.205079,-0.156105 0.205079,-0.285156 v -0.261719 l -2.0937505,0.753906 c -0.1969335,0.07088 -0.4124115,0.07088 -0.609375,0 z"
     style="fill:#ffffff"
     id="path6" />
  <path
     d="M 7.6992187,9.9921875 5.7558594,10.693359 c -0.1044186,0.03757 -0.156241,0.130037 -0.15625,0.222657 h 0.00195 c 0,0.100176 0.058427,0.188145 0.1542969,0.222656 l 2.1425781,0.771484 c 0.065635,0.02363 0.1374905,0.02363 0.203125,0 l 2.1425785,-0.771484 c 0.09586,-0.03452 0.154297,-0.12248 0.154297,-0.222656 h 0.002 c 0,-0.09262 -0.05185,-0.185088 -0.15625,-0.222657 L 8.3007813,9.9921875 v 0.9238285 c 0,0.165599 -0.1351809,0.298828 -0.3007813,0.298828 -0.1656004,0 -0.3007813,-0.133229 -0.3007813,-0.298828 z"
     style="fill:#ffffff"
     id="path5" />
  <path
     d="m 8,7.0117187 c -0.3344992,0 -0.6054687,0.2709729 -0.6054688,0.6054688 0,0.3344967 0.2709696,0.6054688 0.6054688,0.6054688 0.3344992,0 0.6054688,-0.2709721 0.6054688,-0.6054688 C 8.6054688,7.2826916 8.3344992,7.0117187 8,7.0117187 Z"
     style="fill:#ffffff"
     id="path4" />
  <path
     d="m 0,5 v 7.880859 C 0,13.500859 0.49914124,14 1.1191406,14 H 14.880859 C 15.500859,14 16,13.500859 16,12.880859 V 6.1191406 C 16,5.4991412 15.500859,5 14.880859,5 Z m 8,1.4179687 c 0.6623717,0 1.1992187,0.5368351 1.1992188,1.1992188 0,0.5596712 -0.3838942,1.0297637 -0.9023438,1.1621094 0.0015,0.012188 0.00391,0.024509 0.00391,0.037109 v 0.5390625 c 0.00162,5.699e-4 0.00229,0.00135 0.00391,0.00195 l 2.1425785,0.7714841 c 0.388738,0.139964 0.5718,0.4956 0.550781,0.839844 v 1.013672 c 0,0.38718 -0.247934,0.731092 -0.615234,0.853516 l -2.0976567,0.699218 c -0.1846402,0.06153 -0.3856723,0.06153 -0.5703126,0 L 5.6171875,12.835938 C 5.2498771,12.713514 5.0019531,12.369602 5.0019531,11.982422 V 10.96875 C 4.9809494,10.624476 5.1640126,10.268841 5.5527344,10.128906 L 7.6953125,9.3574219 c 0.00162,-5.7e-4 0.00229,-0.00142 0.00391,-0.00195 V 8.8164063 c 0,-0.012593 0.00241,-0.024914 0.00391,-0.037109 C 7.1846831,8.6469512 6.8007812,8.1768587 6.8007812,7.6171875 6.8007812,6.9548038 7.3376161,6.4179687 8,6.4179687 Z"
     style="fill:#ffffff"
     id="path3" />
</svg>
