<?xml version="1.0" encoding="UTF-8" standalone="no"?>
<svg
   width="16"
   height="16"
   viewBox="0 0 16 16"
   fill="none"
   version="1.1"
   id="svg2"
   sodipodi:docname="ColumnOpen.svg"
   inkscape:version="1.3.2 (091e20e, 2023-11-25, custom)"
   xmlns:inkscape="http://www.inkscape.org/namespaces/inkscape"
   xmlns:sodipodi="http://sodipodi.sourceforge.net/DTD/sodipodi-0.dtd"
   xmlns="http://www.w3.org/2000/svg"
   xmlns:svg="http://www.w3.org/2000/svg">
  <defs
     id="defs2" />
  <sodipodi:namedview
     id="namedview2"
     pagecolor="#505050"
     bordercolor="#ffffff"
     borderopacity="1"
     inkscape:showpageshadow="0"
     inkscape:pageopacity="0"
     inkscape:pagecheckerboard="1"
     inkscape:deskcolor="#505050"
     inkscape:zoom="50.8125"
     inkscape:cx="6.9864699"
     inkscape:cy="8.6691267"
     inkscape:window-width="1920"
     inkscape:window-height="1009"
     inkscape:window-x="-8"
     inkscape:window-y="-8"
     inkscape:window-maximized="1"
     inkscape:current-layer="svg2" />
  <rect
     style="opacity:0.5;fill:#ffffff;fill-opacity:1;stroke-width:1.0058;stroke-opacity:0.4"
     id="rect6"
     width="6.8880687"
     height="5.1365314"
     x="5.1365314"
     y="8.7380075" />
  <path
     d="M14 7V5C14 4.44772 13.5523 4 13 4H8L6.28 2.28C6.1 2.1 5.86 2 5.6 2H0.96C0.43 2 0 2.43 0 2.96V13L4 7H14Z"
     fill="white"
     id="path1" />
  <path
     d="m 6.5234375,12.482422 -0.1464844,0.175781 c -0.072191,0.08603 -0.082238,0.162253 -0.023437,0.189453 l 1.0078125,0.466797 c 0.029548,0.01367 0.074465,0.01367 0.1269531,0 l 1.7910157,-0.466797 c 0.1044646,-0.02721 0.2227339,-0.103423 0.2949219,-0.189453 l 0.1484375,-0.175781 -1.8183594,0.501953 c -0.1709449,0.04726 -0.3145971,0.04726 -0.40625,0 z"
     style="fill:#ffffff"
     id="path6" />
  <path
     d="m 8.8886719,11.332031 -1.6875,0.464844 c -0.090632,0.02505 -0.1766953,0.08669 -0.2285157,0.148438 -0.056035,0.06678 -0.066093,0.127383 -0.021484,0.15039 l 0.9980468,0.513672 c 0.030541,0.01575 0.077794,0.01575 0.1347657,0 l 1.859375,-0.513672 c 0.083208,-0.02301 0.1724816,-0.08361 0.2285156,-0.15039 0.05181,-0.06174 0.07007,-0.123392 0.02148,-0.148438 L 9.2890625,11.332031 8.7714844,11.945313 c -0.092637,0.110399 -0.2567874,0.201171 -0.3671875,0.201171 -0.1104003,0 -0.1238879,-0.09077 -0.03125,-0.201171 z"
     style="fill:#ffffff"
     id="path5" />
  <path
     d="m 10.755859,9.34375 c -0.222998,0 -0.55507,0.1812994 -0.742187,0.4042969 -0.1871171,0.2229974 -0.1585493,0.4023441 0.06445,0.4023441 0.223,0 0.557024,-0.1793467 0.744141,-0.4023441 C 11.009382,9.5250494 10.978862,9.34375 10.755859,9.34375 Z"
     style="fill:#ffffff"
     id="path4" />
  <path
     d="M 4.8300781,8 0.50976562,14 H 12.310547 c 0.32,0 0.618828,-0.159688 0.798828,-0.429687 L 15.830078,9.5 C 16.260078,8.8600006 15.799296,8 15.029297,8 Z m 6.2578129,0.9472656 c 0.441581,0 0.499444,0.359192 0.128906,0.8007813 -0.313081,0.3731151 -0.830332,0.6852061 -1.2500001,0.7734371 -0.0058,0.0081 -0.012482,0.01699 -0.019531,0.02539 L 9.6445313,10.90625 c 0,0 0.00195,0.002 0.00195,0.002 l 0.9980466,0.513672 c 0.180865,0.09331 0.103067,0.33105 -0.103515,0.560547 l -0.5664066,0.675781 c -0.2165899,0.258122 -0.5733682,0.486744 -0.8867188,0.56836 L 7.296875,13.693359 c -0.1575133,0.04102 -0.2902326,0.04102 -0.3789063,0 L 5.9101562,13.226563 c -0.1763897,-0.08162 -0.1501833,-0.310238 0.066406,-0.56836 l 0.5683594,-0.675781 c 0.1785842,-0.229516 0.498511,-0.467258 0.8359375,-0.560547 l 1.859375,-0.513672 c 0.00141,-3.88e-4 0.00451,-0.0016 0.00586,-0.002 L 9.546875,10.546875 c 0.00705,-0.0084 0.013662,-0.01726 0.021484,-0.02539 C 9.296766,10.433254 9.3041072,10.121162 9.6171875,9.7480469 9.9877249,9.3064576 10.646302,8.9472656 11.087891,8.9472656 Z"
     style="fill:#ffffff"
     id="path3" />
</svg>
