<?xml version="1.0" encoding="UTF-8" standalone="no"?>
<svg
   width="16"
   height="16"
   viewBox="0 0 16 16"
   fill="none"
   version="1.1"
   id="svg2"
   sodipodi:docname="ColumnOpen.svg"
   inkscape:version="1.3.2 (091e20e, 2023-11-25, custom)"
   xmlns:inkscape="http://www.inkscape.org/namespaces/inkscape"
   xmlns:sodipodi="http://sodipodi.sourceforge.net/DTD/sodipodi-0.dtd"
   xmlns="http://www.w3.org/2000/svg"
   xmlns:svg="http://www.w3.org/2000/svg">
  <defs
     id="defs2" />
  <sodipodi:namedview
     id="namedview2"
     pagecolor="#505050"
     bordercolor="#ffffff"
     borderopacity="1"
     inkscape:showpageshadow="0"
     inkscape:pageopacity="0"
     inkscape:pagecheckerboard="1"
     inkscape:deskcolor="#505050"
     inkscape:zoom="101.625"
     inkscape:cx="7.4784748"
     inkscape:cy="10.937269"
     inkscape:window-width="1920"
     inkscape:window-height="1009"
     inkscape:window-x="-8"
     inkscape:window-y="-8"
     inkscape:window-maximized="1"
     inkscape:current-layer="svg2" />
  <rect
     style="opacity:0.5;fill:#ffffff;stroke-width:0.913487;stroke-opacity:0.4;fill-opacity:1"
     id="rect5"
     width="6.6420665"
     height="5.4612546"
     x="5.2644525"
     y="8.3837643" />
  <path
     d="M14 7V5C14 4.44772 13.5523 4 13 4H8L6.28 2.28C6.1 2.1 5.86 2 5.6 2H0.96C0.43 2 0 2.43 0 2.96V13L4 7H14Z"
     fill="white"
     id="path1" />
  <path
     d="m 9.0644531,11.150391 c -0.022811,-0.0024 -0.04921,-0.001 -0.078125,0.0039 -0.057798,0.0098 -0.1237802,0.03458 -0.1894531,0.07031 -0.065679,0.0357 -0.1282606,0.08133 -0.1796875,0.13086 -0.051422,0.04954 -0.08956,0.09983 -0.109375,0.146484 -0.019823,0.04665 -0.02039,0.08718 -0.00195,0.115235 0.018479,0.02804 0.054962,0.04297 0.1054687,0.04297 0.067718,0 0.1560827,-0.02633 0.2441407,-0.07422 0.088051,-0.04788 0.1697455,-0.113931 0.2265625,-0.181641 0.042379,-0.05051 0.068962,-0.09863 0.076172,-0.140625 0.00716,-0.04198 -0.00472,-0.07638 -0.035156,-0.0957 -0.015185,-0.0097 -0.035782,-0.01514 -0.058594,-0.01758 z"
     style="fill:#ffffff"
     id="path5" />
  <path
     d="m 10.433594,9.4902344 c -0.378784,0 -0.8424706,0.1118312 -1.3339846,0.3222656 -0.4915142,0.210434 -0.9891498,0.509432 -1.4277344,0.859375 -0.4385801,0.349933 -0.7992719,0.733963 -1.0371094,1.105469 -0.2378138,0.37148 -0.3419196,0.714586 -0.2988281,0.982422 0.043095,0.267834 0.2315363,0.449539 0.5410156,0.523437 0.3094972,0.0739 0.7257035,0.03558 1.1972657,-0.109375 0.4715915,-0.14496 0.9764898,-0.390157 1.4511718,-0.705078 0.4747014,-0.314946 0.8989614,-0.68567 1.2167974,-1.064453 0.426191,-0.507913 0.631998,-0.99436 0.574218,-1.353516 -0.05779,-0.3591559 -0.3749,-0.5605466 -0.882812,-0.5605466 z m 0.375,0.7910156 c 0.01081,0 0.02024,0.0021 0.02734,0.0059 0.014,0.0085 0.01641,0.02387 0.0078,0.04492 -0.0086,0.02105 -0.02842,0.04508 -0.05469,0.06641 l -1.5566411,1.246093 c -0.1055176,0.08549 -0.2203077,0.163506 -0.3398438,0.228516 -0.1195365,0.06499 -0.2416312,0.116611 -0.3554687,0.150391 l -1.6738282,0.509765 c -0.027076,0.0077 -0.050336,0.0077 -0.064453,0 -0.01412,-0.0085 -0.016382,-0.02584 -0.00781,-0.04687 0.00858,-0.02106 0.028385,-0.04311 0.054687,-0.06445 l 1.5566407,-1.246094 c 0.1055288,-0.08552 0.2202948,-0.163505 0.3398437,-0.228515 0.1195471,-0.065 0.239661,-0.116621 0.3535156,-0.150391 l 1.6757809,-0.509766 c 0.0135,-0.0038 0.0263,-0.0059 0.03711,-0.0059 z"
     style="fill:#ffffff"
     id="path4" />
  <path
     d="M 4.8300781,8 0.50976562,14 H 12.310547 c 0.32,0 0.618828,-0.159688 0.798828,-0.429687 L 15.830078,9.5 C 16.260078,8.8600006 15.799296,8 15.029297,8 Z m 5.9804689,1.1074219 c 0.275268,0.00697 0.50649,0.065116 0.677734,0.1738281 0.273967,0.1739404 0.384916,0.4677777 0.320313,0.845703 -0.06458,0.377925 -0.302205,0.822823 -0.683594,1.277344 -0.511444,0.609515 -1.2444793,1.193997 -2.0371094,1.625 -0.792634,0.430975 -1.5799372,0.673828 -2.1894531,0.673828 -0.4545194,0 -0.7851521,-0.13418 -0.9511719,-0.386719 -0.1660415,-0.252512 -0.1608371,-0.613283 0.017578,-1.033203 0.1784343,-0.419944 0.5216421,-0.880385 0.984375,-1.326172 0.4627408,-0.445797 1.0241478,-0.856333 1.6152344,-1.1777341 0.591087,-0.321399 1.1848761,-0.5402342 1.7050779,-0.6289063 0.195072,-0.033253 0.375855,-0.047152 0.541016,-0.042969 z"
     style="fill:#ffffff"
     id="path3" />
</svg>
