<?xml version="1.0" encoding="UTF-8" standalone="no"?>
<svg
   width="16"
   height="16"
   viewBox="0 0 16 16"
   fill="none"
   version="1.1"
   id="svg2"
   sodipodi:docname="ColumnClosed.svg"
   inkscape:version="1.3.2 (091e20e, 2023-11-25, custom)"
   xmlns:inkscape="http://www.inkscape.org/namespaces/inkscape"
   xmlns:sodipodi="http://sodipodi.sourceforge.net/DTD/sodipodi-0.dtd"
   xmlns="http://www.w3.org/2000/svg"
   xmlns:svg="http://www.w3.org/2000/svg">
  <defs
     id="defs2" />
  <sodipodi:namedview
     id="namedview2"
     pagecolor="#505050"
     bordercolor="#ffffff"
     borderopacity="1"
     inkscape:showpageshadow="0"
     inkscape:pageopacity="0"
     inkscape:pagecheckerboard="1"
     inkscape:deskcolor="#505050"
     inkscape:zoom="50.8125"
     inkscape:cx="6.7699877"
     inkscape:cy="8.3542435"
     inkscape:window-width="1920"
     inkscape:window-height="1009"
     inkscape:window-x="-8"
     inkscape:window-y="-8"
     inkscape:window-maximized="1"
     inkscape:current-layer="svg2" />
  <rect
     style="fill:#ffffff;stroke-opacity:0.4;opacity:0.5;fill-opacity:1"
     id="rect6"
     width="9.387454"
     height="7.6162362"
     x="3.4046741"
     y="6.1008611" />
  <path
     d="M8 4L6.33 2.33C6.12 2.12 5.83 2 5.54 2H1.12C0.5 2 0 2.5 0 3.12V4H8Z"
     fill="white"
     id="path1" />
  <path
     d="m 8.046875,9.6054688 c -0.037863,-0.00373 -0.077512,-0.00165 -0.1152344,0.00586 -0.075444,0.015011 -0.1448528,0.051063 -0.1992187,0.1054688 -0.054405,0.054367 -0.090458,0.1237748 -0.1054688,0.1992187 -0.015011,0.075444 -0.00795,0.1535594 0.021484,0.2246094 0.029439,0.07105 0.078644,0.133041 0.1425781,0.175781 0.063972,0.0427 0.139875,0.06445 0.2167969,0.06445 0.1031334,1e-6 0.2024747,-0.04036 0.2753906,-0.113281 0.072917,-0.07292 0.1132813,-0.172257 0.1132813,-0.2753905 0,-0.076922 -0.021753,-0.1528249 -0.064453,-0.2167969 C 8.2892924,9.7114569 8.2272999,9.6622515 8.15625,9.6328125 8.120725,9.6180885 8.0847382,9.6091961 8.046875,9.6054688 Z"
     style="fill:#ffffff"
     id="path5" />
  <path
     d="m 8,7.0839844 c -0.5768772,0 -1.1414502,0.1697475 -1.6210938,0.4902343 C 5.8992628,7.8947057 5.5254402,8.3518133 5.3046875,8.8847656 5.083931,9.4177062 5.0261353,10.002566 5.1386719,10.568359 5.2512123,11.134115 5.5295987,11.654595 5.9375,12.0625 c 0.4079052,0.407906 0.928374,0.686283 1.4941406,0.798828 0.5657941,0.112544 1.1506609,0.05475 1.6835938,-0.166015 C 9.6482064,12.474541 10.105299,12.10071 10.425781,11.621094 10.746264,11.141438 10.916016,10.576877 10.916016,10 10.916016,9.2264616 10.609471,8.4844834 10.0625,7.9375 9.5155282,7.3905205 8.7735382,7.0839844 8,7.0839844 Z m 1.5878906,1.1953125 c 0.016459,0 0.033138,0.00396 0.048828,0.00977 0.032394,0.012985 0.05842,0.038256 0.072266,0.070312 0.013853,0.03206 0.014707,0.069066 0.00195,0.1015625 L 8.9335938,10.357422 c -0.05145,0.1302 -0.1295418,0.248646 -0.2285157,0.347656 -0.099011,0.09897 -0.2174564,0.177066 -0.3476562,0.228516 l -1.8964844,0.777344 c -0.031368,0.01163 -0.066288,0.01163 -0.097656,0 -0.032413,-0.01299 -0.058425,-0.03827 -0.072266,-0.07031 -0.013842,-0.03208 -0.014724,-0.06905 -0.00195,-0.101562 L 7.0664062,9.6425781 C 7.1178407,9.5123394 7.1959304,9.3939329 7.2949219,9.2949219 7.393933,9.1959304 7.5123393,9.1178407 7.6425781,9.0664063 L 9.5390625,8.2890625 c 0.015693,-0.00581 0.032369,-0.00977 0.048828,-0.00977 z"
     style="fill:#ffffff"
     id="path4" />
  <path
     d="m 0,5 v 7.880859 C 0,13.500859 0.49914124,14 1.1191406,14 H 14.880859 C 15.500859,14 16,13.500859 16,12.880859 V 6.1191406 C 16,5.4991412 15.500859,5 14.880859,5 Z M 8.0859375,6.5019531 C 8.5140734,6.512571 8.940115,6.6000581 9.3398438,6.765625 9.9793707,7.030532 10.525585,7.4791169 10.910156,8.0546875 11.294767,8.630258 11.5,9.3077781 11.5,10 c 0,0.928277 -0.369025,1.818204 -1.025391,2.474609 C 9.8182038,13.130975 8.9282769,13.5 8,13.5 7.3077784,13.5 6.630258,13.294767 6.0546875,12.910156 5.4791169,12.525585 5.030532,11.979371 4.765625,11.339844 4.500718,10.700277 4.4313569,9.995328 4.5664062,9.3164063 4.7014516,8.637469 5.0359082,8.0148767 5.5253906,7.5253906 6.0148767,7.0359082 6.637469,6.7014516 7.3164062,6.5664062 7.5710018,6.5157627 7.829056,6.4955824 8.0859375,6.5019531 Z"
     style="fill:#ffffff"
     id="path3" />
</svg>
