<?xml version="1.0" encoding="UTF-8" standalone="no"?>
<svg
   width="16"
   height="16"
   viewBox="0 0 16 16"
   fill="none"
   version="1.1"
   id="svg2"
   sodipodi:docname="ColumnClosed.svg"
   inkscape:version="1.3.2 (091e20e, 2023-11-25, custom)"
   xmlns:inkscape="http://www.inkscape.org/namespaces/inkscape"
   xmlns:sodipodi="http://sodipodi.sourceforge.net/DTD/sodipodi-0.dtd"
   xmlns="http://www.w3.org/2000/svg"
   xmlns:svg="http://www.w3.org/2000/svg">
  <defs
     id="defs2" />
  <sodipodi:namedview
     id="namedview2"
     pagecolor="#505050"
     bordercolor="#ffffff"
     borderopacity="1"
     inkscape:showpageshadow="0"
     inkscape:pageopacity="0"
     inkscape:pagecheckerboard="1"
     inkscape:deskcolor="#505050"
     inkscape:zoom="50.812551"
     inkscape:cx="5.5301298"
     inkscape:cy="9.1611224"
     inkscape:window-width="1920"
     inkscape:window-height="1009"
     inkscape:window-x="-8"
     inkscape:window-y="-8"
     inkscape:window-maximized="1"
     inkscape:current-layer="svg2" />
  <rect
     style="opacity:0.5;fill:#ffffff;fill-opacity:1;stroke-opacity:0.4"
     id="rect4"
     width="6.3566971"
     height="7.8130302"
     x="4.9200444"
     y="5.9827738" />
  <path
     d="M8 4L6.33 2.33C6.12 2.12 5.83 2 5.54 2H1.12C0.5 2 0 2.5 0 3.12V4H8Z"
     fill="white"
     id="path1" />
  <path
     d="m 7.3007812,7.1992187 c -0.1931998,0 -0.3515625,0.1583627 -0.3515625,0.3515625 v 4.7539068 l 0.3085938,-0.308594 c 0.3853496,-0.3857 1.0399192,-0.444456 1.5117188,0.02734 l 0.28125,0.28125 V 7.5507812 c 0,-0.1931998 -0.1583627,-0.3515625 -0.3515625,-0.3515625 z"
     style="fill:#ffffff"
     id="path4" />
  <path
     d="m 0,5 v 7.880859 C 0,13.500859 0.49914124,14 1.1191406,14 H 14.880859 C 15.500859,14 16,13.500859 16,12.880859 V 6.1191406 C 16,5.4991412 15.500859,5 14.880859,5 Z M 6.9492187,6.5 H 9.0507813 C 9.4375309,6.5 9.75,6.8128191 9.75,7.1992187 v 5.9492193 c 0,0.311149 -0.3768065,0.468896 -0.5976562,0.248046 L 8.2480469,12.492188 c -0.1364999,-0.13685 -0.3595939,-0.13685 -0.4960938,0 L 6.8476562,13.396484 C 6.6268065,13.617334 6.25,13.459587 6.25,13.148438 V 7.1992187 C 6.25,6.8128191 6.5624691,6.5 6.9492187,6.5 Z"
     style="fill:#ffffff"
     id="path3" />
</svg>
