<?xml version="1.0" encoding="UTF-8" standalone="no"?>
<svg
   width="16"
   height="16"
   viewBox="0 0 16 16"
   fill="none"
   version="1.1"
   id="svg2"
   sodipodi:docname="ColumnOpen.svg"
   inkscape:version="1.3.2 (091e20e, 2023-11-25, custom)"
   xmlns:inkscape="http://www.inkscape.org/namespaces/inkscape"
   xmlns:sodipodi="http://sodipodi.sourceforge.net/DTD/sodipodi-0.dtd"
   xmlns="http://www.w3.org/2000/svg"
   xmlns:svg="http://www.w3.org/2000/svg">
  <defs
     id="defs2" />
  <sodipodi:namedview
     id="namedview2"
     pagecolor="#505050"
     bordercolor="#ffffff"
     borderopacity="1"
     inkscape:showpageshadow="0"
     inkscape:pageopacity="0"
     inkscape:pagecheckerboard="1"
     inkscape:deskcolor="#505050"
     inkscape:zoom="71.859727"
     inkscape:cx="7.7094643"
     inkscape:cy="10.096058"
     inkscape:window-width="1920"
     inkscape:window-height="1009"
     inkscape:window-x="-8"
     inkscape:window-y="-8"
     inkscape:window-maximized="1"
     inkscape:current-layer="svg2" />
  <rect
     style="opacity:0.5;fill:#ffffff;fill-opacity:1;stroke-opacity:0.4"
     id="rect4"
     width="7.1528244"
     height="5.4968204"
     x="5.3298283"
     y="8.3774328" />
  <path
     d="M14 7V5C14 4.44772 13.5523 4 13 4H8L6.28 2.28C6.1 2.1 5.86 2 5.6 2H0.96C0.43 2 0 2.43 0 2.96V13L4 7H14Z"
     fill="white"
     id="path1" />
  <path
     d="m 10.074219,9.2695313 c -0.1380001,0 -0.3451421,0.1120001 -0.4609377,0.25 l -2.8496094,3.3945317 0.4042968,-0.21875 c 0.5064215,-0.2755 1.0102298,-0.317469 1.0644532,0.01953 l 0.03125,0.199219 2.8496091,-3.3945317 c 0.115796,-0.1379999 0.09894,-0.25 -0.03906,-0.25 z"
     style="fill:#ffffff"
     id="path4" />
  <path
     d="M 4.8300781,8 0.50976562,14 H 12.310547 c 0.32,0 0.618828,-0.159688 0.798828,-0.429687 L 15.830078,9.5 C 16.260078,8.8600006 15.799296,8 15.029297,8 Z m 5.4140629,0.7695313 h 1.5 c 0.276249,0 0.311669,0.2240002 0.08008,0.5 L 8.2578125,13.517578 c -0.1864897,0.22225 -0.5488367,0.335484 -0.5742188,0.177735 L 7.578125,13.048828 c -0.015478,-0.09775 -0.1739938,-0.09775 -0.3535156,0 l -1.1875,0.646485 C 5.7469917,13.853062 5.5713228,13.739828 5.7578125,13.517578 L 9.3242188,9.2695313 c 0.2315912,-0.2759998 0.6436721,-0.5 0.9199222,-0.5 z"
     style="fill:#ffffff"
     id="path3" />
</svg>
