<?xml version="1.0" encoding="UTF-8" standalone="no"?>
<svg
   width="16"
   height="16"
   viewBox="0 0 16 16"
   fill="none"
   version="1.1"
   id="svg2"
   sodipodi:docname="ColumnOpen.svg"
   inkscape:version="1.3.2 (091e20e, 2023-11-25, custom)"
   xmlns:inkscape="http://www.inkscape.org/namespaces/inkscape"
   xmlns:sodipodi="http://sodipodi.sourceforge.net/DTD/sodipodi-0.dtd"
   xmlns="http://www.w3.org/2000/svg"
   xmlns:svg="http://www.w3.org/2000/svg">
  <defs
     id="defs2" />
  <sodipodi:namedview
     id="namedview2"
     pagecolor="#505050"
     bordercolor="#ffffff"
     borderopacity="1"
     inkscape:showpageshadow="0"
     inkscape:pageopacity="0"
     inkscape:pagecheckerboard="1"
     inkscape:deskcolor="#505050"
     inkscape:zoom="54.0625"
     inkscape:cx="5.6046243"
     inkscape:cy="10.774566"
     inkscape:window-width="2498"
     inkscape:window-height="1057"
     inkscape:window-x="-8"
     inkscape:window-y="-8"
     inkscape:window-maximized="1"
     inkscape:current-layer="svg2" />
  <rect
     style="fill:#ffffff;fill-opacity:1;stroke-width:8;stroke-linejoin:round;opacity:0.5"
     id="rect3"
     width="6.6774569"
     height="5.7710981"
     x="5.4381504"
     y="8.1202316" />
  <path
     d="M14 7V5C14 4.44772 13.5523 4 13 4H8L6.28 2.28C6.1 2.1 5.86 2 5.6 2H0.96C0.43 2 0 2.43 0 2.96V13L4 7H14Z"
     fill="white"
     id="path1" />
  <path
     d="M 4.8300781,8 0.50976562,14 H 12.310547 c 0.32,0 0.618828,-0.159688 0.798828,-0.429687 L 15.830078,9.5 C 16.260078,8.8600006 15.799296,8 15.029297,8 Z m 4.8554688,0.2734375 c 0.00865,0.00332 0.011563,0.012171 0.00977,0.025391 l -0.076172,0.4375 C 9.8962483,8.643462 10.152379,8.5976563 10.386719,8.5976563 c 0.23429,0 0.421515,0.045796 0.564453,0.1386718 l 0.554687,-0.4375 c 0.03455,-0.026439 0.06293,-0.0329 0.08203,-0.019531 0.01529,0.015504 0.005,0.037653 -0.03125,0.066406 l -0.550782,0.4335938 c 0.148488,0.1217496 0.215111,0.2920271 0.199219,0.5097656 -0.01603,0.2179081 -0.115793,0.4561995 -0.302734,0.7148435 H 7.8339844 C 8.0209693,9.7452021 8.2635633,9.5069207 8.5625,9.2890625 8.8613501,9.071324 9.1752154,8.9010465 9.5019531,8.7792969 l 0.078125,-0.4335938 c 0.00527,-0.028754 0.026638,-0.050832 0.064453,-0.066406 0.019157,-0.00665 0.032364,-0.00918 0.041016,-0.00586 z M 7.3359375,10.060547 c 0.092866,0 0.1476236,0.03135 0.1660156,0.09766 0.018392,0.06631 -0.00514,0.147358 -0.072266,0.240235 l -1.03125,1.425781 c -0.068802,0.09519 -0.1584092,0.17588 -0.2714844,0.242187 -0.1132121,0.06632 -0.2174988,0.09961 -0.3125,0.09961 -0.095071,0 -0.1515398,-0.0333 -0.1699219,-0.09961 -0.018385,-0.06632 0.00542,-0.146997 0.074219,-0.242187 L 6.75,10.398438 c 0.067121,-0.09287 0.1572518,-0.173928 0.2714844,-0.240235 0.1142325,-0.06631 0.2193821,-0.09766 0.3144531,-0.09766 z m 3.9863285,0 c 0.09501,0 0.150693,0.03251 0.169922,0.09766 0.01914,0.06527 -0.0056,0.145283 -0.07422,0.240235 l -1.029297,1.425781 c -0.0688,0.09519 -0.161141,0.17587 -0.275391,0.242187 -0.1142495,0.06632 -0.2194417,0.09961 -0.3144529,0.09961 -0.092816,0 -0.1476308,-0.03329 -0.1660156,-0.09961 -0.018385,-0.06632 0.00737,-0.146997 0.076172,-0.242187 l 1.0292966,-1.425781 c 0.06862,-0.09494 0.159955,-0.174965 0.273438,-0.240235 0.113406,-0.06515 0.217671,-0.09766 0.310547,-0.09766 z m -3.5605473,0.0625 h 3.0429693 l -1.5957036,2.208984 c -0.073561,0.101776 -0.1711662,0.187106 -0.2929688,0.257813 -0.1219422,0.07071 -0.2325703,0.105469 -0.3320312,0.105469 H 8.3359375 l -0.5449219,0.753906 c -0.068715,0.09507 -0.1591878,0.17587 -0.2734375,0.242187 -0.1142497,0.06632 -0.2194419,0.09961 -0.3144531,0.09961 -0.095081,0 -0.1515371,-0.03329 -0.1699219,-0.09961 -0.018385,-0.06632 0.00551,-0.147126 0.074219,-0.242187 L 7.6523437,12.695313 H 7.1953125 l -0.5449219,0.753906 c -0.068715,0.09507 -0.1591878,0.17587 -0.2734375,0.242187 -0.1142497,0.06632 -0.2194419,0.09961 -0.3144531,0.09961 -0.092806,0 -0.1495939,-0.03329 -0.1679688,-0.09961 -0.018375,-0.06632 0.00746,-0.147126 0.076172,-0.242187 L 6.5117187,12.695313 H 6.265625 c -0.1017157,0 -0.161979,-0.03476 -0.1816406,-0.105469 -0.019602,-0.07071 0.00846,-0.15798 0.082031,-0.259766 z"
     style="fill:#ffffff"
     id="path3" />
</svg>
