<?xml version="1.0" encoding="UTF-8" standalone="no"?>
<svg
   width="16"
   height="16"
   viewBox="0 0 16 16"
   fill="none"
   version="1.1"
   id="svg2"
   sodipodi:docname="ColumnClosed.svg"
   xml:space="preserve"
   inkscape:version="1.3.2 (091e20e, 2023-11-25, custom)"
   xmlns:inkscape="http://www.inkscape.org/namespaces/inkscape"
   xmlns:sodipodi="http://sodipodi.sourceforge.net/DTD/sodipodi-0.dtd"
   xmlns="http://www.w3.org/2000/svg"
   xmlns:svg="http://www.w3.org/2000/svg"><defs
     id="defs2" /><sodipodi:namedview
     id="namedview2"
     pagecolor="#505050"
     bordercolor="#ffffff"
     borderopacity="1"
     inkscape:showpageshadow="0"
     inkscape:pageopacity="0"
     inkscape:pagecheckerboard="1"
     inkscape:deskcolor="#505050"
     inkscape:zoom="54.0625"
     inkscape:cx="6.7976879"
     inkscape:cy="10.275145"
     inkscape:window-width="2498"
     inkscape:window-height="1057"
     inkscape:window-x="-8"
     inkscape:window-y="-8"
     inkscape:window-maximized="1"
     inkscape:current-layer="svg2" /><rect
     style="fill:#ffffff;stroke-width:8;stroke-linejoin:round;fill-opacity:1;opacity:0.5"
     id="rect5"
     width="8.5826588"
     height="8.5641623"
     x="3.4589596"
     y="5.345665" /><path
     d="M8 4L6.33 2.33C6.12 2.12 5.83 2 5.54 2H1.12C0.5 2 0 2.5 0 3.12V4H8Z"
     fill="white"
     id="path1" /><path
     d="m 0,5 v 7.880859 C 0,13.500859 0.49914124,14 1.1191406,14 H 14.880859 C 15.500859,14 16,13.500859 16,12.880859 V 6.1191406 C 16,5.4991412 15.500859,5 14.880859,5 Z m 6.6210937,0.7207031 c 0.027617,-0.00361 0.049536,0.00836 0.066406,0.037109 L 7.0332031,6.3925781 C 7.3376538,6.2579353 7.6602396,6.1914062 8,6.1914062 c 0.3396881,0 0.6622305,0.066515 0.9667969,0.2011719 L 9.3125,5.7578125 c 0.022392,-0.038333 0.054,-0.046727 0.095703,-0.027344 0.03842,0.022479 0.047797,0.054014 0.025391,0.095703 L 9.0917969,6.4550781 C 9.4346673,6.6315979 9.7089304,6.8776692 9.9140625,7.1933594 10.119166,7.5092955 10.220703,7.8554709 10.220703,8.2304688 H 5.7734375 c 0,-0.3750846 0.1034761,-0.7212457 0.3085937,-1.0371094 C 6.2871489,6.8776692 6.5620635,6.6315979 6.9082031,6.4550781 L 6.5683594,5.8261719 c -0.022494,-0.041689 -0.015069,-0.073123 0.023437,-0.095703 0.0104,-0.00482 0.020091,-0.00856 0.029297,-0.00977 z M 5.1113281,8.3125 c 0.1346428,0 0.2495525,0.046442 0.3457031,0.1425781 0.096151,0.096136 0.1445313,0.212999 0.1445313,0.3476563 v 2.0664066 c 0,0.138013 -0.04812,0.255426 -0.1425781,0.351562 -0.094646,0.09615 -0.2099179,0.144531 -0.3476563,0.144531 -0.1378396,0 -0.2554263,-0.04839 -0.3515625,-0.144531 -0.096151,-0.09615 -0.1445312,-0.213549 -0.1445312,-0.351562 V 8.8027344 c 0,-0.1346428 0.048395,-0.2515201 0.1445312,-0.3476563 C 4.8559018,8.3589419 4.9734885,8.3125 5.1113281,8.3125 Z m 5.7773439,0 c 0.137753,0 0.255412,0.046167 0.351562,0.140625 0.09615,0.094632 0.144532,0.2119433 0.144532,0.3496094 v 2.0664066 c 0,0.138013 -0.04838,0.255411 -0.144532,0.351562 -0.09615,0.09615 -0.213809,0.144531 -0.351562,0.144531 -0.134571,0 -0.249553,-0.04838 -0.345703,-0.144531 -0.09615,-0.09615 -0.144531,-0.213549 -0.144531,-0.351562 V 8.8027344 c 0,-0.1376516 0.04839,-0.2549776 0.144531,-0.3496094 0.09615,-0.094458 0.211046,-0.140625 0.345703,-0.140625 z m -5.0957033,0.089844 h 4.4140623 v 3.2031252 c 0,0.14756 -0.0518,0.272484 -0.154297,0.375 -0.1027031,0.102515 -0.226889,0.152344 -0.3710934,0.152344 h -0.359375 v 1.091796 c 0,0.13784 -0.048381,0.255412 -0.1445312,0.351563 -0.096151,0.09615 -0.2138097,0.144531 -0.3515625,0.144531 -0.1378541,0 -0.2534587,-0.04838 -0.3496094,-0.144531 -0.096151,-0.09615 -0.1445312,-0.213737 -0.1445312,-0.351563 V 12.132813 H 7.6679687 v 1.091796 c 10e-8,0.13784 -0.048381,0.255412 -0.1445312,0.351563 -0.096151,0.09615 -0.2118566,0.144531 -0.3496094,0.144531 -0.134556,0 -0.25152,-0.04838 -0.3476562,-0.144531 -0.096136,-0.09615 -0.1425782,-0.213737 -0.1425782,-0.351563 l -0.00586,-1.091796 H 6.3222656 c -0.1474735,-1e-6 -0.2723978,-0.04983 -0.375,-0.152344 -0.1025154,-0.102516 -0.1542969,-0.227426 -0.1542969,-0.375 z"
     style="fill:#ffffff"
     id="path5" /></svg>
