<?xml version="1.0" encoding="UTF-8" standalone="no"?>
<svg
   width="64"
   height="64"
   viewBox="0 0 64 64"
   fill="none"
   version="1.1"
   id="svg16"
   sodipodi:docname="Normal.svg"
   xml:space="preserve"
   inkscape:version="1.3.2 (091e20e, 2023-11-25, custom)"
   xmlns:inkscape="http://www.inkscape.org/namespaces/inkscape"
   xmlns:sodipodi="http://sodipodi.sourceforge.net/DTD/sodipodi-0.dtd"
   xmlns="http://www.w3.org/2000/svg"
   xmlns:svg="http://www.w3.org/2000/svg"><sodipodi:namedview
     id="namedview16"
     pagecolor="#505050"
     bordercolor="#ffffff"
     borderopacity="1"
     inkscape:showpageshadow="0"
     inkscape:pageopacity="0"
     inkscape:pagecheckerboard="1"
     inkscape:deskcolor="#505050"
     showguides="true"
     inkscape:zoom="11.313709"
     inkscape:cx="10.518213"
     inkscape:cy="36.018252"
     inkscape:window-width="2498"
     inkscape:window-height="1057"
     inkscape:window-x="-8"
     inkscape:window-y="-8"
     inkscape:window-maximized="1"
     inkscape:current-layer="g18" /><path
     d="M1.23074 12.3077C1.23074 9.58874 3.43488 7.38461 6.15379 7.38461H22.7534C24.1748 7.38461 25.5269 7.99895 26.4618 9.06966L28.7567 11.698C29.0022 11.9792 29.1069 12.3565 29.0413 12.7239L27.559 21.0246H1.23071L1.23074 12.3077Z"
     fill="url(#paint0_linear)"
     id="path1" /><path
     d="M1.23074 9.92227C1.23075 8.52074 2.3669 7.38461 3.76841 7.38461H23.8374C24.57 7.38461 25.267 7.70129 25.7489 8.25323L28.9449 11.9135C29.0714 12.0585 29.1254 12.2529 29.0916 12.4423L27.559 21.0246H1.23071L1.23074 9.92227Z"
     fill="url(#paint1_linear)"
     id="path2" /><path
     fill-rule="evenodd"
     clip-rule="evenodd"
     d="M23.8374 7.70184H3.76841C2.54209 7.70184 1.54796 8.69594 1.54796 9.92227L1.54793 20.7074H27.2934L28.7793 12.3865C28.7962 12.2919 28.7692 12.1946 28.706 12.1222L25.5099 8.46184C25.0883 7.97889 24.4785 7.70184 23.8374 7.70184ZM27.559 21.0246L29.0916 12.4423C29.1254 12.2529 29.0714 12.0585 28.9449 11.9135L25.7489 8.25323C25.267 7.70129 24.57 7.38461 23.8374 7.38461H3.76841C2.3669 7.38461 1.23075 8.52074 1.23074 9.92227L1.23071 21.0246H27.559Z"
     fill="url(#paint2_linear)"
     id="path3" /><path
     d="M1.23071 18.1697C1.23071 17.4689 1.79879 16.9009 2.49955 16.9009H24.1189C24.8898 16.9009 25.6189 16.5505 26.1005 15.9485L28.9546 12.3809C29.075 12.2304 29.2572 12.1428 29.45 12.1428H60.2315C61.6332 12.1428 62.7692 13.2789 62.7692 14.6805V52.4283C62.7692 52.7786 62.4849 53.0627 62.1347 53.0627H1.86513C1.51475 53.0627 1.23071 52.7786 1.23071 52.4283V18.1697Z"
     fill="url(#paint3_linear)"
     id="path4" /><path
     fill-rule="evenodd"
     clip-rule="evenodd"
     d="M 62.4522,52.4283 V 14.6805 c 0,-1.2264 -0.9944,-2.2205 -2.2207,-2.2205 H 29.45 c -0.0964,0 -0.1875,0.0438 -0.2477,0.119 l -2.8541,3.5677 c -0.5418,0.6772 -1.362,1.0714 -2.2293,1.0714 H 2.49955 c -0.52557,0 -0.95163,0.426 -0.95163,0.9516 v 34.2586 c 0,0.1752 0.14202,0.3171 0.31721,0.3171 H 62.1347 c 0.1754,0 0.3175,-0.1419 0.3175,-0.3171 z M 2.49955,16.9009 c -0.70076,0 -1.26884,0.568 -1.26884,1.2688 v 34.2586 c 0,0.3503 0.28404,0.6344 0.63442,0.6344 H 62.1347 c 0.3502,0 0.6345,-0.2841 0.6345,-0.6344 V 14.6805 c 0,-1.4016 -1.136,-2.5377 -2.5377,-2.5377 H 29.45 c -0.1928,0 -0.375,0.0876 -0.4954,0.2381 l -2.8541,3.5676 c -0.4816,0.602 -1.2107,0.9524 -1.9816,0.9524 z"
     fill="url(#paint4_linear)"
     id="path5"
     style="display:inline" /><path
     d="M1.23071 52.3077H62.7692C62.7692 52.8332 62.3433 53.2593 61.8178 53.2593H2.18234C1.65677 53.2593 1.23071 52.8332 1.23071 52.3077Z"
     fill="#878787"
     id="path6" /><g
     style="fill:#8a8a8a;fill-opacity:1"
     id="g18"
     transform="matrix(0.05678507,0,0,0.05678507,16.297565,19.110031)"><g
       id="g5"
       style="fill:#000000;fill-opacity:0.40000001">
	<g
   id="g4"
   style="fill:#000000;fill-opacity:0.40000001">
		<path
   d="m 76.774,179.141 c -9.529,0 -17.614,3.323 -24.26,9.969 -6.646,6.646 -9.97,14.621 -9.97,23.929 v 142.914 c 0,9.541 3.323,17.619 9.97,24.266 6.646,6.646 14.731,9.97 24.26,9.97 9.522,0 17.558,-3.323 24.101,-9.97 6.53,-6.646 9.804,-14.725 9.804,-24.266 V 213.039 c 0,-9.309 -3.323,-17.283 -9.97,-23.929 -6.647,-6.646 -14.627,-9.969 -23.935,-9.969 z"
   id="path1-5"
   style="fill:#000000;fill-opacity:0.40000001" />
		<path
   d="M 351.972,50.847 375.57,7.315 c 1.549,-2.882 0.998,-5.092 -1.658,-6.646 -2.883,-1.34 -5.098,-0.661 -6.646,1.989 l -23.928,43.88 c -21.055,-9.309 -43.324,-13.972 -66.807,-13.972 -23.488,0 -45.759,4.664 -66.806,13.972 L 185.796,2.658 c -1.555,-2.65 -3.77,-3.323 -6.646,-1.989 -2.662,1.561 -3.213,3.764 -1.658,6.646 l 23.599,43.532 c -23.929,12.203 -42.987,29.198 -57.167,51.022 -14.18,21.836 -21.273,45.698 -21.273,71.628 h 307.426 c 0,-25.924 -7.094,-49.787 -21.273,-71.628 C 394.623,80.045 375.675,63.05 351.972,50.847 Z m -136.433,63.318 c -2.552,2.558 -5.6,3.831 -9.143,3.831 -3.55,0 -6.536,-1.273 -8.972,-3.831 -2.436,-2.546 -3.654,-5.582 -3.654,-9.137 0,-3.543 1.218,-6.585 3.654,-9.137 2.436,-2.546 5.429,-3.819 8.972,-3.819 3.543,0 6.591,1.273 9.143,3.819 2.546,2.558 3.825,5.594 3.825,9.137 -0.007,3.549 -1.285,6.591 -3.825,9.137 z m 140.086,0 c -2.441,2.558 -5.434,3.831 -8.971,3.831 -3.551,0 -6.598,-1.273 -9.145,-3.831 -2.551,-2.546 -3.824,-5.582 -3.824,-9.137 0,-3.543 1.273,-6.585 3.824,-9.137 2.547,-2.546 5.594,-3.819 9.145,-3.819 3.543,0 6.529,1.273 8.971,3.819 2.438,2.558 3.654,5.594 3.654,9.137 0,3.549 -1.217,6.591 -3.654,9.137 z"
   id="path2-0"
   style="fill:#000000;fill-opacity:0.40000001" />
		<path
   d="m 123.971,406.804 c 0,10.202 3.543,18.838 10.63,25.925 7.093,7.087 15.729,10.63 25.924,10.63 h 24.596 l 0.337,75.454 c 0,9.528 3.323,17.619 9.969,24.266 6.646,6.647 14.627,9.97 23.929,9.97 9.523,0 17.613,-3.323 24.26,-9.97 6.647,-6.647 9.97,-14.737 9.97,-24.266 v -75.447 h 45.864 v 75.447 c 0,9.528 3.322,17.619 9.969,24.266 6.647,6.647 14.73,9.97 24.26,9.97 9.523,0 17.613,-3.323 24.26,-9.97 6.647,-6.647 9.969,-14.737 9.969,-24.266 v -75.447 h 24.928 c 9.969,0 18.494,-3.544 25.594,-10.631 7.086,-7.087 10.631,-15.723 10.631,-25.924 V 185.45 h -305.09 z"
   id="path3-2"
   style="fill:#000000;fill-opacity:0.40000001" />
		<path
   d="m 476.275,179.141 c -9.309,0 -17.283,3.274 -23.93,9.804 -6.646,6.542 -9.969,14.578 -9.969,24.094 v 142.914 c 0,9.541 3.322,17.619 9.969,24.266 6.647,6.647 14.627,9.97 23.93,9.97 9.523,0 17.613,-3.323 24.26,-9.97 6.647,-6.647 9.969,-14.725 9.969,-24.266 V 213.039 c 0,-9.517 -3.322,-17.552 -9.969,-24.094 -6.647,-6.53 -14.737,-9.804 -24.26,-9.804 z"
   id="path4-1"
   style="fill:#000000;fill-opacity:0.40000001" />
	</g>
</g></g><path
     d="m 31.5,21 c -1.5728,0 -3.1104,0.4736 -4.4182,1.3608 -1.3077,0.8872 -2.327,2.1482 -2.9289,3.6235 -0.6019,1.4754 -0.7594,3.0986 -0.4526,4.6648 0.3069,1.5663 1.0643,3.005 2.1765,4.1341 1.1121,1.1292 2.5291,1.8982 4.0717,2.2097 1.5427,0.3116 3.1417,0.1517 4.5948,-0.4594 1.4531,-0.6111 2.6951,-1.646 3.5689,-2.9737 0.8739,-1.3278 1.3403,-2.8889 1.3403,-4.4858 0,-2.1414 -0.8379,-4.1949 -2.3293,-5.7091 C 35.6319,21.8508 33.6091,21 31.5,21 Z M 17,53 H 46 C 45.7544,49.3274 44.0962,45.9002 41.3834,43.4581 38.6706,41.016 35.1207,39.7549 31.5,39.9471 27.8793,39.7549 24.3294,41.016 21.6166,43.4581 18.9038,45.9002 17.2456,49.3274 17,53 Z"
     fill="#000000"
     fill-opacity="0.4"
     id="path7"
     style="display:none" /><defs
     id="defs16"><linearGradient
       id="paint0_linear"
       x1="15.1879"
       y1="7.38461"
       x2="15.1879"
       y2="21.0246"
       gradientUnits="userSpaceOnUse"><stop
         offset="0.349258"
         stop-color="#878787"
         id="stop7" /><stop
         offset="1"
         stop-color="#464646"
         id="stop8" /></linearGradient><linearGradient
       id="paint1_linear"
       x1="15.1879"
       y1="7.38461"
       x2="15.1879"
       y2="21.0246"
       gradientUnits="userSpaceOnUse"><stop
         offset="0.349258"
         stop-color="#BEBEBE"
         id="stop9" /><stop
         offset="1"
         stop-color="#464646"
         id="stop10" /></linearGradient><linearGradient
       id="paint2_linear"
       x1="15.1661"
       y1="7.38461"
       x2="15.1661"
       y2="17.2181"
       gradientUnits="userSpaceOnUse"><stop
         stop-color="#DAB277"
         stop-opacity="0.21"
         id="stop11" /><stop
         offset="1"
         stop-opacity="0"
         id="stop12" /></linearGradient><linearGradient
       id="paint3_linear"
       x1="44.371"
       y1="10.7153"
       x2="1.23068"
       y2="53.0627"
       gradientUnits="userSpaceOnUse"><stop
         stop-color="#C5C5C5"
         id="stop13" /><stop
         offset="1"
         stop-color="white"
         id="stop14" /></linearGradient><linearGradient
       id="paint4_linear"
       x1="31.9999"
       y1="12.1428"
       x2="31.9999"
       y2="53.0627"
       gradientUnits="userSpaceOnUse"><stop
         stop-color="white"
         id="stop15" /><stop
         offset="0.84496"
         stop-color="white"
         stop-opacity="0"
         id="stop16" /></linearGradient></defs></svg>
