<?xml version="1.0" encoding="UTF-8" standalone="no"?>
<svg
   width="16"
   height="16"
   viewBox="0 0 16 16"
   fill="none"
   version="1.1"
   id="svg2"
   sodipodi:docname="ColumnOpen.svg"
   inkscape:version="1.3.2 (091e20e, 2023-11-25, custom)"
   xmlns:inkscape="http://www.inkscape.org/namespaces/inkscape"
   xmlns:sodipodi="http://sodipodi.sourceforge.net/DTD/sodipodi-0.dtd"
   xmlns="http://www.w3.org/2000/svg"
   xmlns:svg="http://www.w3.org/2000/svg">
  <defs
     id="defs2" />
  <sodipodi:namedview
     id="namedview2"
     pagecolor="#505050"
     bordercolor="#ffffff"
     borderopacity="1"
     inkscape:showpageshadow="0"
     inkscape:pageopacity="0"
     inkscape:pagecheckerboard="1"
     inkscape:deskcolor="#505050"
     inkscape:zoom="101.625"
     inkscape:cx="7.9803198"
     inkscape:cy="12.442804"
     inkscape:window-width="1920"
     inkscape:window-height="1009"
     inkscape:window-x="-8"
     inkscape:window-y="-8"
     inkscape:window-maximized="1"
     inkscape:current-layer="svg2" />
  <rect
     style="opacity:0.5;fill:#ffffff;stroke-width:0.984228;stroke-opacity:0.4"
     id="rect4"
     width="9.9902897"
     height="2.525959"
     x="2.8388641"
     y="11.1328" />
  <path
     d="M14 7V5C14 4.44772 13.5523 4 13 4H8L6.28 2.28C6.1 2.1 5.86 2 5.6 2H0.96C0.43 2 0 2.43 0 2.96V13L4 7H14Z"
     fill="white"
     id="path1" />
  <path
     d="M 4.8496094,11.996094 3.84375,13.197266 H 4.2421875 L 4.578125,12.796875 H 4.9785156 L 4.6425781,13.197266 H 5.0429687 L 5.3789062,12.796875 H 5.7792969 L 5.4433594,13.197266 H 5.84375 L 6.1777344,12.796875 H 6.578125 L 6.2421875,13.197266 H 6.6425781 L 6.9785156,12.796875 H 7.3789062 L 7.0429687,13.197266 H 7.4433594 L 7.7792969,12.796875 H 8.1777344 L 7.84375,13.197266 H 8.2421875 L 8.578125,12.796875 H 8.9785156 L 8.6425781,13.197266 H 9.0429688 L 9.3789063,12.796875 H 9.7792969 L 9.4433594,13.197266 H 9.84375 l 0.333984,-0.400391 h 0.400391 l -0.335937,0.400391 h 0.40039 0.400391 l 1.005859,-1.201172 z"
     style="fill:#ffffff"
     id="path4" />
  <path
     d="M 4.8300781,8 0.50976562,14 H 12.310547 c 0.32,0 0.618828,-0.159688 0.798828,-0.429687 L 15.830078,9.5 C 16.260078,8.8600006 15.799296,8 15.029297,8 Z m -0.044922,3.595703 h 7.9999998 l -1.677734,2 H 3.1074219 Z"
     style="fill:#ffffff"
     id="path3" />
</svg>
