<?xml version="1.0" encoding="UTF-8" standalone="no"?>
<svg
   width="16"
   height="16"
   viewBox="0 0 16 16"
   fill="none"
   version="1.1"
   id="svg2"
   sodipodi:docname="ColumnOpen.svg"
   inkscape:version="1.3.2 (091e20e, 2023-11-25, custom)"
   xmlns:inkscape="http://www.inkscape.org/namespaces/inkscape"
   xmlns:sodipodi="http://sodipodi.sourceforge.net/DTD/sodipodi-0.dtd"
   xmlns="http://www.w3.org/2000/svg"
   xmlns:svg="http://www.w3.org/2000/svg">
  <defs
     id="defs2" />
  <sodipodi:namedview
     id="namedview2"
     pagecolor="#505050"
     bordercolor="#ffffff"
     borderopacity="1"
     inkscape:showpageshadow="0"
     inkscape:pageopacity="0"
     inkscape:pagecheckerboard="1"
     inkscape:deskcolor="#505050"
     inkscape:zoom="35.929863"
     inkscape:cx="3.6459922"
     inkscape:cy="8.6696684"
     inkscape:window-width="1920"
     inkscape:window-height="1009"
     inkscape:window-x="-8"
     inkscape:window-y="-8"
     inkscape:window-maximized="1"
     inkscape:current-layer="svg2" />
  <rect
     style="opacity:0.5;fill:#ffffff;fill-opacity:1;stroke-width:0.988587;stroke-opacity:0.4"
     id="rect4"
     width="7.5879946"
     height="4.9560332"
     x="4.4169254"
     y="8.8954487" />
  <path
     d="M14 7V5C14 4.44772 13.5523 4 13 4H8L6.28 2.28C6.1 2.1 5.86 2 5.6 2H0.96C0.43 2 0 2.43 0 2.96V13L4 7H14Z"
     fill="white"
     id="path1" />
  <path
     d="m 9.9023438,10.669922 c -0.609581,0 -1.4892392,0.46054 -1.9648438,1.027344 -0.4756044,0.566803 -0.3673935,1.02539 0.2421875,1.02539 0.609581,0 1.4892397,-0.458587 1.9648435,-1.02539 0.475605,-0.566804 0.367394,-1.027344 -0.2421872,-1.027344 z M 9.640625,10.980469 c 0.425557,0 0.5039,0.321103 0.171875,0.716797 -0.3320256,0.395693 -0.9474902,0.716797 -1.3730469,0.716797 -0.4255564,-1e-6 -0.5019476,-0.321104 -0.1699218,-0.716797 0.3320258,-0.395694 0.9455373,-0.716797 1.3710937,-0.716797 z"
     style="fill:#ffffff"
     id="path4" />
  <path
     d="M 4.8300781,8 0.50976562,14 H 12.310547 c 0.32,0 0.618828,-0.159688 0.798828,-0.429687 L 15.830078,9.5 C 16.260078,8.8600006 15.799296,8 15.029297,8 Z m 5.6425779,1.1933594 a 0.21104794,0.47739085 56.380238 0 1 0.150391,0.066406 l 0.451172,0.9082034 c 0.382143,0.297063 0.28055,0.93958 -0.34375,1.683594 -0.8614732,1.026661 -2.3913064,1.859375 -3.417969,1.859375 -0.9294533,0 -1.1276672,-0.683268 -0.5175781,-1.574219 l -1.5332032,0.734375 a 0.24129126,0.5458013 56.380238 1 1 0.021484,-0.566406 l 2.5234375,-1.207032 c 0.074715,-0.05818 0.1509827,-0.115082 0.2285157,-0.169922 H 7.2558594 a 0.24154528,0.54637588 56.380238 1 1 0.6074218,-0.726562 h 1.5371094 c 0.1892291,-0.06845 0.3750891,-0.12081 0.5527344,-0.15625 L 9.8164063,9.765625 A 0.21104794,0.47739085 56.380238 0 1 10.472656,9.1933594 Z"
     style="fill:#ffffff"
     id="path3" />
</svg>
