<?xml version="1.0" encoding="UTF-8" standalone="no"?>
<svg
   width="16"
   height="16"
   viewBox="0 0 16 16"
   fill="none"
   version="1.1"
   id="svg2"
   sodipodi:docname="ColumnClosed.svg"
   inkscape:version="1.3.2 (091e20e, 2023-11-25, custom)"
   xmlns:inkscape="http://www.inkscape.org/namespaces/inkscape"
   xmlns:sodipodi="http://sodipodi.sourceforge.net/DTD/sodipodi-0.dtd"
   xmlns="http://www.w3.org/2000/svg"
   xmlns:svg="http://www.w3.org/2000/svg">
  <defs
     id="defs2" />
  <sodipodi:namedview
     id="namedview2"
     pagecolor="#505050"
     bordercolor="#ffffff"
     borderopacity="1"
     inkscape:showpageshadow="0"
     inkscape:pageopacity="0"
     inkscape:pagecheckerboard="1"
     inkscape:deskcolor="#505050"
     inkscape:zoom="50.8125"
     inkscape:cx="7.9901599"
     inkscape:cy="8"
     inkscape:window-width="1920"
     inkscape:window-height="1009"
     inkscape:window-x="-8"
     inkscape:window-y="-8"
     inkscape:window-maximized="1"
     inkscape:current-layer="svg2" />
  <rect
     style="opacity:0.5;fill:#ffffff;fill-opacity:1;stroke-opacity:0.4"
     id="rect4"
     width="9.4661751"
     height="7.8130383"
     x="2.5190651"
     y="5.8843789" />
  <path
     d="M8 4L6.33 2.33C6.12 2.12 5.83 2 5.54 2H1.12C0.5 2 0 2.5 0 3.12V4H8Z"
     fill="white"
     id="path1" />
  <path
     d="m 8.6894531,8.7988281 c -0.9370184,0 -1.6953125,0.7049106 -1.6953125,1.5761719 0,0.871264 0.7582941,1.580078 1.6953125,1.580078 0.9370187,0 1.6972659,-0.708814 1.6972659,-1.580078 0,-0.8712613 -0.7602472,-1.5761719 -1.6972659,-1.5761719 z m 0,0.4765625 C 9.3435982,9.2753906 9.875,9.7667612 9.875,10.375 c 0,0.60824 -0.5314018,1.103516 -1.1855469,1.103516 -0.654145,0 -1.1835937,-0.495276 -1.1835937,-1.103516 0,-0.6082388 0.5294487,-1.0996094 1.1835937,-1.0996094 z"
     style="fill:#ffffff"
     id="path4" />
  <path
     d="m 0,5 v 7.880859 C 0,13.500859 0.49914124,14 1.1191406,14 H 14.880859 C 15.500859,14 16,13.500859 16,12.880859 V 6.1191406 C 16,5.4991412 15.500859,5 14.880859,5 Z M 7.6621094,6.5273437 A 0.48791523,0.48791523 0 0 1 7.9804687,6.6289062 L 9.84375,8.0273438 c 0.970571,0.4566316 1.644531,1.4442308 1.644531,2.5878902 0,1.578137 -1.279285,2.857422 -2.8574216,2.857422 -1.4287109,0 -2.6128495,-1.050396 -2.8242188,-2.419922 L 4.3945312,12.181641 A 0.55789418,0.55789418 0 1 1 3.6972656,11.310547 L 6.0195312,9.4550781 C 6.0593366,9.3656463 6.1039038,9.2776643 6.1523437,9.1933594 H 4.953125 a 0.5576174,0.5576174 0 1 1 0,-1.1152344 H 7.3164062 C 7.5190005,7.9729181 7.7355377,7.8904173 7.9628906,7.8359375 L 7.3945312,7.4101562 A 0.48791523,0.48791523 0 0 1 7.6621094,6.5273437 Z"
     style="fill:#ffffff"
     id="path3" />
</svg>
