<?xml version="1.0" encoding="UTF-8" standalone="no"?>
<svg
   width="16"
   height="16"
   viewBox="0 0 16 16"
   fill="none"
   version="1.1"
   id="svg2"
   sodipodi:docname="ColumnOpen.svg"
   inkscape:version="1.3.2 (091e20e, 2023-11-25, custom)"
   xmlns:inkscape="http://www.inkscape.org/namespaces/inkscape"
   xmlns:sodipodi="http://sodipodi.sourceforge.net/DTD/sodipodi-0.dtd"
   xmlns="http://www.w3.org/2000/svg"
   xmlns:svg="http://www.w3.org/2000/svg">
  <defs
     id="defs2" />
  <sodipodi:namedview
     id="namedview2"
     pagecolor="#505050"
     bordercolor="#ffffff"
     borderopacity="1"
     inkscape:showpageshadow="0"
     inkscape:pageopacity="0"
     inkscape:pagecheckerboard="1"
     inkscape:deskcolor="#505050"
     inkscape:zoom="34.5625"
     inkscape:cx="7.3779385"
     inkscape:cy="10.835443"
     inkscape:window-width="1920"
     inkscape:window-height="1009"
     inkscape:window-x="-8"
     inkscape:window-y="-8"
     inkscape:window-maximized="1"
     inkscape:current-layer="svg2" />
  <rect
     style="fill:#ffffff;fill-opacity:1;stroke-width:0.962226;stroke-opacity:0.4;opacity:0.5"
     id="rect8"
     width="7.539062"
     height="5.0328612"
     x="4.7771268"
     y="8.7359018" />
  <path
     d="M14 7V5C14 4.44772 13.5523 4 13 4H8L6.28 2.28C6.1 2.1 5.86 2 5.6 2H0.96C0.43 2 0 2.43 0 2.96V13L4 7H14Z"
     fill="white"
     id="path1" />
  <path
     d="m 5.609375,13.103516 a 0.08408906,0.19020962 56.380238 0 0 -0.2324219,0.126953 0.08408906,0.19020962 56.380238 0 0 0.019531,0.125 h 3.7617187 a 0.08408906,0.19020962 56.380238 0 0 0.2324219,-0.125 0.08408906,0.19020962 56.380238 0 0 -0.019531,-0.126953 z"
     style="fill:#ffffff"
     id="path8" />
  <path
     d="M 10.042969,10.935547 8.4355469,12.849609 H 9.3476563 L 10.955078,10.935547 Z"
     style="fill:#ffffff"
     id="path7" />
  <path
     d="M 8.875,10.935547 7.2695312,12.849609 H 8.1816406 L 9.7890625,10.935547 Z"
     style="fill:#ffffff"
     id="path6" />
  <path
     d="M 7.7109375,10.935547 6.1054687,12.849609 H 7.015625 l 1.6074219,-1.914062 z"
     style="fill:#ffffff"
     id="path5" />
  <path
     d="m 10.646484,9.34375 a 0.07971643,0.18031872 56.380238 0 0 -0.07813,0.015625 L 7.7753906,10.445313 A 0.08492995,0.19211171 56.380238 0 0 7.6386719,10.683594 H 11.40625 a 0.08408906,0.19020962 56.380238 0 0 0.261719,-0.238281 L 10.693359,9.359375 A 0.07971643,0.18031872 56.380238 0 0 10.646484,9.34375 Z"
     style="fill:#ffffff"
     id="path4" />
  <path
     d="M 4.8300781,8 0.50976562,14 H 12.310547 c 0.32,0 0.618828,-0.159688 0.798828,-0.429687 L 15.830078,9.5 C 16.260078,8.8600006 15.799296,8 15.029297,8 Z m 5.9570309,1.0957031 a 0.25579893,0.57861766 56.380238 0 1 0.216797,0.044922 l 0.972657,1.085938 a 0.24688549,0.55845544 56.380238 0 1 -0.179688,0.425781 0.25075358,0.56720508 56.380238 0 1 -0.589844,0.283203 L 9.5976563,12.853516 A 0.25226719,0.57062885 56.380238 0 1 8.9472656,13.609375 H 5.1855469 a 0.25258259,0.57134228 56.380238 0 1 0.6367187,-0.759766 h 0.029297 L 7.4589844,10.935547 H 7.4257812 A 0.25008087,0.5656834 56.380238 0 1 7.296875,10.652344 0.24688549,0.55845544 56.380238 0 1 7.8300781,10.226563 L 10.626953,9.140625 a 0.25579893,0.57861766 56.380238 0 1 0.160156,-0.044922 z"
     style="fill:#ffffff"
     id="path3" />
</svg>
