<?xml version="1.0" encoding="UTF-8" standalone="no"?>
<svg
   width="16"
   height="16"
   viewBox="0 0 16 16"
   fill="none"
   version="1.1"
   id="svg2"
   sodipodi:docname="ColumnOpen.svg"
   inkscape:version="1.3.2 (091e20e, 2023-11-25, custom)"
   xmlns:inkscape="http://www.inkscape.org/namespaces/inkscape"
   xmlns:sodipodi="http://sodipodi.sourceforge.net/DTD/sodipodi-0.dtd"
   xmlns="http://www.w3.org/2000/svg"
   xmlns:svg="http://www.w3.org/2000/svg">
  <defs
     id="defs2" />
  <sodipodi:namedview
     id="namedview2"
     pagecolor="#505050"
     bordercolor="#ffffff"
     borderopacity="1"
     inkscape:showpageshadow="0"
     inkscape:pageopacity="0"
     inkscape:pagecheckerboard="1"
     inkscape:deskcolor="#505050"
     inkscape:zoom="64"
     inkscape:cx="6.1875"
     inkscape:cy="11.023437"
     inkscape:window-width="1920"
     inkscape:window-height="1009"
     inkscape:window-x="-8"
     inkscape:window-y="-8"
     inkscape:window-maximized="1"
     inkscape:current-layer="svg2" />
  <rect
     style="opacity:0.5;fill:#ffffff;fill-opacity:1;stroke-width:0.947171;stroke-opacity:0.4"
     id="rect4"
     width="7.6838746"
     height="5.2951508"
     x="5.0554276"
     y="8.4878922" />
  <path
     d="M14 7V5C14 4.44772 13.5523 4 13 4H8L6.28 2.28C6.1 2.1 5.86 2 5.6 2H0.96C0.43 2 0 2.43 0 2.96V13L4 7H14Z"
     fill="white"
     id="path1" />
  <path
     d="m 11.935547,9.0605469 c -0.117932,2.4e-6 -0.273808,0.044697 -0.439453,0.1347656 -0.331326,0.1801561 -0.575855,0.4722068 -0.546875,0.6523438 0.01588,0.098769 -0.08677,0.2023647 -0.203125,0.2656247 L 7.3339844,11.96875 c -0.1212943,0.06596 -0.2326879,0.07593 -0.2480469,-0.01953 -0.028936,-0.179717 -0.3218448,-0.179707 -0.6523438,0 -0.3313249,0.180156 -0.5758589,0.472207 -0.546875,0.652344 0.013752,0.08544 0.087274,0.133265 0.2070313,0.134765 0.093646,0.0012 0.1055777,0.07724 0.027344,0.171875 -0.1000505,0.121016 -0.1465684,0.234873 -0.1328125,0.320313 0.028987,0.180156 0.3191006,0.180137 0.6503907,0 0.3313227,-0.180165 0.5758609,-0.472198 0.546875,-0.652344 -0.015882,-0.09877 0.086772,-0.200412 0.203125,-0.263672 l 3.4121091,-1.855469 c 0.120605,-0.06558 0.2346,-0.0781 0.25,0.01758 0.02898,0.180157 0.321044,0.180137 0.652344,0 0.331341,-0.180165 0.575885,-0.470274 0.546875,-0.6503902 -0.01376,-0.085431 -0.08727,-0.1332557 -0.207031,-0.1347657 -0.09363,-0.00118 -0.107597,-0.079209 -0.0293,-0.1738281 0.100064,-0.1210351 0.148525,-0.2348736 0.134766,-0.3203125 -0.01449,-0.090078 -0.09496,-0.1347681 -0.212891,-0.1347656 z"
     style="fill:#ffffff"
     id="path4" />
  <path
     d="M 4.8300781,8 0.50976562,14 H 12.310547 c 0.32,0 0.618828,-0.159688 0.798828,-0.429687 L 15.830078,9.5 C 16.260078,8.8600006 15.799296,8 15.029297,8 Z m 7.3984379,0.7128906 c 0.20717,2.5e-6 0.347597,0.078096 0.373047,0.2363282 0.01817,0.1128711 -0.02415,0.2549023 -0.121094,0.4082031 0.126698,0.031699 0.204516,0.1058594 0.222656,0.21875 0.05094,0.3164839 -0.378981,0.8300491 -0.960937,1.1464841 -0.514816,0.279936 -0.977755,0.310244 -1.111329,0.09375 l -2.9921871,1.626953 c -0.048012,0.315215 -0.4441526,0.751319 -0.9589844,1.03125 -0.5820625,0.316504 -1.0955844,0.316465 -1.1464844,0 -0.018171,-0.112871 0.02612,-0.252959 0.1230469,-0.40625 -0.1266914,-0.0317 -0.2044963,-0.107831 -0.2226563,-0.220703 -0.050943,-0.316483 0.3789531,-0.828085 0.9609375,-1.144531 0.5148348,-0.279947 0.9757944,-0.312178 1.109375,-0.0957 L 10.496094,9.9804688 c 0.04646,-0.3100589 0.437189,-0.7464649 0.960937,-1.03125 0.291023,-0.1582421 0.564314,-0.2363306 0.771485,-0.2363282 z"
     style="fill:#ffffff"
     id="path3" />
</svg>
