<?xml version="1.0" encoding="UTF-8" standalone="no"?>
<svg
   width="16"
   height="16"
   viewBox="0 0 16 16"
   fill="none"
   version="1.1"
   id="svg2"
   sodipodi:docname="ColumnClosed.svg"
   inkscape:version="1.3.2 (091e20e, 2023-11-25, custom)"
   xmlns:inkscape="http://www.inkscape.org/namespaces/inkscape"
   xmlns:sodipodi="http://sodipodi.sourceforge.net/DTD/sodipodi-0.dtd"
   xmlns="http://www.w3.org/2000/svg"
   xmlns:svg="http://www.w3.org/2000/svg">
  <defs
     id="defs2" />
  <sodipodi:namedview
     id="namedview2"
     pagecolor="#505050"
     bordercolor="#ffffff"
     borderopacity="1"
     inkscape:showpageshadow="0"
     inkscape:pageopacity="0"
     inkscape:pagecheckerboard="1"
     inkscape:deskcolor="#505050"
     inkscape:zoom="50.8125"
     inkscape:cx="6.3763838"
     inkscape:cy="7.2718327"
     inkscape:window-width="1920"
     inkscape:window-height="1009"
     inkscape:window-x="-8"
     inkscape:window-y="-8"
     inkscape:window-maximized="1"
     inkscape:current-layer="svg2" />
  <rect
     style="opacity:0.5;fill:#ffffff;fill-opacity:1;stroke-opacity:0.4"
     id="rect4"
     width="9.2496929"
     height="8.4231243"
     x="3.5817959"
     y="5.4907751" />
  <path
     d="M8 4L6.33 2.33C6.12 2.12 5.83 2 5.54 2H1.12C0.5 2 0 2.5 0 3.12V4H8Z"
     fill="white"
     id="path1" />
  <path
     d="m 9.7011719,6.3613281 c -0.1886876,3.9e-6 -0.3773751,0.072688 -0.5214844,0.2167969 -0.28825,0.2882499 -0.2882188,0.75475 0,1.0429687 0.1580158,0.1580313 0.1305311,0.3226095 0.029297,0.4238282 l -2.96875,2.9667971 c -0.1055156,0.105551 -0.2691406,0.123438 -0.421875,-0.0293 -0.287578,-0.287548 -0.7573908,-0.287532 -1.0449219,0 -0.2882499,0.28825 -0.2882187,0.75475 0,1.042969 0.1367188,0.136698 0.3200468,0.212443 0.5136719,0.214843 0.1514061,0.0019 0.2735206,0.123984 0.2753906,0.275391 0.00239,0.193625 0.078125,0.376954 0.2148437,0.513672 0.2882501,0.288251 0.7547502,0.28822 1.0429688,0 0.2882343,-0.288265 0.2882343,-0.754735 0,-1.042969 C 6.6622967,11.828296 6.6897813,11.663719 6.7910156,11.5625 l 2.96875,-2.96875 C 9.8646872,8.4888125 10.028547,8.4719063 10.181641,8.625 c 0.288249,0.2882499 0.756687,0.2882187 1.044922,0 0.288261,-0.2882656 0.286281,-0.7547813 -0.002,-1.0429688 C 11.087891,7.4453435 10.906531,7.3676444 10.712891,7.3652344 10.561485,7.3633437 10.4394,7.2412344 10.4375,7.0898437 10.435109,6.8961875 10.359375,6.7148281 10.222656,6.578125 10.078531,6.434 9.8898594,6.3613242 9.7011719,6.3613281 Z"
     style="fill:#ffffff"
     id="path4" />
  <path
     d="m 0,5 v 7.880859 C 0,13.500859 0.49914124,14 1.1191406,14 H 14.880859 C 15.500859,14 16,13.500859 16,12.880859 V 6.1191406 C 16,5.4991412 15.500859,5 14.880859,5 Z m 9.7011719,0.8027344 c 0.3314761,3.9e-6 0.6628591,0.1276875 0.9160161,0.3808593 0.180608,0.1805937 0.300843,0.4051094 0.351562,0.6503907 0.245281,0.050719 0.47175,0.1728907 0.652344,0.3535156 0.506395,0.5063749 0.506297,1.3257345 0,1.8320313 -0.447875,0.4478904 -1.146016,0.4987343 -1.6503909,0.1523437 l -2.6035156,2.601563 c 0.346375,0.504343 0.2955624,1.2025 -0.1523438,1.65039 -0.5063748,0.506406 -1.3257187,0.506344 -1.8320312,0 C 5.2022034,13.243234 5.0819689,13.01675 5.03125,12.771484 4.7859844,12.720765 4.5595,12.600516 4.3789062,12.419922 c -0.506406,-0.506375 -0.5063279,-1.325719 0,-1.832031 0.4478906,-0.447923 1.1460314,-0.498704 1.6503907,-0.152344 L 8.6328125,7.8320312 C 8.290875,7.3359377 8.3295001,6.6392498 8.7851563,6.1835937 9.0383437,5.9304063 9.3696953,5.8027305 9.7011719,5.8027344 Z"
     style="fill:#ffffff"
     id="path3" />
</svg>
