<?xml version="1.0" encoding="UTF-8" standalone="no"?>
<svg
   width="16"
   height="16"
   viewBox="0 0 16 16"
   fill="none"
   version="1.1"
   id="svg2"
   sodipodi:docname="ColumnOpen.svg"
   inkscape:version="1.3.2 (091e20e, 2023-11-25, custom)"
   xmlns:inkscape="http://www.inkscape.org/namespaces/inkscape"
   xmlns:sodipodi="http://sodipodi.sourceforge.net/DTD/sodipodi-0.dtd"
   xmlns="http://www.w3.org/2000/svg"
   xmlns:svg="http://www.w3.org/2000/svg">
  <defs
     id="defs2" />
  <sodipodi:namedview
     id="namedview2"
     pagecolor="#505050"
     bordercolor="#ffffff"
     borderopacity="1"
     inkscape:showpageshadow="0"
     inkscape:pageopacity="0"
     inkscape:pagecheckerboard="1"
     inkscape:deskcolor="#505050"
     inkscape:zoom="101.625"
     inkscape:cx="7.9065191"
     inkscape:cy="11.094711"
     inkscape:window-width="1920"
     inkscape:window-height="1009"
     inkscape:window-x="-8"
     inkscape:window-y="-8"
     inkscape:window-maximized="1"
     inkscape:current-layer="svg2" />
  <rect
     style="opacity:0.5;fill:#ffffff;stroke:#ffffff"
     id="rect5"
     width="6.3735285"
     height="4.5366163"
     x="5.1016979"
     y="8.9062405" />
  <path
     d="M14 7V5C14 4.44772 13.5523 4 13 4H8L6.28 2.28C6.1 2.1 5.86 2 5.6 2H0.96C0.43 2 0 2.43 0 2.96V13L4 7H14Z"
     fill="white"
     id="path1" />
  <path
     d="M 6.9882812,11.679688 C 6.8114309,11.701407 6.589632,11.7446 6.3847656,11.826172 6.1762438,11.909192 6.0349137,12.009306 5.9414062,12.150391 L 5.453125,12.886719 c -0.093507,0.141085 -0.084799,0.241196 0.013672,0.324219 0.096735,0.08157 0.2621033,0.124758 0.4101562,0.146484 z"
     style="fill:#ffffff"
     id="path5" />
  <path
     d="m 9.9316406,11.679688 -1.1132812,1.677734 c 0.1768404,-0.02172 0.4006091,-0.06491 0.6054687,-0.146484 0.2085406,-0.08302 0.3498531,-0.183134 0.4433594,-0.324219 l 0.4882815,-0.736328 c 0.09351,-0.141085 0.0848,-0.241197 -0.01367,-0.324219 -0.09673,-0.08157 -0.262113,-0.124759 -0.4101564,-0.146484 z"
     style="fill:#ffffff"
     id="path4" />
  <path
     d="M 4.8300781,8 0.50976562,14 H 12.310547 c 0.32,0 0.618828,-0.159688 0.798828,-0.429687 L 15.830078,9.5 C 16.260078,8.8600006 15.799296,8 15.029297,8 Z m 5.7558599,0.4726563 c 0.633091,0 0.98384,0.1862024 1.130859,0.4824218 0.14536,0.2928429 0.08187,0.6765533 -0.05273,1.0429688 -0.134582,0.3663971 -0.344816,0.7274941 -0.519532,0.9941411 -0.0879,0.134147 -0.168068,0.246826 -0.226562,0.326171 -0.02269,0.03074 -0.04305,0.05577 -0.05859,0.07617 l 0.002,0.002 c 0.159058,0.134148 0.238695,0.370179 -0.01563,0.753907 l -0.488281,0.736328 C 10.103087,13.270451 9.7079667,13.508432 9.3710938,13.642578 9.0434915,13.773015 8.728069,13.824803 8.5234375,13.847656 8.2026095,13.88343 8.1406696,13.642107 8.3164063,13.376953 L 9.453125,11.660156 c 0.1757347,-0.265151 0.55864,-0.506478 0.832031,-0.470703 0.06227,0.0082 0.133821,0.0191 0.207032,0.03711 0.045,-0.0625 0.09897,-0.140067 0.158203,-0.230469 0.156621,-0.239064 0.338075,-0.551483 0.451172,-0.859375 0.113073,-0.3078642 0.154477,-0.5976766 0.04883,-0.8105471 -0.103962,-0.209494 -0.359043,-0.3632813 -0.890625,-0.3632813 -0.5315836,0 -0.9855204,0.1537873 -1.3671879,0.3632813 -0.3878233,0.2128705 -0.7342905,0.5026829 -1.0292969,0.8105471 -0.2950294,0.307892 -0.5272423,0.620311 -0.6875,0.859375 -0.060591,0.09039 -0.1105889,0.167968 -0.1484375,0.230469 0.097099,-0.01801 0.1847147,-0.02896 0.2578125,-0.03711 0.3208143,-0.03577 0.3827673,0.205552 0.2070313,0.470703 L 6.3554687,13.376953 C 6.1797133,13.642107 5.7968344,13.883431 5.5234375,13.847656 5.3490821,13.824808 5.1019748,13.773025 4.9472656,13.642578 4.7882189,13.50843 4.7085656,13.270449 4.9628906,12.886719 L 5.4511719,12.150391 C 5.7054975,11.766663 6.1006368,11.530631 6.4375,11.396484 v -0.002 c 0.011503,-0.02043 0.026838,-0.04543 0.044922,-0.07617 C 6.529076,11.239024 6.5975736,11.126334 6.6875,10.992188 6.86625,10.725535 7.1352387,10.364444 7.4863281,9.9980469 7.8374368,9.6316303 8.2828879,9.247921 8.8164063,8.9550781 9.3560776,8.6588587 9.9528509,8.4726563 10.585938,8.4726563 Z"
     style="display:inline;fill:#ffffff"
     id="path3" />
</svg>
