<?xml version="1.0" encoding="UTF-8" standalone="no"?>
<svg
   width="16"
   height="16"
   viewBox="0 0 16 16"
   fill="none"
   version="1.1"
   id="svg2"
   sodipodi:docname="ColumnClosed.svg"
   inkscape:version="1.3.2 (091e20e, 2023-11-25, custom)"
   xmlns:inkscape="http://www.inkscape.org/namespaces/inkscape"
   xmlns:sodipodi="http://sodipodi.sourceforge.net/DTD/sodipodi-0.dtd"
   xmlns="http://www.w3.org/2000/svg"
   xmlns:svg="http://www.w3.org/2000/svg">
  <defs
     id="defs2" />
  <sodipodi:namedview
     id="namedview2"
     pagecolor="#505050"
     bordercolor="#ffffff"
     borderopacity="1"
     inkscape:showpageshadow="0"
     inkscape:pageopacity="0"
     inkscape:pagecheckerboard="1"
     inkscape:deskcolor="#505050"
     showgrid="false"
     inkscape:zoom="45.254834"
     inkscape:cx="6.7064659"
     inkscape:cy="8.9603687"
     inkscape:window-width="1920"
     inkscape:window-height="1009"
     inkscape:window-x="-8"
     inkscape:window-y="-8"
     inkscape:window-maximized="1"
     inkscape:current-layer="svg2" />
  <rect
     style="display:inline;opacity:0.5;fill:#ffffff;fill-opacity:1;stroke:#ffffff;stroke-opacity:1"
     id="rect5"
     width="9.9878836"
     height="7.4246211"
     x="2.9389126"
     y="5.833631" />
  <path
     d="M8 4L6.33 2.33C6.12 2.12 5.83 2 5.54 2H1.12C0.5 2 0 2.5 0 3.12V4H8Z"
     fill="white"
     id="path1" />
  <path
     d="m 10.181641,10.257813 v 2.488281 c 0.240907,-0.03222 0.528317,-0.09777 0.751953,-0.21875 0.227673,-0.123128 0.339844,-0.271232 0.339844,-0.480469 v -1.091797 c 0,-0.209236 -0.112171,-0.357342 -0.339844,-0.480469 -0.223636,-0.120982 -0.511046,-0.184579 -0.751953,-0.216796 z"
     style="fill:#ffffff"
     id="path5" />
  <path
     d="m 5.8183594,10.257813 c -0.2409236,0.03222 -0.5283061,0.09582 -0.7519532,0.216796 -0.2276434,0.123127 -0.3398437,0.271233 -0.3398437,0.480469 v 1.091797 c 0,0.209237 0.1122003,0.357341 0.3398437,0.480469 0.2236471,0.120981 0.5110296,0.186532 0.7519532,0.21875 z"
     style="fill:#ffffff"
     id="path4" />
  <path
     d="m 0,5 v 7.880859 C 0,13.500859 0.49914124,14 1.1191406,14 H 14.880859 C 15.500859,14 16,13.500859 16,12.880859 V 6.1191406 C 16,5.4991412 15.500859,5 14.880859,5 Z m 8,0.5019531 c 0.9389085,0 1.641191,0.2735818 2.150391,0.7128906 0.503416,0.4343016 0.788674,1.0034609 0.949218,1.546875 0.160546,0.5433848 0.202097,1.0791548 0.205079,1.4746094 0.0015,0.1989458 -0.0069,0.3667021 -0.01563,0.484375 -0.0034,0.0456 -0.0068,0.082994 -0.0098,0.1132813 l 0.002,0.00195 C 11.648995,10.034883 12,10.385987 12,10.955078 v 1.091797 c 0,0.56909 -0.351005,0.922149 -0.71875,1.121094 -0.357637,0.193455 -0.775623,0.270796 -1.056641,0.304687 -0.4406171,0.05306 -0.7695309,-0.305982 -0.7695309,-0.699218 v -2.544922 c 0,-0.3932369 0.3289138,-0.7522731 0.7695309,-0.6992191 0.100362,0.01211 0.21746,0.029911 0.34375,0.056641 0.0053,-0.09267 0.0088,-0.2096771 0.0078,-0.34375 C 10.573472,8.8876429 10.535299,8.4253675 10.400391,7.96875 10.265483,7.5121663 10.039755,7.081323 9.6738281,6.765625 9.3137193,6.4549343 8.7883631,6.2285156 8,6.2285156 7.2116333,6.2285156 6.6862881,6.4549343 6.3261719,6.765625 5.9602449,7.081323 5.7345111,7.5121683 5.5996094,7.96875 5.4647004,8.4253675 5.4265155,8.8876419 5.4238281,9.2421875 c -0.00102,0.1340729 0.0025,0.2510591 0.00781,0.34375 0.1262872,-0.02673 0.2433683,-0.044531 0.34375,-0.056641 0.4406252,-0.05305 0.7695313,0.3059832 0.7695313,0.6992195 v 2.544922 c 0,0.393236 -0.3289061,0.752272 -0.7695313,0.699218 C 5.4943499,13.438767 5.0764078,13.361424 4.71875,13.167969 4.3510193,12.969024 4,12.615966 4,12.046875 V 10.955078 C 4,10.385988 4.3510193,10.034882 4.71875,9.8359375 L 4.7207,9.8339875 C 4.71765,9.8036975 4.71434,9.7663035 4.71093,9.7207062 4.7021475,9.6030302 4.6938025,9.4352739 4.6953125,9.2363281 4.6983025,8.8408735 4.7398449,8.3051035 4.9003906,7.7617187 5.0609474,7.2183046 5.3462171,6.6491453 5.8496094,6.2148437 6.3588092,5.7755349 7.0610988,5.5019531 8,5.5019531 Z"
     style="display:inline;fill:#ffffff"
     id="path3" />
</svg>
