<?xml version="1.0" encoding="UTF-8" standalone="no"?>
<svg
   width="16"
   height="16"
   viewBox="0 0 16 16"
   fill="none"
   version="1.1"
   id="svg2"
   sodipodi:docname="ColumnClosed.svg"
   inkscape:version="1.3.2 (091e20e, 2023-11-25, custom)"
   xmlns:inkscape="http://www.inkscape.org/namespaces/inkscape"
   xmlns:sodipodi="http://sodipodi.sourceforge.net/DTD/sodipodi-0.dtd"
   xmlns="http://www.w3.org/2000/svg"
   xmlns:svg="http://www.w3.org/2000/svg">
  <defs
     id="defs2" />
  <sodipodi:namedview
     id="namedview2"
     pagecolor="#505050"
     bordercolor="#ffffff"
     borderopacity="1"
     inkscape:showpageshadow="0"
     inkscape:pageopacity="0"
     inkscape:pagecheckerboard="1"
     inkscape:deskcolor="#505050"
     inkscape:zoom="35.929863"
     inkscape:cx="4.7592722"
     inkscape:cy="9.5602924"
     inkscape:window-width="1920"
     inkscape:window-height="1009"
     inkscape:window-x="-8"
     inkscape:window-y="-8"
     inkscape:window-maximized="1"
     inkscape:current-layer="svg2" />
  <rect
     style="opacity:0.5;fill:#ffffff;fill-opacity:1;stroke-opacity:0.4"
     id="rect4"
     width="8.7949123"
     height="7.2919841"
     x="3.5624962"
     y="6.3178644" />
  <path
     d="M8 4L6.33 2.33C6.12 2.12 5.83 2 5.54 2H1.12C0.5 2 0 2.5 0 3.12V4H8Z"
     fill="white"
     id="path1" />
  <path
     d="m 8.1777344,7.3027344 c -1.0232922,0 -1.8476563,0.8190182 -1.8476563,1.8222656 0,0.1719589 0.023451,0.3368942 0.068359,0.4941406 0.1850044,0.053395 0.3591451,0.1347651 0.515625,0.2382813 0.1285467,0.085023 0.1631592,0.2581611 0.078125,0.3867191 -0.085034,0.128557 -0.258172,0.163187 -0.3867188,0.07813 -0.1416966,-0.09373 -0.3032118,-0.159722 -0.4765625,-0.19336 -0.082534,-0.016 -0.1680677,-0.02539 -0.2558593,-0.02539 -0.7297147,0 -1.3144532,0.583759 -1.3144532,1.296875 0,0.713116 0.5847385,1.296875 1.3144532,1.296875 H 9.59375 c 1.023292,0 1.847656,-0.818993 1.847656,-1.822266 0,-0.79505 -0.517238,-1.472789 -1.242187,-1.7207031 -0.189246,-0.06471 -0.3929668,-0.1015625 -0.605469,-0.1015625 -0.2167814,0 -0.4227882,0.038239 -0.6152344,0.1054687 C 8.8329902,9.2090271 8.6738746,9.1318315 8.6230469,8.9863281 8.5722189,8.8408213 8.6474808,8.6816834 8.7929688,8.6308594 9.0438708,8.5432245 9.3135268,8.4960938 9.59375,8.4960938 c 0.1099535,0 0.2199768,0.0073 0.3261719,0.021484 C 9.6666389,7.8115902 8.9836872,7.3027344 8.1777344,7.3027344 Z"
     style="fill:#ffffff"
     id="path4" />
  <path
     d="m 0,5 v 7.880859 C 0,13.500859 0.49914124,14 1.1191406,14 H 14.880859 C 15.500859,14 16,13.500859 16,12.880859 V 6.1191406 C 16,5.4991412 15.500859,5 14.880859,5 Z m 8.1777344,1.7441406 c 1.1751058,0 2.1552816,0.8354238 2.3632816,1.9433594 C 11.396792,9.0507518 12,9.8913356 12,10.875 c 0,1.317729 -1.080968,2.380859 -2.40625,2.380859 H 5.8730469 C 4.841327,13.255859 4,12.428 4,11.400391 4,10.394179 4.808263,9.580289 5.8105469,9.546875 5.7856979,9.4096844 5.7714844,9.2690148 5.7714844,9.125 c 0,-1.3177066 1.0809526,-2.3808594 2.40625,-2.3808594 z"
     style="fill:#ffffff"
     id="path3" />
</svg>
