<?xml version="1.0" encoding="UTF-8" standalone="no"?>
<svg
   width="16"
   height="16"
   viewBox="0 0 16 16"
   fill="none"
   version="1.1"
   id="svg2"
   sodipodi:docname="ColumnOpen.svg"
   inkscape:version="1.3.2 (091e20e, 2023-11-25, custom)"
   xmlns:inkscape="http://www.inkscape.org/namespaces/inkscape"
   xmlns:sodipodi="http://sodipodi.sourceforge.net/DTD/sodipodi-0.dtd"
   xmlns="http://www.w3.org/2000/svg"
   xmlns:svg="http://www.w3.org/2000/svg">
  <defs
     id="defs2" />
  <sodipodi:namedview
     id="namedview2"
     pagecolor="#505050"
     bordercolor="#ffffff"
     borderopacity="1"
     inkscape:showpageshadow="0"
     inkscape:pageopacity="0"
     inkscape:pagecheckerboard="1"
     inkscape:deskcolor="#505050"
     inkscape:zoom="35.929863"
     inkscape:cx="6.1230403"
     inkscape:cy="6.6379323"
     inkscape:window-width="1920"
     inkscape:window-height="1009"
     inkscape:window-x="-8"
     inkscape:window-y="-8"
     inkscape:window-maximized="1"
     inkscape:current-layer="svg2" />
  <rect
     style="opacity:0.5;fill:#ffffff;fill-opacity:1;stroke-opacity:0.4"
     id="rect4"
     width="7.1528244"
     height="4.8149362"
     x="4.7314401"
     y="8.9340725" />
  <path
     d="M14 7V5C14 4.44772 13.5523 4 13 4H8L6.28 2.28C6.1 2.1 5.86 2 5.6 2H0.96C0.43 2 0 2.43 0 2.96V13L4 7H14Z"
     fill="white"
     id="path1" />
  <path
     d="M 4.8300781,8 0.50976562,14 H 12.310547 c 0.32,0 0.618828,-0.159688 0.798828,-0.429687 L 15.830078,9.5 C 16.260078,8.8600006 15.799296,8 15.029297,8 Z m 5.8476559,1.5292969 c 0.721209,0 0.894089,0.5114231 0.451172,1.1914061 0.338154,0.222941 0.274154,0.740037 -0.232422,1.34375 -0.678614,0.80874 -1.8897478,1.460938 -2.7031246,1.460938 H 5.9101562 c -0.6332062,0 -0.724518,-0.50799 -0.1953125,-1.138672 C 6.2330311,11.769166 7.1489043,11.2705 7.78125,11.25 7.8366509,11.165801 7.9004434,11.078624 7.9746094,10.990234 8.6532117,10.181507 9.8643492,9.5292969 10.677734,9.5292969 Z"
     style="fill:#ffffff"
     id="path4" />
  <path
     d="m 10.390625,9.8710938 c -0.6280338,0 -1.5556056,0.5034092 -2.0722656,1.1191402 -0.088557,0.105538 -0.1594721,0.20818 -0.2128906,0.304688 0.086044,0.03278 0.1506315,0.081 0.1933593,0.144531 0.035109,0.05217 -0.031995,0.15938 -0.1503906,0.238281 -0.1183942,0.0789 -0.2442085,0.101037 -0.2792969,0.04883 -0.038695,-0.05752 -0.1023375,-0.100448 -0.1914062,-0.121094 -0.042414,-0.0098 -0.090651,-0.01367 -0.1445313,-0.01367 -0.447854,0 -1.1073632,0.357255 -1.4746094,0.794922 -0.3672456,0.437666 -0.309182,0.796875 0.1386719,0.796875 h 2.2832032 c 0.6280339,0 1.5555932,-0.503393 2.0722652,-1.119141 0.409441,-0.487953 0.442256,-0.904487 0.125,-1.05664 -0.08283,-0.03971 -0.189892,-0.06055 -0.320312,-0.06055 -0.133048,0 -0.278908,0.02123 -0.4316407,0.0625 -0.1154869,0.03119 -0.1726437,-0.01617 -0.1289063,-0.105469 0.04374,-0.0893 0.1716405,-0.185604 0.287109,-0.216797 0.199122,-0.05378 0.390517,-0.08398 0.5625,-0.08398 0.06748,0 0.129638,0.005 0.1875,0.01367 0.208129,-0.433296 0.05128,-0.7460943 -0.443359,-0.7460942 z"
     style="fill:#ffffff"
     id="path3" />
</svg>
