<?xml version="1.0" encoding="UTF-8" standalone="no"?>
<svg
   width="16"
   height="16"
   viewBox="0 0 16 16"
   fill="none"
   version="1.1"
   id="svg2"
   sodipodi:docname="ColumnClosed.svg"
   inkscape:version="1.3.2 (091e20e, 2023-11-25, custom)"
   xmlns:inkscape="http://www.inkscape.org/namespaces/inkscape"
   xmlns:sodipodi="http://sodipodi.sourceforge.net/DTD/sodipodi-0.dtd"
   xmlns="http://www.w3.org/2000/svg"
   xmlns:svg="http://www.w3.org/2000/svg">
  <defs
     id="defs2" />
  <sodipodi:namedview
     id="namedview2"
     pagecolor="#505050"
     bordercolor="#ffffff"
     borderopacity="1"
     inkscape:showpageshadow="0"
     inkscape:pageopacity="0"
     inkscape:pagecheckerboard="1"
     inkscape:deskcolor="#505050"
     inkscape:zoom="22.627417"
     inkscape:cx="8.6620581"
     inkscape:cy="7.2257474"
     inkscape:window-width="1920"
     inkscape:window-height="1009"
     inkscape:window-x="-8"
     inkscape:window-y="-8"
     inkscape:window-maximized="1"
     inkscape:current-layer="svg2" />
  <rect
     style="opacity:0.5;fill:#ffffff;fill-opacity:1;stroke-width:1.0062;stroke-opacity:0.4"
     id="rect4"
     width="5.8253384"
     height="8.00984"
     x="5.1365314"
     y="5.8843789" />
  <path
     d="M8 4L6.33 2.33C6.12 2.12 5.83 2 5.54 2H1.12C0.5 2 0 2.5 0 3.12V4H8Z"
     fill="white"
     id="path1" />
  <path
     d="m 8,6.9042969 c -0.4367466,0 -0.7832031,0.3464564 -0.7832031,0.7832031 v 1.6425781 c 0,0.4367464 0.3464565,0.7832029 0.7832031,0.7832029 0.4367464,0 0.7832031,-0.3464565 0.7832031,-0.7832029 V 7.6875 C 8.7832031,7.2507534 8.4367464,6.9042969 8,6.9042969 Z"
     style="fill:#ffffff"
     id="path4" />
  <path
     d="m 0,5 v 7.880859 C 0,13.500859 0.49914124,14 1.1191406,14 H 14.880859 C 15.500859,14 16,13.500859 16,12.880859 V 6.1191406 C 16,5.4991412 15.500859,5 14.880859,5 Z m 8,1.2734375 c 0.7831317,0 1.4160156,0.6309308 1.4160156,1.4140625 V 9.3300781 C 9.4160156,10.11321 8.7831317,10.746094 8,10.746094 c -0.7831319,0 -1.4160156,-0.632884 -1.4160156,-1.4160159 V 7.6875 C 6.5839844,6.9043683 7.2168681,6.2734375 8,6.2734375 Z M 5.8164062,9.0136719 c 0.1807228,0 0.3164063,0.1356833 0.3164063,0.3164062 0,1.0240959 0.8430921,1.8671879 1.8671875,1.8671879 1.0240954,0 1.8671875,-0.843092 1.8671875,-1.8671879 0,-0.1807229 0.1356835,-0.3164062 0.3164065,-0.3164062 0.180723,0 0.316406,0.1356833 0.316406,0.3164062 0,1.2650579 -0.9642804,2.3181469 -2.1992187,2.4687499 v 1.296875 h 0.9785156 c 0.1807228,0 0.3164062,0.135684 0.3164062,0.316406 0,0.180724 -0.1356834,0.314454 -0.3164062,0.314454 H 6.7050781 c -0.1807226,-1e-6 -0.3164062,-0.13373 -0.3164062,-0.314454 0,-0.180722 0.1356836,-0.316406 0.3164062,-0.316406 H 7.6835937 V 11.798828 C 6.4486554,11.648225 5.5,10.595136 5.5,9.3300781 5.5,9.1644155 5.6356835,9.0136719 5.8164062,9.0136719 Z"
     style="fill:#ffffff"
     id="path3" />
</svg>
