<?xml version="1.0" encoding="UTF-8" standalone="no"?>
<svg
   width="16"
   height="16"
   viewBox="0 0 16 16"
   fill="none"
   version="1.1"
   id="svg2"
   sodipodi:docname="ColumnOpen.svg"
   inkscape:version="1.3.2 (091e20e, 2023-11-25, custom)"
   xmlns:inkscape="http://www.inkscape.org/namespaces/inkscape"
   xmlns:sodipodi="http://sodipodi.sourceforge.net/DTD/sodipodi-0.dtd"
   xmlns="http://www.w3.org/2000/svg"
   xmlns:svg="http://www.w3.org/2000/svg">
  <defs
     id="defs2" />
  <sodipodi:namedview
     id="namedview2"
     pagecolor="#505050"
     bordercolor="#ffffff"
     borderopacity="1"
     inkscape:showpageshadow="0"
     inkscape:pageopacity="0"
     inkscape:pagecheckerboard="1"
     inkscape:deskcolor="#505050"
     inkscape:zoom="50.8125"
     inkscape:cx="7.9901599"
     inkscape:cy="8"
     inkscape:window-width="1920"
     inkscape:window-height="1009"
     inkscape:window-x="-8"
     inkscape:window-y="-8"
     inkscape:window-maximized="1"
     inkscape:current-layer="svg2" />
  <rect
     style="opacity:0.5;fill:#ffffff;fill-opacity:1;stroke-width:0.987855;stroke-opacity:0.4"
     id="rect4"
     width="6.3173432"
     height="4.8413286"
     x="5.293973"
     y="9.0528908" />
  <path
     d="M14 7V5C14 4.44772 13.5523 4 13 4H8L6.28 2.28C6.1 2.1 5.86 2 5.6 2H0.96C0.43 2 0 2.43 0 2.96V13L4 7H14Z"
     fill="white"
     id="path1" />
  <path
     d="m 10.515625,9.6835938 c -0.261115,0 -0.640274,0.2076356 -0.859375,0.4687502 l -0.8242187,0.980469 c -0.2191004,0.261114 -0.1868956,0.46875 0.074219,0.46875 0.2611143,0 0.6422272,-0.207636 0.8613281,-0.46875 l 0.8242189,-0.980469 c 0.219106,-0.2611146 0.184942,-0.4687502 -0.07617,-0.4687502 z"
     style="fill:#ffffff"
     id="path4" />
  <path
     d="M 4.8300781,8 0.50976562,14 H 12.310547 c 0.32,0 0.618828,-0.159688 0.798828,-0.429687 L 15.830078,9.5 C 16.260078,8.8600006 15.799296,8 15.029297,8 Z m 6.0039059,1.3066406 c 0.468205,0 0.52959,0.3774981 0.136719,0.8457034 l -0.824219,0.980469 c -0.3928698,0.468205 -1.0884352,0.847656 -1.5566402,0.847656 -0.468205,0 -0.5295894,-0.379451 -0.1367188,-0.847656 L 9.2773438,10.152344 C 9.6702144,9.6841387 10.36578,9.3066406 10.833984,9.3066406 Z M 8.1523438,10.945313 c 0.1080468,0 0.1219129,0.07945 0.03125,0.1875 C 7.6698399,11.745081 7.7510132,12.25 8.3632813,12.25 c 0.612268,0 1.538981,-0.504919 2.0527347,-1.117187 0.09066,-0.108043 0.239608,-0.1875 0.347656,-0.1875 0.10804,0 0.12191,0.07945 0.03125,0.1875 -0.634637,0.756331 -1.7408123,1.388475 -2.5546876,1.478515 l -0.6484375,0.773438 h 0.5839844 c 0.1080468,0 0.1219129,0.08141 0.03125,0.189453 -0.090662,0.108043 -0.2396089,0.189453 -0.3476563,0.189453 H 6.3203125 c -0.1080469,0 -0.1219119,-0.08141 -0.03125,-0.189453 0.090662,-0.108053 0.2396089,-0.189453 0.3476562,-0.189453 h 0.5859375 l 0.6484375,-0.773438 c -0.662771,-0.09004 -0.7010434,-0.722184 -0.066406,-1.478515 0.083107,-0.09904 0.239609,-0.1875 0.3476563,-0.1875 z"
     style="fill:#ffffff"
     id="path3" />
</svg>
