<?xml version="1.0" encoding="UTF-8" standalone="no"?>
<svg
   width="16"
   height="16"
   viewBox="0 0 16 16"
   fill="none"
   version="1.1"
   id="svg2"
   sodipodi:docname="ColumnOpen.svg"
   inkscape:version="1.3.2 (091e20e, 2023-11-25, custom)"
   xmlns:inkscape="http://www.inkscape.org/namespaces/inkscape"
   xmlns:sodipodi="http://sodipodi.sourceforge.net/DTD/sodipodi-0.dtd"
   xmlns="http://www.w3.org/2000/svg"
   xmlns:svg="http://www.w3.org/2000/svg">
  <defs
     id="defs2" />
  <sodipodi:namedview
     id="namedview2"
     pagecolor="#505050"
     bordercolor="#ffffff"
     borderopacity="1"
     inkscape:showpageshadow="0"
     inkscape:pageopacity="0"
     inkscape:pagecheckerboard="1"
     inkscape:deskcolor="#505050"
     inkscape:zoom="50.8125"
     inkscape:cx="5.9827798"
     inkscape:cy="9.3579336"
     inkscape:window-width="1920"
     inkscape:window-height="1009"
     inkscape:window-x="-8"
     inkscape:window-y="-8"
     inkscape:window-maximized="1"
     inkscape:current-layer="svg2" />
  <rect
     style="opacity:0.5;fill:#ffffff;fill-opacity:1;stroke-width:0.91386;stroke-opacity:0.4"
     id="rect5"
     width="6.4551044"
     height="4.9397292"
     x="5.5104551"
     y="8.9544907" />
  <path
     d="M14 7V5C14 4.44772 13.5523 4 13 4H8L6.28 2.28C6.1 2.1 5.86 2 5.6 2H0.96C0.43 2 0 2.43 0 2.96V13L4 7H14Z"
     fill="white"
     id="path1" />
  <path
     d="M 9.3515625,10.734375 A 0.49335819,1.1159772 56.380238 1 0 9.4707031,11.476563 0.4940446,1.1175298 56.380238 0 0 9.3515625,10.734375 Z"
     style="fill:#ffffff"
     id="path5" />
  <path
     d="m 10.447266,9.4296875 a 0.01389983,0.03144144 56.380238 0 0 -0.02734,0.00977 L 9.5058594,10.085938 A 0.1865323,0.42193641 56.380238 0 1 9.0820313,10.216797 L 8.5214844,10.023438 a 0.01492945,0.03377044 56.380238 0 0 -0.050781,0.02734 L 8.0625,10.769531 a 0.1868755,0.42271274 56.380238 0 1 -0.3945313,0.314453 l -0.9589843,0.373047 a 0.01407143,0.03182961 56.380238 0 0 -0.027344,0.01953 0.01389983,0.03144144 56.380238 0 0 -0.00586,0.01953 l 0.3339844,0.371094 A 0.1865323,0.42193641 56.380238 0 1 6.875,12.183594 L 6.0761719,12.90625 a 0.01372823,0.03105328 56.380238 0 0 -0.011719,0.02148 0.01492945,0.03377044 56.380238 0 0 0.017578,0.0059 l 0.8789063,-0.19336 a 0.18481627,0.41805475 56.380238 0 1 0.080078,-0.0098 0.18721871,0.42348907 56.380238 0 1 0.1269531,0.138672 L 7,13.515625 a 0.01407143,0.03182961 56.380238 0 0 0.00977,0.0098 0.01389983,0.03144144 56.380238 0 0 0.029297,-0.0098 l 0.9121094,-0.646484 a 0.18584589,0.42038374 56.380238 0 1 0.4257812,-0.13086 L 8.9375,12.931641 a 0.01492945,0.03377044 56.380238 0 0 0.050781,-0.02734 l 0.4101562,-0.71875 A 0.1868755,0.42271274 56.380238 0 1 9.7910156,11.869141 L 10.75,11.496094 a 0.01475785,0.03338227 56.380238 0 0 0.0332,-0.03906 l -0.333984,-0.371093 a 0.18636069,0.42154824 56.380238 0 1 0.134765,-0.314454 l 0.798829,-0.722656 a 0.01372823,0.03105328 56.380238 0 0 0.01172,-0.02148 0.01475785,0.03338227 56.380238 0 0 -0.01758,-0.0059 l -0.878906,0.191407 a 0.1867039,0.42232457 56.380238 0 1 -0.207031,-0.128907 l 0.166015,-0.6445309 a 0.01407143,0.03182961 56.380238 0 0 -0.0098,-0.00977 z M 9.6621094,10.482422 a 0.66496104,1.5041431 56.380238 0 1 0.066406,0.994141 0.66581905,1.506084 56.380238 0 1 -1.8378906,1 0.66496104,1.5041431 56.380238 1 1 1.7714844,-1.994141 z"
     style="fill:#ffffff"
     id="path4" />
  <path
     d="M 4.8300781,8 0.50976562,14 H 12.310547 c 0.32,0 0.618828,-0.159688 0.798828,-0.429687 L 15.830078,9.5 C 16.260078,8.8600006 15.799296,8 15.029297,8 Z m 5.8339849,1.1699219 a 0.18430146,0.41689025 56.380238 0 1 0.125,0.140625 l -0.166016,0.6445312 a 0.01441464,0.03260594 56.380238 0 0 0.01758,0.00977 l 0.878906,-0.1914063 a 0.1865323,0.42193641 56.380238 0 1 0.05469,0.3437505 l -0.798828,0.722656 a 0.01492945,0.03377044 56.380238 0 0 -0.01172,0.02539 l 0.333984,0.371094 a 0.18636069,0.42154824 56.380238 0 1 -0.408203,0.486328 L 9.734375,12.09375 a 0.01527265,0.03454677 56.380238 0 0 -0.03125,0.02539 l -0.4101562,0.71875 a 0.1865323,0.42193641 56.380238 0 1 -0.6328125,0.34375 l -0.5605469,-0.19336 a 0.01527265,0.03454677 56.380238 0 0 -0.035156,0.0098 l -0.9121094,0.644531 a 0.18464467,0.41766658 56.380238 0 1 -0.359375,0.140625 0.18430146,0.41689025 56.380238 0 1 -0.125,-0.138672 L 6.8339844,13 a 0.01441464,0.03260594 56.380238 0 0 -0.015625,-0.0098 l -0.8789063,0.191407 a 0.1865323,0.42193641 56.380238 0 1 -0.054687,-0.34375 l 0.7988281,-0.722657 a 0.01510105,0.03415861 56.380238 0 0 0.011719,-0.02539 L 6.3613281,11.71875 a 0.18636069,0.42154824 56.380238 0 1 0.40625,-0.486328 l 0.9570313,-0.371094 a 0.01492945,0.03377044 56.380238 0 0 0.03125,-0.02734 L 8.1679688,10.117188 A 0.1865323,0.42193641 56.380238 0 1 8.7988281,9.7734375 L 9.359375,9.9667969 a 0.01561586,0.0353231 56.380238 0 0 0.033203,-0.00977 L 10.306641,9.3105469 a 0.18464467,0.41766658 56.380238 0 1 0.357422,-0.140625 z"
     style="fill:#ffffff"
     id="path3" />
</svg>
