<?xml version="1.0" encoding="UTF-8" standalone="no"?>
<svg
   width="16"
   height="16"
   viewBox="0 0 16 16"
   fill="none"
   version="1.1"
   id="svg2"
   sodipodi:docname="ColumnClosed.svg"
   inkscape:version="1.3.2 (091e20e, 2023-11-25, custom)"
   xmlns:inkscape="http://www.inkscape.org/namespaces/inkscape"
   xmlns:sodipodi="http://sodipodi.sourceforge.net/DTD/sodipodi-0.dtd"
   xmlns="http://www.w3.org/2000/svg"
   xmlns:svg="http://www.w3.org/2000/svg">
  <defs
     id="defs2" />
  <sodipodi:namedview
     id="namedview2"
     pagecolor="#505050"
     bordercolor="#ffffff"
     borderopacity="1"
     inkscape:showpageshadow="0"
     inkscape:pageopacity="0"
     inkscape:pagecheckerboard="1"
     inkscape:deskcolor="#505050"
     inkscape:zoom="35.929863"
     inkscape:cx="7.7094643"
     inkscape:cy="6.8049243"
     inkscape:window-width="1920"
     inkscape:window-height="1009"
     inkscape:window-x="-8"
     inkscape:window-y="-8"
     inkscape:window-maximized="1"
     inkscape:current-layer="svg2" />
  <rect
     style="opacity:0.5;fill:#ffffff;fill-opacity:1;stroke-opacity:0.4"
     id="rect5"
     width="7.7651281"
     height="7.3754802"
     x="4.1469684"
     y="6.3178644" />
  <path
     d="M8 4L6.33 2.33C6.12 2.12 5.83 2 5.54 2H1.12C0.5 2 0 2.5 0 3.12V4H8Z"
     fill="white"
     id="path1" />
  <path
     d="M 8,8.8730469 A 1.1260639,1.1260639 0 1 0 9.1269531,10 1.1276306,1.1276306 0 0 0 8,8.8730469 Z"
     style="fill:#ffffff"
     id="path5" />
  <path
     d="m 8,6.890625 a 0.03172563,0.03172563 0 0 0 -0.029297,0.017578 L 7.40625,7.8867187 A 0.42575007,0.42575007 0 0 1 6.9277344,8.0859375 L 5.8320312,7.7929687 a 0.03407567,0.03407567 0 0 0 -0.041016,0.041016 L 6.0839844,8.9238281 A 0.42653342,0.42653342 0 0 1 5.8886719,9.4023438 L 4.9101562,9.9707031 A 0.0321173,0.0321173 0 0 0 4.890625,10 a 0.03172563,0.03172563 0 0 0 0.017578,0.0293 l 0.9785156,0.564453 a 0.42575007,0.42575007 0 0 1 0.1992188,0.476563 l -0.2929688,1.097656 a 0.03133395,0.03133395 0 0 0 0.00977,0.0332 0.03407567,0.03407567 0 0 0 0.033203,0.0078 l 1.0898437,-0.292968 a 0.42183333,0.42183333 0 0 1 0.1074219,-0.01563 0.42731677,0.42731677 0 0 1 0.3691406,0.21289 l 0.5683594,0.978516 A 0.0321173,0.0321173 0 0 0 8,13.109375 a 0.03172563,0.03172563 0 0 0 0.029297,-0.01758 l 0.5625,-0.978516 a 0.42418338,0.42418338 0 0 1 0.4785156,-0.199218 l 1.0976565,0.292968 a 0.03407567,0.03407567 0 0 0 0.04101,-0.04101 L 9.9160156,11.074219 a 0.42653342,0.42653342 0 0 1 0.1953124,-0.478516 l 0.980469,-0.566406 a 0.033684,0.033684 0 0 0 0,-0.058594 L 10.111328,9.40625 A 0.4253584,0.4253584 0 0 1 9.9140625,8.9277344 L 10.207031,7.8320312 a 0.03133395,0.03133395 0 0 0 -0.0098,-0.033203 0.033684,0.033684 0 0 0 -0.0332,-0.00977 L 9.0742188,8.0820313 A 0.42614175,0.42614175 0 0 1 8.5957031,7.8867187 L 8.0273438,6.9082031 A 0.0321173,0.0321173 0 0 0 8,6.890625 Z M 8,8.4824219 A 1.5177383,1.5177383 0 0 1 9.5175781,10 1.5196967,1.5196967 0 0 1 8,11.517578 1.5177383,1.5177383 0 0 1 8,8.4824219 Z"
     style="fill:#ffffff"
     id="path4" />
  <path
     d="m 0,5 v 7.880859 C 0,13.500859 0.49914124,14 1.1191406,14 H 14.880859 C 15.500859,14 16,13.500859 16,12.880859 V 6.1191406 C 16,5.4991412 15.500859,5 14.880859,5 Z m 8,1.5 a 0.42065831,0.42065831 0 0 1 0.3691406,0.2109375 l 0.5664063,0.9785156 a 0.03290065,0.03290065 0 0 0 0.039063,0.015625 L 10.064453,7.4140625 a 0.42575007,0.42575007 0 0 1 0.521485,0.5214844 L 10.292969,9.03125 a 0.03407567,0.03407567 0 0 0 0.01563,0.039063 l 0.978515,0.5644531 a 0.4253584,0.4253584 0 0 1 0,0.7363284 l -0.976562,0.564453 a 0.03485902,0.03485902 0 0 0 -0.01563,0.03906 l 0.292969,1.091797 a 0.42575007,0.42575007 0 0 1 -0.523438,0.519532 L 8.96875,12.292969 a 0.03485902,0.03485902 0 0 0 -0.039063,0.01563 L 8.3652344,13.287109 A 0.42144165,0.42144165 0 0 1 8,13.5 a 0.42065831,0.42065831 0 0 1 -0.00195,0 0.42065831,0.42065831 0 0 1 -0.3671875,-0.210937 L 7.0644531,12.310547 a 0.03290065,0.03290065 0 0 0 -0.039063,-0.01563 L 5.9355469,12.585938 A 0.42575007,0.42575007 0 0 1 5.4140625,12.064453 L 5.7070312,10.96875 a 0.03446735,0.03446735 0 0 0 -0.015625,-0.03906 L 4.7128906,10.365234 a 0.4253584,0.4253584 0 0 1 0,-0.7363277 L 5.6894531,9.0644531 a 0.03407567,0.03407567 0 0 0 0.015625,-0.039063 L 5.4140625,7.9355469 A 0.42575007,0.42575007 0 0 1 5.9355469,7.4140625 L 7.03125,7.7070312 a 0.03564237,0.03564237 0 0 0 0.039063,-0.015625 L 7.6347656,6.7128906 A 0.42144165,0.42144165 0 0 1 8,6.5 Z"
     style="fill:#ffffff"
     id="path3" />
</svg>
